<?xml version="1.0" encoding="UTF-8" standalone="no"?>
<!DOCTYPE svg PUBLIC "-//W3C//DTD SVG 1.1//EN"
 "http://www.w3.org/Graphics/SVG/1.1/DTD/svg11.dtd">
<!-- Generated by graphviz version 2.43.0 (0)
 -->
<!-- Title: snakemake_dag Pages: 1 -->
<svg width="2333pt" height="836pt"
 viewBox="0.00 0.00 2332.50 836.00" xmlns="http://www.w3.org/2000/svg" xmlns:xlink="http://www.w3.org/1999/xlink">
<g id="graph0" class="graph" transform="scale(1 1) rotate(0) translate(4 832)">
<title>snakemake_dag</title>
<polygon fill="white" stroke="transparent" points="-4,4 -4,-832 2328.5,-832 2328.5,4 -4,4"/>
<!-- 0 -->
<g id="node1" class="node">
<title>0</title>
<path fill="none" stroke="#d8a456" stroke-width="2" d="M1229.5,-36C1229.5,-36 1199.5,-36 1199.5,-36 1193.5,-36 1187.5,-30 1187.5,-24 1187.5,-24 1187.5,-12 1187.5,-12 1187.5,-6 1193.5,0 1199.5,0 1199.5,0 1229.5,0 1229.5,0 1235.5,0 1241.5,-6 1241.5,-12 1241.5,-12 1241.5,-24 1241.5,-24 1241.5,-30 1235.5,-36 1229.5,-36"/>
<text text-anchor="middle" x="1214.5" y="-15.5" font-family="sans" font-size="10.00">all</text>
</g>
<!-- 1 -->
<g id="node2" class="node">
<title>1</title>
<path fill="none" stroke="#56c1d8" stroke-width="2" d="M658,-180C658,-180 595,-180 595,-180 589,-180 583,-174 583,-168 583,-168 583,-156 583,-156 583,-150 589,-144 595,-144 595,-144 658,-144 658,-144 664,-144 670,-150 670,-156 670,-156 670,-168 670,-168 670,-174 664,-180 658,-180"/>
<text text-anchor="middle" x="626.5" y="-159.5" font-family="sans" font-size="10.00">_copy_multiqc</text>
</g>
<!-- 1&#45;&gt;0 -->
<g id="edge9" class="edge">
<title>1&#45;&gt;0</title>
<path fill="none" stroke="grey" stroke-width="2" d="M660.36,-143.94C702.12,-123.63 775.78,-90.19 842.5,-72 962.28,-39.34 1109.57,-25.95 1177.26,-21.23"/>
<polygon fill="grey" stroke="grey" stroke-width="2" points="1177.68,-24.71 1187.42,-20.54 1177.21,-17.72 1177.68,-24.71"/>
</g>
<!-- 2 -->
<g id="node3" class="node">
<title>2</title>
<path fill="none" stroke="#bed856" stroke-width="2" d="M553.5,-396C553.5,-396 507.5,-396 507.5,-396 501.5,-396 495.5,-390 495.5,-384 495.5,-384 495.5,-372 495.5,-372 495.5,-366 501.5,-360 507.5,-360 507.5,-360 553.5,-360 553.5,-360 559.5,-360 565.5,-366 565.5,-372 565.5,-372 565.5,-384 565.5,-384 565.5,-390 559.5,-396 553.5,-396"/>
<text text-anchor="middle" x="530.5" y="-375.5" font-family="sans" font-size="10.00">qc_multiqc</text>
</g>
<!-- 2&#45;&gt;1 -->
<g id="edge11" class="edge">
<title>2&#45;&gt;1</title>
<path fill="none" stroke="grey" stroke-width="2" d="M538.19,-359.85C554.91,-322.6 594.62,-234.07 614.59,-189.54"/>
<polygon fill="grey" stroke="grey" stroke-width="2" points="617.87,-190.79 618.77,-180.23 611.48,-187.92 617.87,-190.79"/>
</g>
<!-- 3 -->
<g id="node4" class="node">
<title>3</title>
<path fill="none" stroke="#d86e56" stroke-width="2" d="M792,-468C792,-468 631,-468 631,-468 625,-468 619,-462 619,-456 619,-456 619,-444 619,-444 619,-438 625,-432 631,-432 631,-432 792,-432 792,-432 798,-432 804,-438 804,-444 804,-444 804,-456 804,-456 804,-462 798,-468 792,-468"/>
<text text-anchor="middle" x="711.5" y="-447.5" font-family="sans" font-size="10.00">qc_picard_collect_gc_bias_metrics</text>
</g>
<!-- 3&#45;&gt;2 -->
<g id="edge13" class="edge">
<title>3&#45;&gt;2</title>
<path fill="none" stroke="grey" stroke-width="2" d="M667.22,-431.88C639.23,-421.05 603.17,-407.11 575.12,-396.25"/>
<polygon fill="grey" stroke="grey" stroke-width="2" points="576.14,-392.9 565.55,-392.56 573.62,-399.43 576.14,-392.9"/>
</g>
<!-- 4 -->
<g id="node5" class="node">
<title>4</title>
<path fill="none" stroke="#56d863" stroke-width="2" d="M1149.5,-612C1149.5,-612 1033.5,-612 1033.5,-612 1027.5,-612 1021.5,-606 1021.5,-600 1021.5,-600 1021.5,-588 1021.5,-588 1021.5,-582 1027.5,-576 1033.5,-576 1033.5,-576 1149.5,-576 1149.5,-576 1155.5,-576 1161.5,-582 1161.5,-588 1161.5,-588 1161.5,-600 1161.5,-600 1161.5,-606 1155.5,-612 1149.5,-612"/>
<text text-anchor="middle" x="1091.5" y="-591.5" font-family="sans" font-size="10.00">alignment_samtools_sort</text>
</g>
<!-- 4&#45;&gt;3 -->
<g id="edge23" class="edge">
<title>4&#45;&gt;3</title>
<path fill="none" stroke="grey" stroke-width="2" d="M1021.45,-586.1C975.25,-579.31 914.62,-565.97 866.5,-540 846.03,-528.95 847.81,-516.98 828.5,-504 809.81,-491.43 787.65,-480.53 767.68,-471.94"/>
<polygon fill="grey" stroke="grey" stroke-width="2" points="768.95,-468.68 758.37,-468.03 766.24,-475.13 768.95,-468.68"/>
</g>
<!-- 7 -->
<g id="node8" class="node">
<title>7</title>
<path fill="none" stroke="#56b1d8" stroke-width="2" d="M1803.5,-468C1803.5,-468 1639.5,-468 1639.5,-468 1633.5,-468 1627.5,-462 1627.5,-456 1627.5,-456 1627.5,-444 1627.5,-444 1627.5,-438 1633.5,-432 1639.5,-432 1639.5,-432 1803.5,-432 1803.5,-432 1809.5,-432 1815.5,-438 1815.5,-444 1815.5,-444 1815.5,-456 1815.5,-456 1815.5,-462 1809.5,-468 1803.5,-468"/>
<text text-anchor="middle" x="1721.5" y="-447.5" font-family="sans" font-size="10.00">alignment_samtools_extract_reads</text>
</g>
<!-- 4&#45;&gt;7 -->
<g id="edge28" class="edge">
<title>4&#45;&gt;7</title>
<path fill="none" stroke="grey" stroke-width="2" d="M1161.82,-592.53C1252.75,-590.19 1415.16,-580.1 1547.5,-540 1598.62,-524.51 1652.67,-494.41 1686.71,-473.53"/>
<polygon fill="grey" stroke="grey" stroke-width="2" points="1688.7,-476.42 1695.34,-468.17 1685,-470.47 1688.7,-476.42"/>
</g>
<!-- 11 -->
<g id="node12" class="node">
<title>11</title>
<path fill="none" stroke="#56a2d8" stroke-width="2" d="M1504,-540C1504,-540 1379,-540 1379,-540 1373,-540 1367,-534 1367,-528 1367,-528 1367,-516 1367,-516 1367,-510 1373,-504 1379,-504 1379,-504 1504,-504 1504,-504 1510,-504 1516,-510 1516,-516 1516,-516 1516,-528 1516,-528 1516,-534 1510,-540 1504,-540"/>
<text text-anchor="middle" x="1441.5" y="-519.5" font-family="sans" font-size="10.00">alignment_samtools_index</text>
</g>
<!-- 4&#45;&gt;11 -->
<g id="edge32" class="edge">
<title>4&#45;&gt;11</title>
<path fill="none" stroke="grey" stroke-width="2" d="M1161.91,-578.92C1218.14,-567.67 1297.13,-551.87 1356.82,-539.94"/>
<polygon fill="grey" stroke="grey" stroke-width="2" points="1357.86,-543.3 1366.97,-537.91 1356.48,-536.43 1357.86,-543.3"/>
</g>
<!-- 12 -->
<g id="node13" class="node">
<title>12</title>
<path fill="none" stroke="#80d856" stroke-width="2" d="M1211,-468C1211,-468 1130,-468 1130,-468 1124,-468 1118,-462 1118,-456 1118,-456 1118,-444 1118,-444 1118,-438 1124,-432 1130,-432 1130,-432 1211,-432 1211,-432 1217,-432 1223,-438 1223,-444 1223,-444 1223,-456 1223,-456 1223,-462 1217,-468 1211,-468"/>
<text text-anchor="middle" x="1170.5" y="-447.5" font-family="sans" font-size="10.00">qc_mosdepth_bed</text>
</g>
<!-- 4&#45;&gt;12 -->
<g id="edge33" class="edge">
<title>4&#45;&gt;12</title>
<path fill="none" stroke="grey" stroke-width="2" d="M1112.47,-575.99C1123.09,-566.41 1135.41,-553.64 1143.5,-540 1154.86,-520.84 1161.82,-496.49 1165.82,-478.11"/>
<polygon fill="grey" stroke="grey" stroke-width="2" points="1169.3,-478.55 1167.84,-468.06 1162.44,-477.17 1169.3,-478.55"/>
</g>
<!-- 13 -->
<g id="node14" class="node">
<title>13</title>
<path fill="none" stroke="#56b1d8" stroke-width="2" d="M1051.5,-540C1051.5,-540 887.5,-540 887.5,-540 881.5,-540 875.5,-534 875.5,-528 875.5,-528 875.5,-516 875.5,-516 875.5,-510 881.5,-504 887.5,-504 887.5,-504 1051.5,-504 1051.5,-504 1057.5,-504 1063.5,-510 1063.5,-516 1063.5,-516 1063.5,-528 1063.5,-528 1063.5,-534 1057.5,-540 1051.5,-540"/>
<text text-anchor="middle" x="969.5" y="-519.5" font-family="sans" font-size="10.00">qc_picard_collect_multiple_metrics</text>
</g>
<!-- 4&#45;&gt;13 -->
<g id="edge35" class="edge">
<title>4&#45;&gt;13</title>
<path fill="none" stroke="grey" stroke-width="2" d="M1061.66,-575.88C1045.56,-566.64 1025.5,-555.13 1008.21,-545.21"/>
<polygon fill="grey" stroke="grey" stroke-width="2" points="1009.87,-542.13 999.46,-540.19 1006.39,-548.2 1009.87,-542.13"/>
</g>
<!-- 14 -->
<g id="node15" class="node">
<title>14</title>
<path fill="none" stroke="#567bd8" stroke-width="2" d="M1087.5,-468C1087.5,-468 909.5,-468 909.5,-468 903.5,-468 897.5,-462 897.5,-456 897.5,-456 897.5,-444 897.5,-444 897.5,-438 903.5,-432 909.5,-432 909.5,-432 1087.5,-432 1087.5,-432 1093.5,-432 1099.5,-438 1099.5,-444 1099.5,-444 1099.5,-456 1099.5,-456 1099.5,-462 1093.5,-468 1087.5,-468"/>
<text text-anchor="middle" x="998.5" y="-447.5" font-family="sans" font-size="10.00">qc_picard_collect_duplication_metrics</text>
</g>
<!-- 4&#45;&gt;14 -->
<g id="edge36" class="edge">
<title>4&#45;&gt;14</title>
<path fill="none" stroke="grey" stroke-width="2" d="M1100.55,-575.91C1109.24,-556.93 1119.19,-526.06 1105.5,-504 1097.12,-490.49 1084.15,-480.32 1070.1,-472.7"/>
<polygon fill="grey" stroke="grey" stroke-width="2" points="1071.26,-469.37 1060.75,-468.05 1068.15,-475.63 1071.26,-469.37"/>
</g>
<!-- 16 -->
<g id="node17" class="node">
<title>16</title>
<path fill="none" stroke="#d87d56" stroke-width="2" d="M144,-540C144,-540 61,-540 61,-540 55,-540 49,-534 49,-528 49,-528 49,-516 49,-516 49,-510 55,-504 61,-504 61,-504 144,-504 144,-504 150,-504 156,-510 156,-516 156,-516 156,-528 156,-528 156,-534 150,-540 144,-540"/>
<text text-anchor="middle" x="102.5" y="-519.5" font-family="sans" font-size="10.00">qc_samtools_stats</text>
</g>
<!-- 4&#45;&gt;16 -->
<g id="edge37" class="edge">
<title>4&#45;&gt;16</title>
<path fill="none" stroke="grey" stroke-width="2" d="M1021.47,-590.86C838.6,-585 348.85,-567.32 166.32,-539.87"/>
<polygon fill="grey" stroke="grey" stroke-width="2" points="166.72,-536.39 156.3,-538.3 165.64,-543.3 166.72,-536.39"/>
</g>
<!-- 17 -->
<g id="node18" class="node">
<title>17</title>
<path fill="none" stroke="#56d88a" stroke-width="2" d="M362.5,-540C362.5,-540 186.5,-540 186.5,-540 180.5,-540 174.5,-534 174.5,-528 174.5,-528 174.5,-516 174.5,-516 174.5,-510 180.5,-504 186.5,-504 186.5,-504 362.5,-504 362.5,-504 368.5,-504 374.5,-510 374.5,-516 374.5,-516 374.5,-528 374.5,-528 374.5,-534 368.5,-540 362.5,-540"/>
<text text-anchor="middle" x="274.5" y="-519.5" font-family="sans" font-size="10.00">qc_picard_collect_insert_size_metrics</text>
</g>
<!-- 4&#45;&gt;17 -->
<g id="edge38" class="edge">
<title>4&#45;&gt;17</title>
<path fill="none" stroke="grey" stroke-width="2" d="M1021.33,-589.57C895.85,-583.03 624.55,-567.08 384.54,-539.94"/>
<polygon fill="grey" stroke="grey" stroke-width="2" points="384.91,-536.46 374.58,-538.81 384.11,-543.42 384.91,-536.46"/>
</g>
<!-- 18 -->
<g id="node19" class="node">
<title>18</title>
<path fill="none" stroke="#d8bc56" stroke-width="2" d="M540,-540C540,-540 405,-540 405,-540 399,-540 393,-534 393,-528 393,-528 393,-516 393,-516 393,-510 399,-504 405,-504 405,-504 540,-504 540,-504 546,-504 552,-510 552,-516 552,-516 552,-528 552,-528 552,-534 546,-540 540,-540"/>
<text text-anchor="middle" x="472.5" y="-519.5" font-family="sans" font-size="10.00">qc_picard_collect_hs_metrics</text>
</g>
<!-- 4&#45;&gt;18 -->
<g id="edge39" class="edge">
<title>4&#45;&gt;18</title>
<path fill="none" stroke="grey" stroke-width="2" d="M1021.38,-587.99C921.64,-580.41 732.9,-564.44 561.95,-539.99"/>
<polygon fill="grey" stroke="grey" stroke-width="2" points="562.41,-536.52 552.02,-538.55 561.41,-543.44 562.41,-536.52"/>
</g>
<!-- 19 -->
<g id="node20" class="node">
<title>19</title>
<path fill="none" stroke="#56d88a" stroke-width="2" d="M807,-540C807,-540 582,-540 582,-540 576,-540 570,-534 570,-528 570,-528 570,-516 570,-516 570,-510 576,-504 582,-504 582,-504 807,-504 807,-504 813,-504 819,-510 819,-516 819,-516 819,-528 819,-528 819,-534 813,-540 807,-540"/>
<text text-anchor="middle" x="694.5" y="-519.5" font-family="sans" font-size="10.00">qc_picard_collect_alignment_summary_metrics</text>
</g>
<!-- 4&#45;&gt;19 -->
<g id="edge40" class="edge">
<title>4&#45;&gt;19</title>
<path fill="none" stroke="grey" stroke-width="2" d="M1021.44,-580.65C960.44,-569.89 871.09,-554.14 801.2,-541.81"/>
<polygon fill="grey" stroke="grey" stroke-width="2" points="801.49,-538.31 791.04,-540.02 800.28,-545.21 801.49,-538.31"/>
</g>
<!-- 25 -->
<g id="node26" class="node">
<title>25</title>
<path fill="none" stroke="#c6d856" stroke-width="2" d="M861,-180C861,-180 738,-180 738,-180 732,-180 726,-174 726,-168 726,-168 726,-156 726,-156 726,-150 732,-144 738,-144 738,-144 861,-144 861,-144 867,-144 873,-150 873,-156 873,-156 873,-168 873,-168 873,-174 867,-180 861,-180"/>
<text text-anchor="middle" x="799.5" y="-159.5" font-family="sans" font-size="10.00">_copy_alignment_bam_file</text>
</g>
<!-- 4&#45;&gt;25 -->
<g id="edge48" class="edge">
<title>4&#45;&gt;25</title>
<path fill="none" stroke="grey" stroke-width="2" d="M1092.99,-575.99C1093.75,-555.9 1091.65,-522.83 1072.5,-504 1013.08,-445.58 956.16,-516.63 888.5,-468 858.6,-446.51 860.49,-430.46 847.5,-396 820.52,-324.41 807.45,-234.44 802.29,-190.16"/>
<polygon fill="grey" stroke="grey" stroke-width="2" points="805.76,-189.73 801.17,-180.18 798.81,-190.51 805.76,-189.73"/>
</g>
<!-- 36 -->
<g id="node37" class="node">
<title>36</title>
<path fill="none" stroke="#d86e56" stroke-width="2" d="M1597,-468C1597,-468 1490,-468 1490,-468 1484,-468 1478,-462 1478,-456 1478,-456 1478,-444 1478,-444 1478,-438 1484,-432 1490,-432 1490,-432 1597,-432 1597,-432 1603,-432 1609,-438 1609,-444 1609,-444 1609,-456 1609,-456 1609,-462 1603,-468 1597,-468"/>
<text text-anchor="middle" x="1543.5" y="-447.5" font-family="sans" font-size="10.00">parabricks_deepvariant</text>
</g>
<!-- 4&#45;&gt;36 -->
<g id="edge67" class="edge">
<title>4&#45;&gt;36</title>
<path fill="none" stroke="grey" stroke-width="2" d="M1161.55,-588.9C1277.53,-581.45 1499.31,-564.22 1525.5,-540 1542.18,-524.58 1545.78,-498.32 1545.75,-478.31"/>
<polygon fill="grey" stroke="grey" stroke-width="2" points="1549.24,-478.11 1545.43,-468.22 1542.25,-478.33 1549.24,-478.11"/>
</g>
<!-- 43 -->
<g id="node44" class="node">
<title>43</title>
<path fill="none" stroke="#56d8a9" stroke-width="2" d="M1409,-396C1409,-396 1294,-396 1294,-396 1288,-396 1282,-390 1282,-384 1282,-384 1282,-372 1282,-372 1282,-366 1288,-360 1294,-360 1294,-360 1409,-360 1409,-360 1415,-360 1421,-366 1421,-372 1421,-372 1421,-384 1421,-384 1421,-390 1415,-396 1409,-396"/>
<text text-anchor="middle" x="1351.5" y="-375.5" font-family="sans" font-size="10.00">cnv_sv_exomedepth_call</text>
</g>
<!-- 4&#45;&gt;43 -->
<g id="edge75" class="edge">
<title>4&#45;&gt;43</title>
<path fill="none" stroke="grey" stroke-width="2" d="M1116.21,-575.83C1130.53,-565.69 1148.78,-552.44 1164.5,-540 1223.37,-493.41 1289.27,-435.16 1324.99,-403.05"/>
<polygon fill="grey" stroke="grey" stroke-width="2" points="1327.48,-405.52 1332.56,-396.23 1322.79,-400.32 1327.48,-405.52"/>
</g>
<!-- 5 -->
<g id="node6" class="node">
<title>5</title>
<path fill="none" stroke="#d89556" stroke-width="2" d="M2312.5,-324C2312.5,-324 2156.5,-324 2156.5,-324 2150.5,-324 2144.5,-318 2144.5,-312 2144.5,-312 2144.5,-300 2144.5,-300 2144.5,-294 2150.5,-288 2156.5,-288 2156.5,-288 2312.5,-288 2312.5,-288 2318.5,-288 2324.5,-294 2324.5,-300 2324.5,-300 2324.5,-312 2324.5,-312 2324.5,-318 2318.5,-324 2312.5,-324"/>
<text text-anchor="middle" x="2234.5" y="-303.5" font-family="sans" font-size="10.00">alignment_samtools_merge_bam</text>
</g>
<!-- 5&#45;&gt;4 -->
<g id="edge25" class="edge">
<title>5&#45;&gt;4</title>
<path fill="none" stroke="grey" stroke-width="2" d="M2212.61,-324.3C2186.68,-344.05 2141.57,-376.19 2098.5,-396 1776.96,-543.86 1348.02,-580.87 1172.02,-590.03"/>
<polygon fill="grey" stroke="grey" stroke-width="2" points="1171.61,-586.55 1161.8,-590.55 1171.97,-593.54 1171.61,-586.55"/>
</g>
<!-- 6 -->
<g id="node7" class="node">
<title>6</title>
<path fill="none" stroke="#56a2d8" stroke-width="2" d="M2077.5,-396C2077.5,-396 1913.5,-396 1913.5,-396 1907.5,-396 1901.5,-390 1901.5,-384 1901.5,-384 1901.5,-372 1901.5,-372 1901.5,-366 1907.5,-360 1913.5,-360 1913.5,-360 2077.5,-360 2077.5,-360 2083.5,-360 2089.5,-366 2089.5,-372 2089.5,-372 2089.5,-384 2089.5,-384 2089.5,-390 2083.5,-396 2077.5,-396"/>
<text text-anchor="middle" x="1995.5" y="-375.5" font-family="sans" font-size="10.00">alignment_picard_mark_duplicates</text>
</g>
<!-- 6&#45;&gt;5 -->
<g id="edge26" class="edge">
<title>6&#45;&gt;5</title>
<path fill="none" stroke="grey" stroke-width="2" d="M2053.66,-359.97C2087.63,-350.01 2130.68,-337.41 2166.26,-326.99"/>
<polygon fill="grey" stroke="grey" stroke-width="2" points="2167.47,-330.28 2176.08,-324.11 2165.5,-323.56 2167.47,-330.28"/>
</g>
<!-- 7&#45;&gt;6 -->
<g id="edge27" class="edge">
<title>7&#45;&gt;6</title>
<path fill="none" stroke="grey" stroke-width="2" d="M1788.18,-431.97C1827.63,-421.89 1877.75,-409.08 1918.83,-398.59"/>
<polygon fill="grey" stroke="grey" stroke-width="2" points="1919.7,-401.98 1928.52,-396.11 1917.97,-395.2 1919.7,-401.98"/>
</g>
<!-- 8 -->
<g id="node9" class="node">
<title>8</title>
<path fill="none" stroke="#56d8c9" stroke-width="2" d="M914,-684C914,-684 779,-684 779,-684 773,-684 767,-678 767,-672 767,-672 767,-660 767,-660 767,-654 773,-648 779,-648 779,-648 914,-648 914,-648 920,-648 926,-654 926,-660 926,-660 926,-672 926,-672 926,-678 920,-684 914,-684"/>
<text text-anchor="middle" x="846.5" y="-663.5" font-family="sans" font-size="10.00">alignment_bwa_mem_merge</text>
</g>
<!-- 8&#45;&gt;4 -->
<g id="edge24" class="edge">
<title>8&#45;&gt;4</title>
<path fill="none" stroke="grey" stroke-width="2" d="M906.12,-647.97C940.95,-638.01 985.08,-625.41 1021.54,-614.99"/>
<polygon fill="grey" stroke="grey" stroke-width="2" points="1022.96,-618.22 1031.61,-612.11 1021.04,-611.49 1022.96,-618.22"/>
</g>
<!-- 9 -->
<g id="node10" class="node">
<title>9</title>
<path fill="none" stroke="#5673d8" stroke-width="2" d="M649.5,-756C649.5,-756 551.5,-756 551.5,-756 545.5,-756 539.5,-750 539.5,-744 539.5,-744 539.5,-732 539.5,-732 539.5,-726 545.5,-720 551.5,-720 551.5,-720 649.5,-720 649.5,-720 655.5,-720 661.5,-726 661.5,-732 661.5,-732 661.5,-744 661.5,-744 661.5,-750 655.5,-756 649.5,-756"/>
<text text-anchor="middle" x="600.5" y="-735.5" font-family="sans" font-size="10.00">alignment_bwa_mem</text>
</g>
<!-- 9&#45;&gt;8 -->
<g id="edge30" class="edge">
<title>9&#45;&gt;8</title>
<path fill="none" stroke="grey" stroke-width="2" d="M660.36,-719.97C695.48,-709.97 740.02,-697.3 776.73,-686.85"/>
<polygon fill="grey" stroke="grey" stroke-width="2" points="777.71,-690.21 786.37,-684.11 775.79,-683.48 777.71,-690.21"/>
</g>
<!-- 10 -->
<g id="node11" class="node">
<title>10</title>
<path fill="none" stroke="#56d85b" stroke-width="2" d="M117,-828C117,-828 12,-828 12,-828 6,-828 0,-822 0,-816 0,-816 0,-804 0,-804 0,-798 6,-792 12,-792 12,-792 117,-792 117,-792 123,-792 129,-798 129,-804 129,-804 129,-816 129,-816 129,-822 123,-828 117,-828"/>
<text text-anchor="middle" x="64.5" y="-807.5" font-family="sans" font-size="10.00">prealignment_fastp_pe</text>
</g>
<!-- 10&#45;&gt;2 -->
<g id="edge14" class="edge">
<title>10&#45;&gt;2</title>
<path fill="none" stroke="grey" stroke-width="2" d="M55.38,-791.61C42.5,-765.36 20.5,-713.71 20.5,-667 20.5,-667 20.5,-667 20.5,-521 20.5,-424.9 360.82,-391.05 485.46,-381.87"/>
<polygon fill="grey" stroke="grey" stroke-width="2" points="485.72,-385.36 495.45,-381.16 485.22,-378.38 485.72,-385.36"/>
</g>
<!-- 10&#45;&gt;9 -->
<g id="edge31" class="edge">
<title>10&#45;&gt;9</title>
<path fill="none" stroke="grey" stroke-width="2" d="M129.15,-800.56C230.07,-787.38 424.3,-762.01 529.17,-748.32"/>
<polygon fill="grey" stroke="grey" stroke-width="2" points="529.87,-751.75 539.34,-746.99 528.97,-744.81 529.87,-751.75"/>
</g>
<!-- 11&#45;&gt;7 -->
<g id="edge29" class="edge">
<title>11&#45;&gt;7</title>
<path fill="none" stroke="grey" stroke-width="2" d="M1509.64,-503.97C1549.95,-493.89 1601.17,-481.08 1643.15,-470.59"/>
<polygon fill="grey" stroke="grey" stroke-width="2" points="1644.2,-473.93 1653.06,-468.11 1642.51,-467.14 1644.2,-473.93"/>
</g>
<!-- 11&#45;&gt;12 -->
<g id="edge34" class="edge">
<title>11&#45;&gt;12</title>
<path fill="none" stroke="grey" stroke-width="2" d="M1375.55,-503.97C1332.09,-492.74 1275.54,-478.13 1232.83,-467.1"/>
<polygon fill="grey" stroke="grey" stroke-width="2" points="1233.67,-463.7 1223.11,-464.59 1231.92,-470.48 1233.67,-463.7"/>
</g>
<!-- 26 -->
<g id="node27" class="node">
<title>26</title>
<path fill="none" stroke="#56c9d8" stroke-width="2" d="M1322.5,-252C1322.5,-252 1206.5,-252 1206.5,-252 1200.5,-252 1194.5,-246 1194.5,-240 1194.5,-240 1194.5,-228 1194.5,-228 1194.5,-222 1200.5,-216 1206.5,-216 1206.5,-216 1322.5,-216 1322.5,-216 1328.5,-216 1334.5,-222 1334.5,-228 1334.5,-228 1334.5,-240 1334.5,-240 1334.5,-246 1328.5,-252 1322.5,-252"/>
<text text-anchor="middle" x="1264.5" y="-231.5" font-family="sans" font-size="10.00">_copy_alignment_bai_file</text>
</g>
<!-- 11&#45;&gt;26 -->
<g id="edge49" class="edge">
<title>11&#45;&gt;26</title>
<path fill="none" stroke="grey" stroke-width="2" d="M1444.74,-503.75C1449.64,-472.82 1455.87,-406.8 1430.5,-360 1404.55,-312.14 1351.52,-277.27 1312.34,-256.71"/>
<polygon fill="grey" stroke="grey" stroke-width="2" points="1313.71,-253.47 1303.21,-252.04 1310.52,-259.71 1313.71,-253.47"/>
</g>
<!-- 11&#45;&gt;36 -->
<g id="edge68" class="edge">
<title>11&#45;&gt;36</title>
<path fill="none" stroke="grey" stroke-width="2" d="M1466.45,-503.88C1479.54,-494.89 1495.76,-483.76 1509.94,-474.03"/>
<polygon fill="grey" stroke="grey" stroke-width="2" points="1512.19,-476.73 1518.45,-468.19 1508.23,-470.96 1512.19,-476.73"/>
</g>
<!-- 12&#45;&gt;2 -->
<g id="edge12" class="edge">
<title>12&#45;&gt;2</title>
<path fill="none" stroke="grey" stroke-width="2" d="M1117.88,-433.89C1114.72,-433.2 1111.57,-432.56 1108.5,-432 912.15,-396.37 673.7,-384.15 575.78,-380.44"/>
<polygon fill="grey" stroke="grey" stroke-width="2" points="575.77,-376.94 565.65,-380.07 575.51,-383.93 575.77,-376.94"/>
</g>
<!-- 22 -->
<g id="node23" class="node">
<title>22</title>
<path fill="none" stroke="#56d863" stroke-width="2" d="M961,-324C961,-324 860,-324 860,-324 854,-324 848,-318 848,-312 848,-312 848,-300 848,-300 848,-294 854,-288 860,-288 860,-288 961,-288 961,-288 967,-288 973,-294 973,-300 973,-300 973,-312 973,-312 973,-318 967,-324 961,-324"/>
<text text-anchor="middle" x="910.5" y="-303.5" font-family="sans" font-size="10.00">export_qc_xlsx_report</text>
</g>
<!-- 12&#45;&gt;22 -->
<g id="edge44" class="edge">
<title>12&#45;&gt;22</title>
<path fill="none" stroke="grey" stroke-width="2" d="M1117.83,-434.16C1114.68,-433.39 1111.55,-432.67 1108.5,-432 1060.54,-421.49 922.27,-433.44 890.5,-396 875.71,-378.57 883.96,-352.49 893.97,-333.06"/>
<polygon fill="grey" stroke="grey" stroke-width="2" points="897.14,-334.57 898.93,-324.13 891.02,-331.17 897.14,-334.57"/>
</g>
<!-- 23 -->
<g id="node24" class="node">
<title>23</title>
<path fill="none" stroke="#5663d8" stroke-width="2" d="M1047.5,-396C1047.5,-396 911.5,-396 911.5,-396 905.5,-396 899.5,-390 899.5,-384 899.5,-384 899.5,-372 899.5,-372 899.5,-366 905.5,-360 911.5,-360 911.5,-360 1047.5,-360 1047.5,-360 1053.5,-360 1059.5,-366 1059.5,-372 1059.5,-372 1059.5,-384 1059.5,-384 1059.5,-390 1053.5,-396 1047.5,-396"/>
<text text-anchor="middle" x="979.5" y="-375.5" font-family="sans" font-size="10.00">export_qc_bedtools_intersect</text>
</g>
<!-- 12&#45;&gt;23 -->
<g id="edge46" class="edge">
<title>12&#45;&gt;23</title>
<path fill="none" stroke="grey" stroke-width="2" d="M1123.78,-431.88C1097.2,-422.14 1063.74,-409.87 1035.73,-399.61"/>
<polygon fill="grey" stroke="grey" stroke-width="2" points="1036.67,-396.22 1026.07,-396.07 1034.26,-402.8 1036.67,-396.22"/>
</g>
<!-- 24 -->
<g id="node25" class="node">
<title>24</title>
<path fill="none" stroke="#5692d8" stroke-width="2" d="M1251.5,-396C1251.5,-396 1089.5,-396 1089.5,-396 1083.5,-396 1077.5,-390 1077.5,-384 1077.5,-384 1077.5,-372 1077.5,-372 1077.5,-366 1083.5,-360 1089.5,-360 1089.5,-360 1251.5,-360 1251.5,-360 1257.5,-360 1263.5,-366 1263.5,-372 1263.5,-372 1263.5,-384 1263.5,-384 1263.5,-390 1257.5,-396 1251.5,-396"/>
<text text-anchor="middle" x="1170.5" y="-375.5" font-family="sans" font-size="10.00">export_qc_bedtools_intersect_pgrs</text>
</g>
<!-- 12&#45;&gt;24 -->
<g id="edge47" class="edge">
<title>12&#45;&gt;24</title>
<path fill="none" stroke="grey" stroke-width="2" d="M1170.5,-431.7C1170.5,-423.98 1170.5,-414.71 1170.5,-406.11"/>
<polygon fill="grey" stroke="grey" stroke-width="2" points="1174,-406.1 1170.5,-396.1 1167,-406.1 1174,-406.1"/>
</g>
<!-- 13&#45;&gt;2 -->
<g id="edge16" class="edge">
<title>13&#45;&gt;2</title>
<path fill="none" stroke="grey" stroke-width="2" d="M925.54,-503.9C903.73,-494.6 877.43,-482.12 855.5,-468 834.83,-454.69 835.67,-442.62 813.5,-432 735.63,-394.68 633.99,-383.6 576.12,-380.33"/>
<polygon fill="grey" stroke="grey" stroke-width="2" points="576,-376.82 565.83,-379.81 575.64,-383.81 576,-376.82"/>
</g>
<!-- 14&#45;&gt;2 -->
<g id="edge17" class="edge">
<title>14&#45;&gt;2</title>
<path fill="none" stroke="grey" stroke-width="2" d="M897.24,-433.85C797.38,-418.92 649.34,-396.78 575.62,-385.75"/>
<polygon fill="grey" stroke="grey" stroke-width="2" points="576.13,-382.29 565.73,-384.27 575.1,-389.21 576.13,-382.29"/>
</g>
<!-- 14&#45;&gt;22 -->
<g id="edge43" class="edge">
<title>14&#45;&gt;22</title>
<path fill="none" stroke="grey" stroke-width="2" d="M905.27,-431.93C886.51,-424.09 869.04,-412.66 857.5,-396 842.77,-374.72 861.34,-349.25 880.44,-331.01"/>
<polygon fill="grey" stroke="grey" stroke-width="2" points="882.94,-333.47 887.99,-324.16 878.23,-328.29 882.94,-333.47"/>
</g>
<!-- 15 -->
<g id="node16" class="node">
<title>15</title>
<path fill="none" stroke="#d88556" stroke-width="2" d="M589,-468C589,-468 550,-468 550,-468 544,-468 538,-462 538,-456 538,-456 538,-444 538,-444 538,-438 544,-432 550,-432 550,-432 589,-432 589,-432 595,-432 601,-438 601,-444 601,-444 601,-456 601,-456 601,-462 595,-468 589,-468"/>
<text text-anchor="middle" x="569.5" y="-447.5" font-family="sans" font-size="10.00">qc_fastqc</text>
</g>
<!-- 15&#45;&gt;2 -->
<g id="edge18" class="edge">
<title>15&#45;&gt;2</title>
<path fill="none" stroke="grey" stroke-width="2" d="M559.86,-431.7C555.37,-423.64 549.94,-413.89 544.98,-404.98"/>
<polygon fill="grey" stroke="grey" stroke-width="2" points="547.95,-403.14 540.03,-396.1 541.84,-406.54 547.95,-403.14"/>
</g>
<!-- 16&#45;&gt;2 -->
<g id="edge15" class="edge">
<title>16&#45;&gt;2</title>
<path fill="none" stroke="grey" stroke-width="2" d="M129.04,-503.85C161.26,-483.77 217.83,-450.88 270.5,-432 343.27,-405.92 432.36,-391.26 485.1,-384.25"/>
<polygon fill="grey" stroke="grey" stroke-width="2" points="485.68,-387.7 495.15,-382.95 484.79,-380.76 485.68,-387.7"/>
</g>
<!-- 17&#45;&gt;2 -->
<g id="edge19" class="edge">
<title>17&#45;&gt;2</title>
<path fill="none" stroke="grey" stroke-width="2" d="M329.91,-503.96C356.05,-494.91 387.2,-482.62 413.5,-468 446.68,-449.56 480.8,-422.5 503.57,-403.07"/>
<polygon fill="grey" stroke="grey" stroke-width="2" points="506.14,-405.47 511.42,-396.28 501.56,-400.17 506.14,-405.47"/>
</g>
<!-- 18&#45;&gt;2 -->
<g id="edge22" class="edge">
<title>18&#45;&gt;2</title>
<path fill="none" stroke="grey" stroke-width="2" d="M475.22,-503.71C478.5,-485.35 484.93,-455.77 495.5,-432 499.69,-422.58 505.49,-412.97 511.16,-404.56"/>
<polygon fill="grey" stroke="grey" stroke-width="2" points="514.08,-406.5 516.96,-396.3 508.35,-402.48 514.08,-406.5"/>
</g>
<!-- 19&#45;&gt;2 -->
<g id="edge21" class="edge">
<title>19&#45;&gt;2</title>
<path fill="none" stroke="grey" stroke-width="2" d="M577.74,-503.98C558.85,-496.02 541.55,-484.53 529.5,-468 516.67,-450.41 518.27,-425.22 522.3,-406.12"/>
<polygon fill="grey" stroke="grey" stroke-width="2" points="525.74,-406.78 524.71,-396.23 518.94,-405.12 525.74,-406.78"/>
</g>
<!-- 20 -->
<g id="node21" class="node">
<title>20</title>
<path fill="none" stroke="#56d86b" stroke-width="2" d="M393,-468C393,-468 292,-468 292,-468 286,-468 280,-462 280,-456 280,-456 280,-444 280,-444 280,-438 286,-432 292,-432 292,-432 393,-432 393,-432 399,-432 405,-438 405,-444 405,-444 405,-456 405,-456 405,-462 399,-468 393,-468"/>
<text text-anchor="middle" x="342.5" y="-447.5" font-family="sans" font-size="10.00">sample_order_multiqc</text>
</g>
<!-- 20&#45;&gt;2 -->
<g id="edge20" class="edge">
<title>20&#45;&gt;2</title>
<path fill="none" stroke="grey" stroke-width="2" d="M388.49,-431.88C418.08,-420.86 456.35,-406.61 485.71,-395.68"/>
<polygon fill="grey" stroke="grey" stroke-width="2" points="487.14,-398.88 495.29,-392.11 484.7,-392.32 487.14,-398.88"/>
</g>
<!-- 21 -->
<g id="node22" class="node">
<title>21</title>
<path fill="none" stroke="#56d8d8" stroke-width="2" d="M959.5,-252C959.5,-252 861.5,-252 861.5,-252 855.5,-252 849.5,-246 849.5,-240 849.5,-240 849.5,-228 849.5,-228 849.5,-222 855.5,-216 861.5,-216 861.5,-216 959.5,-216 959.5,-216 965.5,-216 971.5,-222 971.5,-228 971.5,-228 971.5,-240 971.5,-240 971.5,-246 965.5,-252 959.5,-252"/>
<text text-anchor="middle" x="910.5" y="-231.5" font-family="sans" font-size="10.00">_copy_qc_xlsx_report</text>
</g>
<!-- 21&#45;&gt;0 -->
<g id="edge10" class="edge">
<title>21&#45;&gt;0</title>
<path fill="none" stroke="grey" stroke-width="2" d="M906.64,-215.75C900.43,-183.03 892.39,-111.66 929.5,-72 962.7,-36.52 1107.95,-24.41 1177.34,-20.6"/>
<polygon fill="grey" stroke="grey" stroke-width="2" points="1177.59,-24.09 1187.4,-20.08 1177.23,-17.1 1177.59,-24.09"/>
</g>
<!-- 22&#45;&gt;21 -->
<g id="edge41" class="edge">
<title>22&#45;&gt;21</title>
<path fill="none" stroke="grey" stroke-width="2" d="M910.5,-287.7C910.5,-279.98 910.5,-270.71 910.5,-262.11"/>
<polygon fill="grey" stroke="grey" stroke-width="2" points="914,-262.1 910.5,-252.1 907,-262.1 914,-262.1"/>
</g>
<!-- 23&#45;&gt;22 -->
<g id="edge42" class="edge">
<title>23&#45;&gt;22</title>
<path fill="none" stroke="grey" stroke-width="2" d="M962.44,-359.7C954,-351.14 943.68,-340.66 934.46,-331.3"/>
<polygon fill="grey" stroke="grey" stroke-width="2" points="936.87,-328.77 927.36,-324.1 931.89,-333.68 936.87,-328.77"/>
</g>
<!-- 24&#45;&gt;22 -->
<g id="edge45" class="edge">
<title>24&#45;&gt;22</title>
<path fill="none" stroke="grey" stroke-width="2" d="M1107.23,-359.97C1069.68,-349.86 1021.93,-337 982.88,-326.49"/>
<polygon fill="grey" stroke="grey" stroke-width="2" points="983.72,-323.09 973.15,-323.87 981.9,-329.85 983.72,-323.09"/>
</g>
<!-- 25&#45;&gt;0 -->
<g id="edge5" class="edge">
<title>25&#45;&gt;0</title>
<path fill="none" stroke="grey" stroke-width="2" d="M812.86,-143.75C829.89,-123.09 861.37,-89.13 896.5,-72 990.18,-26.31 1115.85,-19.05 1177.39,-18.48"/>
<polygon fill="grey" stroke="grey" stroke-width="2" points="1177.42,-21.98 1187.4,-18.45 1177.39,-14.98 1177.42,-21.98"/>
</g>
<!-- 26&#45;&gt;0 -->
<g id="edge6" class="edge">
<title>26&#45;&gt;0</title>
<path fill="none" stroke="grey" stroke-width="2" d="M1264.75,-215.58C1264.68,-185.48 1262.31,-122.17 1245.5,-72 1242.37,-62.65 1237.45,-53.13 1232.44,-44.79"/>
<polygon fill="grey" stroke="grey" stroke-width="2" points="1235.36,-42.86 1227.06,-36.27 1229.44,-46.59 1235.36,-42.86"/>
</g>
<!-- 27 -->
<g id="node28" class="node">
<title>27</title>
<path fill="none" stroke="#61d856" stroke-width="2" d="M1480.5,-252C1480.5,-252 1364.5,-252 1364.5,-252 1358.5,-252 1352.5,-246 1352.5,-240 1352.5,-240 1352.5,-228 1352.5,-228 1352.5,-222 1358.5,-216 1364.5,-216 1364.5,-216 1480.5,-216 1480.5,-216 1486.5,-216 1492.5,-222 1492.5,-228 1492.5,-228 1492.5,-240 1492.5,-240 1492.5,-246 1486.5,-252 1480.5,-252"/>
<text text-anchor="middle" x="1422.5" y="-231.5" font-family="sans" font-size="10.00">_copy_annotated_vcf_file</text>
</g>
<!-- 27&#45;&gt;0 -->
<g id="edge8" class="edge">
<title>27&#45;&gt;0</title>
<path fill="none" stroke="grey" stroke-width="2" d="M1403.84,-215.83C1392.83,-205.58 1378.7,-192.22 1366.5,-180 1341.46,-154.93 1273.64,-82.45 1237.65,-43.86"/>
<polygon fill="grey" stroke="grey" stroke-width="2" points="1239.86,-41.1 1230.48,-36.17 1234.74,-45.87 1239.86,-41.1"/>
</g>
<!-- 28 -->
<g id="node29" class="node">
<title>28</title>
<path fill="none" stroke="#56d873" stroke-width="2" d="M1832.5,-396C1832.5,-396 1756.5,-396 1756.5,-396 1750.5,-396 1744.5,-390 1744.5,-384 1744.5,-384 1744.5,-372 1744.5,-372 1744.5,-366 1750.5,-360 1756.5,-360 1756.5,-360 1832.5,-360 1832.5,-360 1838.5,-360 1844.5,-366 1844.5,-372 1844.5,-372 1844.5,-384 1844.5,-384 1844.5,-390 1838.5,-396 1832.5,-396"/>
<text text-anchor="middle" x="1794.5" y="-375.5" font-family="sans" font-size="10.00">snv_indels_bgzip</text>
</g>
<!-- 28&#45;&gt;27 -->
<g id="edge50" class="edge">
<title>28&#45;&gt;27</title>
<path fill="none" stroke="grey" stroke-width="2" d="M1744.27,-377.05C1684.21,-375.09 1582.31,-365.23 1506.5,-324 1478.57,-308.81 1454.6,-280.97 1439.49,-260.46"/>
<polygon fill="grey" stroke="grey" stroke-width="2" points="1442.24,-258.28 1433.58,-252.18 1436.54,-262.35 1442.24,-258.28"/>
</g>
<!-- 29 -->
<g id="node30" class="node">
<title>29</title>
<path fill="none" stroke="#56d8c1" stroke-width="2" d="M1827,-324C1827,-324 1762,-324 1762,-324 1756,-324 1750,-318 1750,-312 1750,-312 1750,-300 1750,-300 1750,-294 1756,-288 1762,-288 1762,-288 1827,-288 1827,-288 1833,-288 1839,-294 1839,-300 1839,-300 1839,-312 1839,-312 1839,-318 1833,-324 1827,-324"/>
<text text-anchor="middle" x="1794.5" y="-303.5" font-family="sans" font-size="10.00">add_ref_to_vcf</text>
</g>
<!-- 28&#45;&gt;29 -->
<g id="edge56" class="edge">
<title>28&#45;&gt;29</title>
<path fill="none" stroke="grey" stroke-width="2" d="M1788.58,-359.7C1787.79,-351.98 1787.56,-342.71 1787.9,-334.11"/>
<polygon fill="grey" stroke="grey" stroke-width="2" points="1791.4,-334.32 1788.6,-324.1 1784.42,-333.84 1791.4,-334.32"/>
</g>
<!-- 31 -->
<g id="node32" class="node">
<title>31</title>
<path fill="none" stroke="#56d85b" stroke-width="2" d="M1767.5,-180C1767.5,-180 1693.5,-180 1693.5,-180 1687.5,-180 1681.5,-174 1681.5,-168 1681.5,-168 1681.5,-156 1681.5,-156 1681.5,-150 1687.5,-144 1693.5,-144 1693.5,-144 1767.5,-144 1767.5,-144 1773.5,-144 1779.5,-150 1779.5,-156 1779.5,-156 1779.5,-168 1779.5,-168 1779.5,-174 1773.5,-180 1767.5,-180"/>
<text text-anchor="middle" x="1730.5" y="-159.5" font-family="sans" font-size="10.00">snv_indels_tabix</text>
</g>
<!-- 28&#45;&gt;31 -->
<g id="edge59" class="edge">
<title>28&#45;&gt;31</title>
<path fill="none" stroke="grey" stroke-width="2" d="M1744.35,-371.79C1687.1,-364.68 1598.72,-349.79 1578.5,-324 1536.73,-270.74 1624.33,-214.58 1683.09,-184.7"/>
<polygon fill="grey" stroke="grey" stroke-width="2" points="1684.86,-187.73 1692.25,-180.14 1681.74,-181.47 1684.86,-187.73"/>
</g>
<!-- 34 -->
<g id="node35" class="node">
<title>34</title>
<path fill="none" stroke="#d87556" stroke-width="2" d="M1720,-324C1720,-324 1599,-324 1599,-324 1593,-324 1587,-318 1587,-312 1587,-312 1587,-300 1587,-300 1587,-294 1593,-288 1599,-288 1599,-288 1720,-288 1720,-288 1726,-288 1732,-294 1732,-300 1732,-300 1732,-312 1732,-312 1732,-318 1726,-324 1720,-324"/>
<text text-anchor="middle" x="1659.5" y="-303.5" font-family="sans" font-size="10.00">snv_indels_vt_decompose</text>
</g>
<!-- 28&#45;&gt;34 -->
<g id="edge65" class="edge">
<title>28&#45;&gt;34</title>
<path fill="none" stroke="grey" stroke-width="2" d="M1761.48,-359.88C1743.42,-350.51 1720.85,-338.81 1701.55,-328.8"/>
<polygon fill="grey" stroke="grey" stroke-width="2" points="1703.14,-325.69 1692.65,-324.19 1699.92,-331.9 1703.14,-325.69"/>
</g>
<!-- 35 -->
<g id="node36" class="node">
<title>35</title>
<path fill="none" stroke="#56d0d8" stroke-width="2" d="M1946,-324C1946,-324 1869,-324 1869,-324 1863,-324 1857,-318 1857,-312 1857,-312 1857,-300 1857,-300 1857,-294 1863,-288 1869,-288 1869,-288 1946,-288 1946,-288 1952,-288 1958,-294 1958,-300 1958,-300 1958,-312 1958,-312 1958,-318 1952,-324 1946,-324"/>
<text text-anchor="middle" x="1907.5" y="-303.5" font-family="sans" font-size="10.00">snv_indels_fix_af</text>
</g>
<!-- 28&#45;&gt;35 -->
<g id="edge66" class="edge">
<title>28&#45;&gt;35</title>
<path fill="none" stroke="grey" stroke-width="2" d="M1816.25,-359.88C1830.06,-350.72 1848.29,-339.34 1864.85,-329.48"/>
<polygon fill="grey" stroke="grey" stroke-width="2" points="1867,-332.28 1873.85,-324.19 1863.45,-326.25 1867,-332.28"/>
</g>
<!-- 38 -->
<g id="node39" class="node">
<title>38</title>
<path fill="none" stroke="#56d8c9" stroke-width="2" d="M1565.5,-180C1565.5,-180 1387.5,-180 1387.5,-180 1381.5,-180 1375.5,-174 1375.5,-168 1375.5,-168 1375.5,-156 1375.5,-156 1375.5,-150 1381.5,-144 1387.5,-144 1387.5,-144 1565.5,-144 1565.5,-144 1571.5,-144 1577.5,-150 1577.5,-156 1577.5,-156 1577.5,-168 1577.5,-168 1577.5,-174 1571.5,-180 1565.5,-180"/>
<text text-anchor="middle" x="1476.5" y="-159.5" font-family="sans" font-size="10.00">_copy_genome_vcf_file_no_normalize</text>
</g>
<!-- 28&#45;&gt;38 -->
<g id="edge70" class="edge">
<title>28&#45;&gt;38</title>
<path fill="none" stroke="grey" stroke-width="2" d="M1744.46,-377.09C1693.99,-374.74 1616.22,-364.11 1563.5,-324 1551.63,-314.97 1510.36,-232.55 1489.21,-189.27"/>
<polygon fill="grey" stroke="grey" stroke-width="2" points="1492.3,-187.63 1484.78,-180.17 1486.01,-190.69 1492.3,-187.63"/>
</g>
<!-- 39 -->
<g id="node40" class="node">
<title>39</title>
<path fill="none" stroke="#d6d856" stroke-width="2" d="M2076.5,-324C2076.5,-324 1988.5,-324 1988.5,-324 1982.5,-324 1976.5,-318 1976.5,-312 1976.5,-312 1976.5,-300 1976.5,-300 1976.5,-294 1982.5,-288 1988.5,-288 1988.5,-288 2076.5,-288 2076.5,-288 2082.5,-288 2088.5,-294 2088.5,-300 2088.5,-300 2088.5,-312 2088.5,-312 2088.5,-318 2082.5,-324 2076.5,-324"/>
<text text-anchor="middle" x="2032.5" y="-303.5" font-family="sans" font-size="10.00">snv_indels_fix_af_g</text>
</g>
<!-- 28&#45;&gt;39 -->
<g id="edge71" class="edge">
<title>28&#45;&gt;39</title>
<path fill="none" stroke="grey" stroke-width="2" d="M1844.77,-360.5C1880.17,-349.74 1927.85,-335.71 1966.33,-324.71"/>
<polygon fill="grey" stroke="grey" stroke-width="2" points="1967.75,-327.95 1976.41,-321.84 1965.83,-321.21 1967.75,-327.95"/>
</g>
<!-- 29&#45;&gt;28 -->
<g id="edge53" class="edge">
<title>29&#45;&gt;28</title>
<path fill="none" stroke="grey" stroke-width="2" d="M1800.4,-324.1C1801.2,-331.79 1801.44,-341.05 1801.1,-349.67"/>
<polygon fill="grey" stroke="grey" stroke-width="2" points="1797.61,-349.48 1800.42,-359.7 1804.59,-349.96 1797.61,-349.48"/>
</g>
<!-- 30 -->
<g id="node31" class="node">
<title>30</title>
<path fill="none" stroke="#afd856" stroke-width="2" d="M1936.5,-36C1936.5,-36 1868.5,-36 1868.5,-36 1862.5,-36 1856.5,-30 1856.5,-24 1856.5,-24 1856.5,-12 1856.5,-12 1856.5,-6 1862.5,0 1868.5,0 1868.5,0 1936.5,0 1936.5,0 1942.5,0 1948.5,-6 1948.5,-12 1948.5,-12 1948.5,-24 1948.5,-24 1948.5,-30 1942.5,-36 1936.5,-36"/>
<text text-anchor="middle" x="1902.5" y="-15.5" font-family="sans" font-size="10.00">annotation_vep</text>
</g>
<!-- 30&#45;&gt;28 -->
<g id="edge51" class="edge">
<title>30&#45;&gt;28</title>
<path fill="none" stroke="grey" stroke-width="2" d="M1948.67,-28.09C2011.58,-43.46 2116.5,-81.08 2116.5,-161 2116.5,-235 2116.5,-235 2116.5,-235 2116.5,-275.45 2126.63,-295.94 2097.5,-324 2097.23,-324.26 1943,-351.15 1854.72,-366.52"/>
<polygon fill="grey" stroke="grey" stroke-width="2" points="1854.07,-363.08 1844.82,-368.24 1855.27,-369.98 1854.07,-363.08"/>
</g>
<!-- 31&#45;&gt;30 -->
<g id="edge58" class="edge">
<title>31&#45;&gt;30</title>
<path fill="none" stroke="grey" stroke-width="2" d="M1749.02,-143.86C1760.19,-133.5 1774.69,-120.02 1787.5,-108 1804.46,-92.08 1807.42,-86.64 1825.5,-72 1838.54,-61.44 1853.6,-50.77 1866.92,-41.8"/>
<polygon fill="grey" stroke="grey" stroke-width="2" points="1869,-44.62 1875.39,-36.17 1865.13,-38.79 1869,-44.62"/>
</g>
<!-- 32 -->
<g id="node33" class="node">
<title>32</title>
<path fill="none" stroke="#afd856" stroke-width="2" d="M1958.5,-108C1958.5,-108 1846.5,-108 1846.5,-108 1840.5,-108 1834.5,-102 1834.5,-96 1834.5,-96 1834.5,-84 1834.5,-84 1834.5,-78 1840.5,-72 1846.5,-72 1846.5,-72 1958.5,-72 1958.5,-72 1964.5,-72 1970.5,-78 1970.5,-84 1970.5,-84 1970.5,-96 1970.5,-96 1970.5,-102 1964.5,-108 1958.5,-108"/>
<text text-anchor="middle" x="1902.5" y="-87.5" font-family="sans" font-size="10.00">snv_indels_bcftools_sort</text>
</g>
<!-- 31&#45;&gt;32 -->
<g id="edge63" class="edge">
<title>31&#45;&gt;32</title>
<path fill="none" stroke="grey" stroke-width="2" d="M1766.68,-143.88C1789.49,-134.18 1819.36,-121.98 1845.31,-111.74"/>
<polygon fill="grey" stroke="grey" stroke-width="2" points="1846.64,-114.98 1854.67,-108.07 1844.08,-108.46 1846.64,-114.98"/>
</g>
<!-- 37 -->
<g id="node38" class="node">
<title>37</title>
<path fill="none" stroke="#56d89a" stroke-width="2" d="M1766.5,-108C1766.5,-108 1632.5,-108 1632.5,-108 1626.5,-108 1620.5,-102 1620.5,-96 1620.5,-96 1620.5,-84 1620.5,-84 1620.5,-78 1626.5,-72 1632.5,-72 1632.5,-72 1766.5,-72 1766.5,-72 1772.5,-72 1778.5,-78 1778.5,-84 1778.5,-84 1778.5,-96 1778.5,-96 1778.5,-102 1772.5,-108 1766.5,-108"/>
<text text-anchor="middle" x="1699.5" y="-87.5" font-family="sans" font-size="10.00">_copy_annotated_vcf_tbi_file</text>
</g>
<!-- 31&#45;&gt;37 -->
<g id="edge69" class="edge">
<title>31&#45;&gt;37</title>
<path fill="none" stroke="grey" stroke-width="2" d="M1722.84,-143.7C1719.31,-135.73 1715.04,-126.1 1711.13,-117.26"/>
<polygon fill="grey" stroke="grey" stroke-width="2" points="1714.32,-115.83 1707.07,-108.1 1707.92,-118.67 1714.32,-115.83"/>
</g>
<!-- 40 -->
<g id="node41" class="node">
<title>40</title>
<path fill="none" stroke="#d85656" stroke-width="2" d="M1590.5,-108C1590.5,-108 1380.5,-108 1380.5,-108 1374.5,-108 1368.5,-102 1368.5,-96 1368.5,-96 1368.5,-84 1368.5,-84 1368.5,-78 1374.5,-72 1380.5,-72 1380.5,-72 1590.5,-72 1590.5,-72 1596.5,-72 1602.5,-78 1602.5,-84 1602.5,-84 1602.5,-96 1602.5,-96 1602.5,-102 1596.5,-108 1590.5,-108"/>
<text text-anchor="middle" x="1485.5" y="-87.5" font-family="sans" font-size="10.00">_copy_genome_vcf_index_file_no_normalize</text>
</g>
<!-- 31&#45;&gt;40 -->
<g id="edge72" class="edge">
<title>31&#45;&gt;40</title>
<path fill="none" stroke="grey" stroke-width="2" d="M1681.22,-146.92C1644.94,-136.55 1595.14,-122.32 1554.85,-110.81"/>
<polygon fill="grey" stroke="grey" stroke-width="2" points="1555.67,-107.41 1545.09,-108.03 1553.74,-114.14 1555.67,-107.41"/>
</g>
<!-- 32&#45;&gt;30 -->
<g id="edge57" class="edge">
<title>32&#45;&gt;30</title>
<path fill="none" stroke="grey" stroke-width="2" d="M1902.5,-71.7C1902.5,-63.98 1902.5,-54.71 1902.5,-46.11"/>
<polygon fill="grey" stroke="grey" stroke-width="2" points="1906,-46.1 1902.5,-36.1 1899,-46.1 1906,-46.1"/>
</g>
<!-- 32&#45;&gt;31 -->
<g id="edge60" class="edge">
<title>32&#45;&gt;31</title>
<path fill="none" stroke="grey" stroke-width="2" d="M1866.45,-108.07C1843.67,-117.76 1813.81,-129.95 1787.84,-140.2"/>
<polygon fill="grey" stroke="grey" stroke-width="2" points="1786.5,-136.96 1778.47,-143.88 1789.06,-143.48 1786.5,-136.96"/>
</g>
<!-- 33 -->
<g id="node34" class="node">
<title>33</title>
<path fill="none" stroke="#56d8b1" stroke-width="2" d="M1790,-252C1790,-252 1671,-252 1671,-252 1665,-252 1659,-246 1659,-240 1659,-240 1659,-228 1659,-228 1659,-222 1665,-216 1671,-216 1671,-216 1790,-216 1790,-216 1796,-216 1802,-222 1802,-228 1802,-228 1802,-240 1802,-240 1802,-246 1796,-252 1790,-252"/>
<text text-anchor="middle" x="1730.5" y="-231.5" font-family="sans" font-size="10.00">snv_indels_vt_normalized</text>
</g>
<!-- 33&#45;&gt;31 -->
<g id="edge61" class="edge">
<title>33&#45;&gt;31</title>
<path fill="none" stroke="grey" stroke-width="2" d="M1730.5,-215.7C1730.5,-207.98 1730.5,-198.71 1730.5,-190.11"/>
<polygon fill="grey" stroke="grey" stroke-width="2" points="1734,-190.1 1730.5,-180.1 1727,-190.1 1734,-190.1"/>
</g>
<!-- 33&#45;&gt;32 -->
<g id="edge62" class="edge">
<title>33&#45;&gt;32</title>
<path fill="none" stroke="grey" stroke-width="2" d="M1751.25,-215.87C1781.85,-190.6 1839.21,-143.25 1873.82,-114.68"/>
<polygon fill="grey" stroke="grey" stroke-width="2" points="1876.2,-117.25 1881.68,-108.19 1871.74,-111.86 1876.2,-117.25"/>
</g>
<!-- 34&#45;&gt;33 -->
<g id="edge64" class="edge">
<title>34&#45;&gt;33</title>
<path fill="none" stroke="grey" stroke-width="2" d="M1677.05,-287.7C1685.73,-279.14 1696.36,-268.66 1705.85,-259.3"/>
<polygon fill="grey" stroke="grey" stroke-width="2" points="1708.49,-261.62 1713.15,-252.1 1703.57,-256.63 1708.49,-261.62"/>
</g>
<!-- 35&#45;&gt;28 -->
<g id="edge54" class="edge">
<title>35&#45;&gt;28</title>
<path fill="none" stroke="grey" stroke-width="2" d="M1885.65,-324.19C1871.82,-333.35 1853.59,-344.74 1837.03,-354.59"/>
<polygon fill="grey" stroke="grey" stroke-width="2" points="1834.88,-351.79 1828.04,-359.88 1838.43,-357.82 1834.88,-351.79"/>
</g>
<!-- 36&#45;&gt;28 -->
<g id="edge52" class="edge">
<title>36&#45;&gt;28</title>
<path fill="none" stroke="grey" stroke-width="2" d="M1604.58,-431.97C1644.04,-420.96 1695.17,-406.7 1734.43,-395.75"/>
<polygon fill="grey" stroke="grey" stroke-width="2" points="1735.45,-399.1 1744.14,-393.04 1733.57,-392.36 1735.45,-399.1"/>
</g>
<!-- 37&#45;&gt;0 -->
<g id="edge2" class="edge">
<title>37&#45;&gt;0</title>
<path fill="none" stroke="grey" stroke-width="2" d="M1620.38,-73.49C1617.39,-72.98 1614.42,-72.48 1611.5,-72 1479.64,-50.48 1322.08,-31.41 1251.68,-23.23"/>
<polygon fill="grey" stroke="grey" stroke-width="2" points="1251.87,-19.73 1241.54,-22.06 1251.07,-26.69 1251.87,-19.73"/>
</g>
<!-- 38&#45;&gt;0 -->
<g id="edge7" class="edge">
<title>38&#45;&gt;0</title>
<path fill="none" stroke="grey" stroke-width="2" d="M1431.42,-143.96C1409.05,-134.67 1382.06,-122.18 1359.5,-108 1338.4,-94.74 1337.24,-85.83 1316.5,-72 1295.72,-58.14 1270.87,-45.16 1250.9,-35.52"/>
<polygon fill="grey" stroke="grey" stroke-width="2" points="1252.35,-32.33 1241.82,-31.2 1249.35,-38.65 1252.35,-32.33"/>
</g>
<!-- 39&#45;&gt;28 -->
<g id="edge55" class="edge">
<title>39&#45;&gt;28</title>
<path fill="none" stroke="grey" stroke-width="2" d="M1980.31,-324.08C1943.27,-335.33 1893.52,-349.95 1854.78,-360.97"/>
<polygon fill="grey" stroke="grey" stroke-width="2" points="1853.34,-357.74 1844.68,-363.83 1855.25,-364.47 1853.34,-357.74"/>
</g>
<!-- 40&#45;&gt;0 -->
<g id="edge1" class="edge">
<title>40&#45;&gt;0</title>
<path fill="none" stroke="grey" stroke-width="2" d="M1419.55,-71.97C1366.76,-58.33 1294.63,-39.7 1251.49,-28.55"/>
<polygon fill="grey" stroke="grey" stroke-width="2" points="1252.26,-25.14 1241.7,-26.03 1250.51,-31.92 1252.26,-25.14"/>
</g>
<!-- 41 -->
<g id="node42" class="node">
<title>41</title>
<path fill="none" stroke="#56d8d8" stroke-width="2" d="M1224.5,-108C1224.5,-108 1102.5,-108 1102.5,-108 1096.5,-108 1090.5,-102 1090.5,-96 1090.5,-96 1090.5,-84 1090.5,-84 1090.5,-78 1096.5,-72 1102.5,-72 1102.5,-72 1224.5,-72 1224.5,-72 1230.5,-72 1236.5,-78 1236.5,-84 1236.5,-84 1236.5,-96 1236.5,-96 1236.5,-102 1230.5,-108 1224.5,-108"/>
<text text-anchor="middle" x="1163.5" y="-87.5" font-family="sans" font-size="10.00">_copy_exomedepth_nexus</text>
</g>
<!-- 41&#45;&gt;0 -->
<g id="edge4" class="edge">
<title>41&#45;&gt;0</title>
<path fill="none" stroke="grey" stroke-width="2" d="M1176.11,-71.7C1182.1,-63.47 1189.38,-53.48 1195.98,-44.42"/>
<polygon fill="grey" stroke="grey" stroke-width="2" points="1198.98,-46.25 1202.04,-36.1 1193.32,-42.13 1198.98,-46.25"/>
</g>
<!-- 42 -->
<g id="node43" class="node">
<title>42</title>
<path fill="none" stroke="#569ad8" stroke-width="2" d="M1208.5,-180C1208.5,-180 1118.5,-180 1118.5,-180 1112.5,-180 1106.5,-174 1106.5,-168 1106.5,-168 1106.5,-156 1106.5,-156 1106.5,-150 1112.5,-144 1118.5,-144 1118.5,-144 1208.5,-144 1208.5,-144 1214.5,-144 1220.5,-150 1220.5,-156 1220.5,-156 1220.5,-168 1220.5,-168 1220.5,-174 1214.5,-180 1208.5,-180"/>
<text text-anchor="middle" x="1163.5" y="-159.5" font-family="sans" font-size="10.00">exomedepth_export</text>
</g>
<!-- 42&#45;&gt;41 -->
<g id="edge73" class="edge">
<title>42&#45;&gt;41</title>
<path fill="none" stroke="grey" stroke-width="2" d="M1163.5,-143.7C1163.5,-135.98 1163.5,-126.71 1163.5,-118.11"/>
<polygon fill="grey" stroke="grey" stroke-width="2" points="1167,-118.1 1163.5,-108.1 1160,-118.1 1167,-118.1"/>
</g>
<!-- 44 -->
<g id="node45" class="node">
<title>44</title>
<path fill="none" stroke="#56d873" stroke-width="2" d="M1060.5,-108C1060.5,-108 950.5,-108 950.5,-108 944.5,-108 938.5,-102 938.5,-96 938.5,-96 938.5,-84 938.5,-84 938.5,-78 944.5,-72 950.5,-72 950.5,-72 1060.5,-72 1060.5,-72 1066.5,-72 1072.5,-78 1072.5,-84 1072.5,-84 1072.5,-96 1072.5,-96 1072.5,-102 1066.5,-108 1060.5,-108"/>
<text text-anchor="middle" x="1005.5" y="-87.5" font-family="sans" font-size="10.00">_copy_exomedepth_aed</text>
</g>
<!-- 42&#45;&gt;44 -->
<g id="edge76" class="edge">
<title>42&#45;&gt;44</title>
<path fill="none" stroke="grey" stroke-width="2" d="M1124.85,-143.88C1103.25,-134.31 1076.15,-122.3 1053.23,-112.15"/>
<polygon fill="grey" stroke="grey" stroke-width="2" points="1054.59,-108.92 1044.03,-108.07 1051.75,-115.32 1054.59,-108.92"/>
</g>
<!-- 43&#45;&gt;42 -->
<g id="edge74" class="edge">
<title>43&#45;&gt;42</title>
<path fill="none" stroke="grey" stroke-width="2" d="M1316.27,-359.86C1278.15,-339.46 1218.41,-301.82 1185.5,-252 1173.27,-233.49 1167.83,-208.74 1165.42,-190.04"/>
<polygon fill="grey" stroke="grey" stroke-width="2" points="1168.9,-189.66 1164.35,-180.09 1161.94,-190.41 1168.9,-189.66"/>
</g>
<!-- 44&#45;&gt;0 -->
<g id="edge3" class="edge">
<title>44&#45;&gt;0</title>
<path fill="none" stroke="grey" stroke-width="2" d="M1056.36,-71.97C1093.81,-59.42 1143.87,-42.66 1177.55,-31.38"/>
<polygon fill="grey" stroke="grey" stroke-width="2" points="1179.07,-34.56 1187.44,-28.06 1176.85,-27.92 1179.07,-34.56"/>
</g>
</g>
</svg>
