<?xml version="1.0" encoding="UTF-8" standalone="no"?>
<!DOCTYPE svg PUBLIC "-//W3C//DTD SVG 1.1//EN"
 "http://www.w3.org/Graphics/SVG/1.1/DTD/svg11.dtd">
<!-- Generated by graphviz version 2.43.0 (0)
 -->
<!-- Title: snakemake_dag Pages: 1 -->
<svg width="2179pt" height="980pt"
 viewBox="0.00 0.00 2179.00 980.00" xmlns="http://www.w3.org/2000/svg" xmlns:xlink="http://www.w3.org/1999/xlink">
<g id="graph0" class="graph" transform="scale(1 1) rotate(0) translate(4 976)">
<title>snakemake_dag</title>
<polygon fill="white" stroke="transparent" points="-4,4 -4,-976 2175,-976 2175,4 -4,4"/>
<!-- 0 -->
<g id="node1" class="node">
<title>0</title>
<path fill="none" stroke="#a7d856" stroke-width="2" d="M1213,-108C1213,-108 1183,-108 1183,-108 1177,-108 1171,-102 1171,-96 1171,-96 1171,-84 1171,-84 1171,-78 1177,-72 1183,-72 1183,-72 1213,-72 1213,-72 1219,-72 1225,-78 1225,-84 1225,-84 1225,-96 1225,-96 1225,-102 1219,-108 1213,-108"/>
<text text-anchor="middle" x="1198" y="-87.5" font-family="sans" font-size="10.00">all</text>
</g>
<!-- 1 -->
<g id="node2" class="node">
<title>1</title>
<path fill="none" stroke="#56d863" stroke-width="2" d="M1761.5,-252C1761.5,-252 1698.5,-252 1698.5,-252 1692.5,-252 1686.5,-246 1686.5,-240 1686.5,-240 1686.5,-228 1686.5,-228 1686.5,-222 1692.5,-216 1698.5,-216 1698.5,-216 1761.5,-216 1761.5,-216 1767.5,-216 1773.5,-222 1773.5,-228 1773.5,-228 1773.5,-240 1773.5,-240 1773.5,-246 1767.5,-252 1761.5,-252"/>
<text text-anchor="middle" x="1730" y="-231.5" font-family="sans" font-size="10.00">_copy_multiqc</text>
</g>
<!-- 1&#45;&gt;0 -->
<g id="edge1" class="edge">
<title>1&#45;&gt;0</title>
<path fill="none" stroke="grey" stroke-width="2" d="M1709.76,-215.65C1684.33,-194.9 1638.48,-160.85 1593,-144 1468.03,-97.71 1307.5,-91.07 1235.67,-90.62"/>
<polygon fill="grey" stroke="grey" stroke-width="2" points="1235.34,-87.12 1225.33,-90.6 1235.32,-94.12 1235.34,-87.12"/>
</g>
<!-- 2 -->
<g id="node3" class="node">
<title>2</title>
<path fill="none" stroke="#566bd8" stroke-width="2" d="M1761,-396C1761,-396 1715,-396 1715,-396 1709,-396 1703,-390 1703,-384 1703,-384 1703,-372 1703,-372 1703,-366 1709,-360 1715,-360 1715,-360 1761,-360 1761,-360 1767,-360 1773,-366 1773,-372 1773,-372 1773,-384 1773,-384 1773,-390 1767,-396 1761,-396"/>
<text text-anchor="middle" x="1738" y="-375.5" font-family="sans" font-size="10.00">qc_multiqc</text>
</g>
<!-- 2&#45;&gt;1 -->
<g id="edge12" class="edge">
<title>2&#45;&gt;1</title>
<path fill="none" stroke="grey" stroke-width="2" d="M1737.04,-359.87C1735.67,-335.67 1733.17,-291.21 1731.54,-262.39"/>
<polygon fill="grey" stroke="grey" stroke-width="2" points="1735.03,-261.98 1730.97,-252.19 1728.04,-262.37 1735.03,-261.98"/>
</g>
<!-- 3 -->
<g id="node4" class="node">
<title>3</title>
<path fill="none" stroke="#d8a456" stroke-width="2" d="M1473.5,-612C1473.5,-612 1390.5,-612 1390.5,-612 1384.5,-612 1378.5,-606 1378.5,-600 1378.5,-600 1378.5,-588 1378.5,-588 1378.5,-582 1384.5,-576 1390.5,-576 1390.5,-576 1473.5,-576 1473.5,-576 1479.5,-576 1485.5,-582 1485.5,-588 1485.5,-588 1485.5,-600 1485.5,-600 1485.5,-606 1479.5,-612 1473.5,-612"/>
<text text-anchor="middle" x="1432" y="-591.5" font-family="sans" font-size="10.00">qc_samtools_stats</text>
</g>
<!-- 3&#45;&gt;2 -->
<g id="edge13" class="edge">
<title>3&#45;&gt;2</title>
<path fill="none" stroke="grey" stroke-width="2" d="M1449.41,-575.79C1481.86,-544.35 1554.7,-476.76 1625,-432 1646.58,-418.26 1672.28,-405.93 1693.71,-396.62"/>
<polygon fill="grey" stroke="grey" stroke-width="2" points="1695.1,-399.84 1702.92,-392.69 1692.35,-393.4 1695.1,-399.84"/>
</g>
<!-- 4 -->
<g id="node5" class="node">
<title>4</title>
<path fill="none" stroke="#9fd856" stroke-width="2" d="M1438,-756C1438,-756 1322,-756 1322,-756 1316,-756 1310,-750 1310,-744 1310,-744 1310,-732 1310,-732 1310,-726 1316,-720 1322,-720 1322,-720 1438,-720 1438,-720 1444,-720 1450,-726 1450,-732 1450,-732 1450,-744 1450,-744 1450,-750 1444,-756 1438,-756"/>
<text text-anchor="middle" x="1380" y="-735.5" font-family="sans" font-size="10.00">alignment_samtools_sort</text>
</g>
<!-- 4&#45;&gt;3 -->
<g id="edge24" class="edge">
<title>4&#45;&gt;3</title>
<path fill="none" stroke="grey" stroke-width="2" d="M1386.27,-719.87C1395.21,-695.46 1411.7,-650.43 1422.25,-621.64"/>
<polygon fill="grey" stroke="grey" stroke-width="2" points="1425.55,-622.78 1425.71,-612.19 1418.98,-620.38 1425.55,-622.78"/>
</g>
<!-- 7 -->
<g id="node8" class="node">
<title>7</title>
<path fill="none" stroke="#56d8c1" stroke-width="2" d="M1120,-684C1120,-684 956,-684 956,-684 950,-684 944,-678 944,-672 944,-672 944,-660 944,-660 944,-654 950,-648 956,-648 956,-648 1120,-648 1120,-648 1126,-648 1132,-654 1132,-660 1132,-660 1132,-672 1132,-672 1132,-678 1126,-684 1120,-684"/>
<text text-anchor="middle" x="1038" y="-663.5" font-family="sans" font-size="10.00">alignment_samtools_extract_reads</text>
</g>
<!-- 4&#45;&gt;7 -->
<g id="edge30" class="edge">
<title>4&#45;&gt;7</title>
<path fill="none" stroke="grey" stroke-width="2" d="M1309.97,-722.67C1258.35,-712.1 1187.6,-697.62 1131.21,-686.08"/>
<polygon fill="grey" stroke="grey" stroke-width="2" points="1131.71,-682.61 1121.21,-684.03 1130.31,-689.47 1131.71,-682.61"/>
</g>
<!-- 11 -->
<g id="node12" class="node">
<title>11</title>
<path fill="none" stroke="#5692d8" stroke-width="2" d="M997.5,-540C997.5,-540 872.5,-540 872.5,-540 866.5,-540 860.5,-534 860.5,-528 860.5,-528 860.5,-516 860.5,-516 860.5,-510 866.5,-504 872.5,-504 872.5,-504 997.5,-504 997.5,-504 1003.5,-504 1009.5,-510 1009.5,-516 1009.5,-516 1009.5,-528 1009.5,-528 1009.5,-534 1003.5,-540 997.5,-540"/>
<text text-anchor="middle" x="935" y="-519.5" font-family="sans" font-size="10.00">alignment_samtools_index</text>
</g>
<!-- 4&#45;&gt;11 -->
<g id="edge33" class="edge">
<title>4&#45;&gt;11</title>
<path fill="none" stroke="grey" stroke-width="2" d="M1309.75,-723.08C1274.25,-714.52 1231.14,-701.74 1195,-684 1158.61,-666.14 1082.85,-596.7 1048,-576 1028.22,-564.25 1005.41,-553.13 985.48,-544.13"/>
<polygon fill="grey" stroke="grey" stroke-width="2" points="986.81,-540.9 976.26,-540.03 983.97,-547.29 986.81,-540.9"/>
</g>
<!-- 12 -->
<g id="node13" class="node">
<title>12</title>
<path fill="none" stroke="#56d8b9" stroke-width="2" d="M1680,-612C1680,-612 1516,-612 1516,-612 1510,-612 1504,-606 1504,-600 1504,-600 1504,-588 1504,-588 1504,-582 1510,-576 1516,-576 1516,-576 1680,-576 1680,-576 1686,-576 1692,-582 1692,-588 1692,-588 1692,-600 1692,-600 1692,-606 1686,-612 1680,-612"/>
<text text-anchor="middle" x="1598" y="-591.5" font-family="sans" font-size="10.00">qc_picard_collect_multiple_metrics</text>
</g>
<!-- 4&#45;&gt;12 -->
<g id="edge35" class="edge">
<title>4&#45;&gt;12</title>
<path fill="none" stroke="grey" stroke-width="2" d="M1406.3,-719.87C1445.5,-694.34 1519.32,-646.25 1563.03,-617.78"/>
<polygon fill="grey" stroke="grey" stroke-width="2" points="1565.14,-620.58 1571.61,-612.19 1561.32,-614.71 1565.14,-620.58"/>
</g>
<!-- 13 -->
<g id="node14" class="node">
<title>13</title>
<path fill="none" stroke="#d8d356" stroke-width="2" d="M1936,-612C1936,-612 1760,-612 1760,-612 1754,-612 1748,-606 1748,-600 1748,-600 1748,-588 1748,-588 1748,-582 1754,-576 1760,-576 1760,-576 1936,-576 1936,-576 1942,-576 1948,-582 1948,-588 1948,-588 1948,-600 1948,-600 1948,-606 1942,-612 1936,-612"/>
<text text-anchor="middle" x="1848" y="-591.5" font-family="sans" font-size="10.00">qc_picard_collect_insert_size_metrics</text>
</g>
<!-- 4&#45;&gt;13 -->
<g id="edge36" class="edge">
<title>4&#45;&gt;13</title>
<path fill="none" stroke="grey" stroke-width="2" d="M1450.05,-732.06C1503.93,-726.08 1579.06,-712.91 1639,-684 1661.45,-673.17 1660.16,-660.02 1682,-648 1707.26,-634.1 1736.71,-623.21 1763.74,-615"/>
<polygon fill="grey" stroke="grey" stroke-width="2" points="1764.98,-618.29 1773.58,-612.1 1763,-611.58 1764.98,-618.29"/>
</g>
<!-- 15 -->
<g id="node16" class="node">
<title>15</title>
<path fill="none" stroke="#d89c56" stroke-width="2" d="M1090.5,-468C1090.5,-468 1009.5,-468 1009.5,-468 1003.5,-468 997.5,-462 997.5,-456 997.5,-456 997.5,-444 997.5,-444 997.5,-438 1003.5,-432 1009.5,-432 1009.5,-432 1090.5,-432 1090.5,-432 1096.5,-432 1102.5,-438 1102.5,-444 1102.5,-444 1102.5,-456 1102.5,-456 1102.5,-462 1096.5,-468 1090.5,-468"/>
<text text-anchor="middle" x="1050" y="-447.5" font-family="sans" font-size="10.00">qc_mosdepth_bed</text>
</g>
<!-- 4&#45;&gt;15 -->
<g id="edge38" class="edge">
<title>4&#45;&gt;15</title>
<path fill="none" stroke="grey" stroke-width="2" d="M1347,-719.97C1331.81,-710.88 1314.45,-698.56 1302,-684 1244.49,-616.77 1283.6,-562.23 1217,-504 1212.78,-500.31 1157.98,-483.27 1112.28,-469.5"/>
<polygon fill="grey" stroke="grey" stroke-width="2" points="1113.28,-466.14 1102.69,-466.62 1111.26,-472.85 1113.28,-466.14"/>
</g>
<!-- 16 -->
<g id="node17" class="node">
<title>16</title>
<path fill="none" stroke="#56d8c9" stroke-width="2" d="M1758.5,-540C1758.5,-540 1623.5,-540 1623.5,-540 1617.5,-540 1611.5,-534 1611.5,-528 1611.5,-528 1611.5,-516 1611.5,-516 1611.5,-510 1617.5,-504 1623.5,-504 1623.5,-504 1758.5,-504 1758.5,-504 1764.5,-504 1770.5,-510 1770.5,-516 1770.5,-516 1770.5,-528 1770.5,-528 1770.5,-534 1764.5,-540 1758.5,-540"/>
<text text-anchor="middle" x="1691" y="-519.5" font-family="sans" font-size="10.00">qc_picard_collect_hs_metrics</text>
</g>
<!-- 4&#45;&gt;16 -->
<g id="edge39" class="edge">
<title>4&#45;&gt;16</title>
<path fill="none" stroke="grey" stroke-width="2" d="M1433.25,-719.91C1520.33,-691.44 1685.18,-635.14 1701,-612 1713.42,-593.83 1709.05,-568.54 1702.66,-549.56"/>
<polygon fill="grey" stroke="grey" stroke-width="2" points="1705.87,-548.17 1699.1,-540.02 1699.31,-550.61 1705.87,-548.17"/>
</g>
<!-- 17 -->
<g id="node18" class="node">
<title>17</title>
<path fill="none" stroke="#d86e56" stroke-width="2" d="M1468,-468C1468,-468 1290,-468 1290,-468 1284,-468 1278,-462 1278,-456 1278,-456 1278,-444 1278,-444 1278,-438 1284,-432 1290,-432 1290,-432 1468,-432 1468,-432 1474,-432 1480,-438 1480,-444 1480,-444 1480,-456 1480,-456 1480,-462 1474,-468 1468,-468"/>
<text text-anchor="middle" x="1379" y="-447.5" font-family="sans" font-size="10.00">qc_picard_collect_duplication_metrics</text>
</g>
<!-- 4&#45;&gt;17 -->
<g id="edge40" class="edge">
<title>4&#45;&gt;17</title>
<path fill="none" stroke="grey" stroke-width="2" d="M1360.53,-719.92C1351.18,-710.4 1340.95,-697.72 1336,-684 1309.96,-611.88 1344.64,-521.25 1365.42,-477.31"/>
<polygon fill="grey" stroke="grey" stroke-width="2" points="1368.64,-478.69 1369.86,-468.17 1362.34,-475.63 1368.64,-478.69"/>
</g>
<!-- 18 -->
<g id="node19" class="node">
<title>18</title>
<path fill="none" stroke="#68d856" stroke-width="2" d="M1863.5,-684C1863.5,-684 1702.5,-684 1702.5,-684 1696.5,-684 1690.5,-678 1690.5,-672 1690.5,-672 1690.5,-660 1690.5,-660 1690.5,-654 1696.5,-648 1702.5,-648 1702.5,-648 1863.5,-648 1863.5,-648 1869.5,-648 1875.5,-654 1875.5,-660 1875.5,-660 1875.5,-672 1875.5,-672 1875.5,-678 1869.5,-684 1863.5,-684"/>
<text text-anchor="middle" x="1783" y="-663.5" font-family="sans" font-size="10.00">qc_picard_collect_gc_bias_metrics</text>
</g>
<!-- 4&#45;&gt;18 -->
<g id="edge41" class="edge">
<title>4&#45;&gt;18</title>
<path fill="none" stroke="grey" stroke-width="2" d="M1450.2,-724.81C1513.73,-713.77 1608.12,-697.38 1680.17,-684.86"/>
<polygon fill="grey" stroke="grey" stroke-width="2" points="1680.93,-688.28 1690.18,-683.12 1679.73,-681.39 1680.93,-688.28"/>
</g>
<!-- 19 -->
<g id="node20" class="node">
<title>19</title>
<path fill="none" stroke="#9fd856" stroke-width="2" d="M2130.5,-684C2130.5,-684 1905.5,-684 1905.5,-684 1899.5,-684 1893.5,-678 1893.5,-672 1893.5,-672 1893.5,-660 1893.5,-660 1893.5,-654 1899.5,-648 1905.5,-648 1905.5,-648 2130.5,-648 2130.5,-648 2136.5,-648 2142.5,-654 2142.5,-660 2142.5,-660 2142.5,-672 2142.5,-672 2142.5,-678 2136.5,-684 2130.5,-684"/>
<text text-anchor="middle" x="2018" y="-663.5" font-family="sans" font-size="10.00">qc_picard_collect_alignment_summary_metrics</text>
</g>
<!-- 4&#45;&gt;19 -->
<g id="edge42" class="edge">
<title>4&#45;&gt;19</title>
<path fill="none" stroke="grey" stroke-width="2" d="M1450.31,-730.13C1545.93,-720.67 1722.58,-702.79 1883.34,-684.18"/>
<polygon fill="grey" stroke="grey" stroke-width="2" points="1883.88,-687.64 1893.41,-683.01 1883.07,-680.69 1883.88,-687.64"/>
</g>
<!-- 25 -->
<g id="node26" class="node">
<title>25</title>
<path fill="none" stroke="#565bd8" stroke-width="2" d="M1642.5,-252C1642.5,-252 1519.5,-252 1519.5,-252 1513.5,-252 1507.5,-246 1507.5,-240 1507.5,-240 1507.5,-228 1507.5,-228 1507.5,-222 1513.5,-216 1519.5,-216 1519.5,-216 1642.5,-216 1642.5,-216 1648.5,-216 1654.5,-222 1654.5,-228 1654.5,-228 1654.5,-240 1654.5,-240 1654.5,-246 1648.5,-252 1642.5,-252"/>
<text text-anchor="middle" x="1581" y="-231.5" font-family="sans" font-size="10.00">_copy_alignment_bam_file</text>
</g>
<!-- 4&#45;&gt;25 -->
<g id="edge50" class="edge">
<title>4&#45;&gt;25</title>
<path fill="none" stroke="grey" stroke-width="2" d="M1373.71,-719.63C1363.72,-689.07 1347.46,-624.37 1369,-576 1398.19,-510.45 1448.07,-526.93 1489,-468 1535.39,-401.2 1563.1,-307.66 1574.66,-262.09"/>
<polygon fill="grey" stroke="grey" stroke-width="2" points="1578.13,-262.64 1577.14,-252.1 1571.34,-260.96 1578.13,-262.64"/>
</g>
<!-- 45 -->
<g id="node46" class="node">
<title>45</title>
<path fill="none" stroke="#78d856" stroke-width="2" d="M1247.5,-468C1247.5,-468 1132.5,-468 1132.5,-468 1126.5,-468 1120.5,-462 1120.5,-456 1120.5,-456 1120.5,-444 1120.5,-444 1120.5,-438 1126.5,-432 1132.5,-432 1132.5,-432 1247.5,-432 1247.5,-432 1253.5,-432 1259.5,-438 1259.5,-444 1259.5,-444 1259.5,-456 1259.5,-456 1259.5,-462 1253.5,-468 1247.5,-468"/>
<text text-anchor="middle" x="1190" y="-447.5" font-family="sans" font-size="10.00">cnv_sv_exomedepth_call</text>
</g>
<!-- 4&#45;&gt;45 -->
<g id="edge81" class="edge">
<title>4&#45;&gt;45</title>
<path fill="none" stroke="grey" stroke-width="2" d="M1358.34,-719.85C1347.26,-710.23 1334.2,-697.47 1325,-684 1276.11,-612.44 1300.43,-574.48 1250,-504 1242.21,-493.12 1231.8,-482.93 1221.83,-474.44"/>
<polygon fill="grey" stroke="grey" stroke-width="2" points="1223.95,-471.65 1214,-468.03 1219.52,-477.07 1223.95,-471.65"/>
</g>
<!-- 5 -->
<g id="node6" class="node">
<title>5</title>
<path fill="none" stroke="#5692d8" stroke-width="2" d="M1196,-540C1196,-540 1040,-540 1040,-540 1034,-540 1028,-534 1028,-528 1028,-528 1028,-516 1028,-516 1028,-510 1034,-504 1040,-504 1040,-504 1196,-504 1196,-504 1202,-504 1208,-510 1208,-516 1208,-516 1208,-528 1208,-528 1208,-534 1202,-540 1196,-540"/>
<text text-anchor="middle" x="1118" y="-519.5" font-family="sans" font-size="10.00">alignment_samtools_merge_bam</text>
</g>
<!-- 5&#45;&gt;4 -->
<g id="edge26" class="edge">
<title>5&#45;&gt;4</title>
<path fill="none" stroke="grey" stroke-width="2" d="M1139.94,-540.17C1151.19,-549.8 1164.49,-562.56 1174,-576 1204.33,-618.89 1183.14,-648.65 1222,-684 1243.54,-703.59 1272.56,-715.97 1299.86,-723.78"/>
<polygon fill="grey" stroke="grey" stroke-width="2" points="1299.25,-727.24 1309.82,-726.46 1301.07,-720.48 1299.25,-727.24"/>
</g>
<!-- 6 -->
<g id="node7" class="node">
<title>6</title>
<path fill="none" stroke="#d87d56" stroke-width="2" d="M1007,-612C1007,-612 843,-612 843,-612 837,-612 831,-606 831,-600 831,-600 831,-588 831,-588 831,-582 837,-576 843,-576 843,-576 1007,-576 1007,-576 1013,-576 1019,-582 1019,-588 1019,-588 1019,-600 1019,-600 1019,-606 1013,-612 1007,-612"/>
<text text-anchor="middle" x="925" y="-591.5" font-family="sans" font-size="10.00">alignment_picard_mark_duplicates</text>
</g>
<!-- 6&#45;&gt;5 -->
<g id="edge27" class="edge">
<title>6&#45;&gt;5</title>
<path fill="none" stroke="grey" stroke-width="2" d="M972.21,-575.88C999.07,-566.14 1032.88,-553.87 1061.18,-543.61"/>
<polygon fill="grey" stroke="grey" stroke-width="2" points="1062.73,-546.77 1070.94,-540.07 1060.35,-540.19 1062.73,-546.77"/>
</g>
<!-- 6&#45;&gt;11 -->
<g id="edge34" class="edge">
<title>6&#45;&gt;11</title>
<path fill="none" stroke="grey" stroke-width="2" d="M927.47,-575.7C928.57,-567.98 929.9,-558.71 931.13,-550.11"/>
<polygon fill="grey" stroke="grey" stroke-width="2" points="934.61,-550.5 932.56,-540.1 927.68,-549.51 934.61,-550.5"/>
</g>
<!-- 37 -->
<g id="node38" class="node">
<title>37</title>
<path fill="none" stroke="#56d89a" stroke-width="2" d="M741,-468C741,-468 633,-468 633,-468 627,-468 621,-462 621,-456 621,-456 621,-444 621,-444 621,-438 627,-432 633,-432 633,-432 741,-432 741,-432 747,-432 753,-438 753,-444 753,-444 753,-456 753,-456 753,-462 747,-468 741,-468"/>
<text text-anchor="middle" x="687" y="-447.5" font-family="sans" font-size="10.00">snv_indels_deepvariant</text>
</g>
<!-- 6&#45;&gt;37 -->
<g id="edge72" class="edge">
<title>6&#45;&gt;37</title>
<path fill="none" stroke="grey" stroke-width="2" d="M830.95,-580.36C779.93,-571.6 723.73,-558.22 706,-540 690.29,-523.85 686.18,-498.08 685.63,-478.42"/>
<polygon fill="grey" stroke="grey" stroke-width="2" points="689.13,-478.22 685.64,-468.22 682.13,-478.22 689.13,-478.22"/>
</g>
<!-- 7&#45;&gt;6 -->
<g id="edge28" class="edge">
<title>7&#45;&gt;6</title>
<path fill="none" stroke="grey" stroke-width="2" d="M1010.36,-647.88C995.58,-638.72 977.21,-627.34 961.3,-617.48"/>
<polygon fill="grey" stroke="grey" stroke-width="2" points="963.09,-614.48 952.75,-612.19 959.41,-620.43 963.09,-614.48"/>
</g>
<!-- 8 -->
<g id="node9" class="node">
<title>8</title>
<path fill="none" stroke="#b6d856" stroke-width="2" d="M1549.5,-828C1549.5,-828 1414.5,-828 1414.5,-828 1408.5,-828 1402.5,-822 1402.5,-816 1402.5,-816 1402.5,-804 1402.5,-804 1402.5,-798 1408.5,-792 1414.5,-792 1414.5,-792 1549.5,-792 1549.5,-792 1555.5,-792 1561.5,-798 1561.5,-804 1561.5,-804 1561.5,-816 1561.5,-816 1561.5,-822 1555.5,-828 1549.5,-828"/>
<text text-anchor="middle" x="1482" y="-807.5" font-family="sans" font-size="10.00">alignment_bwa_mem_merge</text>
</g>
<!-- 8&#45;&gt;4 -->
<g id="edge25" class="edge">
<title>8&#45;&gt;4</title>
<path fill="none" stroke="grey" stroke-width="2" d="M1457.05,-791.88C1443.96,-782.89 1427.74,-771.76 1413.56,-762.03"/>
<polygon fill="grey" stroke="grey" stroke-width="2" points="1415.27,-758.96 1405.05,-756.19 1411.31,-764.73 1415.27,-758.96"/>
</g>
<!-- 9 -->
<g id="node10" class="node">
<title>9</title>
<path fill="none" stroke="#56d8d8" stroke-width="2" d="M1735,-900C1735,-900 1637,-900 1637,-900 1631,-900 1625,-894 1625,-888 1625,-888 1625,-876 1625,-876 1625,-870 1631,-864 1637,-864 1637,-864 1735,-864 1735,-864 1741,-864 1747,-870 1747,-876 1747,-876 1747,-888 1747,-888 1747,-894 1741,-900 1735,-900"/>
<text text-anchor="middle" x="1686" y="-879.5" font-family="sans" font-size="10.00">alignment_bwa_mem</text>
</g>
<!-- 9&#45;&gt;8 -->
<g id="edge31" class="edge">
<title>9&#45;&gt;8</title>
<path fill="none" stroke="grey" stroke-width="2" d="M1636.36,-863.97C1607.73,-854.14 1571.55,-841.73 1541.42,-831.39"/>
<polygon fill="grey" stroke="grey" stroke-width="2" points="1542.46,-828.05 1531.87,-828.11 1540.19,-834.67 1542.46,-828.05"/>
</g>
<!-- 10 -->
<g id="node11" class="node">
<title>10</title>
<path fill="none" stroke="#56a9d8" stroke-width="2" d="M2146.5,-972C2146.5,-972 2041.5,-972 2041.5,-972 2035.5,-972 2029.5,-966 2029.5,-960 2029.5,-960 2029.5,-948 2029.5,-948 2029.5,-942 2035.5,-936 2041.5,-936 2041.5,-936 2146.5,-936 2146.5,-936 2152.5,-936 2158.5,-942 2158.5,-948 2158.5,-948 2158.5,-960 2158.5,-960 2158.5,-966 2152.5,-972 2146.5,-972"/>
<text text-anchor="middle" x="2094" y="-951.5" font-family="sans" font-size="10.00">prealignment_fastp_pe</text>
</g>
<!-- 10&#45;&gt;2 -->
<g id="edge20" class="edge">
<title>10&#45;&gt;2</title>
<path fill="none" stroke="grey" stroke-width="2" d="M2110.71,-935.81C2133.35,-910.62 2171,-861.2 2171,-811 2171,-811 2171,-811 2171,-521 2171,-440.05 1894.29,-397.78 1783.28,-384.08"/>
<polygon fill="grey" stroke="grey" stroke-width="2" points="1783.42,-380.57 1773.07,-382.84 1782.57,-387.52 1783.42,-380.57"/>
</g>
<!-- 10&#45;&gt;9 -->
<g id="edge32" class="edge">
<title>10&#45;&gt;9</title>
<path fill="none" stroke="grey" stroke-width="2" d="M2029.35,-941.91C1955.16,-929.18 1833.87,-908.37 1757.08,-895.2"/>
<polygon fill="grey" stroke="grey" stroke-width="2" points="1757.46,-891.71 1747.01,-893.47 1756.28,-898.61 1757.46,-891.71"/>
</g>
<!-- 11&#45;&gt;7 -->
<g id="edge29" class="edge">
<title>11&#45;&gt;7</title>
<path fill="none" stroke="grey" stroke-width="2" d="M983.67,-540.03C1000.36,-548.31 1017.47,-560.01 1028,-576 1039.92,-594.1 1041.82,-618.88 1041.08,-637.7"/>
<polygon fill="grey" stroke="grey" stroke-width="2" points="1037.59,-637.52 1040.42,-647.73 1044.57,-637.98 1037.59,-637.52"/>
</g>
<!-- 11&#45;&gt;15 -->
<g id="edge37" class="edge">
<title>11&#45;&gt;15</title>
<path fill="none" stroke="grey" stroke-width="2" d="M963.13,-503.88C978.17,-494.72 996.87,-483.34 1013.06,-473.48"/>
<polygon fill="grey" stroke="grey" stroke-width="2" points="1015.04,-476.38 1021.76,-468.19 1011.4,-470.4 1015.04,-476.38"/>
</g>
<!-- 26 -->
<g id="node27" class="node">
<title>26</title>
<path fill="none" stroke="#ced856" stroke-width="2" d="M922,-396C922,-396 806,-396 806,-396 800,-396 794,-390 794,-384 794,-384 794,-372 794,-372 794,-366 800,-360 806,-360 806,-360 922,-360 922,-360 928,-360 934,-366 934,-372 934,-372 934,-384 934,-384 934,-390 928,-396 922,-396"/>
<text text-anchor="middle" x="864" y="-375.5" font-family="sans" font-size="10.00">_copy_alignment_bai_file</text>
</g>
<!-- 11&#45;&gt;26 -->
<g id="edge51" class="edge">
<title>11&#45;&gt;26</title>
<path fill="none" stroke="grey" stroke-width="2" d="M926.44,-503.87C914.18,-479.35 891.52,-434.03 877.13,-405.26"/>
<polygon fill="grey" stroke="grey" stroke-width="2" points="880.2,-403.57 872.59,-396.19 873.94,-406.7 880.2,-403.57"/>
</g>
<!-- 11&#45;&gt;37 -->
<g id="edge71" class="edge">
<title>11&#45;&gt;37</title>
<path fill="none" stroke="grey" stroke-width="2" d="M874.65,-503.97C839.25,-493.97 794.34,-481.3 757.34,-470.85"/>
<polygon fill="grey" stroke="grey" stroke-width="2" points="758.2,-467.46 747.62,-468.11 756.29,-474.2 758.2,-467.46"/>
</g>
<!-- 11&#45;&gt;45 -->
<g id="edge80" class="edge">
<title>11&#45;&gt;45</title>
<path fill="none" stroke="grey" stroke-width="2" d="M997.05,-503.97C1033.46,-493.97 1079.63,-481.3 1117.68,-470.85"/>
<polygon fill="grey" stroke="grey" stroke-width="2" points="1118.95,-474.13 1127.67,-468.11 1117.1,-467.38 1118.95,-474.13"/>
</g>
<!-- 12&#45;&gt;2 -->
<g id="edge21" class="edge">
<title>12&#45;&gt;2</title>
<path fill="none" stroke="grey" stroke-width="2" d="M1595.28,-575.68C1593.18,-557.03 1592.19,-526.96 1603,-504 1623.83,-459.75 1668.03,-423.72 1700.2,-401.9"/>
<polygon fill="grey" stroke="grey" stroke-width="2" points="1702.51,-404.57 1708.92,-396.13 1698.65,-398.73 1702.51,-404.57"/>
</g>
<!-- 13&#45;&gt;2 -->
<g id="edge17" class="edge">
<title>13&#45;&gt;2</title>
<path fill="none" stroke="grey" stroke-width="2" d="M1842.28,-575.87C1831.86,-545.69 1808.14,-481.54 1779,-432 1773.43,-422.52 1766.38,-412.82 1759.71,-404.35"/>
<polygon fill="grey" stroke="grey" stroke-width="2" points="1762.24,-401.92 1753.23,-396.35 1756.8,-406.32 1762.24,-401.92"/>
</g>
<!-- 14 -->
<g id="node15" class="node">
<title>14</title>
<path fill="none" stroke="#56d8d0" stroke-width="2" d="M1757.5,-468C1757.5,-468 1718.5,-468 1718.5,-468 1712.5,-468 1706.5,-462 1706.5,-456 1706.5,-456 1706.5,-444 1706.5,-444 1706.5,-438 1712.5,-432 1718.5,-432 1718.5,-432 1757.5,-432 1757.5,-432 1763.5,-432 1769.5,-438 1769.5,-444 1769.5,-444 1769.5,-456 1769.5,-456 1769.5,-462 1763.5,-468 1757.5,-468"/>
<text text-anchor="middle" x="1738" y="-447.5" font-family="sans" font-size="10.00">qc_fastqc</text>
</g>
<!-- 14&#45;&gt;2 -->
<g id="edge23" class="edge">
<title>14&#45;&gt;2</title>
<path fill="none" stroke="grey" stroke-width="2" d="M1738,-431.7C1738,-423.98 1738,-414.71 1738,-406.11"/>
<polygon fill="grey" stroke="grey" stroke-width="2" points="1741.5,-406.1 1738,-396.1 1734.5,-406.1 1741.5,-406.1"/>
</g>
<!-- 15&#45;&gt;2 -->
<g id="edge22" class="edge">
<title>15&#45;&gt;2</title>
<path fill="none" stroke="grey" stroke-width="2" d="M1102.76,-433.64C1105.54,-433.04 1108.29,-432.49 1111,-432 1326.43,-393.23 1588.73,-382.68 1692.56,-379.93"/>
<polygon fill="grey" stroke="grey" stroke-width="2" points="1692.78,-383.42 1702.69,-379.67 1692.6,-376.43 1692.78,-383.42"/>
</g>
<!-- 22 -->
<g id="node23" class="node">
<title>22</title>
<path fill="none" stroke="#d8b456" stroke-width="2" d="M1339.5,-324C1339.5,-324 1238.5,-324 1238.5,-324 1232.5,-324 1226.5,-318 1226.5,-312 1226.5,-312 1226.5,-300 1226.5,-300 1226.5,-294 1232.5,-288 1238.5,-288 1238.5,-288 1339.5,-288 1339.5,-288 1345.5,-288 1351.5,-294 1351.5,-300 1351.5,-300 1351.5,-312 1351.5,-312 1351.5,-318 1345.5,-324 1339.5,-324"/>
<text text-anchor="middle" x="1289" y="-303.5" font-family="sans" font-size="10.00">export_qc_xlsx_report</text>
</g>
<!-- 15&#45;&gt;22 -->
<g id="edge45" class="edge">
<title>15&#45;&gt;22</title>
<path fill="none" stroke="grey" stroke-width="2" d="M1102.82,-433.91C1105.58,-433.24 1108.32,-432.6 1111,-432 1158.07,-421.51 1293.86,-432.82 1325,-396 1340.73,-377.4 1326.77,-351.04 1311.89,-331.83"/>
<polygon fill="grey" stroke="grey" stroke-width="2" points="1314.59,-329.6 1305.55,-324.09 1309.18,-334.04 1314.59,-329.6"/>
</g>
<!-- 23 -->
<g id="node24" class="node">
<title>23</title>
<path fill="none" stroke="#56d87b" stroke-width="2" d="M1100,-396C1100,-396 964,-396 964,-396 958,-396 952,-390 952,-384 952,-384 952,-372 952,-372 952,-366 958,-360 964,-360 964,-360 1100,-360 1100,-360 1106,-360 1112,-366 1112,-372 1112,-372 1112,-384 1112,-384 1112,-390 1106,-396 1100,-396"/>
<text text-anchor="middle" x="1032" y="-375.5" font-family="sans" font-size="10.00">export_qc_bedtools_intersect</text>
</g>
<!-- 15&#45;&gt;23 -->
<g id="edge48" class="edge">
<title>15&#45;&gt;23</title>
<path fill="none" stroke="grey" stroke-width="2" d="M1045.55,-431.7C1043.55,-423.9 1041.13,-414.51 1038.9,-405.83"/>
<polygon fill="grey" stroke="grey" stroke-width="2" points="1042.28,-404.92 1036.4,-396.1 1035.5,-406.66 1042.28,-404.92"/>
</g>
<!-- 24 -->
<g id="node25" class="node">
<title>24</title>
<path fill="none" stroke="#c6d856" stroke-width="2" d="M1304,-396C1304,-396 1142,-396 1142,-396 1136,-396 1130,-390 1130,-384 1130,-384 1130,-372 1130,-372 1130,-366 1136,-360 1142,-360 1142,-360 1304,-360 1304,-360 1310,-360 1316,-366 1316,-372 1316,-372 1316,-384 1316,-384 1316,-390 1310,-396 1304,-396"/>
<text text-anchor="middle" x="1223" y="-375.5" font-family="sans" font-size="10.00">export_qc_bedtools_intersect_pgrs</text>
</g>
<!-- 15&#45;&gt;24 -->
<g id="edge49" class="edge">
<title>15&#45;&gt;24</title>
<path fill="none" stroke="grey" stroke-width="2" d="M1092.32,-431.88C1116.18,-422.22 1146.17,-410.09 1171.4,-399.88"/>
<polygon fill="grey" stroke="grey" stroke-width="2" points="1172.86,-403.06 1180.82,-396.07 1170.23,-396.57 1172.86,-403.06"/>
</g>
<!-- 16&#45;&gt;2 -->
<g id="edge15" class="edge">
<title>16&#45;&gt;2</title>
<path fill="none" stroke="grey" stroke-width="2" d="M1689.27,-503.98C1688.06,-485.59 1687.98,-455.74 1697,-432 1700.78,-422.05 1707.09,-412.44 1713.65,-404.2"/>
<polygon fill="grey" stroke="grey" stroke-width="2" points="1716.41,-406.35 1720.2,-396.46 1711.07,-401.83 1716.41,-406.35"/>
</g>
<!-- 17&#45;&gt;2 -->
<g id="edge19" class="edge">
<title>17&#45;&gt;2</title>
<path fill="none" stroke="grey" stroke-width="2" d="M1466.36,-431.97C1537.87,-418.02 1636.15,-398.86 1692.79,-387.82"/>
<polygon fill="grey" stroke="grey" stroke-width="2" points="1693.72,-391.2 1702.86,-385.85 1692.38,-384.33 1693.72,-391.2"/>
</g>
<!-- 17&#45;&gt;22 -->
<g id="edge46" class="edge">
<title>17&#45;&gt;22</title>
<path fill="none" stroke="grey" stroke-width="2" d="M1378.34,-431.94C1376.89,-412.98 1372.3,-382.13 1358,-360 1350.42,-348.27 1339.32,-338.1 1328.23,-329.9"/>
<polygon fill="grey" stroke="grey" stroke-width="2" points="1330.01,-326.87 1319.8,-324.01 1326,-332.61 1330.01,-326.87"/>
</g>
<!-- 18&#45;&gt;2 -->
<g id="edge16" class="edge">
<title>18&#45;&gt;2</title>
<path fill="none" stroke="grey" stroke-width="2" d="M1871.76,-647.97C1908.81,-638.92 1945.85,-626.63 1957,-612 2005.52,-548.37 2010.61,-494.78 1961,-432 1939.3,-404.53 1842.1,-389.79 1783.42,-383.25"/>
<polygon fill="grey" stroke="grey" stroke-width="2" points="1783.61,-379.75 1773.3,-382.16 1782.86,-386.71 1783.61,-379.75"/>
</g>
<!-- 19&#45;&gt;2 -->
<g id="edge14" class="edge">
<title>19&#45;&gt;2</title>
<path fill="none" stroke="grey" stroke-width="2" d="M2021.86,-647.87C2030.51,-604.58 2046.2,-490.16 1986,-432 1957.58,-404.54 1847.08,-389.53 1783.58,-383.01"/>
<polygon fill="grey" stroke="grey" stroke-width="2" points="1783.73,-379.51 1773.44,-382 1783.04,-386.48 1783.73,-379.51"/>
</g>
<!-- 20 -->
<g id="node21" class="node">
<title>20</title>
<path fill="none" stroke="#d86656" stroke-width="2" d="M1939.5,-468C1939.5,-468 1838.5,-468 1838.5,-468 1832.5,-468 1826.5,-462 1826.5,-456 1826.5,-456 1826.5,-444 1826.5,-444 1826.5,-438 1832.5,-432 1838.5,-432 1838.5,-432 1939.5,-432 1939.5,-432 1945.5,-432 1951.5,-438 1951.5,-444 1951.5,-444 1951.5,-456 1951.5,-456 1951.5,-462 1945.5,-468 1939.5,-468"/>
<text text-anchor="middle" x="1889" y="-447.5" font-family="sans" font-size="10.00">sample_order_multiqc</text>
</g>
<!-- 20&#45;&gt;2 -->
<g id="edge18" class="edge">
<title>20&#45;&gt;2</title>
<path fill="none" stroke="grey" stroke-width="2" d="M1852.06,-431.88C1830.98,-422.1 1804.4,-409.78 1782.21,-399.5"/>
<polygon fill="grey" stroke="grey" stroke-width="2" points="1783.55,-396.26 1773,-395.23 1780.6,-402.61 1783.55,-396.26"/>
</g>
<!-- 21 -->
<g id="node22" class="node">
<title>21</title>
<path fill="none" stroke="#56d85b" stroke-width="2" d="M1336,-252C1336,-252 1238,-252 1238,-252 1232,-252 1226,-246 1226,-240 1226,-240 1226,-228 1226,-228 1226,-222 1232,-216 1238,-216 1238,-216 1336,-216 1336,-216 1342,-216 1348,-222 1348,-228 1348,-228 1348,-240 1348,-240 1348,-246 1342,-252 1336,-252"/>
<text text-anchor="middle" x="1287" y="-231.5" font-family="sans" font-size="10.00">_copy_qc_xlsx_report</text>
</g>
<!-- 21&#45;&gt;0 -->
<g id="edge9" class="edge">
<title>21&#45;&gt;0</title>
<path fill="none" stroke="grey" stroke-width="2" d="M1276.26,-215.87C1260.83,-191.24 1232.24,-145.64 1214.22,-116.88"/>
<polygon fill="grey" stroke="grey" stroke-width="2" points="1217.05,-114.8 1208.77,-108.19 1211.12,-118.52 1217.05,-114.8"/>
</g>
<!-- 22&#45;&gt;21 -->
<g id="edge43" class="edge">
<title>22&#45;&gt;21</title>
<path fill="none" stroke="grey" stroke-width="2" d="M1288.51,-287.7C1288.29,-279.98 1288.02,-270.71 1287.77,-262.11"/>
<polygon fill="grey" stroke="grey" stroke-width="2" points="1291.27,-262 1287.49,-252.1 1284.28,-262.2 1291.27,-262"/>
</g>
<!-- 23&#45;&gt;22 -->
<g id="edge44" class="edge">
<title>23&#45;&gt;22</title>
<path fill="none" stroke="grey" stroke-width="2" d="M1094.54,-359.97C1131.23,-349.97 1177.76,-337.3 1216.11,-326.85"/>
<polygon fill="grey" stroke="grey" stroke-width="2" points="1217.45,-330.12 1226.18,-324.11 1215.61,-323.36 1217.45,-330.12"/>
</g>
<!-- 24&#45;&gt;22 -->
<g id="edge47" class="edge">
<title>24&#45;&gt;22</title>
<path fill="none" stroke="grey" stroke-width="2" d="M1239.31,-359.7C1247.31,-351.22 1257.07,-340.86 1265.82,-331.58"/>
<polygon fill="grey" stroke="grey" stroke-width="2" points="1268.56,-333.78 1272.87,-324.1 1263.47,-328.98 1268.56,-333.78"/>
</g>
<!-- 25&#45;&gt;0 -->
<g id="edge10" class="edge">
<title>25&#45;&gt;0</title>
<path fill="none" stroke="grey" stroke-width="2" d="M1584.66,-215.68C1587.8,-195.6 1589.31,-162.85 1571,-144 1525.12,-96.75 1320.59,-91.04 1235.42,-90.76"/>
<polygon fill="grey" stroke="grey" stroke-width="2" points="1235.17,-87.26 1225.17,-90.75 1235.16,-94.26 1235.17,-87.26"/>
</g>
<!-- 26&#45;&gt;0 -->
<g id="edge11" class="edge">
<title>26&#45;&gt;0</title>
<path fill="none" stroke="grey" stroke-width="2" d="M934.17,-361.7C937.15,-361.11 940.1,-360.54 943,-360 992.55,-350.69 1131.84,-360.13 1167,-324 1221.11,-268.4 1211.95,-166.87 1203.65,-118.3"/>
<polygon fill="grey" stroke="grey" stroke-width="2" points="1207.05,-117.44 1201.81,-108.23 1200.16,-118.7 1207.05,-117.44"/>
</g>
<!-- 27 -->
<g id="node28" class="node">
<title>27</title>
<path fill="none" stroke="#56d892" stroke-width="2" d="M744,-180C744,-180 628,-180 628,-180 622,-180 616,-174 616,-168 616,-168 616,-156 616,-156 616,-150 622,-144 628,-144 628,-144 744,-144 744,-144 750,-144 756,-150 756,-156 756,-156 756,-168 756,-168 756,-174 750,-180 744,-180"/>
<text text-anchor="middle" x="686" y="-159.5" font-family="sans" font-size="10.00">_copy_annotated_vcf_file</text>
</g>
<!-- 27&#45;&gt;0 -->
<g id="edge6" class="edge">
<title>27&#45;&gt;0</title>
<path fill="none" stroke="grey" stroke-width="2" d="M756.15,-145.56C759.13,-145.01 762.09,-144.49 765,-144 910.21,-119.54 1084.63,-101.66 1160.11,-94.48"/>
<polygon fill="grey" stroke="grey" stroke-width="2" points="1160.89,-97.92 1170.52,-93.5 1160.23,-90.95 1160.89,-97.92"/>
</g>
<!-- 28 -->
<g id="node29" class="node">
<title>28</title>
<path fill="none" stroke="#569ad8" stroke-width="2" d="M555,-252C555,-252 479,-252 479,-252 473,-252 467,-246 467,-240 467,-240 467,-228 467,-228 467,-222 473,-216 479,-216 479,-216 555,-216 555,-216 561,-216 567,-222 567,-228 567,-228 567,-240 567,-240 567,-246 561,-252 555,-252"/>
<text text-anchor="middle" x="517" y="-231.5" font-family="sans" font-size="10.00">snv_indels_bgzip</text>
</g>
<!-- 28&#45;&gt;27 -->
<g id="edge52" class="edge">
<title>28&#45;&gt;27</title>
<path fill="none" stroke="grey" stroke-width="2" d="M558.34,-215.88C581.55,-206.26 610.69,-194.19 635.27,-184.01"/>
<polygon fill="grey" stroke="grey" stroke-width="2" points="636.89,-187.13 644.79,-180.07 634.21,-180.66 636.89,-187.13"/>
</g>
<!-- 29 -->
<g id="node30" class="node">
<title>29</title>
<path fill="none" stroke="#d87d56" stroke-width="2" d="M585.5,-180C585.5,-180 520.5,-180 520.5,-180 514.5,-180 508.5,-174 508.5,-168 508.5,-168 508.5,-156 508.5,-156 508.5,-150 514.5,-144 520.5,-144 520.5,-144 585.5,-144 585.5,-144 591.5,-144 597.5,-150 597.5,-156 597.5,-156 597.5,-168 597.5,-168 597.5,-174 591.5,-180 585.5,-180"/>
<text text-anchor="middle" x="553" y="-159.5" font-family="sans" font-size="10.00">add_ref_to_vcf</text>
</g>
<!-- 28&#45;&gt;29 -->
<g id="edge58" class="edge">
<title>28&#45;&gt;29</title>
<path fill="none" stroke="grey" stroke-width="2" d="M519.98,-215.7C523.29,-207.64 528.1,-197.89 533.09,-188.98"/>
<polygon fill="grey" stroke="grey" stroke-width="2" points="536.26,-190.5 538.31,-180.1 530.22,-186.95 536.26,-190.5"/>
</g>
<!-- 31 -->
<g id="node32" class="node">
<title>31</title>
<path fill="none" stroke="#88d856" stroke-width="2" d="M609,-396C609,-396 535,-396 535,-396 529,-396 523,-390 523,-384 523,-384 523,-372 523,-372 523,-366 529,-360 535,-360 535,-360 609,-360 609,-360 615,-360 621,-366 621,-372 621,-372 621,-384 621,-384 621,-390 615,-396 609,-396"/>
<text text-anchor="middle" x="572" y="-375.5" font-family="sans" font-size="10.00">snv_indels_tabix</text>
</g>
<!-- 28&#45;&gt;31 -->
<g id="edge62" class="edge">
<title>28&#45;&gt;31</title>
<path fill="none" stroke="grey" stroke-width="2" d="M523.66,-252.19C533.13,-276.64 550.57,-321.67 561.71,-350.44"/>
<polygon fill="grey" stroke="grey" stroke-width="2" points="558.49,-351.81 565.37,-359.87 565.02,-349.28 558.49,-351.81"/>
</g>
<!-- 34 -->
<g id="node35" class="node">
<title>34</title>
<path fill="none" stroke="#5673d8" stroke-width="2" d="M359.5,-180C359.5,-180 238.5,-180 238.5,-180 232.5,-180 226.5,-174 226.5,-168 226.5,-168 226.5,-156 226.5,-156 226.5,-150 232.5,-144 238.5,-144 238.5,-144 359.5,-144 359.5,-144 365.5,-144 371.5,-150 371.5,-156 371.5,-156 371.5,-168 371.5,-168 371.5,-174 365.5,-180 359.5,-180"/>
<text text-anchor="middle" x="299" y="-159.5" font-family="sans" font-size="10.00">snv_indels_vt_decompose</text>
</g>
<!-- 28&#45;&gt;34 -->
<g id="edge66" class="edge">
<title>28&#45;&gt;34</title>
<path fill="none" stroke="grey" stroke-width="2" d="M466.99,-216.94C435.75,-206.91 395.27,-193.91 361.87,-183.19"/>
<polygon fill="grey" stroke="grey" stroke-width="2" points="362.8,-179.81 352.21,-180.08 360.66,-186.47 362.8,-179.81"/>
</g>
<!-- 35 -->
<g id="node36" class="node">
<title>35</title>
<path fill="none" stroke="#d88d56" stroke-width="2" d="M478.5,-180C478.5,-180 401.5,-180 401.5,-180 395.5,-180 389.5,-174 389.5,-168 389.5,-168 389.5,-156 389.5,-156 389.5,-150 395.5,-144 401.5,-144 401.5,-144 478.5,-144 478.5,-144 484.5,-144 490.5,-150 490.5,-156 490.5,-156 490.5,-168 490.5,-168 490.5,-174 484.5,-180 478.5,-180"/>
<text text-anchor="middle" x="440" y="-159.5" font-family="sans" font-size="10.00">snv_indels_fix_af</text>
</g>
<!-- 28&#45;&gt;35 -->
<g id="edge67" class="edge">
<title>28&#45;&gt;35</title>
<path fill="none" stroke="grey" stroke-width="2" d="M492.05,-215.7C481.75,-207.14 470.04,-196.66 460.27,-187.3"/>
<polygon fill="grey" stroke="grey" stroke-width="2" points="462.51,-184.6 452.92,-180.1 457.62,-189.6 462.51,-184.6"/>
</g>
<!-- 40 -->
<g id="node41" class="node">
<title>40</title>
<path fill="none" stroke="#8fd856" stroke-width="2" d="M964,-180C964,-180 786,-180 786,-180 780,-180 774,-174 774,-168 774,-168 774,-156 774,-156 774,-150 780,-144 786,-144 786,-144 964,-144 964,-144 970,-144 976,-150 976,-156 976,-156 976,-168 976,-168 976,-174 970,-180 964,-180"/>
<text text-anchor="middle" x="875" y="-159.5" font-family="sans" font-size="10.00">_copy_genome_vcf_file_no_normalize</text>
</g>
<!-- 28&#45;&gt;40 -->
<g id="edge74" class="edge">
<title>28&#45;&gt;40</title>
<path fill="none" stroke="grey" stroke-width="2" d="M567.16,-223.19C621.63,-212.54 709.97,-195.27 778.08,-181.95"/>
<polygon fill="grey" stroke="grey" stroke-width="2" points="778.83,-185.37 787.97,-180.02 777.49,-178.5 778.83,-185.37"/>
</g>
<!-- 41 -->
<g id="node42" class="node">
<title>41</title>
<path fill="none" stroke="#bed856" stroke-width="2" d="M196,-180C196,-180 108,-180 108,-180 102,-180 96,-174 96,-168 96,-168 96,-156 96,-156 96,-150 102,-144 108,-144 108,-144 196,-144 196,-144 202,-144 208,-150 208,-156 208,-156 208,-168 208,-168 208,-174 202,-180 196,-180"/>
<text text-anchor="middle" x="152" y="-159.5" font-family="sans" font-size="10.00">snv_indels_fix_af_g</text>
</g>
<!-- 28&#45;&gt;41 -->
<g id="edge75" class="edge">
<title>28&#45;&gt;41</title>
<path fill="none" stroke="grey" stroke-width="2" d="M466.94,-226.38C407.63,-217.61 306.09,-201.03 217.56,-182.07"/>
<polygon fill="grey" stroke="grey" stroke-width="2" points="218.17,-178.62 207.66,-179.93 216.69,-185.46 218.17,-178.62"/>
</g>
<!-- 29&#45;&gt;28 -->
<g id="edge56" class="edge">
<title>29&#45;&gt;28</title>
<path fill="none" stroke="grey" stroke-width="2" d="M550.1,-180.1C546.81,-188.13 542.02,-197.87 537.03,-206.8"/>
<polygon fill="grey" stroke="grey" stroke-width="2" points="533.85,-205.3 531.81,-215.7 539.89,-208.84 533.85,-205.3"/>
</g>
<!-- 30 -->
<g id="node31" class="node">
<title>30</title>
<path fill="none" stroke="#d8c356" stroke-width="2" d="M514,-324C514,-324 446,-324 446,-324 440,-324 434,-318 434,-312 434,-312 434,-300 434,-300 434,-294 440,-288 446,-288 446,-288 514,-288 514,-288 520,-288 526,-294 526,-300 526,-300 526,-312 526,-312 526,-318 520,-324 514,-324"/>
<text text-anchor="middle" x="480" y="-303.5" font-family="sans" font-size="10.00">annotation_vep</text>
</g>
<!-- 30&#45;&gt;28 -->
<g id="edge53" class="edge">
<title>30&#45;&gt;28</title>
<path fill="none" stroke="grey" stroke-width="2" d="M489.15,-287.7C493.4,-279.64 498.56,-269.89 503.27,-260.98"/>
<polygon fill="grey" stroke="grey" stroke-width="2" points="506.38,-262.58 507.96,-252.1 500.19,-259.31 506.38,-262.58"/>
</g>
<!-- 31&#45;&gt;30 -->
<g id="edge60" class="edge">
<title>31&#45;&gt;30</title>
<path fill="none" stroke="grey" stroke-width="2" d="M549.26,-359.7C537.56,-350.8 523.14,-339.82 510.49,-330.2"/>
<polygon fill="grey" stroke="grey" stroke-width="2" points="512.56,-327.37 502.48,-324.1 508.32,-332.94 512.56,-327.37"/>
</g>
<!-- 36 -->
<g id="node37" class="node">
<title>36</title>
<path fill="none" stroke="#56c1d8" stroke-width="2" d="M718.5,-324C718.5,-324 593.5,-324 593.5,-324 587.5,-324 581.5,-318 581.5,-312 581.5,-312 581.5,-300 581.5,-300 581.5,-294 587.5,-288 593.5,-288 593.5,-288 718.5,-288 718.5,-288 724.5,-288 730.5,-294 730.5,-300 730.5,-300 730.5,-312 730.5,-312 730.5,-318 724.5,-324 718.5,-324"/>
<text text-anchor="middle" x="656" y="-303.5" font-family="sans" font-size="10.00">snv_indels_bcftools_concat</text>
</g>
<!-- 31&#45;&gt;36 -->
<g id="edge69" class="edge">
<title>31&#45;&gt;36</title>
<path fill="none" stroke="grey" stroke-width="2" d="M592.76,-359.7C603.24,-350.97 616.11,-340.24 627.5,-330.75"/>
<polygon fill="grey" stroke="grey" stroke-width="2" points="630.03,-333.19 635.47,-324.1 625.55,-327.82 630.03,-333.19"/>
</g>
<!-- 39 -->
<g id="node40" class="node">
<title>39</title>
<path fill="none" stroke="#d8ac56" stroke-width="2" d="M894,-324C894,-324 760,-324 760,-324 754,-324 748,-318 748,-312 748,-312 748,-300 748,-300 748,-294 754,-288 760,-288 760,-288 894,-288 894,-288 900,-288 906,-294 906,-300 906,-300 906,-312 906,-312 906,-318 900,-324 894,-324"/>
<text text-anchor="middle" x="827" y="-303.5" font-family="sans" font-size="10.00">_copy_annotated_vcf_tbi_file</text>
</g>
<!-- 31&#45;&gt;39 -->
<g id="edge73" class="edge">
<title>31&#45;&gt;39</title>
<path fill="none" stroke="grey" stroke-width="2" d="M621.17,-363.5C659.16,-353.07 712.32,-338.48 755.09,-326.74"/>
<polygon fill="grey" stroke="grey" stroke-width="2" points="756.17,-330.07 764.88,-324.05 754.32,-323.32 756.17,-330.07"/>
</g>
<!-- 31&#45;&gt;41 -->
<g id="edge76" class="edge">
<title>31&#45;&gt;41</title>
<path fill="none" stroke="grey" stroke-width="2" d="M522.75,-361.8C493.75,-352.23 456.67,-338.89 425,-324 335.28,-281.82 236.61,-219.26 186.04,-185.9"/>
<polygon fill="grey" stroke="grey" stroke-width="2" points="187.74,-182.83 177.47,-180.22 183.87,-188.66 187.74,-182.83"/>
</g>
<!-- 42 -->
<g id="node43" class="node">
<title>42</title>
<path fill="none" stroke="#d85656" stroke-width="2" d="M1146,-324C1146,-324 936,-324 936,-324 930,-324 924,-318 924,-312 924,-312 924,-300 924,-300 924,-294 930,-288 936,-288 936,-288 1146,-288 1146,-288 1152,-288 1158,-294 1158,-300 1158,-300 1158,-312 1158,-312 1158,-318 1152,-324 1146,-324"/>
<text text-anchor="middle" x="1041" y="-303.5" font-family="sans" font-size="10.00">_copy_genome_vcf_index_file_no_normalize</text>
</g>
<!-- 31&#45;&gt;42 -->
<g id="edge77" class="edge">
<title>31&#45;&gt;42</title>
<path fill="none" stroke="grey" stroke-width="2" d="M621.3,-369.64C690.81,-359.27 819.91,-340 916.65,-325.56"/>
<polygon fill="grey" stroke="grey" stroke-width="2" points="917.43,-328.98 926.8,-324.04 916.39,-322.06 917.43,-328.98"/>
</g>
<!-- 32 -->
<g id="node33" class="node">
<title>32</title>
<path fill="none" stroke="#5663d8" stroke-width="2" d="M124,-36C124,-36 12,-36 12,-36 6,-36 0,-30 0,-24 0,-24 0,-12 0,-12 0,-6 6,0 12,0 12,0 124,0 124,0 130,0 136,-6 136,-12 136,-12 136,-24 136,-24 136,-30 130,-36 124,-36"/>
<text text-anchor="middle" x="68" y="-15.5" font-family="sans" font-size="10.00">snv_indels_bcftools_sort</text>
</g>
<!-- 32&#45;&gt;30 -->
<g id="edge59" class="edge">
<title>32&#45;&gt;30</title>
<path fill="none" stroke="grey" stroke-width="2" d="M64.52,-36.34C59.11,-68.6 52.6,-138.33 87,-180 170.66,-281.34 336.37,-301.62 423.47,-304.98"/>
<polygon fill="grey" stroke="grey" stroke-width="2" points="423.59,-308.49 433.7,-305.31 423.81,-301.49 423.59,-308.49"/>
</g>
<!-- 32&#45;&gt;31 -->
<g id="edge61" class="edge">
<title>32&#45;&gt;31</title>
<path fill="none" stroke="grey" stroke-width="2" d="M60.31,-36.09C49.21,-62.38 30,-114.55 30,-161 30,-235 30,-235 30,-235 30,-333.93 372.19,-365.3 512.78,-374.01"/>
<polygon fill="grey" stroke="grey" stroke-width="2" points="512.75,-377.51 522.95,-374.62 513.17,-370.53 512.75,-377.51"/>
</g>
<!-- 33 -->
<g id="node34" class="node">
<title>33</title>
<path fill="none" stroke="#d89c56" stroke-width="2" d="M288.5,-108C288.5,-108 175.5,-108 175.5,-108 169.5,-108 163.5,-102 163.5,-96 163.5,-96 163.5,-84 163.5,-84 163.5,-78 169.5,-72 175.5,-72 175.5,-72 288.5,-72 288.5,-72 294.5,-72 300.5,-78 300.5,-84 300.5,-84 300.5,-96 300.5,-96 300.5,-102 294.5,-108 288.5,-108"/>
<text text-anchor="middle" x="232" y="-87.5" font-family="sans" font-size="10.00">snv_indels_vt_normalize</text>
</g>
<!-- 33&#45;&gt;32 -->
<g id="edge64" class="edge">
<title>33&#45;&gt;32</title>
<path fill="none" stroke="grey" stroke-width="2" d="M191.88,-71.88C169.36,-62.26 141.08,-50.19 117.23,-40.01"/>
<polygon fill="grey" stroke="grey" stroke-width="2" points="118.56,-36.77 107.99,-36.07 115.81,-43.21 118.56,-36.77"/>
</g>
<!-- 34&#45;&gt;33 -->
<g id="edge65" class="edge">
<title>34&#45;&gt;33</title>
<path fill="none" stroke="grey" stroke-width="2" d="M282.44,-143.7C274.32,-135.22 264.41,-124.86 255.53,-115.58"/>
<polygon fill="grey" stroke="grey" stroke-width="2" points="257.81,-112.91 248.37,-108.1 252.76,-117.75 257.81,-112.91"/>
</g>
<!-- 35&#45;&gt;28 -->
<g id="edge57" class="edge">
<title>35&#45;&gt;28</title>
<path fill="none" stroke="grey" stroke-width="2" d="M464.71,-180.1C474.99,-188.64 486.7,-199.11 496.5,-208.48"/>
<polygon fill="grey" stroke="grey" stroke-width="2" points="494.29,-211.21 503.88,-215.7 499.18,-206.2 494.29,-211.21"/>
</g>
<!-- 36&#45;&gt;28 -->
<g id="edge55" class="edge">
<title>36&#45;&gt;28</title>
<path fill="none" stroke="grey" stroke-width="2" d="M622,-287.88C603.4,-278.51 580.17,-266.81 560.29,-256.8"/>
<polygon fill="grey" stroke="grey" stroke-width="2" points="561.64,-253.56 551.13,-252.19 558.49,-259.81 561.64,-253.56"/>
</g>
<!-- 37&#45;&gt;31 -->
<g id="edge63" class="edge">
<title>37&#45;&gt;31</title>
<path fill="none" stroke="grey" stroke-width="2" d="M658.87,-431.88C643.83,-422.72 625.13,-411.34 608.94,-401.48"/>
<polygon fill="grey" stroke="grey" stroke-width="2" points="610.6,-398.4 600.24,-396.19 606.96,-404.38 610.6,-398.4"/>
</g>
<!-- 37&#45;&gt;36 -->
<g id="edge68" class="edge">
<title>37&#45;&gt;36</title>
<path fill="none" stroke="grey" stroke-width="2" d="M683.26,-431.87C677.95,-407.56 668.19,-362.82 661.9,-334.01"/>
<polygon fill="grey" stroke="grey" stroke-width="2" points="665.3,-333.21 659.75,-324.19 658.47,-334.71 665.3,-333.21"/>
</g>
<!-- 38 -->
<g id="node39" class="node">
<title>38</title>
<path fill="none" stroke="#56a9d8" stroke-width="2" d="M821,-540C821,-540 727,-540 727,-540 721,-540 715,-534 715,-528 715,-528 715,-516 715,-516 715,-510 721,-504 727,-504 727,-504 821,-504 821,-504 827,-504 833,-510 833,-516 833,-516 833,-528 833,-528 833,-534 827,-540 821,-540"/>
<text text-anchor="middle" x="774" y="-519.5" font-family="sans" font-size="10.00">snv_indels_bed_split</text>
</g>
<!-- 38&#45;&gt;37 -->
<g id="edge70" class="edge">
<title>38&#45;&gt;37</title>
<path fill="none" stroke="grey" stroke-width="2" d="M752.49,-503.7C741.54,-494.88 728.05,-484.03 716.18,-474.47"/>
<polygon fill="grey" stroke="grey" stroke-width="2" points="718.24,-471.65 708.26,-468.1 713.86,-477.1 718.24,-471.65"/>
</g>
<!-- 39&#45;&gt;0 -->
<g id="edge5" class="edge">
<title>39&#45;&gt;0</title>
<path fill="none" stroke="grey" stroke-width="2" d="M848.56,-287.99C898.3,-248.84 1018.36,-154.89 1039,-144 1078.53,-123.14 1127.87,-108.23 1161.01,-99.64"/>
<polygon fill="grey" stroke="grey" stroke-width="2" points="1161.91,-103.02 1170.75,-97.18 1160.19,-96.24 1161.91,-103.02"/>
</g>
<!-- 40&#45;&gt;0 -->
<g id="edge4" class="edge">
<title>40&#45;&gt;0</title>
<path fill="none" stroke="grey" stroke-width="2" d="M953.6,-143.97C1019.46,-129.69 1110.56,-109.95 1160.87,-99.05"/>
<polygon fill="grey" stroke="grey" stroke-width="2" points="1161.64,-102.46 1170.67,-96.92 1160.16,-95.62 1161.64,-102.46"/>
</g>
<!-- 41&#45;&gt;28 -->
<g id="edge54" class="edge">
<title>41&#45;&gt;28</title>
<path fill="none" stroke="grey" stroke-width="2" d="M208.04,-175.8C214.11,-177.29 220.19,-178.73 226,-180 305.49,-197.39 397.79,-213.02 456.84,-222.72"/>
<polygon fill="grey" stroke="grey" stroke-width="2" points="456.31,-226.18 466.74,-224.35 457.44,-219.28 456.31,-226.18"/>
</g>
<!-- 42&#45;&gt;0 -->
<g id="edge2" class="edge">
<title>42&#45;&gt;0</title>
<path fill="none" stroke="grey" stroke-width="2" d="M1037.89,-287.84C1033.12,-255.88 1027.73,-186.63 1061,-144 1084.89,-113.38 1128.84,-100.44 1160.53,-94.97"/>
<polygon fill="grey" stroke="grey" stroke-width="2" points="1161.41,-98.38 1170.75,-93.39 1160.34,-91.46 1161.41,-98.38"/>
</g>
<!-- 43 -->
<g id="node44" class="node">
<title>43</title>
<path fill="none" stroke="#d86656" stroke-width="2" d="M1550,-180C1550,-180 1428,-180 1428,-180 1422,-180 1416,-174 1416,-168 1416,-168 1416,-156 1416,-156 1416,-150 1422,-144 1428,-144 1428,-144 1550,-144 1550,-144 1556,-144 1562,-150 1562,-156 1562,-156 1562,-168 1562,-168 1562,-174 1556,-180 1550,-180"/>
<text text-anchor="middle" x="1489" y="-159.5" font-family="sans" font-size="10.00">_copy_exomedepth_nexus</text>
</g>
<!-- 43&#45;&gt;0 -->
<g id="edge7" class="edge">
<title>43&#45;&gt;0</title>
<path fill="none" stroke="grey" stroke-width="2" d="M1418.19,-143.97C1360.31,-130.04 1280.82,-110.92 1234.88,-99.87"/>
<polygon fill="grey" stroke="grey" stroke-width="2" points="1235.59,-96.44 1225.05,-97.51 1233.96,-103.25 1235.59,-96.44"/>
</g>
<!-- 44 -->
<g id="node45" class="node">
<title>44</title>
<path fill="none" stroke="#56d8b9" stroke-width="2" d="M1468,-252C1468,-252 1378,-252 1378,-252 1372,-252 1366,-246 1366,-240 1366,-240 1366,-228 1366,-228 1366,-222 1372,-216 1378,-216 1378,-216 1468,-216 1468,-216 1474,-216 1480,-222 1480,-228 1480,-228 1480,-240 1480,-240 1480,-246 1474,-252 1468,-252"/>
<text text-anchor="middle" x="1423" y="-231.5" font-family="sans" font-size="10.00">exomedepth_export</text>
</g>
<!-- 44&#45;&gt;43 -->
<g id="edge78" class="edge">
<title>44&#45;&gt;43</title>
<path fill="none" stroke="grey" stroke-width="2" d="M1439.31,-215.7C1447.31,-207.22 1457.07,-196.86 1465.82,-187.58"/>
<polygon fill="grey" stroke="grey" stroke-width="2" points="1468.56,-189.78 1472.87,-180.1 1463.47,-184.98 1468.56,-189.78"/>
</g>
<!-- 46 -->
<g id="node47" class="node">
<title>46</title>
<path fill="none" stroke="#56d8d8" stroke-width="2" d="M1386,-180C1386,-180 1276,-180 1276,-180 1270,-180 1264,-174 1264,-168 1264,-168 1264,-156 1264,-156 1264,-150 1270,-144 1276,-144 1276,-144 1386,-144 1386,-144 1392,-144 1398,-150 1398,-156 1398,-156 1398,-168 1398,-168 1398,-174 1392,-180 1386,-180"/>
<text text-anchor="middle" x="1331" y="-159.5" font-family="sans" font-size="10.00">_copy_exomedepth_aed</text>
</g>
<!-- 44&#45;&gt;46 -->
<g id="edge82" class="edge">
<title>44&#45;&gt;46</title>
<path fill="none" stroke="grey" stroke-width="2" d="M1400.26,-215.7C1388.56,-206.8 1374.14,-195.82 1361.49,-186.2"/>
<polygon fill="grey" stroke="grey" stroke-width="2" points="1363.56,-183.37 1353.48,-180.1 1359.32,-188.94 1363.56,-183.37"/>
</g>
<!-- 45&#45;&gt;44 -->
<g id="edge79" class="edge">
<title>45&#45;&gt;44</title>
<path fill="none" stroke="grey" stroke-width="2" d="M1254.74,-431.89C1290.04,-421.55 1329.28,-408.07 1343,-396 1384.16,-359.78 1406.5,-297.46 1416.47,-261.92"/>
<polygon fill="grey" stroke="grey" stroke-width="2" points="1419.86,-262.79 1419.07,-252.22 1413.1,-260.98 1419.86,-262.79"/>
</g>
<!-- 46&#45;&gt;0 -->
<g id="edge3" class="edge">
<title>46&#45;&gt;0</title>
<path fill="none" stroke="grey" stroke-width="2" d="M1298.46,-143.88C1278.99,-133.63 1254.21,-120.58 1234.13,-110.01"/>
<polygon fill="grey" stroke="grey" stroke-width="2" points="1235.75,-106.91 1225.27,-105.35 1232.49,-113.11 1235.75,-106.91"/>
</g>
<!-- 47 -->
<g id="node48" class="node">
<title>47</title>
<path fill="none" stroke="#56d8a9" stroke-width="2" d="M1158,-180C1158,-180 1082,-180 1082,-180 1076,-180 1070,-174 1070,-168 1070,-168 1070,-156 1070,-156 1070,-150 1076,-144 1082,-144 1082,-144 1158,-144 1158,-144 1164,-144 1170,-150 1170,-156 1170,-156 1170,-168 1170,-168 1170,-174 1164,-180 1158,-180"/>
<text text-anchor="middle" x="1120" y="-159.5" font-family="sans" font-size="10.00">_copy_config_file</text>
</g>
<!-- 47&#45;&gt;0 -->
<g id="edge8" class="edge">
<title>47&#45;&gt;0</title>
<path fill="none" stroke="grey" stroke-width="2" d="M1139.28,-143.7C1148.92,-135.05 1160.73,-124.45 1171.23,-115.03"/>
<polygon fill="grey" stroke="grey" stroke-width="2" points="1173.84,-117.39 1178.94,-108.1 1169.16,-112.18 1173.84,-117.39"/>
</g>
</g>
</svg>
