<?xml version="1.0" encoding="UTF-8" standalone="no"?>
<!DOCTYPE svg PUBLIC "-//W3C//DTD SVG 1.1//EN"
 "http://www.w3.org/Graphics/SVG/1.1/DTD/svg11.dtd">
<!-- Generated by graphviz version 2.43.0 (0)
 -->
<!-- Title: snakemake_dag Pages: 1 -->
<svg width="2115pt" height="980pt"
 viewBox="0.00 0.00 2115.09 980.00" xmlns="http://www.w3.org/2000/svg" xmlns:xlink="http://www.w3.org/1999/xlink">
<g id="graph0" class="graph" transform="scale(1 1) rotate(0) translate(4 976)">
<title>snakemake_dag</title>
<polygon fill="white" stroke="transparent" points="-4,4 -4,-976 2111.09,-976 2111.09,4 -4,4"/>
<!-- 0 -->
<g id="node1" class="node">
<title>0</title>
<path fill="none" stroke="#56d87b" stroke-width="2" d="M1171.5,-36C1171.5,-36 1141.5,-36 1141.5,-36 1135.5,-36 1129.5,-30 1129.5,-24 1129.5,-24 1129.5,-12 1129.5,-12 1129.5,-6 1135.5,0 1141.5,0 1141.5,0 1171.5,0 1171.5,0 1177.5,0 1183.5,-6 1183.5,-12 1183.5,-12 1183.5,-24 1183.5,-24 1183.5,-30 1177.5,-36 1171.5,-36"/>
<text text-anchor="middle" x="1156.5" y="-15.5" font-family="sans" font-size="10.00">all</text>
</g>
<!-- 1 -->
<g id="node2" class="node">
<title>1</title>
<path fill="none" stroke="#56d88a" stroke-width="2" d="M633,-252C633,-252 570,-252 570,-252 564,-252 558,-246 558,-240 558,-240 558,-228 558,-228 558,-222 564,-216 570,-216 570,-216 633,-216 633,-216 639,-216 645,-222 645,-228 645,-228 645,-240 645,-240 645,-246 639,-252 633,-252"/>
<text text-anchor="middle" x="601.5" y="-231.5" font-family="sans" font-size="10.00">_copy_multiqc</text>
</g>
<!-- 1&#45;&gt;0 -->
<g id="edge5" class="edge">
<title>1&#45;&gt;0</title>
<path fill="none" stroke="grey" stroke-width="2" d="M611.05,-215.67C622.24,-196.46 642.25,-165.39 665.5,-144 711.27,-101.88 726.89,-92.81 785.5,-72 902.19,-30.57 1050.43,-21.45 1118.81,-19.49"/>
<polygon fill="grey" stroke="grey" stroke-width="2" points="1119.17,-22.99 1129.08,-19.24 1119,-15.99 1119.17,-22.99"/>
</g>
<!-- 2 -->
<g id="node3" class="node">
<title>2</title>
<path fill="none" stroke="#68d856" stroke-width="2" d="M558.5,-396C558.5,-396 512.5,-396 512.5,-396 506.5,-396 500.5,-390 500.5,-384 500.5,-384 500.5,-372 500.5,-372 500.5,-366 506.5,-360 512.5,-360 512.5,-360 558.5,-360 558.5,-360 564.5,-360 570.5,-366 570.5,-372 570.5,-372 570.5,-384 570.5,-384 570.5,-390 564.5,-396 558.5,-396"/>
<text text-anchor="middle" x="535.5" y="-375.5" font-family="sans" font-size="10.00">qc_multiqc</text>
</g>
<!-- 2&#45;&gt;1 -->
<g id="edge11" class="edge">
<title>2&#45;&gt;1</title>
<path fill="none" stroke="grey" stroke-width="2" d="M543.46,-359.87C554.86,-335.35 575.92,-290.03 589.3,-261.26"/>
<polygon fill="grey" stroke="grey" stroke-width="2" points="592.47,-262.73 593.51,-252.19 586.12,-259.78 592.47,-262.73"/>
</g>
<!-- 3 -->
<g id="node4" class="node">
<title>3</title>
<path fill="none" stroke="#56d8d0" stroke-width="2" d="M610.5,-612C610.5,-612 446.5,-612 446.5,-612 440.5,-612 434.5,-606 434.5,-600 434.5,-600 434.5,-588 434.5,-588 434.5,-582 440.5,-576 446.5,-576 446.5,-576 610.5,-576 610.5,-576 616.5,-576 622.5,-582 622.5,-588 622.5,-588 622.5,-600 622.5,-600 622.5,-606 616.5,-612 610.5,-612"/>
<text text-anchor="middle" x="528.5" y="-591.5" font-family="sans" font-size="10.00">qc_picard_collect_multiple_metrics</text>
</g>
<!-- 3&#45;&gt;2 -->
<g id="edge12" class="edge">
<title>3&#45;&gt;2</title>
<path fill="none" stroke="grey" stroke-width="2" d="M529.06,-575.85C530.27,-538.83 533.14,-451.18 534.6,-406.39"/>
<polygon fill="grey" stroke="grey" stroke-width="2" points="538.11,-406.34 534.94,-396.23 531.11,-406.11 538.11,-406.34"/>
</g>
<!-- 4 -->
<g id="node5" class="node">
<title>4</title>
<path fill="none" stroke="#9fd856" stroke-width="2" d="M995.5,-756C995.5,-756 879.5,-756 879.5,-756 873.5,-756 867.5,-750 867.5,-744 867.5,-744 867.5,-732 867.5,-732 867.5,-726 873.5,-720 879.5,-720 879.5,-720 995.5,-720 995.5,-720 1001.5,-720 1007.5,-726 1007.5,-732 1007.5,-732 1007.5,-744 1007.5,-744 1007.5,-750 1001.5,-756 995.5,-756"/>
<text text-anchor="middle" x="937.5" y="-735.5" font-family="sans" font-size="10.00">alignment_samtools_sort</text>
</g>
<!-- 4&#45;&gt;3 -->
<g id="edge23" class="edge">
<title>4&#45;&gt;3</title>
<path fill="none" stroke="grey" stroke-width="2" d="M902.42,-719.89C861.94,-700.6 793.02,-669.18 731.5,-648 693.88,-635.05 651.41,-623.5 615.07,-614.51"/>
<polygon fill="grey" stroke="grey" stroke-width="2" points="615.54,-611.03 604.99,-612.05 613.87,-617.83 615.54,-611.03"/>
</g>
<!-- 7 -->
<g id="node8" class="node">
<title>7</title>
<path fill="none" stroke="#78d856" stroke-width="2" d="M1432.5,-684C1432.5,-684 1268.5,-684 1268.5,-684 1262.5,-684 1256.5,-678 1256.5,-672 1256.5,-672 1256.5,-660 1256.5,-660 1256.5,-654 1262.5,-648 1268.5,-648 1268.5,-648 1432.5,-648 1432.5,-648 1438.5,-648 1444.5,-654 1444.5,-660 1444.5,-660 1444.5,-672 1444.5,-672 1444.5,-678 1438.5,-684 1432.5,-684"/>
<text text-anchor="middle" x="1350.5" y="-663.5" font-family="sans" font-size="10.00">alignment_samtools_extract_reads</text>
</g>
<!-- 4&#45;&gt;7 -->
<g id="edge29" class="edge">
<title>4&#45;&gt;7</title>
<path fill="none" stroke="grey" stroke-width="2" d="M1007.56,-725.13C1073.08,-714.02 1171.78,-697.29 1246.5,-684.63"/>
<polygon fill="grey" stroke="grey" stroke-width="2" points="1247.14,-688.07 1256.41,-682.95 1245.97,-681.17 1247.14,-688.07"/>
</g>
<!-- 11 -->
<g id="node12" class="node">
<title>11</title>
<path fill="none" stroke="#5692d8" stroke-width="2" d="M1305,-540C1305,-540 1180,-540 1180,-540 1174,-540 1168,-534 1168,-528 1168,-528 1168,-516 1168,-516 1168,-510 1174,-504 1180,-504 1180,-504 1305,-504 1305,-504 1311,-504 1317,-510 1317,-516 1317,-516 1317,-528 1317,-528 1317,-534 1311,-540 1305,-540"/>
<text text-anchor="middle" x="1242.5" y="-519.5" font-family="sans" font-size="10.00">alignment_samtools_index</text>
</g>
<!-- 4&#45;&gt;11 -->
<g id="edge33" class="edge">
<title>4&#45;&gt;11</title>
<path fill="none" stroke="grey" stroke-width="2" d="M1007.75,-732.05C1078.67,-725.58 1181.6,-711.63 1209.5,-684 1245.05,-648.79 1247.38,-586.27 1245.32,-550.38"/>
<polygon fill="grey" stroke="grey" stroke-width="2" points="1248.79,-549.87 1244.57,-540.16 1241.81,-550.39 1248.79,-549.87"/>
</g>
<!-- 13 -->
<g id="node14" class="node">
<title>13</title>
<path fill="none" stroke="#56c9d8" stroke-width="2" d="M404,-612C404,-612 269,-612 269,-612 263,-612 257,-606 257,-600 257,-600 257,-588 257,-588 257,-582 263,-576 269,-576 269,-576 404,-576 404,-576 410,-576 416,-582 416,-588 416,-588 416,-600 416,-600 416,-606 410,-612 404,-612"/>
<text text-anchor="middle" x="336.5" y="-591.5" font-family="sans" font-size="10.00">qc_picard_collect_hs_metrics</text>
</g>
<!-- 4&#45;&gt;13 -->
<g id="edge34" class="edge">
<title>4&#45;&gt;13</title>
<path fill="none" stroke="grey" stroke-width="2" d="M867.2,-722.9C826.83,-713.82 775.56,-700.61 731.5,-684 698.39,-671.52 694.19,-658.81 660.5,-648 562.94,-616.68 531.53,-629.1 426.14,-612.03"/>
<polygon fill="grey" stroke="grey" stroke-width="2" points="426.49,-608.54 416.05,-610.34 425.34,-615.45 426.49,-608.54"/>
</g>
<!-- 14 -->
<g id="node15" class="node">
<title>14</title>
<path fill="none" stroke="#567bd8" stroke-width="2" d="M1089,-468C1089,-468 1008,-468 1008,-468 1002,-468 996,-462 996,-456 996,-456 996,-444 996,-444 996,-438 1002,-432 1008,-432 1008,-432 1089,-432 1089,-432 1095,-432 1101,-438 1101,-444 1101,-444 1101,-456 1101,-456 1101,-462 1095,-468 1089,-468"/>
<text text-anchor="middle" x="1048.5" y="-447.5" font-family="sans" font-size="10.00">qc_mosdepth_bed</text>
</g>
<!-- 4&#45;&gt;14 -->
<g id="edge36" class="edge">
<title>4&#45;&gt;14</title>
<path fill="none" stroke="grey" stroke-width="2" d="M958.55,-719.82C968.97,-710.28 980.91,-697.6 988.5,-684 1026.4,-616.1 1040.91,-523.75 1046,-478.41"/>
<polygon fill="grey" stroke="grey" stroke-width="2" points="1049.51,-478.5 1047.08,-468.19 1042.55,-477.77 1049.51,-478.5"/>
</g>
<!-- 15 -->
<g id="node16" class="node">
<title>15</title>
<path fill="none" stroke="#56d8c1" stroke-width="2" d="M878,-612C878,-612 653,-612 653,-612 647,-612 641,-606 641,-600 641,-600 641,-588 641,-588 641,-582 647,-576 653,-576 653,-576 878,-576 878,-576 884,-576 890,-582 890,-588 890,-588 890,-600 890,-600 890,-606 884,-612 878,-612"/>
<text text-anchor="middle" x="765.5" y="-591.5" font-family="sans" font-size="10.00">qc_picard_collect_alignment_summary_metrics</text>
</g>
<!-- 4&#45;&gt;15 -->
<g id="edge37" class="edge">
<title>4&#45;&gt;15</title>
<path fill="none" stroke="grey" stroke-width="2" d="M916.75,-719.87C886.15,-694.6 828.79,-647.25 794.18,-618.68"/>
<polygon fill="grey" stroke="grey" stroke-width="2" points="796.26,-615.86 786.32,-612.19 791.8,-621.25 796.26,-615.86"/>
</g>
<!-- 16 -->
<g id="node17" class="node">
<title>16</title>
<path fill="none" stroke="#56d8b1" stroke-width="2" d="M842,-540C842,-540 681,-540 681,-540 675,-540 669,-534 669,-528 669,-528 669,-516 669,-516 669,-510 675,-504 681,-504 681,-504 842,-504 842,-504 848,-504 854,-510 854,-516 854,-516 854,-528 854,-528 854,-534 848,-540 842,-540"/>
<text text-anchor="middle" x="761.5" y="-519.5" font-family="sans" font-size="10.00">qc_picard_collect_gc_bias_metrics</text>
</g>
<!-- 4&#45;&gt;16 -->
<g id="edge38" class="edge">
<title>4&#45;&gt;16</title>
<path fill="none" stroke="grey" stroke-width="2" d="M938.36,-719.63C939.01,-687.33 935.77,-617.53 899.5,-576 887.25,-561.97 870.86,-551.64 853.65,-544.03"/>
<polygon fill="grey" stroke="grey" stroke-width="2" points="854.61,-540.65 844.03,-540.08 851.95,-547.12 854.61,-540.65"/>
</g>
<!-- 17 -->
<g id="node18" class="node">
<title>17</title>
<path fill="none" stroke="#d87d56" stroke-width="2" d="M344,-684C344,-684 261,-684 261,-684 255,-684 249,-678 249,-672 249,-672 249,-660 249,-660 249,-654 255,-648 261,-648 261,-648 344,-648 344,-648 350,-648 356,-654 356,-660 356,-660 356,-672 356,-672 356,-678 350,-684 344,-684"/>
<text text-anchor="middle" x="302.5" y="-663.5" font-family="sans" font-size="10.00">qc_samtools_stats</text>
</g>
<!-- 4&#45;&gt;17 -->
<g id="edge39" class="edge">
<title>4&#45;&gt;17</title>
<path fill="none" stroke="grey" stroke-width="2" d="M867.38,-729.81C771.43,-719.89 593.85,-701.29 442.5,-684 417.6,-681.15 390.22,-677.87 366.34,-674.94"/>
<polygon fill="grey" stroke="grey" stroke-width="2" points="366.68,-671.46 356.33,-673.72 365.83,-678.41 366.68,-671.46"/>
</g>
<!-- 18 -->
<g id="node19" class="node">
<title>18</title>
<path fill="none" stroke="#d87556" stroke-width="2" d="M639.5,-684C639.5,-684 463.5,-684 463.5,-684 457.5,-684 451.5,-678 451.5,-672 451.5,-672 451.5,-660 451.5,-660 451.5,-654 457.5,-648 463.5,-648 463.5,-648 639.5,-648 639.5,-648 645.5,-648 651.5,-654 651.5,-660 651.5,-660 651.5,-672 651.5,-672 651.5,-678 645.5,-684 639.5,-684"/>
<text text-anchor="middle" x="551.5" y="-663.5" font-family="sans" font-size="10.00">qc_picard_collect_insert_size_metrics</text>
</g>
<!-- 4&#45;&gt;18 -->
<g id="edge40" class="edge">
<title>4&#45;&gt;18</title>
<path fill="none" stroke="grey" stroke-width="2" d="M867.15,-724.24C808,-713.51 722.59,-698.03 655.53,-685.87"/>
<polygon fill="grey" stroke="grey" stroke-width="2" points="655.82,-682.36 645.36,-684.02 654.57,-689.25 655.82,-682.36"/>
</g>
<!-- 19 -->
<g id="node20" class="node">
<title>19</title>
<path fill="none" stroke="#56d85b" stroke-width="2" d="M965.5,-468C965.5,-468 787.5,-468 787.5,-468 781.5,-468 775.5,-462 775.5,-456 775.5,-456 775.5,-444 775.5,-444 775.5,-438 781.5,-432 787.5,-432 787.5,-432 965.5,-432 965.5,-432 971.5,-432 977.5,-438 977.5,-444 977.5,-444 977.5,-456 977.5,-456 977.5,-462 971.5,-468 965.5,-468"/>
<text text-anchor="middle" x="876.5" y="-447.5" font-family="sans" font-size="10.00">qc_picard_collect_duplication_metrics</text>
</g>
<!-- 4&#45;&gt;19 -->
<g id="edge41" class="edge">
<title>4&#45;&gt;19</title>
<path fill="none" stroke="grey" stroke-width="2" d="M951.83,-719.57C958.95,-709.76 966.81,-696.92 970.5,-684 983.69,-637.85 982.04,-622.59 970.5,-576 961.8,-540.88 954.38,-532.82 932.5,-504 924.66,-493.67 914.73,-483.57 905.42,-475"/>
<polygon fill="grey" stroke="grey" stroke-width="2" points="907.6,-472.25 897.81,-468.2 902.93,-477.47 907.6,-472.25"/>
</g>
<!-- 24 -->
<g id="node25" class="node">
<title>24</title>
<path fill="none" stroke="#d89c56" stroke-width="2" d="M809,-180C809,-180 686,-180 686,-180 680,-180 674,-174 674,-168 674,-168 674,-156 674,-156 674,-150 680,-144 686,-144 686,-144 809,-144 809,-144 815,-144 821,-150 821,-156 821,-156 821,-168 821,-168 821,-174 815,-180 809,-180"/>
<text text-anchor="middle" x="747.5" y="-159.5" font-family="sans" font-size="10.00">_copy_alignment_bam_file</text>
</g>
<!-- 4&#45;&gt;24 -->
<g id="edge47" class="edge">
<title>4&#45;&gt;24</title>
<path fill="none" stroke="grey" stroke-width="2" d="M939.53,-719.84C940.65,-709.48 941.94,-696 942.5,-684 944.79,-635.32 945.85,-619.31 923.5,-576 904.4,-538.98 897.51,-528.06 863.5,-504 825.96,-477.44 796.57,-502.79 766.5,-468 740.05,-437.4 747.5,-419.45 747.5,-379 747.5,-379 747.5,-379 747.5,-305 747.5,-265 747.5,-218.65 747.5,-190.08"/>
<polygon fill="grey" stroke="grey" stroke-width="2" points="751,-190.05 747.5,-180.05 744,-190.05 751,-190.05"/>
</g>
<!-- 43 -->
<g id="node44" class="node">
<title>43</title>
<path fill="none" stroke="#d8d356" stroke-width="2" d="M1188,-684C1188,-684 1073,-684 1073,-684 1067,-684 1061,-678 1061,-672 1061,-672 1061,-660 1061,-660 1061,-654 1067,-648 1073,-648 1073,-648 1188,-648 1188,-648 1194,-648 1200,-654 1200,-660 1200,-660 1200,-672 1200,-672 1200,-678 1194,-684 1188,-684"/>
<text text-anchor="middle" x="1130.5" y="-663.5" font-family="sans" font-size="10.00">cnv_sv_exomedepth_call</text>
</g>
<!-- 4&#45;&gt;43 -->
<g id="edge78" class="edge">
<title>4&#45;&gt;43</title>
<path fill="none" stroke="grey" stroke-width="2" d="M984.71,-719.88C1011.57,-710.14 1045.38,-697.87 1073.68,-687.61"/>
<polygon fill="grey" stroke="grey" stroke-width="2" points="1075.23,-690.77 1083.44,-684.07 1072.85,-684.19 1075.23,-690.77"/>
</g>
<!-- 5 -->
<g id="node6" class="node">
<title>5</title>
<path fill="none" stroke="#56b1d8" stroke-width="2" d="M1714.5,-540C1714.5,-540 1558.5,-540 1558.5,-540 1552.5,-540 1546.5,-534 1546.5,-528 1546.5,-528 1546.5,-516 1546.5,-516 1546.5,-510 1552.5,-504 1558.5,-504 1558.5,-504 1714.5,-504 1714.5,-504 1720.5,-504 1726.5,-510 1726.5,-516 1726.5,-516 1726.5,-528 1726.5,-528 1726.5,-534 1720.5,-540 1714.5,-540"/>
<text text-anchor="middle" x="1636.5" y="-519.5" font-family="sans" font-size="10.00">alignment_samtools_merge_bam</text>
</g>
<!-- 5&#45;&gt;4 -->
<g id="edge25" class="edge">
<title>5&#45;&gt;4</title>
<path fill="none" stroke="grey" stroke-width="2" d="M1623.37,-540.18C1596.06,-574.45 1529.31,-650.88 1453.5,-684 1377.35,-717.27 1142.8,-730.12 1017.83,-734.7"/>
<polygon fill="grey" stroke="grey" stroke-width="2" points="1017.42,-731.21 1007.56,-735.06 1017.67,-738.2 1017.42,-731.21"/>
</g>
<!-- 6 -->
<g id="node7" class="node">
<title>6</title>
<path fill="none" stroke="#d8bc56" stroke-width="2" d="M1470.5,-612C1470.5,-612 1306.5,-612 1306.5,-612 1300.5,-612 1294.5,-606 1294.5,-600 1294.5,-600 1294.5,-588 1294.5,-588 1294.5,-582 1300.5,-576 1306.5,-576 1306.5,-576 1470.5,-576 1470.5,-576 1476.5,-576 1482.5,-582 1482.5,-588 1482.5,-588 1482.5,-600 1482.5,-600 1482.5,-606 1476.5,-612 1470.5,-612"/>
<text text-anchor="middle" x="1388.5" y="-591.5" font-family="sans" font-size="10.00">alignment_picard_mark_duplicates</text>
</g>
<!-- 6&#45;&gt;5 -->
<g id="edge26" class="edge">
<title>6&#45;&gt;5</title>
<path fill="none" stroke="grey" stroke-width="2" d="M1448.85,-575.97C1484.25,-565.97 1529.16,-553.3 1566.16,-542.85"/>
<polygon fill="grey" stroke="grey" stroke-width="2" points="1567.21,-546.2 1575.88,-540.11 1565.3,-539.46 1567.21,-546.2"/>
</g>
<!-- 6&#45;&gt;11 -->
<g id="edge32" class="edge">
<title>6&#45;&gt;11</title>
<path fill="none" stroke="grey" stroke-width="2" d="M1352.78,-575.88C1333,-566.39 1308.23,-554.51 1287.17,-544.42"/>
<polygon fill="grey" stroke="grey" stroke-width="2" points="1288.63,-541.24 1278.1,-540.07 1285.6,-547.55 1288.63,-541.24"/>
</g>
<!-- 35 -->
<g id="node36" class="node">
<title>35</title>
<path fill="none" stroke="#56d88a" stroke-width="2" d="M1587,-468C1587,-468 1462,-468 1462,-468 1456,-468 1450,-462 1450,-456 1450,-456 1450,-444 1450,-444 1450,-438 1456,-432 1462,-432 1462,-432 1587,-432 1587,-432 1593,-432 1599,-438 1599,-444 1599,-444 1599,-456 1599,-456 1599,-462 1593,-468 1587,-468"/>
<text text-anchor="middle" x="1524.5" y="-447.5" font-family="sans" font-size="10.00">snv_indels_haplotypecaller</text>
</g>
<!-- 6&#45;&gt;35 -->
<g id="edge67" class="edge">
<title>6&#45;&gt;35</title>
<path fill="none" stroke="grey" stroke-width="2" d="M1447.18,-575.9C1466.2,-567.77 1485.89,-556.18 1499.5,-540 1514.15,-522.59 1520.24,-497.18 1522.76,-477.96"/>
<polygon fill="grey" stroke="grey" stroke-width="2" points="1526.24,-478.32 1523.82,-468.01 1519.28,-477.58 1526.24,-478.32"/>
</g>
<!-- 39 -->
<g id="node40" class="node">
<title>39</title>
<path fill="none" stroke="#d6d856" stroke-width="2" d="M1420.5,-468C1420.5,-468 1268.5,-468 1268.5,-468 1262.5,-468 1256.5,-462 1256.5,-456 1256.5,-456 1256.5,-444 1256.5,-444 1256.5,-438 1262.5,-432 1268.5,-432 1268.5,-432 1420.5,-432 1420.5,-432 1426.5,-432 1432.5,-438 1432.5,-444 1432.5,-444 1432.5,-456 1432.5,-456 1432.5,-462 1426.5,-468 1420.5,-468"/>
<text text-anchor="middle" x="1344.5" y="-447.5" font-family="sans" font-size="10.00">snv_indels_haplotypecaller_gvcf</text>
</g>
<!-- 6&#45;&gt;39 -->
<g id="edge72" class="edge">
<title>6&#45;&gt;39</title>
<path fill="none" stroke="grey" stroke-width="2" d="M1379.12,-575.75C1373.91,-565.59 1367.66,-552.34 1363.5,-540 1356.65,-519.7 1351.72,-495.93 1348.61,-478.06"/>
<polygon fill="grey" stroke="grey" stroke-width="2" points="1352.03,-477.33 1346.94,-468.04 1345.13,-478.48 1352.03,-477.33"/>
</g>
<!-- 7&#45;&gt;6 -->
<g id="edge27" class="edge">
<title>7&#45;&gt;6</title>
<path fill="none" stroke="grey" stroke-width="2" d="M1359.89,-647.7C1364.26,-639.64 1369.56,-629.89 1374.4,-620.98"/>
<polygon fill="grey" stroke="grey" stroke-width="2" points="1377.52,-622.56 1379.21,-612.1 1371.37,-619.22 1377.52,-622.56"/>
</g>
<!-- 8 -->
<g id="node9" class="node">
<title>8</title>
<path fill="none" stroke="#88d856" stroke-width="2" d="M657,-828C657,-828 522,-828 522,-828 516,-828 510,-822 510,-816 510,-816 510,-804 510,-804 510,-798 516,-792 522,-792 522,-792 657,-792 657,-792 663,-792 669,-798 669,-804 669,-804 669,-816 669,-816 669,-822 663,-828 657,-828"/>
<text text-anchor="middle" x="589.5" y="-807.5" font-family="sans" font-size="10.00">alignment_bwa_mem_merge</text>
</g>
<!-- 8&#45;&gt;4 -->
<g id="edge24" class="edge">
<title>8&#45;&gt;4</title>
<path fill="none" stroke="grey" stroke-width="2" d="M669.34,-792.94C725.75,-781.59 801.06,-766.45 857.5,-755.09"/>
<polygon fill="grey" stroke="grey" stroke-width="2" points="858.35,-758.49 867.46,-753.09 856.97,-751.63 858.35,-758.49"/>
</g>
<!-- 9 -->
<g id="node10" class="node">
<title>9</title>
<path fill="none" stroke="#5663d8" stroke-width="2" d="M300.5,-900C300.5,-900 202.5,-900 202.5,-900 196.5,-900 190.5,-894 190.5,-888 190.5,-888 190.5,-876 190.5,-876 190.5,-870 196.5,-864 202.5,-864 202.5,-864 300.5,-864 300.5,-864 306.5,-864 312.5,-870 312.5,-876 312.5,-876 312.5,-888 312.5,-888 312.5,-894 306.5,-900 300.5,-900"/>
<text text-anchor="middle" x="251.5" y="-879.5" font-family="sans" font-size="10.00">alignment_bwa_mem</text>
</g>
<!-- 9&#45;&gt;8 -->
<g id="edge30" class="edge">
<title>9&#45;&gt;8</title>
<path fill="none" stroke="grey" stroke-width="2" d="M312.71,-868.32C364.95,-857.5 440.78,-841.8 499.86,-829.56"/>
<polygon fill="grey" stroke="grey" stroke-width="2" points="500.86,-832.93 509.94,-827.48 499.44,-826.08 500.86,-832.93"/>
</g>
<!-- 10 -->
<g id="node11" class="node">
<title>10</title>
<path fill="none" stroke="#d8bc56" stroke-width="2" d="M250,-972C250,-972 145,-972 145,-972 139,-972 133,-966 133,-960 133,-960 133,-948 133,-948 133,-942 139,-936 145,-936 145,-936 250,-936 250,-936 256,-936 262,-942 262,-948 262,-948 262,-960 262,-960 262,-966 256,-972 250,-972"/>
<text text-anchor="middle" x="197.5" y="-951.5" font-family="sans" font-size="10.00">prealignment_fastp_pe</text>
</g>
<!-- 10&#45;&gt;2 -->
<g id="edge18" class="edge">
<title>10&#45;&gt;2</title>
<path fill="none" stroke="grey" stroke-width="2" d="M188.38,-935.61C175.5,-909.36 153.5,-857.71 153.5,-811 153.5,-811 153.5,-811 153.5,-521 153.5,-460.5 202.03,-458.32 256.5,-432 332.98,-395.04 432.87,-383.82 490.04,-380.44"/>
<polygon fill="grey" stroke="grey" stroke-width="2" points="490.4,-383.93 500.2,-379.89 490.02,-376.94 490.4,-383.93"/>
</g>
<!-- 10&#45;&gt;9 -->
<g id="edge31" class="edge">
<title>10&#45;&gt;9</title>
<path fill="none" stroke="grey" stroke-width="2" d="M210.85,-935.7C217.26,-927.39 225.06,-917.28 232.11,-908.14"/>
<polygon fill="grey" stroke="grey" stroke-width="2" points="234.97,-910.16 238.31,-900.1 229.43,-905.88 234.97,-910.16"/>
</g>
<!-- 11&#45;&gt;7 -->
<g id="edge28" class="edge">
<title>11&#45;&gt;7</title>
<path fill="none" stroke="grey" stroke-width="2" d="M1248.29,-540.32C1255.16,-559.23 1267.95,-589.78 1285.5,-612 1294.2,-623.02 1305.57,-633.26 1316.36,-641.74"/>
<polygon fill="grey" stroke="grey" stroke-width="2" points="1314.36,-644.61 1324.45,-647.86 1318.59,-639.03 1314.36,-644.61"/>
</g>
<!-- 11&#45;&gt;14 -->
<g id="edge35" class="edge">
<title>11&#45;&gt;14</title>
<path fill="none" stroke="grey" stroke-width="2" d="M1195.04,-503.88C1167.93,-494.09 1133.76,-481.77 1105.24,-471.47"/>
<polygon fill="grey" stroke="grey" stroke-width="2" points="1106.4,-468.17 1095.8,-468.07 1104.02,-474.75 1106.4,-468.17"/>
</g>
<!-- 25 -->
<g id="node26" class="node">
<title>25</title>
<path fill="none" stroke="#56d8b9" stroke-width="2" d="M1286.5,-396C1286.5,-396 1170.5,-396 1170.5,-396 1164.5,-396 1158.5,-390 1158.5,-384 1158.5,-384 1158.5,-372 1158.5,-372 1158.5,-366 1164.5,-360 1170.5,-360 1170.5,-360 1286.5,-360 1286.5,-360 1292.5,-360 1298.5,-366 1298.5,-372 1298.5,-372 1298.5,-384 1298.5,-384 1298.5,-390 1292.5,-396 1286.5,-396"/>
<text text-anchor="middle" x="1228.5" y="-375.5" font-family="sans" font-size="10.00">_copy_alignment_bai_file</text>
</g>
<!-- 11&#45;&gt;25 -->
<g id="edge48" class="edge">
<title>11&#45;&gt;25</title>
<path fill="none" stroke="grey" stroke-width="2" d="M1240.81,-503.87C1238.43,-479.67 1234.04,-435.21 1231.2,-406.39"/>
<polygon fill="grey" stroke="grey" stroke-width="2" points="1234.66,-405.8 1230.19,-396.19 1227.69,-406.48 1234.66,-405.8"/>
</g>
<!-- 11&#45;&gt;35 -->
<g id="edge68" class="edge">
<title>11&#45;&gt;35</title>
<path fill="none" stroke="grey" stroke-width="2" d="M1311.12,-503.97C1351.81,-493.87 1403.53,-481.03 1445.86,-470.52"/>
<polygon fill="grey" stroke="grey" stroke-width="2" points="1446.71,-473.92 1455.57,-468.11 1445.02,-467.12 1446.71,-473.92"/>
</g>
<!-- 11&#45;&gt;39 -->
<g id="edge73" class="edge">
<title>11&#45;&gt;39</title>
<path fill="none" stroke="grey" stroke-width="2" d="M1267.45,-503.88C1280.54,-494.89 1296.76,-483.76 1310.94,-474.03"/>
<polygon fill="grey" stroke="grey" stroke-width="2" points="1313.19,-476.73 1319.45,-468.19 1309.23,-470.96 1313.19,-476.73"/>
</g>
<!-- 12 -->
<g id="node13" class="node">
<title>12</title>
<path fill="none" stroke="#d86e56" stroke-width="2" d="M646,-468C646,-468 607,-468 607,-468 601,-468 595,-462 595,-456 595,-456 595,-444 595,-444 595,-438 601,-432 607,-432 607,-432 646,-432 646,-432 652,-432 658,-438 658,-444 658,-444 658,-456 658,-456 658,-462 652,-468 646,-468"/>
<text text-anchor="middle" x="626.5" y="-447.5" font-family="sans" font-size="10.00">qc_fastqc</text>
</g>
<!-- 12&#45;&gt;2 -->
<g id="edge14" class="edge">
<title>12&#45;&gt;2</title>
<path fill="none" stroke="grey" stroke-width="2" d="M604.01,-431.7C592.54,-422.88 578.44,-412.03 566.02,-402.47"/>
<polygon fill="grey" stroke="grey" stroke-width="2" points="567.8,-399.43 557.74,-396.1 563.53,-404.98 567.8,-399.43"/>
</g>
<!-- 13&#45;&gt;2 -->
<g id="edge13" class="edge">
<title>13&#45;&gt;2</title>
<path fill="none" stroke="grey" stroke-width="2" d="M352.45,-575.85C387.6,-538.05 471.85,-447.45 512.62,-403.6"/>
<polygon fill="grey" stroke="grey" stroke-width="2" points="515.23,-405.94 519.48,-396.23 510.1,-401.17 515.23,-405.94"/>
</g>
<!-- 14&#45;&gt;2 -->
<g id="edge21" class="edge">
<title>14&#45;&gt;2</title>
<path fill="none" stroke="grey" stroke-width="2" d="M995.86,-433.99C992.71,-433.27 989.57,-432.6 986.5,-432 839.68,-403.41 662.76,-388.09 581,-382.07"/>
<polygon fill="grey" stroke="grey" stroke-width="2" points="580.8,-378.55 570.58,-381.31 580.3,-385.53 580.8,-378.55"/>
</g>
<!-- 22 -->
<g id="node23" class="node">
<title>22</title>
<path fill="none" stroke="#b6d856" stroke-width="2" d="M946,-324C946,-324 845,-324 845,-324 839,-324 833,-318 833,-312 833,-312 833,-300 833,-300 833,-294 839,-288 845,-288 845,-288 946,-288 946,-288 952,-288 958,-294 958,-300 958,-300 958,-312 958,-312 958,-318 952,-324 946,-324"/>
<text text-anchor="middle" x="895.5" y="-303.5" font-family="sans" font-size="10.00">export_qc_xlsx_report</text>
</g>
<!-- 14&#45;&gt;22 -->
<g id="edge44" class="edge">
<title>14&#45;&gt;22</title>
<path fill="none" stroke="grey" stroke-width="2" d="M995.98,-434.09C974.39,-425.79 950.51,-413.5 933.5,-396 916.82,-378.84 906.94,-353.23 901.46,-333.89"/>
<polygon fill="grey" stroke="grey" stroke-width="2" points="904.82,-332.93 898.91,-324.15 898.05,-334.71 904.82,-332.93"/>
</g>
<!-- 23 -->
<g id="node24" class="node">
<title>23</title>
<path fill="none" stroke="#56d882" stroke-width="2" d="M1090.5,-396C1090.5,-396 954.5,-396 954.5,-396 948.5,-396 942.5,-390 942.5,-384 942.5,-384 942.5,-372 942.5,-372 942.5,-366 948.5,-360 954.5,-360 954.5,-360 1090.5,-360 1090.5,-360 1096.5,-360 1102.5,-366 1102.5,-372 1102.5,-372 1102.5,-384 1102.5,-384 1102.5,-390 1096.5,-396 1090.5,-396"/>
<text text-anchor="middle" x="1022.5" y="-375.5" font-family="sans" font-size="10.00">export_qc_bedtools_intersect</text>
</g>
<!-- 14&#45;&gt;23 -->
<g id="edge46" class="edge">
<title>14&#45;&gt;23</title>
<path fill="none" stroke="grey" stroke-width="2" d="M1042.07,-431.7C1039.14,-423.81 1035.61,-414.3 1032.36,-405.55"/>
<polygon fill="grey" stroke="grey" stroke-width="2" points="1035.62,-404.26 1028.85,-396.1 1029.05,-406.7 1035.62,-404.26"/>
</g>
<!-- 15&#45;&gt;2 -->
<g id="edge17" class="edge">
<title>15&#45;&gt;2</title>
<path fill="none" stroke="grey" stroke-width="2" d="M724.72,-575.95C704.56,-566.66 680.37,-554.17 660.5,-540 623.14,-513.35 614.62,-504.26 586.5,-468 571.26,-448.35 557.47,-423.65 548.08,-405.26"/>
<polygon fill="grey" stroke="grey" stroke-width="2" points="551.19,-403.66 543.59,-396.28 544.93,-406.79 551.19,-403.66"/>
</g>
<!-- 16&#45;&gt;2 -->
<g id="edge15" class="edge">
<title>16&#45;&gt;2</title>
<path fill="none" stroke="grey" stroke-width="2" d="M747.08,-503.9C729.84,-484.34 699.29,-452.37 667.5,-432 640.49,-414.69 606.9,-401.3 580.37,-392.31"/>
<polygon fill="grey" stroke="grey" stroke-width="2" points="581.17,-388.89 570.57,-389.08 578.97,-395.54 581.17,-388.89"/>
</g>
<!-- 17&#45;&gt;2 -->
<g id="edge22" class="edge">
<title>17&#45;&gt;2</title>
<path fill="none" stroke="grey" stroke-width="2" d="M264.62,-647.91C250.27,-639.33 235.49,-627.43 227.5,-612 218.95,-595.48 225.66,-519.68 233.5,-504 280.6,-409.79 418.17,-386.48 490.26,-380.79"/>
<polygon fill="grey" stroke="grey" stroke-width="2" points="490.67,-384.27 500.4,-380.07 490.17,-377.28 490.67,-384.27"/>
</g>
<!-- 18&#45;&gt;2 -->
<g id="edge16" class="edge">
<title>18&#45;&gt;2</title>
<path fill="none" stroke="grey" stroke-width="2" d="M451.42,-653.91C368.34,-643.67 261.71,-627.72 248.5,-612 165.29,-512.97 390.97,-425.46 490.76,-392.7"/>
<polygon fill="grey" stroke="grey" stroke-width="2" points="491.86,-396.03 500.3,-389.61 489.7,-389.37 491.86,-396.03"/>
</g>
<!-- 19&#45;&gt;2 -->
<g id="edge19" class="edge">
<title>19&#45;&gt;2</title>
<path fill="none" stroke="grey" stroke-width="2" d="M793.52,-431.97C726.47,-418.2 634.66,-399.36 580.56,-388.25"/>
<polygon fill="grey" stroke="grey" stroke-width="2" points="581.09,-384.78 570.59,-386.2 579.68,-391.64 581.09,-384.78"/>
</g>
<!-- 19&#45;&gt;22 -->
<g id="edge45" class="edge">
<title>19&#45;&gt;22</title>
<path fill="none" stroke="grey" stroke-width="2" d="M878.79,-431.87C882.03,-407.67 887.98,-363.21 891.83,-334.39"/>
<polygon fill="grey" stroke="grey" stroke-width="2" points="895.34,-334.57 893.2,-324.19 888.4,-333.64 895.34,-334.57"/>
</g>
<!-- 20 -->
<g id="node21" class="node">
<title>20</title>
<path fill="none" stroke="#afd856" stroke-width="2" d="M113,-468C113,-468 12,-468 12,-468 6,-468 0,-462 0,-456 0,-456 0,-444 0,-444 0,-438 6,-432 12,-432 12,-432 113,-432 113,-432 119,-432 125,-438 125,-444 125,-444 125,-456 125,-456 125,-462 119,-468 113,-468"/>
<text text-anchor="middle" x="62.5" y="-447.5" font-family="sans" font-size="10.00">sample_order_multiqc</text>
</g>
<!-- 20&#45;&gt;2 -->
<g id="edge20" class="edge">
<title>20&#45;&gt;2</title>
<path fill="none" stroke="grey" stroke-width="2" d="M125.03,-434.73C129.91,-433.76 134.78,-432.84 139.5,-432 265.79,-409.65 416.24,-391.93 490.06,-383.82"/>
<polygon fill="grey" stroke="grey" stroke-width="2" points="490.82,-387.26 500.38,-382.69 490.06,-380.3 490.82,-387.26"/>
</g>
<!-- 21 -->
<g id="node22" class="node">
<title>21</title>
<path fill="none" stroke="#568ad8" stroke-width="2" d="M918.5,-252C918.5,-252 826.5,-252 826.5,-252 820.5,-252 814.5,-246 814.5,-240 814.5,-240 814.5,-228 814.5,-228 814.5,-222 820.5,-216 826.5,-216 826.5,-216 918.5,-216 918.5,-216 924.5,-216 930.5,-222 930.5,-228 930.5,-228 930.5,-240 930.5,-240 930.5,-246 924.5,-252 918.5,-252"/>
<text text-anchor="middle" x="872.5" y="-231.5" font-family="sans" font-size="10.00">_copy_qc_xlsxreport</text>
</g>
<!-- 21&#45;&gt;0 -->
<g id="edge10" class="edge">
<title>21&#45;&gt;0</title>
<path fill="none" stroke="grey" stroke-width="2" d="M865.43,-215.58C853.57,-183.19 834.15,-113.25 868.5,-72 899.99,-34.19 1048.51,-23.26 1119.08,-20.17"/>
<polygon fill="grey" stroke="grey" stroke-width="2" points="1119.46,-23.66 1129.31,-19.76 1119.17,-16.67 1119.46,-23.66"/>
</g>
<!-- 22&#45;&gt;21 -->
<g id="edge42" class="edge">
<title>22&#45;&gt;21</title>
<path fill="none" stroke="grey" stroke-width="2" d="M889.81,-287.7C887.25,-279.9 884.17,-270.51 881.32,-261.83"/>
<polygon fill="grey" stroke="grey" stroke-width="2" points="884.57,-260.51 878.12,-252.1 877.92,-262.7 884.57,-260.51"/>
</g>
<!-- 23&#45;&gt;22 -->
<g id="edge43" class="edge">
<title>23&#45;&gt;22</title>
<path fill="none" stroke="grey" stroke-width="2" d="M991.43,-359.88C974.67,-350.64 953.79,-339.13 935.8,-329.21"/>
<polygon fill="grey" stroke="grey" stroke-width="2" points="937.13,-325.95 926.69,-324.19 933.76,-332.08 937.13,-325.95"/>
</g>
<!-- 24&#45;&gt;0 -->
<g id="edge8" class="edge">
<title>24&#45;&gt;0</title>
<path fill="none" stroke="grey" stroke-width="2" d="M759.25,-143.73C774.32,-123.05 802.5,-89.07 835.5,-72 884.51,-46.65 1045.7,-29.12 1119.28,-22.24"/>
<polygon fill="grey" stroke="grey" stroke-width="2" points="1119.84,-25.71 1129.48,-21.31 1119.2,-18.74 1119.84,-25.71"/>
</g>
<!-- 25&#45;&gt;0 -->
<g id="edge7" class="edge">
<title>25&#45;&gt;0</title>
<path fill="none" stroke="grey" stroke-width="2" d="M1223.44,-359.68C1216.14,-333.11 1203.5,-280.56 1203.5,-235 1203.5,-235 1203.5,-235 1203.5,-161 1203.5,-120.55 1198.3,-110.02 1184.5,-72 1181.2,-62.9 1176.6,-53.42 1172.08,-45.03"/>
<polygon fill="grey" stroke="grey" stroke-width="2" points="1175.03,-43.13 1167.09,-36.11 1168.92,-46.55 1175.03,-43.13"/>
</g>
<!-- 26 -->
<g id="node27" class="node">
<title>26</title>
<path fill="none" stroke="#d8ac56" stroke-width="2" d="M1359.5,-180C1359.5,-180 1243.5,-180 1243.5,-180 1237.5,-180 1231.5,-174 1231.5,-168 1231.5,-168 1231.5,-156 1231.5,-156 1231.5,-150 1237.5,-144 1243.5,-144 1243.5,-144 1359.5,-144 1359.5,-144 1365.5,-144 1371.5,-150 1371.5,-156 1371.5,-156 1371.5,-168 1371.5,-168 1371.5,-174 1365.5,-180 1359.5,-180"/>
<text text-anchor="middle" x="1301.5" y="-159.5" font-family="sans" font-size="10.00">_copy_annotated_vcf_file</text>
</g>
<!-- 26&#45;&gt;0 -->
<g id="edge1" class="edge">
<title>26&#45;&gt;0</title>
<path fill="none" stroke="grey" stroke-width="2" d="M1286.19,-143.79C1269.71,-125.5 1242.49,-95.98 1217.5,-72 1207.18,-62.09 1195.39,-51.67 1184.96,-42.71"/>
<polygon fill="grey" stroke="grey" stroke-width="2" points="1187.17,-39.99 1177.28,-36.17 1182.63,-45.32 1187.17,-39.99"/>
</g>
<!-- 27 -->
<g id="node28" class="node">
<title>27</title>
<path fill="none" stroke="#56d0d8" stroke-width="2" d="M1703.5,-396C1703.5,-396 1627.5,-396 1627.5,-396 1621.5,-396 1615.5,-390 1615.5,-384 1615.5,-384 1615.5,-372 1615.5,-372 1615.5,-366 1621.5,-360 1627.5,-360 1627.5,-360 1703.5,-360 1703.5,-360 1709.5,-360 1715.5,-366 1715.5,-372 1715.5,-372 1715.5,-384 1715.5,-384 1715.5,-390 1709.5,-396 1703.5,-396"/>
<text text-anchor="middle" x="1665.5" y="-375.5" font-family="sans" font-size="10.00">snv_indels_bgzip</text>
</g>
<!-- 27&#45;&gt;26 -->
<g id="edge49" class="edge">
<title>27&#45;&gt;26</title>
<path fill="none" stroke="grey" stroke-width="2" d="M1615.22,-375.74C1532.73,-372.6 1373.86,-361.68 1334.5,-324 1298.27,-289.31 1296.24,-226.33 1298.52,-190.28"/>
<polygon fill="grey" stroke="grey" stroke-width="2" points="1302.03,-190.27 1299.33,-180.02 1295.05,-189.71 1302.03,-190.27"/>
</g>
<!-- 29 -->
<g id="node30" class="node">
<title>29</title>
<path fill="none" stroke="#70d856" stroke-width="2" d="M1787.5,-180C1787.5,-180 1713.5,-180 1713.5,-180 1707.5,-180 1701.5,-174 1701.5,-168 1701.5,-168 1701.5,-156 1701.5,-156 1701.5,-150 1707.5,-144 1713.5,-144 1713.5,-144 1787.5,-144 1787.5,-144 1793.5,-144 1799.5,-150 1799.5,-156 1799.5,-156 1799.5,-168 1799.5,-168 1799.5,-174 1793.5,-180 1787.5,-180"/>
<text text-anchor="middle" x="1750.5" y="-159.5" font-family="sans" font-size="10.00">snv_indels_tabix</text>
</g>
<!-- 27&#45;&gt;29 -->
<g id="edge58" class="edge">
<title>27&#45;&gt;29</title>
<path fill="none" stroke="grey" stroke-width="2" d="M1637.7,-359.87C1625.73,-350.84 1613,-338.59 1606.5,-324 1599.98,-309.39 1599.86,-302.56 1606.5,-288 1627.37,-242.24 1674.19,-206.77 1708.8,-185.49"/>
<polygon fill="grey" stroke="grey" stroke-width="2" points="1710.98,-188.27 1717.76,-180.13 1707.38,-182.26 1710.98,-188.27"/>
</g>
<!-- 32 -->
<g id="node33" class="node">
<title>32</title>
<path fill="none" stroke="#56d86b" stroke-width="2" d="M1867,-324C1867,-324 1746,-324 1746,-324 1740,-324 1734,-318 1734,-312 1734,-312 1734,-300 1734,-300 1734,-294 1740,-288 1746,-288 1746,-288 1867,-288 1867,-288 1873,-288 1879,-294 1879,-300 1879,-300 1879,-312 1879,-312 1879,-318 1873,-324 1867,-324"/>
<text text-anchor="middle" x="1806.5" y="-303.5" font-family="sans" font-size="10.00">snv_indels_vt_decompose</text>
</g>
<!-- 27&#45;&gt;32 -->
<g id="edge63" class="edge">
<title>27&#45;&gt;32</title>
<path fill="none" stroke="grey" stroke-width="2" d="M1699.99,-359.88C1718.94,-350.47 1742.63,-338.71 1762.86,-328.67"/>
<polygon fill="grey" stroke="grey" stroke-width="2" points="1764.47,-331.77 1771.87,-324.19 1761.36,-325.5 1764.47,-331.77"/>
</g>
<!-- 33 -->
<g id="node34" class="node">
<title>33</title>
<path fill="none" stroke="#bed856" stroke-width="2" d="M1704,-324C1704,-324 1627,-324 1627,-324 1621,-324 1615,-318 1615,-312 1615,-312 1615,-300 1615,-300 1615,-294 1621,-288 1627,-288 1627,-288 1704,-288 1704,-288 1710,-288 1716,-294 1716,-300 1716,-300 1716,-312 1716,-312 1716,-318 1710,-324 1704,-324"/>
<text text-anchor="middle" x="1665.5" y="-303.5" font-family="sans" font-size="10.00">snv_indels_fix_af</text>
</g>
<!-- 27&#45;&gt;33 -->
<g id="edge64" class="edge">
<title>27&#45;&gt;33</title>
<path fill="none" stroke="grey" stroke-width="2" d="M1659.58,-359.7C1658.79,-351.98 1658.56,-342.71 1658.9,-334.11"/>
<polygon fill="grey" stroke="grey" stroke-width="2" points="1662.4,-334.32 1659.6,-324.1 1655.42,-333.84 1662.4,-334.32"/>
</g>
<!-- 34 -->
<g id="node35" class="node">
<title>34</title>
<path fill="none" stroke="#56d8a2" stroke-width="2" d="M2065,-108C2065,-108 1940,-108 1940,-108 1934,-108 1928,-102 1928,-96 1928,-96 1928,-84 1928,-84 1928,-78 1934,-72 1940,-72 1940,-72 2065,-72 2065,-72 2071,-72 2077,-78 2077,-84 2077,-84 2077,-96 2077,-96 2077,-102 2071,-108 2065,-108"/>
<text text-anchor="middle" x="2002.5" y="-87.5" font-family="sans" font-size="10.00">snv_indels_bcftools_concat</text>
</g>
<!-- 27&#45;&gt;34 -->
<g id="edge65" class="edge">
<title>27&#45;&gt;34</title>
<path fill="none" stroke="grey" stroke-width="2" d="M1715.5,-376.57C1762.5,-373.38 1832.26,-361.78 1879.5,-324 1946.67,-270.28 1977.07,-167.03 1991.91,-118.06"/>
<polygon fill="grey" stroke="grey" stroke-width="2" points="1995.35,-118.78 1994.94,-108.19 1988.66,-116.73 1995.35,-118.78"/>
</g>
<!-- 38 -->
<g id="node39" class="node">
<title>38</title>
<path fill="none" stroke="#56a9d8" stroke-width="2" d="M1533.5,-324C1533.5,-324 1355.5,-324 1355.5,-324 1349.5,-324 1343.5,-318 1343.5,-312 1343.5,-312 1343.5,-300 1343.5,-300 1343.5,-294 1349.5,-288 1355.5,-288 1355.5,-288 1533.5,-288 1533.5,-288 1539.5,-288 1545.5,-294 1545.5,-300 1545.5,-300 1545.5,-312 1545.5,-312 1545.5,-318 1539.5,-324 1533.5,-324"/>
<text text-anchor="middle" x="1444.5" y="-303.5" font-family="sans" font-size="10.00">_copy_genome_vcf_file_no_normalize</text>
</g>
<!-- 27&#45;&gt;38 -->
<g id="edge71" class="edge">
<title>27&#45;&gt;38</title>
<path fill="none" stroke="grey" stroke-width="2" d="M1615.35,-361.12C1583.59,-351.06 1542.24,-337.96 1508.17,-327.17"/>
<polygon fill="grey" stroke="grey" stroke-width="2" points="1508.9,-323.73 1498.31,-324.04 1506.79,-330.4 1508.9,-323.73"/>
</g>
<!-- 28 -->
<g id="node29" class="node">
<title>28</title>
<path fill="none" stroke="#56d8a9" stroke-width="2" d="M1875.5,-36C1875.5,-36 1807.5,-36 1807.5,-36 1801.5,-36 1795.5,-30 1795.5,-24 1795.5,-24 1795.5,-12 1795.5,-12 1795.5,-6 1801.5,0 1807.5,0 1807.5,0 1875.5,0 1875.5,0 1881.5,0 1887.5,-6 1887.5,-12 1887.5,-12 1887.5,-24 1887.5,-24 1887.5,-30 1881.5,-36 1875.5,-36"/>
<text text-anchor="middle" x="1841.5" y="-15.5" font-family="sans" font-size="10.00">annotation_vep</text>
</g>
<!-- 28&#45;&gt;27 -->
<g id="edge51" class="edge">
<title>28&#45;&gt;27</title>
<path fill="none" stroke="grey" stroke-width="2" d="M1887.5,-23C1950.57,-29.45 2059.18,-44.31 2086.5,-72 2114.84,-100.73 2104.5,-120.64 2104.5,-161 2104.5,-235 2104.5,-235 2104.5,-235 2104.5,-313.61 1846.43,-355.15 1726.03,-370.26"/>
<polygon fill="grey" stroke="grey" stroke-width="2" points="1725.36,-366.81 1715.86,-371.51 1726.21,-373.76 1725.36,-366.81"/>
</g>
<!-- 29&#45;&gt;28 -->
<g id="edge56" class="edge">
<title>29&#45;&gt;28</title>
<path fill="none" stroke="grey" stroke-width="2" d="M1749.34,-143.88C1748.89,-124.87 1750.66,-93.97 1764.5,-72 1772.22,-59.73 1783.93,-49.58 1795.9,-41.55"/>
<polygon fill="grey" stroke="grey" stroke-width="2" points="1798.01,-44.36 1804.61,-36.08 1794.28,-38.43 1798.01,-44.36"/>
</g>
<!-- 30 -->
<g id="node31" class="node">
<title>30</title>
<path fill="none" stroke="#56d87b" stroke-width="2" d="M1897.5,-108C1897.5,-108 1785.5,-108 1785.5,-108 1779.5,-108 1773.5,-102 1773.5,-96 1773.5,-96 1773.5,-84 1773.5,-84 1773.5,-78 1779.5,-72 1785.5,-72 1785.5,-72 1897.5,-72 1897.5,-72 1903.5,-72 1909.5,-78 1909.5,-84 1909.5,-84 1909.5,-96 1909.5,-96 1909.5,-102 1903.5,-108 1897.5,-108"/>
<text text-anchor="middle" x="1841.5" y="-87.5" font-family="sans" font-size="10.00">snv_indels_bcftools_sort</text>
</g>
<!-- 29&#45;&gt;30 -->
<g id="edge61" class="edge">
<title>29&#45;&gt;30</title>
<path fill="none" stroke="grey" stroke-width="2" d="M1767.08,-143.7C1777.73,-134.8 1791.84,-123.82 1804.94,-114.2"/>
<polygon fill="grey" stroke="grey" stroke-width="2" points="1807.32,-116.8 1813.37,-108.1 1803.22,-111.13 1807.32,-116.8"/>
</g>
<!-- 29&#45;&gt;34 -->
<g id="edge66" class="edge">
<title>29&#45;&gt;34</title>
<path fill="none" stroke="grey" stroke-width="2" d="M1799.69,-147.34C1837.08,-136.95 1889.07,-122.51 1931.05,-110.85"/>
<polygon fill="grey" stroke="grey" stroke-width="2" points="1932.24,-114.15 1940.94,-108.1 1930.37,-107.4 1932.24,-114.15"/>
</g>
<!-- 37 -->
<g id="node38" class="node">
<title>37</title>
<path fill="none" stroke="#5692d8" stroke-width="2" d="M1705.5,-108C1705.5,-108 1571.5,-108 1571.5,-108 1565.5,-108 1559.5,-102 1559.5,-96 1559.5,-96 1559.5,-84 1559.5,-84 1559.5,-78 1565.5,-72 1571.5,-72 1571.5,-72 1705.5,-72 1705.5,-72 1711.5,-72 1717.5,-78 1717.5,-84 1717.5,-84 1717.5,-96 1717.5,-96 1717.5,-102 1711.5,-108 1705.5,-108"/>
<text text-anchor="middle" x="1638.5" y="-87.5" font-family="sans" font-size="10.00">_copy_annotated_vcf_tbi_file</text>
</g>
<!-- 29&#45;&gt;37 -->
<g id="edge70" class="edge">
<title>29&#45;&gt;37</title>
<path fill="none" stroke="grey" stroke-width="2" d="M1723.1,-143.88C1708.59,-134.81 1690.58,-123.55 1674.91,-113.76"/>
<polygon fill="grey" stroke="grey" stroke-width="2" points="1676.34,-110.52 1666,-108.19 1672.63,-116.46 1676.34,-110.52"/>
</g>
<!-- 40 -->
<g id="node41" class="node">
<title>40</title>
<path fill="none" stroke="#56d8d8" stroke-width="2" d="M1529.5,-108C1529.5,-108 1319.5,-108 1319.5,-108 1313.5,-108 1307.5,-102 1307.5,-96 1307.5,-96 1307.5,-84 1307.5,-84 1307.5,-78 1313.5,-72 1319.5,-72 1319.5,-72 1529.5,-72 1529.5,-72 1535.5,-72 1541.5,-78 1541.5,-84 1541.5,-84 1541.5,-96 1541.5,-96 1541.5,-102 1535.5,-108 1529.5,-108"/>
<text text-anchor="middle" x="1424.5" y="-87.5" font-family="sans" font-size="10.00">_copy_genome_vcf_index_file_no_normalize</text>
</g>
<!-- 29&#45;&gt;40 -->
<g id="edge75" class="edge">
<title>29&#45;&gt;40</title>
<path fill="none" stroke="grey" stroke-width="2" d="M1701.34,-150.44C1651.8,-139.81 1574.25,-123.15 1513.81,-110.18"/>
<polygon fill="grey" stroke="grey" stroke-width="2" points="1514.4,-106.72 1503.89,-108.05 1512.93,-113.57 1514.4,-106.72"/>
</g>
<!-- 30&#45;&gt;28 -->
<g id="edge55" class="edge">
<title>30&#45;&gt;28</title>
<path fill="none" stroke="grey" stroke-width="2" d="M1841.5,-71.7C1841.5,-63.98 1841.5,-54.71 1841.5,-46.11"/>
<polygon fill="grey" stroke="grey" stroke-width="2" points="1845,-46.1 1841.5,-36.1 1838,-46.1 1845,-46.1"/>
</g>
<!-- 30&#45;&gt;29 -->
<g id="edge57" class="edge">
<title>30&#45;&gt;29</title>
<path fill="none" stroke="grey" stroke-width="2" d="M1825.06,-108.19C1814.4,-117.1 1800.26,-128.11 1787.11,-137.76"/>
<polygon fill="grey" stroke="grey" stroke-width="2" points="1784.71,-135.18 1778.66,-143.88 1788.81,-140.85 1784.71,-135.18"/>
</g>
<!-- 31 -->
<g id="node32" class="node">
<title>31</title>
<path fill="none" stroke="#d8a456" stroke-width="2" d="M1863,-252C1863,-252 1750,-252 1750,-252 1744,-252 1738,-246 1738,-240 1738,-240 1738,-228 1738,-228 1738,-222 1744,-216 1750,-216 1750,-216 1863,-216 1863,-216 1869,-216 1875,-222 1875,-228 1875,-228 1875,-240 1875,-240 1875,-246 1869,-252 1863,-252"/>
<text text-anchor="middle" x="1806.5" y="-231.5" font-family="sans" font-size="10.00">snv_indels_vt_normalize</text>
</g>
<!-- 31&#45;&gt;29 -->
<g id="edge59" class="edge">
<title>31&#45;&gt;29</title>
<path fill="none" stroke="grey" stroke-width="2" d="M1792.66,-215.7C1786.01,-207.39 1777.92,-197.28 1770.61,-188.14"/>
<polygon fill="grey" stroke="grey" stroke-width="2" points="1773.16,-185.73 1764.18,-180.1 1767.7,-190.1 1773.16,-185.73"/>
</g>
<!-- 31&#45;&gt;30 -->
<g id="edge60" class="edge">
<title>31&#45;&gt;30</title>
<path fill="none" stroke="grey" stroke-width="2" d="M1810.72,-215.87C1816.71,-191.56 1827.74,-146.82 1834.84,-118.01"/>
<polygon fill="grey" stroke="grey" stroke-width="2" points="1838.27,-118.74 1837.26,-108.19 1831.47,-117.06 1838.27,-118.74"/>
</g>
<!-- 32&#45;&gt;31 -->
<g id="edge62" class="edge">
<title>32&#45;&gt;31</title>
<path fill="none" stroke="grey" stroke-width="2" d="M1806.5,-287.7C1806.5,-279.98 1806.5,-270.71 1806.5,-262.11"/>
<polygon fill="grey" stroke="grey" stroke-width="2" points="1810,-262.1 1806.5,-252.1 1803,-262.1 1810,-262.1"/>
</g>
<!-- 33&#45;&gt;27 -->
<g id="edge50" class="edge">
<title>33&#45;&gt;27</title>
<path fill="none" stroke="grey" stroke-width="2" d="M1671.4,-324.1C1672.2,-331.79 1672.44,-341.05 1672.1,-349.67"/>
<polygon fill="grey" stroke="grey" stroke-width="2" points="1668.61,-349.48 1671.42,-359.7 1675.59,-349.96 1668.61,-349.48"/>
</g>
<!-- 34&#45;&gt;27 -->
<g id="edge52" class="edge">
<title>34&#45;&gt;27</title>
<path fill="none" stroke="grey" stroke-width="2" d="M2003.69,-108.19C1999.33,-151.62 1969.6,-266.34 1897.5,-324 1849.09,-362.71 1777.03,-373.94 1726,-376.79"/>
<polygon fill="grey" stroke="grey" stroke-width="2" points="1725.59,-373.31 1715.76,-377.27 1725.91,-380.3 1725.59,-373.31"/>
</g>
<!-- 35&#45;&gt;27 -->
<g id="edge53" class="edge">
<title>35&#45;&gt;27</title>
<path fill="none" stroke="grey" stroke-width="2" d="M1558.99,-431.88C1577.94,-422.47 1601.63,-410.71 1621.86,-400.67"/>
<polygon fill="grey" stroke="grey" stroke-width="2" points="1623.47,-403.77 1630.87,-396.19 1620.36,-397.5 1623.47,-403.77"/>
</g>
<!-- 36 -->
<g id="node37" class="node">
<title>36</title>
<path fill="none" stroke="#56d89a" stroke-width="2" d="M1478.5,-540C1478.5,-540 1384.5,-540 1384.5,-540 1378.5,-540 1372.5,-534 1372.5,-528 1372.5,-528 1372.5,-516 1372.5,-516 1372.5,-510 1378.5,-504 1384.5,-504 1384.5,-504 1478.5,-504 1478.5,-504 1484.5,-504 1490.5,-510 1490.5,-516 1490.5,-516 1490.5,-528 1490.5,-528 1490.5,-534 1484.5,-540 1478.5,-540"/>
<text text-anchor="middle" x="1431.5" y="-519.5" font-family="sans" font-size="10.00">snv_indels_bed_split</text>
</g>
<!-- 36&#45;&gt;35 -->
<g id="edge69" class="edge">
<title>36&#45;&gt;35</title>
<path fill="none" stroke="grey" stroke-width="2" d="M1454.49,-503.7C1466.31,-494.8 1480.89,-483.82 1493.68,-474.2"/>
<polygon fill="grey" stroke="grey" stroke-width="2" points="1495.89,-476.91 1501.78,-468.1 1491.68,-471.32 1495.89,-476.91"/>
</g>
<!-- 36&#45;&gt;39 -->
<g id="edge74" class="edge">
<title>36&#45;&gt;39</title>
<path fill="none" stroke="grey" stroke-width="2" d="M1409.99,-503.7C1399.04,-494.88 1385.55,-484.03 1373.68,-474.47"/>
<polygon fill="grey" stroke="grey" stroke-width="2" points="1375.74,-471.65 1365.76,-468.1 1371.36,-477.1 1375.74,-471.65"/>
</g>
<!-- 37&#45;&gt;0 -->
<g id="edge6" class="edge">
<title>37&#45;&gt;0</title>
<path fill="none" stroke="grey" stroke-width="2" d="M1559.38,-73.5C1556.39,-72.98 1553.42,-72.48 1550.5,-72 1419.96,-50.63 1264.04,-31.55 1193.91,-23.31"/>
<polygon fill="grey" stroke="grey" stroke-width="2" points="1194.15,-19.81 1183.81,-22.13 1193.33,-26.77 1194.15,-19.81"/>
</g>
<!-- 38&#45;&gt;0 -->
<g id="edge3" class="edge">
<title>38&#45;&gt;0</title>
<path fill="none" stroke="grey" stroke-width="2" d="M1442.02,-287.63C1436.55,-255.34 1420.61,-185.55 1380.5,-144 1352.86,-115.36 1333.06,-127.74 1298.5,-108 1274.72,-94.42 1271.5,-86.85 1248.5,-72 1230.6,-60.44 1210.11,-48.52 1193.01,-38.91"/>
<polygon fill="grey" stroke="grey" stroke-width="2" points="1194.34,-35.64 1183.9,-33.83 1190.93,-41.76 1194.34,-35.64"/>
</g>
<!-- 39&#45;&gt;27 -->
<g id="edge54" class="edge">
<title>39&#45;&gt;27</title>
<path fill="none" stroke="grey" stroke-width="2" d="M1422.61,-431.97C1478.81,-419.71 1553.49,-403.43 1605.14,-392.16"/>
<polygon fill="grey" stroke="grey" stroke-width="2" points="1606.12,-395.53 1615.15,-389.98 1604.63,-388.69 1606.12,-395.53"/>
</g>
<!-- 40&#45;&gt;0 -->
<g id="edge2" class="edge">
<title>40&#45;&gt;0</title>
<path fill="none" stroke="grey" stroke-width="2" d="M1359.28,-71.97C1307.21,-58.37 1236.14,-39.8 1193.43,-28.65"/>
<polygon fill="grey" stroke="grey" stroke-width="2" points="1194.3,-25.25 1183.74,-26.11 1192.53,-32.03 1194.3,-25.25"/>
</g>
<!-- 41 -->
<g id="node42" class="node">
<title>41</title>
<path fill="none" stroke="#c6d856" stroke-width="2" d="M1011.5,-108C1011.5,-108 889.5,-108 889.5,-108 883.5,-108 877.5,-102 877.5,-96 877.5,-96 877.5,-84 877.5,-84 877.5,-78 883.5,-72 889.5,-72 889.5,-72 1011.5,-72 1011.5,-72 1017.5,-72 1023.5,-78 1023.5,-84 1023.5,-84 1023.5,-96 1023.5,-96 1023.5,-102 1017.5,-108 1011.5,-108"/>
<text text-anchor="middle" x="950.5" y="-87.5" font-family="sans" font-size="10.00">_copy_exomedepth_nexus</text>
</g>
<!-- 41&#45;&gt;0 -->
<g id="edge4" class="edge">
<title>41&#45;&gt;0</title>
<path fill="none" stroke="grey" stroke-width="2" d="M1000.63,-71.97C1037.33,-59.5 1086.31,-42.85 1119.49,-31.57"/>
<polygon fill="grey" stroke="grey" stroke-width="2" points="1120.91,-34.79 1129.26,-28.26 1118.66,-28.16 1120.91,-34.79"/>
</g>
<!-- 42 -->
<g id="node43" class="node">
<title>42</title>
<path fill="none" stroke="#d8cb56" stroke-width="2" d="M1153.5,-180C1153.5,-180 1063.5,-180 1063.5,-180 1057.5,-180 1051.5,-174 1051.5,-168 1051.5,-168 1051.5,-156 1051.5,-156 1051.5,-150 1057.5,-144 1063.5,-144 1063.5,-144 1153.5,-144 1153.5,-144 1159.5,-144 1165.5,-150 1165.5,-156 1165.5,-156 1165.5,-168 1165.5,-168 1165.5,-174 1159.5,-180 1153.5,-180"/>
<text text-anchor="middle" x="1108.5" y="-159.5" font-family="sans" font-size="10.00">exomedepth_export</text>
</g>
<!-- 42&#45;&gt;41 -->
<g id="edge76" class="edge">
<title>42&#45;&gt;41</title>
<path fill="none" stroke="grey" stroke-width="2" d="M1069.85,-143.88C1048.25,-134.31 1021.15,-122.3 998.23,-112.15"/>
<polygon fill="grey" stroke="grey" stroke-width="2" points="999.59,-108.92 989.03,-108.07 996.75,-115.32 999.59,-108.92"/>
</g>
<!-- 44 -->
<g id="node45" class="node">
<title>44</title>
<path fill="none" stroke="#d87556" stroke-width="2" d="M1163.5,-108C1163.5,-108 1053.5,-108 1053.5,-108 1047.5,-108 1041.5,-102 1041.5,-96 1041.5,-96 1041.5,-84 1041.5,-84 1041.5,-78 1047.5,-72 1053.5,-72 1053.5,-72 1163.5,-72 1163.5,-72 1169.5,-72 1175.5,-78 1175.5,-84 1175.5,-84 1175.5,-96 1175.5,-96 1175.5,-102 1169.5,-108 1163.5,-108"/>
<text text-anchor="middle" x="1108.5" y="-87.5" font-family="sans" font-size="10.00">_copy_exomedepth_aed</text>
</g>
<!-- 42&#45;&gt;44 -->
<g id="edge79" class="edge">
<title>42&#45;&gt;44</title>
<path fill="none" stroke="grey" stroke-width="2" d="M1108.5,-143.7C1108.5,-135.98 1108.5,-126.71 1108.5,-118.11"/>
<polygon fill="grey" stroke="grey" stroke-width="2" points="1112,-118.1 1108.5,-108.1 1105,-118.1 1112,-118.1"/>
</g>
<!-- 43&#45;&gt;42 -->
<g id="edge77" class="edge">
<title>43&#45;&gt;42</title>
<path fill="none" stroke="grey" stroke-width="2" d="M1130.5,-647.95C1130.5,-621.29 1130.5,-568.11 1130.5,-523 1130.5,-523 1130.5,-523 1130.5,-305 1130.5,-264.74 1121.76,-218.81 1115.29,-190.36"/>
<polygon fill="grey" stroke="grey" stroke-width="2" points="1118.64,-189.29 1112.95,-180.35 1111.82,-190.89 1118.64,-189.29"/>
</g>
<!-- 44&#45;&gt;0 -->
<g id="edge9" class="edge">
<title>44&#45;&gt;0</title>
<path fill="none" stroke="grey" stroke-width="2" d="M1120.37,-71.7C1126,-63.47 1132.85,-53.48 1139.07,-44.42"/>
<polygon fill="grey" stroke="grey" stroke-width="2" points="1142,-46.33 1144.77,-36.1 1136.23,-42.37 1142,-46.33"/>
</g>
</g>
</svg>
