<?xml version="1.0" encoding="UTF-8" standalone="no"?>
<!DOCTYPE svg PUBLIC "-//W3C//DTD SVG 1.1//EN"
 "http://www.w3.org/Graphics/SVG/1.1/DTD/svg11.dtd">
<!-- Generated by graphviz version 2.43.0 (0)
 -->
<!-- Title: snakemake_dag Pages: 1 -->
<svg width="1960pt" height="980pt"
 viewBox="0.00 0.00 1959.50 980.00" xmlns="http://www.w3.org/2000/svg" xmlns:xlink="http://www.w3.org/1999/xlink">
<g id="graph0" class="graph" transform="scale(1 1) rotate(0) translate(4 976)">
<title>snakemake_dag</title>
<polygon fill="white" stroke="transparent" points="-4,4 -4,-976 1955.5,-976 1955.5,4 -4,4"/>
<!-- 0 -->
<g id="node1" class="node">
<title>0</title>
<path fill="none" stroke="#68d856" stroke-width="2" d="M1526.5,-108C1526.5,-108 1496.5,-108 1496.5,-108 1490.5,-108 1484.5,-102 1484.5,-96 1484.5,-96 1484.5,-84 1484.5,-84 1484.5,-78 1490.5,-72 1496.5,-72 1496.5,-72 1526.5,-72 1526.5,-72 1532.5,-72 1538.5,-78 1538.5,-84 1538.5,-84 1538.5,-96 1538.5,-96 1538.5,-102 1532.5,-108 1526.5,-108"/>
<text text-anchor="middle" x="1511.5" y="-87.5" font-family="sans" font-size="10.00">all</text>
</g>
<!-- 1 -->
<g id="node2" class="node">
<title>1</title>
<path fill="none" stroke="#56d86b" stroke-width="2" d="M441,-252C441,-252 378,-252 378,-252 372,-252 366,-246 366,-240 366,-240 366,-228 366,-228 366,-222 372,-216 378,-216 378,-216 441,-216 441,-216 447,-216 453,-222 453,-228 453,-228 453,-240 453,-240 453,-246 447,-252 441,-252"/>
<text text-anchor="middle" x="409.5" y="-231.5" font-family="sans" font-size="10.00">_copy_multiqc</text>
</g>
<!-- 1&#45;&gt;0 -->
<g id="edge11" class="edge">
<title>1&#45;&gt;0</title>
<path fill="none" stroke="grey" stroke-width="2" d="M414.88,-215.67C422.44,-194.59 438.41,-159.87 465.5,-144 553.96,-92.18 1298.3,-90.53 1474.3,-90.87"/>
<polygon fill="grey" stroke="grey" stroke-width="2" points="1474.36,-94.37 1484.37,-90.89 1474.38,-87.37 1474.36,-94.37"/>
</g>
<!-- 2 -->
<g id="node3" class="node">
<title>2</title>
<path fill="none" stroke="#56d89a" stroke-width="2" d="M456.5,-396C456.5,-396 410.5,-396 410.5,-396 404.5,-396 398.5,-390 398.5,-384 398.5,-384 398.5,-372 398.5,-372 398.5,-366 404.5,-360 410.5,-360 410.5,-360 456.5,-360 456.5,-360 462.5,-360 468.5,-366 468.5,-372 468.5,-372 468.5,-384 468.5,-384 468.5,-390 462.5,-396 456.5,-396"/>
<text text-anchor="middle" x="433.5" y="-375.5" font-family="sans" font-size="10.00">qc_multiqc</text>
</g>
<!-- 2&#45;&gt;1 -->
<g id="edge12" class="edge">
<title>2&#45;&gt;1</title>
<path fill="none" stroke="grey" stroke-width="2" d="M430.61,-359.87C426.51,-335.67 419,-291.21 414.13,-262.39"/>
<polygon fill="grey" stroke="grey" stroke-width="2" points="417.52,-261.47 412.41,-252.19 410.62,-262.63 417.52,-261.47"/>
</g>
<!-- 3 -->
<g id="node4" class="node">
<title>3</title>
<path fill="none" stroke="#56d8c9" stroke-width="2" d="M907,-468C907,-468 826,-468 826,-468 820,-468 814,-462 814,-456 814,-456 814,-444 814,-444 814,-438 820,-432 826,-432 826,-432 907,-432 907,-432 913,-432 919,-438 919,-444 919,-444 919,-456 919,-456 919,-462 913,-468 907,-468"/>
<text text-anchor="middle" x="866.5" y="-447.5" font-family="sans" font-size="10.00">qc_mosdepth_bed</text>
</g>
<!-- 3&#45;&gt;2 -->
<g id="edge14" class="edge">
<title>3&#45;&gt;2</title>
<path fill="none" stroke="grey" stroke-width="2" d="M813.89,-434.47C810.05,-433.58 806.22,-432.74 802.5,-432 685.51,-408.64 654.48,-413.72 536.5,-396 517.53,-393.15 496.65,-389.75 478.67,-386.75"/>
<polygon fill="grey" stroke="grey" stroke-width="2" points="479.18,-383.28 468.74,-385.08 478.02,-390.19 479.18,-383.28"/>
</g>
<!-- 22 -->
<g id="node23" class="node">
<title>22</title>
<path fill="none" stroke="#d86e56" stroke-width="2" d="M580,-324C580,-324 479,-324 479,-324 473,-324 467,-318 467,-312 467,-312 467,-300 467,-300 467,-294 473,-288 479,-288 479,-288 580,-288 580,-288 586,-288 592,-294 592,-300 592,-300 592,-312 592,-312 592,-318 586,-324 580,-324"/>
<text text-anchor="middle" x="529.5" y="-303.5" font-family="sans" font-size="10.00">export_qc_xlsx_report</text>
</g>
<!-- 3&#45;&gt;22 -->
<g id="edge44" class="edge">
<title>3&#45;&gt;22</title>
<path fill="none" stroke="grey" stroke-width="2" d="M834.48,-431.94C817.3,-422.24 796.1,-409.39 778.5,-396 759.98,-381.92 760.89,-371.2 740.5,-360 728.11,-353.19 658,-336.21 601.95,-323.29"/>
<polygon fill="grey" stroke="grey" stroke-width="2" points="602.56,-319.84 592.03,-321.01 600.99,-326.66 602.56,-319.84"/>
</g>
<!-- 23 -->
<g id="node24" class="node">
<title>23</title>
<path fill="none" stroke="#56d8d8" stroke-width="2" d="M935.5,-396C935.5,-396 799.5,-396 799.5,-396 793.5,-396 787.5,-390 787.5,-384 787.5,-384 787.5,-372 787.5,-372 787.5,-366 793.5,-360 799.5,-360 799.5,-360 935.5,-360 935.5,-360 941.5,-360 947.5,-366 947.5,-372 947.5,-372 947.5,-384 947.5,-384 947.5,-390 941.5,-396 935.5,-396"/>
<text text-anchor="middle" x="867.5" y="-375.5" font-family="sans" font-size="10.00">export_qc_bedtools_intersect</text>
</g>
<!-- 3&#45;&gt;23 -->
<g id="edge48" class="edge">
<title>3&#45;&gt;23</title>
<path fill="none" stroke="grey" stroke-width="2" d="M866.75,-431.7C866.86,-423.98 866.99,-414.71 867.11,-406.11"/>
<polygon fill="grey" stroke="grey" stroke-width="2" points="870.61,-406.15 867.26,-396.1 863.61,-406.05 870.61,-406.15"/>
</g>
<!-- 24 -->
<g id="node25" class="node">
<title>24</title>
<path fill="none" stroke="#56a9d8" stroke-width="2" d="M719.5,-396C719.5,-396 557.5,-396 557.5,-396 551.5,-396 545.5,-390 545.5,-384 545.5,-384 545.5,-372 545.5,-372 545.5,-366 551.5,-360 557.5,-360 557.5,-360 719.5,-360 719.5,-360 725.5,-360 731.5,-366 731.5,-372 731.5,-372 731.5,-384 731.5,-384 731.5,-390 725.5,-396 719.5,-396"/>
<text text-anchor="middle" x="638.5" y="-375.5" font-family="sans" font-size="10.00">export_qc_bedtools_intersect_pgrs</text>
</g>
<!-- 3&#45;&gt;24 -->
<g id="edge49" class="edge">
<title>3&#45;&gt;24</title>
<path fill="none" stroke="grey" stroke-width="2" d="M813.91,-432.85C781.09,-422.78 738.59,-409.73 703.65,-399"/>
<polygon fill="grey" stroke="grey" stroke-width="2" points="704.6,-395.63 694.01,-396.04 702.54,-402.32 704.6,-395.63"/>
</g>
<!-- 4 -->
<g id="node5" class="node">
<title>4</title>
<path fill="none" stroke="#5663d8" stroke-width="2" d="M976.5,-756C976.5,-756 860.5,-756 860.5,-756 854.5,-756 848.5,-750 848.5,-744 848.5,-744 848.5,-732 848.5,-732 848.5,-726 854.5,-720 860.5,-720 860.5,-720 976.5,-720 976.5,-720 982.5,-720 988.5,-726 988.5,-732 988.5,-732 988.5,-744 988.5,-744 988.5,-750 982.5,-756 976.5,-756"/>
<text text-anchor="middle" x="918.5" y="-735.5" font-family="sans" font-size="10.00">alignment_samtools_sort</text>
</g>
<!-- 4&#45;&gt;3 -->
<g id="edge24" class="edge">
<title>4&#45;&gt;3</title>
<path fill="none" stroke="grey" stroke-width="2" d="M936.67,-719.68C945.38,-710.1 954.91,-697.43 959.5,-684 985.36,-608.3 999.69,-573.17 959.5,-504 951.91,-490.94 939.77,-480.84 926.74,-473.12"/>
<polygon fill="grey" stroke="grey" stroke-width="2" points="928.07,-469.86 917.61,-468.16 924.72,-476.01 928.07,-469.86"/>
</g>
<!-- 7 -->
<g id="node8" class="node">
<title>7</title>
<path fill="none" stroke="#ced856" stroke-width="2" d="M1379.5,-684C1379.5,-684 1215.5,-684 1215.5,-684 1209.5,-684 1203.5,-678 1203.5,-672 1203.5,-672 1203.5,-660 1203.5,-660 1203.5,-654 1209.5,-648 1215.5,-648 1215.5,-648 1379.5,-648 1379.5,-648 1385.5,-648 1391.5,-654 1391.5,-660 1391.5,-660 1391.5,-672 1391.5,-672 1391.5,-678 1385.5,-684 1379.5,-684"/>
<text text-anchor="middle" x="1297.5" y="-663.5" font-family="sans" font-size="10.00">alignment_samtools_extract_reads</text>
</g>
<!-- 4&#45;&gt;7 -->
<g id="edge30" class="edge">
<title>4&#45;&gt;7</title>
<path fill="none" stroke="grey" stroke-width="2" d="M988.9,-724C1046.93,-713.28 1130.02,-697.93 1195.37,-685.86"/>
<polygon fill="grey" stroke="grey" stroke-width="2" points="1196.09,-689.29 1205.28,-684.03 1194.81,-682.41 1196.09,-689.29"/>
</g>
<!-- 11 -->
<g id="node12" class="node">
<title>11</title>
<path fill="none" stroke="#56a9d8" stroke-width="2" d="M1520,-540C1520,-540 1395,-540 1395,-540 1389,-540 1383,-534 1383,-528 1383,-528 1383,-516 1383,-516 1383,-510 1389,-504 1395,-504 1395,-504 1520,-504 1520,-504 1526,-504 1532,-510 1532,-516 1532,-516 1532,-528 1532,-528 1532,-534 1526,-540 1520,-540"/>
<text text-anchor="middle" x="1457.5" y="-519.5" font-family="sans" font-size="10.00">alignment_samtools_index</text>
</g>
<!-- 4&#45;&gt;11 -->
<g id="edge34" class="edge">
<title>4&#45;&gt;11</title>
<path fill="none" stroke="grey" stroke-width="2" d="M988.7,-737.97C1106.59,-738.2 1337.65,-732.25 1400.5,-684 1442.24,-651.95 1453.5,-586.96 1456.48,-550.1"/>
<polygon fill="grey" stroke="grey" stroke-width="2" points="1459.98,-550.28 1457.15,-540.07 1452.99,-549.82 1459.98,-550.28"/>
</g>
<!-- 12 -->
<g id="node13" class="node">
<title>12</title>
<path fill="none" stroke="#a7d856" stroke-width="2" d="M525.5,-612C525.5,-612 361.5,-612 361.5,-612 355.5,-612 349.5,-606 349.5,-600 349.5,-600 349.5,-588 349.5,-588 349.5,-582 355.5,-576 361.5,-576 361.5,-576 525.5,-576 525.5,-576 531.5,-576 537.5,-582 537.5,-588 537.5,-588 537.5,-600 537.5,-600 537.5,-606 531.5,-612 525.5,-612"/>
<text text-anchor="middle" x="443.5" y="-591.5" font-family="sans" font-size="10.00">qc_picard_collect_multiple_metrics</text>
</g>
<!-- 4&#45;&gt;12 -->
<g id="edge36" class="edge">
<title>4&#45;&gt;12</title>
<path fill="none" stroke="grey" stroke-width="2" d="M859.57,-719.94C826.44,-710.05 784.44,-697.01 747.5,-684 706.48,-669.55 697.92,-661.28 656.5,-648 616.36,-635.13 571.14,-623.49 532.73,-614.41"/>
<polygon fill="grey" stroke="grey" stroke-width="2" points="533.13,-610.91 522.6,-612.04 531.54,-617.73 533.13,-610.91"/>
</g>
<!-- 13 -->
<g id="node14" class="node">
<title>13</title>
<path fill="none" stroke="#56d88a" stroke-width="2" d="M729,-612C729,-612 568,-612 568,-612 562,-612 556,-606 556,-600 556,-600 556,-588 556,-588 556,-582 562,-576 568,-576 568,-576 729,-576 729,-576 735,-576 741,-582 741,-588 741,-588 741,-600 741,-600 741,-606 735,-612 729,-612"/>
<text text-anchor="middle" x="648.5" y="-591.5" font-family="sans" font-size="10.00">qc_picard_collect_gc_bias_metrics</text>
</g>
<!-- 4&#45;&gt;13 -->
<g id="edge37" class="edge">
<title>4&#45;&gt;13</title>
<path fill="none" stroke="grey" stroke-width="2" d="M885.93,-719.87C836.87,-694.07 744.04,-645.25 690.13,-616.9"/>
<polygon fill="grey" stroke="grey" stroke-width="2" points="691.66,-613.75 681.18,-612.19 688.41,-619.94 691.66,-613.75"/>
</g>
<!-- 14 -->
<g id="node15" class="node">
<title>14</title>
<path fill="none" stroke="#8fd856" stroke-width="2" d="M906,-612C906,-612 771,-612 771,-612 765,-612 759,-606 759,-600 759,-600 759,-588 759,-588 759,-582 765,-576 771,-576 771,-576 906,-576 906,-576 912,-576 918,-582 918,-588 918,-588 918,-600 918,-600 918,-606 912,-612 906,-612"/>
<text text-anchor="middle" x="838.5" y="-591.5" font-family="sans" font-size="10.00">qc_picard_collect_hs_metrics</text>
</g>
<!-- 4&#45;&gt;14 -->
<g id="edge38" class="edge">
<title>4&#45;&gt;14</title>
<path fill="none" stroke="grey" stroke-width="2" d="M908.85,-719.87C895.04,-695.35 869.5,-650.03 853.29,-621.26"/>
<polygon fill="grey" stroke="grey" stroke-width="2" points="856.14,-619.18 848.18,-612.19 850.04,-622.62 856.14,-619.18"/>
</g>
<!-- 15 -->
<g id="node16" class="node">
<title>15</title>
<path fill="none" stroke="#80d856" stroke-width="2" d="M236.5,-540C236.5,-540 60.5,-540 60.5,-540 54.5,-540 48.5,-534 48.5,-528 48.5,-528 48.5,-516 48.5,-516 48.5,-510 54.5,-504 60.5,-504 60.5,-504 236.5,-504 236.5,-504 242.5,-504 248.5,-510 248.5,-516 248.5,-516 248.5,-528 248.5,-528 248.5,-534 242.5,-540 236.5,-540"/>
<text text-anchor="middle" x="148.5" y="-519.5" font-family="sans" font-size="10.00">qc_picard_collect_insert_size_metrics</text>
</g>
<!-- 4&#45;&gt;15 -->
<g id="edge39" class="edge">
<title>4&#45;&gt;15</title>
<path fill="none" stroke="grey" stroke-width="2" d="M848.49,-735.58C682.68,-731.67 276.05,-718.62 225.5,-684 180.13,-652.93 160.66,-587.56 152.98,-550.38"/>
<polygon fill="grey" stroke="grey" stroke-width="2" points="156.36,-549.41 151.04,-540.25 149.49,-550.73 156.36,-549.41"/>
</g>
<!-- 16 -->
<g id="node17" class="node">
<title>16</title>
<path fill="none" stroke="#56b1d8" stroke-width="2" d="M330,-684C330,-684 247,-684 247,-684 241,-684 235,-678 235,-672 235,-672 235,-660 235,-660 235,-654 241,-648 247,-648 247,-648 330,-648 330,-648 336,-648 342,-654 342,-660 342,-660 342,-672 342,-672 342,-678 336,-684 330,-684"/>
<text text-anchor="middle" x="288.5" y="-663.5" font-family="sans" font-size="10.00">qc_samtools_stats</text>
</g>
<!-- 4&#45;&gt;16 -->
<g id="edge40" class="edge">
<title>4&#45;&gt;16</title>
<path fill="none" stroke="grey" stroke-width="2" d="M848.16,-731.46C746.64,-723.12 553.25,-705.96 389.5,-684 377.45,-682.38 364.64,-680.42 352.32,-678.41"/>
<polygon fill="grey" stroke="grey" stroke-width="2" points="352.56,-674.9 342.13,-676.71 351.42,-681.8 352.56,-674.9"/>
</g>
<!-- 18 -->
<g id="node19" class="node">
<title>18</title>
<path fill="none" stroke="#56d89a" stroke-width="2" d="M636,-684C636,-684 411,-684 411,-684 405,-684 399,-678 399,-672 399,-672 399,-660 399,-660 399,-654 405,-648 411,-648 411,-648 636,-648 636,-648 642,-648 648,-654 648,-660 648,-660 648,-672 648,-672 648,-678 642,-684 636,-684"/>
<text text-anchor="middle" x="523.5" y="-663.5" font-family="sans" font-size="10.00">qc_picard_collect_alignment_summary_metrics</text>
</g>
<!-- 4&#45;&gt;18 -->
<g id="edge41" class="edge">
<title>4&#45;&gt;18</title>
<path fill="none" stroke="grey" stroke-width="2" d="M848.34,-724.57C787.69,-713.82 699.13,-698.12 629.78,-685.84"/>
<polygon fill="grey" stroke="grey" stroke-width="2" points="630.16,-682.35 619.7,-684.05 628.93,-689.24 630.16,-682.35"/>
</g>
<!-- 19 -->
<g id="node20" class="node">
<title>19</title>
<path fill="none" stroke="#56b1d8" stroke-width="2" d="M781.5,-468C781.5,-468 603.5,-468 603.5,-468 597.5,-468 591.5,-462 591.5,-456 591.5,-456 591.5,-444 591.5,-444 591.5,-438 597.5,-432 603.5,-432 603.5,-432 781.5,-432 781.5,-432 787.5,-432 793.5,-438 793.5,-444 793.5,-444 793.5,-456 793.5,-456 793.5,-462 787.5,-468 781.5,-468"/>
<text text-anchor="middle" x="692.5" y="-447.5" font-family="sans" font-size="10.00">qc_picard_collect_duplication_metrics</text>
</g>
<!-- 4&#45;&gt;19 -->
<g id="edge42" class="edge">
<title>4&#45;&gt;19</title>
<path fill="none" stroke="grey" stroke-width="2" d="M925.1,-720C936,-688.9 953.99,-621.84 926.5,-576 893.67,-521.24 827.78,-489.13 774.26,-471.2"/>
<polygon fill="grey" stroke="grey" stroke-width="2" points="775.02,-467.77 764.43,-468.02 772.86,-474.43 775.02,-467.77"/>
</g>
<!-- 25 -->
<g id="node26" class="node">
<title>25</title>
<path fill="none" stroke="#56c1d8" stroke-width="2" d="M1751,-252C1751,-252 1628,-252 1628,-252 1622,-252 1616,-246 1616,-240 1616,-240 1616,-228 1616,-228 1616,-222 1622,-216 1628,-216 1628,-216 1751,-216 1751,-216 1757,-216 1763,-222 1763,-228 1763,-228 1763,-240 1763,-240 1763,-246 1757,-252 1751,-252"/>
<text text-anchor="middle" x="1689.5" y="-231.5" font-family="sans" font-size="10.00">_copy_alignment_bam_file</text>
</g>
<!-- 4&#45;&gt;25 -->
<g id="edge50" class="edge">
<title>4&#45;&gt;25</title>
<path fill="none" stroke="grey" stroke-width="2" d="M988.55,-737.62C1167.15,-737.34 1625.5,-724.03 1625.5,-595 1625.5,-595 1625.5,-595 1625.5,-377 1625.5,-333.08 1651.26,-287.73 1670.1,-260.44"/>
<polygon fill="grey" stroke="grey" stroke-width="2" points="1672.98,-262.42 1675.93,-252.24 1667.28,-258.37 1672.98,-262.42"/>
</g>
<!-- 45 -->
<g id="node46" class="node">
<title>45</title>
<path fill="none" stroke="#56d8a2" stroke-width="2" d="M1781,-468C1781,-468 1666,-468 1666,-468 1660,-468 1654,-462 1654,-456 1654,-456 1654,-444 1654,-444 1654,-438 1660,-432 1666,-432 1666,-432 1781,-432 1781,-432 1787,-432 1793,-438 1793,-444 1793,-444 1793,-456 1793,-456 1793,-462 1787,-468 1781,-468"/>
<text text-anchor="middle" x="1723.5" y="-447.5" font-family="sans" font-size="10.00">cnv_sv_exomedepth_call</text>
</g>
<!-- 4&#45;&gt;45 -->
<g id="edge80" class="edge">
<title>4&#45;&gt;45</title>
<path fill="none" stroke="grey" stroke-width="2" d="M988.72,-736.13C1159.89,-733.4 1588.44,-722.74 1639.5,-684 1705.24,-634.12 1719.62,-528.08 1722.7,-478.11"/>
<polygon fill="grey" stroke="grey" stroke-width="2" points="1726.2,-478.23 1723.21,-468.07 1719.21,-477.87 1726.2,-478.23"/>
</g>
<!-- 5 -->
<g id="node6" class="node">
<title>5</title>
<path fill="none" stroke="#56d8d0" stroke-width="2" d="M1315.5,-540C1315.5,-540 1159.5,-540 1159.5,-540 1153.5,-540 1147.5,-534 1147.5,-528 1147.5,-528 1147.5,-516 1147.5,-516 1147.5,-510 1153.5,-504 1159.5,-504 1159.5,-504 1315.5,-504 1315.5,-504 1321.5,-504 1327.5,-510 1327.5,-516 1327.5,-516 1327.5,-528 1327.5,-528 1327.5,-534 1321.5,-540 1315.5,-540"/>
<text text-anchor="middle" x="1237.5" y="-519.5" font-family="sans" font-size="10.00">alignment_samtools_merge_bam</text>
</g>
<!-- 5&#45;&gt;4 -->
<g id="edge26" class="edge">
<title>5&#45;&gt;4</title>
<path fill="none" stroke="grey" stroke-width="2" d="M1211.81,-540.23C1154.65,-578.58 1016.93,-670.97 952.63,-714.1"/>
<polygon fill="grey" stroke="grey" stroke-width="2" points="950.42,-711.37 944.07,-719.85 954.32,-717.18 950.42,-711.37"/>
</g>
<!-- 6 -->
<g id="node7" class="node">
<title>6</title>
<path fill="none" stroke="#d6d856" stroke-width="2" d="M1379.5,-612C1379.5,-612 1215.5,-612 1215.5,-612 1209.5,-612 1203.5,-606 1203.5,-600 1203.5,-600 1203.5,-588 1203.5,-588 1203.5,-582 1209.5,-576 1215.5,-576 1215.5,-576 1379.5,-576 1379.5,-576 1385.5,-576 1391.5,-582 1391.5,-588 1391.5,-588 1391.5,-600 1391.5,-600 1391.5,-606 1385.5,-612 1379.5,-612"/>
<text text-anchor="middle" x="1297.5" y="-591.5" font-family="sans" font-size="10.00">alignment_picard_mark_duplicates</text>
</g>
<!-- 6&#45;&gt;5 -->
<g id="edge28" class="edge">
<title>6&#45;&gt;5</title>
<path fill="none" stroke="grey" stroke-width="2" d="M1282.67,-575.7C1275.48,-567.3 1266.7,-557.07 1258.81,-547.86"/>
<polygon fill="grey" stroke="grey" stroke-width="2" points="1261.33,-545.42 1252.16,-540.1 1256.01,-549.97 1261.33,-545.42"/>
</g>
<!-- 6&#45;&gt;11 -->
<g id="edge35" class="edge">
<title>6&#45;&gt;11</title>
<path fill="none" stroke="grey" stroke-width="2" d="M1336.64,-575.88C1358.51,-566.31 1385.96,-554.3 1409.16,-544.15"/>
<polygon fill="grey" stroke="grey" stroke-width="2" points="1410.73,-547.28 1418.49,-540.07 1407.92,-540.87 1410.73,-547.28"/>
</g>
<!-- 37 -->
<g id="node38" class="node">
<title>37</title>
<path fill="none" stroke="#569ad8" stroke-width="2" d="M1137.5,-468C1137.5,-468 1029.5,-468 1029.5,-468 1023.5,-468 1017.5,-462 1017.5,-456 1017.5,-456 1017.5,-444 1017.5,-444 1017.5,-438 1023.5,-432 1029.5,-432 1029.5,-432 1137.5,-432 1137.5,-432 1143.5,-432 1149.5,-438 1149.5,-444 1149.5,-444 1149.5,-456 1149.5,-456 1149.5,-462 1143.5,-468 1137.5,-468"/>
<text text-anchor="middle" x="1083.5" y="-447.5" font-family="sans" font-size="10.00">snv_indels_deepvariant</text>
</g>
<!-- 6&#45;&gt;37 -->
<g id="edge72" class="edge">
<title>6&#45;&gt;37</title>
<path fill="none" stroke="grey" stroke-width="2" d="M1315.12,-575.79C1332.52,-556.71 1354.16,-525.74 1336.5,-504 1314.5,-476.91 1225.86,-463.18 1159.67,-456.57"/>
<polygon fill="grey" stroke="grey" stroke-width="2" points="1159.95,-453.08 1149.66,-455.6 1159.28,-460.05 1159.95,-453.08"/>
</g>
<!-- 7&#45;&gt;6 -->
<g id="edge29" class="edge">
<title>7&#45;&gt;6</title>
<path fill="none" stroke="grey" stroke-width="2" d="M1297.5,-647.7C1297.5,-639.98 1297.5,-630.71 1297.5,-622.11"/>
<polygon fill="grey" stroke="grey" stroke-width="2" points="1301,-622.1 1297.5,-612.1 1294,-622.1 1301,-622.1"/>
</g>
<!-- 8 -->
<g id="node9" class="node">
<title>8</title>
<path fill="none" stroke="#56d86b" stroke-width="2" d="M762,-828C762,-828 627,-828 627,-828 621,-828 615,-822 615,-816 615,-816 615,-804 615,-804 615,-798 621,-792 627,-792 627,-792 762,-792 762,-792 768,-792 774,-798 774,-804 774,-804 774,-816 774,-816 774,-822 768,-828 762,-828"/>
<text text-anchor="middle" x="694.5" y="-807.5" font-family="sans" font-size="10.00">alignment_bwa_mem_merge</text>
</g>
<!-- 8&#45;&gt;4 -->
<g id="edge27" class="edge">
<title>8&#45;&gt;4</title>
<path fill="none" stroke="grey" stroke-width="2" d="M749.01,-791.97C780.72,-782.06 820.86,-769.51 854.11,-759.12"/>
<polygon fill="grey" stroke="grey" stroke-width="2" points="855.24,-762.43 863.75,-756.11 853.16,-755.75 855.24,-762.43"/>
</g>
<!-- 9 -->
<g id="node10" class="node">
<title>9</title>
<path fill="none" stroke="#56d8a9" stroke-width="2" d="M519.5,-900C519.5,-900 421.5,-900 421.5,-900 415.5,-900 409.5,-894 409.5,-888 409.5,-888 409.5,-876 409.5,-876 409.5,-870 415.5,-864 421.5,-864 421.5,-864 519.5,-864 519.5,-864 525.5,-864 531.5,-870 531.5,-876 531.5,-876 531.5,-888 531.5,-888 531.5,-894 525.5,-900 519.5,-900"/>
<text text-anchor="middle" x="470.5" y="-879.5" font-family="sans" font-size="10.00">alignment_bwa_mem</text>
</g>
<!-- 9&#45;&gt;8 -->
<g id="edge32" class="edge">
<title>9&#45;&gt;8</title>
<path fill="none" stroke="grey" stroke-width="2" d="M525.01,-863.97C556.72,-854.06 596.86,-841.51 630.11,-831.12"/>
<polygon fill="grey" stroke="grey" stroke-width="2" points="631.24,-834.43 639.75,-828.11 629.16,-827.75 631.24,-834.43"/>
</g>
<!-- 10 -->
<g id="node11" class="node">
<title>10</title>
<path fill="none" stroke="#d8cb56" stroke-width="2" d="M117,-972C117,-972 12,-972 12,-972 6,-972 0,-966 0,-960 0,-960 0,-948 0,-948 0,-942 6,-936 12,-936 12,-936 117,-936 117,-936 123,-936 129,-942 129,-948 129,-948 129,-960 129,-960 129,-966 123,-972 117,-972"/>
<text text-anchor="middle" x="64.5" y="-951.5" font-family="sans" font-size="10.00">prealignment_fastp_pe</text>
</g>
<!-- 10&#45;&gt;2 -->
<g id="edge19" class="edge">
<title>10&#45;&gt;2</title>
<path fill="none" stroke="grey" stroke-width="2" d="M55.38,-935.61C42.5,-909.36 20.5,-857.71 20.5,-811 20.5,-811 20.5,-811 20.5,-521 20.5,-494.7 -49.53,-511.96 149.5,-432 229.68,-399.79 330.56,-386.93 387.97,-381.96"/>
<polygon fill="grey" stroke="grey" stroke-width="2" points="388.49,-385.43 398.17,-381.12 387.91,-378.45 388.49,-385.43"/>
</g>
<!-- 10&#45;&gt;9 -->
<g id="edge33" class="edge">
<title>10&#45;&gt;9</title>
<path fill="none" stroke="grey" stroke-width="2" d="M129.28,-941.83C202.99,-929.12 322.98,-908.43 399.27,-895.28"/>
<polygon fill="grey" stroke="grey" stroke-width="2" points="400.01,-898.7 409.27,-893.56 398.82,-891.81 400.01,-898.7"/>
</g>
<!-- 11&#45;&gt;3 -->
<g id="edge25" class="edge">
<title>11&#45;&gt;3</title>
<path fill="none" stroke="grey" stroke-width="2" d="M1383,-510.17C1367.63,-508.04 1351.55,-505.88 1336.5,-504 1190.98,-485.8 1154.2,-484.72 1008.5,-468 982.48,-465.02 953.8,-461.6 929.07,-458.62"/>
<polygon fill="grey" stroke="grey" stroke-width="2" points="929.43,-455.14 919.09,-457.42 928.59,-462.09 929.43,-455.14"/>
</g>
<!-- 11&#45;&gt;7 -->
<g id="edge31" class="edge">
<title>11&#45;&gt;7</title>
<path fill="none" stroke="grey" stroke-width="2" d="M1449.84,-540.31C1440.52,-559.79 1423.17,-591.38 1400.5,-612 1386.44,-624.79 1368.73,-635.36 1351.97,-643.6"/>
<polygon fill="grey" stroke="grey" stroke-width="2" points="1350.34,-640.51 1342.79,-647.94 1353.33,-646.83 1350.34,-640.51"/>
</g>
<!-- 26 -->
<g id="node27" class="node">
<title>26</title>
<path fill="none" stroke="#d8c356" stroke-width="2" d="M1567.5,-396C1567.5,-396 1451.5,-396 1451.5,-396 1445.5,-396 1439.5,-390 1439.5,-384 1439.5,-384 1439.5,-372 1439.5,-372 1439.5,-366 1445.5,-360 1451.5,-360 1451.5,-360 1567.5,-360 1567.5,-360 1573.5,-360 1579.5,-366 1579.5,-372 1579.5,-372 1579.5,-384 1579.5,-384 1579.5,-390 1573.5,-396 1567.5,-396"/>
<text text-anchor="middle" x="1509.5" y="-375.5" font-family="sans" font-size="10.00">_copy_alignment_bai_file</text>
</g>
<!-- 11&#45;&gt;26 -->
<g id="edge51" class="edge">
<title>11&#45;&gt;26</title>
<path fill="none" stroke="grey" stroke-width="2" d="M1463.77,-503.87C1472.71,-479.46 1489.2,-434.43 1499.75,-405.64"/>
<polygon fill="grey" stroke="grey" stroke-width="2" points="1503.05,-406.78 1503.21,-396.19 1496.48,-404.38 1503.05,-406.78"/>
</g>
<!-- 11&#45;&gt;37 -->
<g id="edge71" class="edge">
<title>11&#45;&gt;37</title>
<path fill="none" stroke="grey" stroke-width="2" d="M1382.61,-506.49C1378.18,-505.65 1373.78,-504.81 1369.5,-504 1298.47,-490.56 1217.45,-475.58 1159.82,-464.98"/>
<polygon fill="grey" stroke="grey" stroke-width="2" points="1160.17,-461.49 1149.7,-463.12 1158.9,-468.37 1160.17,-461.49"/>
</g>
<!-- 11&#45;&gt;45 -->
<g id="edge81" class="edge">
<title>11&#45;&gt;45</title>
<path fill="none" stroke="grey" stroke-width="2" d="M1522.23,-503.97C1560.37,-493.93 1608.78,-481.19 1648.56,-470.72"/>
<polygon fill="grey" stroke="grey" stroke-width="2" points="1649.7,-474.04 1658.48,-468.11 1647.92,-467.27 1649.7,-474.04"/>
</g>
<!-- 12&#45;&gt;2 -->
<g id="edge18" class="edge">
<title>12&#45;&gt;2</title>
<path fill="none" stroke="grey" stroke-width="2" d="M449.84,-575.79C459.88,-546.03 476.99,-483.21 463.5,-432 461.01,-422.54 456.4,-412.99 451.53,-404.66"/>
<polygon fill="grey" stroke="grey" stroke-width="2" points="454.49,-402.79 446.23,-396.15 448.55,-406.49 454.49,-402.79"/>
</g>
<!-- 13&#45;&gt;2 -->
<g id="edge20" class="edge">
<title>13&#45;&gt;2</title>
<path fill="none" stroke="grey" stroke-width="2" d="M605.47,-575.87C586.85,-567.05 565.67,-554.97 549.5,-540 507.7,-501.3 514.84,-477.45 480.5,-432 473.23,-422.38 464.64,-412.36 456.81,-403.66"/>
<polygon fill="grey" stroke="grey" stroke-width="2" points="459.21,-401.1 449.88,-396.08 454.05,-405.82 459.21,-401.1"/>
</g>
<!-- 14&#45;&gt;2 -->
<g id="edge17" class="edge">
<title>14&#45;&gt;2</title>
<path fill="none" stroke="grey" stroke-width="2" d="M801.12,-575.95C750.82,-552.74 658.83,-509.34 582.5,-468 543.12,-446.67 499.24,-420.11 469.37,-401.58"/>
<polygon fill="grey" stroke="grey" stroke-width="2" points="470.9,-398.42 460.56,-396.1 467.2,-404.36 470.9,-398.42"/>
</g>
<!-- 15&#45;&gt;2 -->
<g id="edge15" class="edge">
<title>15&#45;&gt;2</title>
<path fill="none" stroke="grey" stroke-width="2" d="M148.09,-503.92C148.59,-483.76 152.67,-450.62 172.5,-432 203.14,-403.24 321.86,-388.6 388.13,-382.53"/>
<polygon fill="grey" stroke="grey" stroke-width="2" points="388.64,-386 398.29,-381.63 388.02,-379.02 388.64,-386"/>
</g>
<!-- 16&#45;&gt;2 -->
<g id="edge21" class="edge">
<title>16&#45;&gt;2</title>
<path fill="none" stroke="grey" stroke-width="2" d="M289.26,-647.94C289.83,-616.75 287.19,-549.54 257.5,-504 242.15,-480.45 218.55,-492.9 205.5,-468 198.07,-453.83 195.55,-444.53 205.5,-432 227.9,-403.8 328.58,-389.24 388.4,-382.95"/>
<polygon fill="grey" stroke="grey" stroke-width="2" points="388.76,-386.44 398.35,-381.95 388.05,-379.47 388.76,-386.44"/>
</g>
<!-- 17 -->
<g id="node18" class="node">
<title>17</title>
<path fill="none" stroke="#d87d56" stroke-width="2" d="M266,-468C266,-468 227,-468 227,-468 221,-468 215,-462 215,-456 215,-456 215,-444 215,-444 215,-438 221,-432 227,-432 227,-432 266,-432 266,-432 272,-432 278,-438 278,-444 278,-444 278,-456 278,-456 278,-462 272,-468 266,-468"/>
<text text-anchor="middle" x="246.5" y="-447.5" font-family="sans" font-size="10.00">qc_fastqc</text>
</g>
<!-- 17&#45;&gt;2 -->
<g id="edge16" class="edge">
<title>17&#45;&gt;2</title>
<path fill="none" stroke="grey" stroke-width="2" d="M278.31,-435.29C281.07,-434.16 283.83,-433.05 286.5,-432 320.53,-418.64 359.47,-404.66 388.72,-394.42"/>
<polygon fill="grey" stroke="grey" stroke-width="2" points="389.96,-397.69 398.25,-391.09 387.65,-391.08 389.96,-397.69"/>
</g>
<!-- 18&#45;&gt;2 -->
<g id="edge23" class="edge">
<title>18&#45;&gt;2</title>
<path fill="none" stroke="grey" stroke-width="2" d="M427,-647.97C389.03,-639.12 351.78,-627.01 340.5,-612 300.77,-559.14 403.91,-534.54 429.5,-468 437.07,-448.3 437.71,-424.32 436.65,-406.21"/>
<polygon fill="grey" stroke="grey" stroke-width="2" points="440.13,-405.74 435.85,-396.05 433.15,-406.29 440.13,-405.74"/>
</g>
<!-- 19&#45;&gt;2 -->
<g id="edge22" class="edge">
<title>19&#45;&gt;2</title>
<path fill="none" stroke="grey" stroke-width="2" d="M629.47,-431.97C582.86,-419.37 520.47,-402.51 478.73,-391.22"/>
<polygon fill="grey" stroke="grey" stroke-width="2" points="479.41,-387.78 468.85,-388.55 477.59,-394.54 479.41,-387.78"/>
</g>
<!-- 19&#45;&gt;22 -->
<g id="edge46" class="edge">
<title>19&#45;&gt;22</title>
<path fill="none" stroke="grey" stroke-width="2" d="M591.39,-433.46C570.28,-425.56 550.28,-413.73 536.5,-396 523.01,-378.66 522.32,-353.23 524.38,-333.99"/>
<polygon fill="grey" stroke="grey" stroke-width="2" points="527.86,-334.42 525.75,-324.03 520.92,-333.46 527.86,-334.42"/>
</g>
<!-- 20 -->
<g id="node21" class="node">
<title>20</title>
<path fill="none" stroke="#56d8b9" stroke-width="2" d="M409,-468C409,-468 308,-468 308,-468 302,-468 296,-462 296,-456 296,-456 296,-444 296,-444 296,-438 302,-432 308,-432 308,-432 409,-432 409,-432 415,-432 421,-438 421,-444 421,-444 421,-456 421,-456 421,-462 415,-468 409,-468"/>
<text text-anchor="middle" x="358.5" y="-447.5" font-family="sans" font-size="10.00">sample_order_multiqc</text>
</g>
<!-- 20&#45;&gt;2 -->
<g id="edge13" class="edge">
<title>20&#45;&gt;2</title>
<path fill="none" stroke="grey" stroke-width="2" d="M377.04,-431.7C386.3,-423.05 397.66,-412.45 407.76,-403.03"/>
<polygon fill="grey" stroke="grey" stroke-width="2" points="410.25,-405.49 415.17,-396.1 405.48,-400.37 410.25,-405.49"/>
</g>
<!-- 21 -->
<g id="node22" class="node">
<title>21</title>
<path fill="none" stroke="#d8c356" stroke-width="2" d="M581.5,-252C581.5,-252 483.5,-252 483.5,-252 477.5,-252 471.5,-246 471.5,-240 471.5,-240 471.5,-228 471.5,-228 471.5,-222 477.5,-216 483.5,-216 483.5,-216 581.5,-216 581.5,-216 587.5,-216 593.5,-222 593.5,-228 593.5,-228 593.5,-240 593.5,-240 593.5,-246 587.5,-252 581.5,-252"/>
<text text-anchor="middle" x="532.5" y="-231.5" font-family="sans" font-size="10.00">_copy_qc_xlsx_report</text>
</g>
<!-- 21&#45;&gt;0 -->
<g id="edge8" class="edge">
<title>21&#45;&gt;0</title>
<path fill="none" stroke="grey" stroke-width="2" d="M508.86,-215.88C485.37,-196.87 455.63,-165.97 476.5,-144 511.55,-107.11 1293.02,-94.03 1474.22,-91.49"/>
<polygon fill="grey" stroke="grey" stroke-width="2" points="1474.37,-94.98 1484.32,-91.35 1474.28,-87.99 1474.37,-94.98"/>
</g>
<!-- 22&#45;&gt;21 -->
<g id="edge43" class="edge">
<title>22&#45;&gt;21</title>
<path fill="none" stroke="grey" stroke-width="2" d="M530.24,-287.7C530.57,-279.98 530.97,-270.71 531.34,-262.11"/>
<polygon fill="grey" stroke="grey" stroke-width="2" points="534.84,-262.25 531.77,-252.1 527.84,-261.95 534.84,-262.25"/>
</g>
<!-- 23&#45;&gt;22 -->
<g id="edge47" class="edge">
<title>23&#45;&gt;22</title>
<path fill="none" stroke="grey" stroke-width="2" d="M787.47,-361.11C735.78,-350.76 667.11,-336.84 606.5,-324 605.04,-323.69 603.55,-323.37 602.06,-323.06"/>
<polygon fill="grey" stroke="grey" stroke-width="2" points="602.61,-319.59 592.1,-320.91 601.14,-326.44 602.61,-319.59"/>
</g>
<!-- 24&#45;&gt;22 -->
<g id="edge45" class="edge">
<title>24&#45;&gt;22</title>
<path fill="none" stroke="grey" stroke-width="2" d="M611.84,-359.88C597.72,-350.81 580.19,-339.55 564.94,-329.76"/>
<polygon fill="grey" stroke="grey" stroke-width="2" points="566.57,-326.65 556.27,-324.19 562.79,-332.54 566.57,-326.65"/>
</g>
<!-- 25&#45;&gt;0 -->
<g id="edge2" class="edge">
<title>25&#45;&gt;0</title>
<path fill="none" stroke="grey" stroke-width="2" d="M1675.07,-215.95C1658.51,-197 1629.96,-166.16 1601.5,-144 1584.84,-131.03 1564.72,-118.89 1547.73,-109.51"/>
<polygon fill="grey" stroke="grey" stroke-width="2" points="1549.11,-106.28 1538.65,-104.6 1545.78,-112.44 1549.11,-106.28"/>
</g>
<!-- 26&#45;&gt;0 -->
<g id="edge9" class="edge">
<title>26&#45;&gt;0</title>
<path fill="none" stroke="grey" stroke-width="2" d="M1537.3,-359.87C1549.27,-350.84 1562,-338.59 1568.5,-324 1585.23,-286.48 1584.81,-240 1547.5,-144 1543.73,-134.3 1537.91,-124.62 1532.04,-116.23"/>
<polygon fill="grey" stroke="grey" stroke-width="2" points="1534.74,-113.99 1525.99,-108.02 1529.1,-118.14 1534.74,-113.99"/>
</g>
<!-- 27 -->
<g id="node28" class="node">
<title>27</title>
<path fill="none" stroke="#5682d8" stroke-width="2" d="M1223.5,-180C1223.5,-180 1107.5,-180 1107.5,-180 1101.5,-180 1095.5,-174 1095.5,-168 1095.5,-168 1095.5,-156 1095.5,-156 1095.5,-150 1101.5,-144 1107.5,-144 1107.5,-144 1223.5,-144 1223.5,-144 1229.5,-144 1235.5,-150 1235.5,-156 1235.5,-156 1235.5,-168 1235.5,-168 1235.5,-174 1229.5,-180 1223.5,-180"/>
<text text-anchor="middle" x="1165.5" y="-159.5" font-family="sans" font-size="10.00">_copy_annotated_vcf_file</text>
</g>
<!-- 27&#45;&gt;0 -->
<g id="edge5" class="edge">
<title>27&#45;&gt;0</title>
<path fill="none" stroke="grey" stroke-width="2" d="M1235.7,-145.83C1238.67,-145.21 1241.61,-144.6 1244.5,-144 1326.33,-127.07 1422.5,-108.25 1474.16,-98.22"/>
<polygon fill="grey" stroke="grey" stroke-width="2" points="1475.03,-101.61 1484.18,-96.27 1473.7,-94.74 1475.03,-101.61"/>
</g>
<!-- 28 -->
<g id="node29" class="node">
<title>28</title>
<path fill="none" stroke="#56c9d8" stroke-width="2" d="M947.5,-252C947.5,-252 871.5,-252 871.5,-252 865.5,-252 859.5,-246 859.5,-240 859.5,-240 859.5,-228 859.5,-228 859.5,-222 865.5,-216 871.5,-216 871.5,-216 947.5,-216 947.5,-216 953.5,-216 959.5,-222 959.5,-228 959.5,-228 959.5,-240 959.5,-240 959.5,-246 953.5,-252 947.5,-252"/>
<text text-anchor="middle" x="909.5" y="-231.5" font-family="sans" font-size="10.00">snv_indels_bgzip</text>
</g>
<!-- 28&#45;&gt;27 -->
<g id="edge52" class="edge">
<title>28&#45;&gt;27</title>
<path fill="none" stroke="grey" stroke-width="2" d="M959.77,-219.25C997.87,-208.84 1050.75,-194.38 1093.35,-182.73"/>
<polygon fill="grey" stroke="grey" stroke-width="2" points="1094.39,-186.07 1103.11,-180.06 1092.54,-179.32 1094.39,-186.07"/>
</g>
<!-- 29 -->
<g id="node30" class="node">
<title>29</title>
<path fill="none" stroke="#ced856" stroke-width="2" d="M845,-180C845,-180 780,-180 780,-180 774,-180 768,-174 768,-168 768,-168 768,-156 768,-156 768,-150 774,-144 780,-144 780,-144 845,-144 845,-144 851,-144 857,-150 857,-156 857,-156 857,-168 857,-168 857,-174 851,-180 845,-180"/>
<text text-anchor="middle" x="812.5" y="-159.5" font-family="sans" font-size="10.00">add_ref_to_vcf</text>
</g>
<!-- 28&#45;&gt;29 -->
<g id="edge58" class="edge">
<title>28&#45;&gt;29</title>
<path fill="none" stroke="grey" stroke-width="2" d="M879.87,-215.88C866.61,-206.98 851.19,-195.97 838.4,-186.31"/>
<polygon fill="grey" stroke="grey" stroke-width="2" points="840.48,-183.5 830.42,-180.19 836.22,-189.05 840.48,-183.5"/>
</g>
<!-- 31 -->
<g id="node32" class="node">
<title>31</title>
<path fill="none" stroke="#56d8a2" stroke-width="2" d="M1120.5,-396C1120.5,-396 1046.5,-396 1046.5,-396 1040.5,-396 1034.5,-390 1034.5,-384 1034.5,-384 1034.5,-372 1034.5,-372 1034.5,-366 1040.5,-360 1046.5,-360 1046.5,-360 1120.5,-360 1120.5,-360 1126.5,-360 1132.5,-366 1132.5,-372 1132.5,-372 1132.5,-384 1132.5,-384 1132.5,-390 1126.5,-396 1120.5,-396"/>
<text text-anchor="middle" x="1083.5" y="-375.5" font-family="sans" font-size="10.00">snv_indels_tabix</text>
</g>
<!-- 28&#45;&gt;31 -->
<g id="edge61" class="edge">
<title>28&#45;&gt;31</title>
<path fill="none" stroke="grey" stroke-width="2" d="M959.86,-239.44C994.19,-245.16 1038.07,-258.22 1064.5,-288 1079.37,-304.75 1083.59,-330.24 1084.41,-349.65"/>
<polygon fill="grey" stroke="grey" stroke-width="2" points="1080.91,-349.77 1084.55,-359.72 1087.91,-349.67 1080.91,-349.77"/>
</g>
<!-- 34 -->
<g id="node35" class="node">
<title>34</title>
<path fill="none" stroke="#56d85b" stroke-width="2" d="M738,-180C738,-180 617,-180 617,-180 611,-180 605,-174 605,-168 605,-168 605,-156 605,-156 605,-150 611,-144 617,-144 617,-144 738,-144 738,-144 744,-144 750,-150 750,-156 750,-156 750,-168 750,-168 750,-174 744,-180 738,-180"/>
<text text-anchor="middle" x="677.5" y="-159.5" font-family="sans" font-size="10.00">snv_indels_vt_decompose</text>
</g>
<!-- 28&#45;&gt;34 -->
<g id="edge66" class="edge">
<title>28&#45;&gt;34</title>
<path fill="none" stroke="grey" stroke-width="2" d="M859.45,-217.9C825.57,-207.68 780.47,-194.07 743.64,-182.96"/>
<polygon fill="grey" stroke="grey" stroke-width="2" points="744.57,-179.58 733.98,-180.04 742.55,-186.28 744.57,-179.58"/>
</g>
<!-- 35 -->
<g id="node36" class="node">
<title>35</title>
<path fill="none" stroke="#d8b456" stroke-width="2" d="M575,-180C575,-180 498,-180 498,-180 492,-180 486,-174 486,-168 486,-168 486,-156 486,-156 486,-150 492,-144 498,-144 498,-144 575,-144 575,-144 581,-144 587,-150 587,-156 587,-156 587,-168 587,-168 587,-174 581,-180 575,-180"/>
<text text-anchor="middle" x="536.5" y="-159.5" font-family="sans" font-size="10.00">snv_indels_fix_af</text>
</g>
<!-- 28&#45;&gt;35 -->
<g id="edge67" class="edge">
<title>28&#45;&gt;35</title>
<path fill="none" stroke="grey" stroke-width="2" d="M859.48,-227.18C797.74,-219.04 689.83,-202.91 596.62,-182.27"/>
<polygon fill="grey" stroke="grey" stroke-width="2" points="597.3,-178.84 586.78,-180.06 595.77,-185.67 597.3,-178.84"/>
</g>
<!-- 40 -->
<g id="node41" class="node">
<title>40</title>
<path fill="none" stroke="#afd856" stroke-width="2" d="M1065.5,-180C1065.5,-180 887.5,-180 887.5,-180 881.5,-180 875.5,-174 875.5,-168 875.5,-168 875.5,-156 875.5,-156 875.5,-150 881.5,-144 887.5,-144 887.5,-144 1065.5,-144 1065.5,-144 1071.5,-144 1077.5,-150 1077.5,-156 1077.5,-156 1077.5,-168 1077.5,-168 1077.5,-174 1071.5,-180 1065.5,-180"/>
<text text-anchor="middle" x="976.5" y="-159.5" font-family="sans" font-size="10.00">_copy_genome_vcf_file_no_normalize</text>
</g>
<!-- 28&#45;&gt;40 -->
<g id="edge74" class="edge">
<title>28&#45;&gt;40</title>
<path fill="none" stroke="grey" stroke-width="2" d="M926.06,-215.7C934.18,-207.22 944.09,-196.86 952.97,-187.58"/>
<polygon fill="grey" stroke="grey" stroke-width="2" points="955.74,-189.75 960.13,-180.1 950.69,-184.91 955.74,-189.75"/>
</g>
<!-- 41 -->
<g id="node42" class="node">
<title>41</title>
<path fill="none" stroke="#56d892" stroke-width="2" d="M1353.5,-180C1353.5,-180 1265.5,-180 1265.5,-180 1259.5,-180 1253.5,-174 1253.5,-168 1253.5,-168 1253.5,-156 1253.5,-156 1253.5,-150 1259.5,-144 1265.5,-144 1265.5,-144 1353.5,-144 1353.5,-144 1359.5,-144 1365.5,-150 1365.5,-156 1365.5,-156 1365.5,-168 1365.5,-168 1365.5,-174 1359.5,-180 1353.5,-180"/>
<text text-anchor="middle" x="1309.5" y="-159.5" font-family="sans" font-size="10.00">snv_indels_fix_af_g</text>
</g>
<!-- 28&#45;&gt;41 -->
<g id="edge75" class="edge">
<title>28&#45;&gt;41</title>
<path fill="none" stroke="grey" stroke-width="2" d="M959.69,-225.78C1023.98,-216.86 1138.39,-200.33 1235.5,-180 1238.14,-179.45 1240.83,-178.86 1243.55,-178.24"/>
<polygon fill="grey" stroke="grey" stroke-width="2" points="1244.55,-181.6 1253.48,-175.9 1242.95,-174.78 1244.55,-181.6"/>
</g>
<!-- 29&#45;&gt;28 -->
<g id="edge55" class="edge">
<title>29&#45;&gt;28</title>
<path fill="none" stroke="grey" stroke-width="2" d="M842.1,-180.1C855.32,-188.97 870.69,-199.94 883.46,-209.59"/>
<polygon fill="grey" stroke="grey" stroke-width="2" points="881.37,-212.39 891.44,-215.7 885.63,-206.84 881.37,-212.39"/>
</g>
<!-- 30 -->
<g id="node31" class="node">
<title>30</title>
<path fill="none" stroke="#566bd8" stroke-width="2" d="M876.5,-324C876.5,-324 808.5,-324 808.5,-324 802.5,-324 796.5,-318 796.5,-312 796.5,-312 796.5,-300 796.5,-300 796.5,-294 802.5,-288 808.5,-288 808.5,-288 876.5,-288 876.5,-288 882.5,-288 888.5,-294 888.5,-300 888.5,-300 888.5,-312 888.5,-312 888.5,-318 882.5,-324 876.5,-324"/>
<text text-anchor="middle" x="842.5" y="-303.5" font-family="sans" font-size="10.00">annotation_vep</text>
</g>
<!-- 30&#45;&gt;28 -->
<g id="edge54" class="edge">
<title>30&#45;&gt;28</title>
<path fill="none" stroke="grey" stroke-width="2" d="M859.06,-287.7C867.18,-279.22 877.09,-268.86 885.97,-259.58"/>
<polygon fill="grey" stroke="grey" stroke-width="2" points="888.74,-261.75 893.13,-252.1 883.69,-256.91 888.74,-261.75"/>
</g>
<!-- 31&#45;&gt;30 -->
<g id="edge60" class="edge">
<title>31&#45;&gt;30</title>
<path fill="none" stroke="grey" stroke-width="2" d="M1034.46,-363.35C999.11,-353.43 950.01,-339.51 898.36,-324.23"/>
<polygon fill="grey" stroke="grey" stroke-width="2" points="899.27,-320.85 888.69,-321.36 897.28,-327.56 899.27,-320.85"/>
</g>
<!-- 36 -->
<g id="node37" class="node">
<title>36</title>
<path fill="none" stroke="#b6d856" stroke-width="2" d="M1044,-324C1044,-324 919,-324 919,-324 913,-324 907,-318 907,-312 907,-312 907,-300 907,-300 907,-294 913,-288 919,-288 919,-288 1044,-288 1044,-288 1050,-288 1056,-294 1056,-300 1056,-300 1056,-312 1056,-312 1056,-318 1050,-324 1044,-324"/>
<text text-anchor="middle" x="981.5" y="-303.5" font-family="sans" font-size="10.00">snv_indels_bcftools_concat</text>
</g>
<!-- 31&#45;&gt;36 -->
<g id="edge69" class="edge">
<title>31&#45;&gt;36</title>
<path fill="none" stroke="grey" stroke-width="2" d="M1058.55,-359.88C1045.46,-350.89 1029.24,-339.76 1015.06,-330.03"/>
<polygon fill="grey" stroke="grey" stroke-width="2" points="1016.77,-326.96 1006.55,-324.19 1012.81,-332.73 1016.77,-326.96"/>
</g>
<!-- 39 -->
<g id="node40" class="node">
<title>39</title>
<path fill="none" stroke="#d86e56" stroke-width="2" d="M1295.5,-324C1295.5,-324 1161.5,-324 1161.5,-324 1155.5,-324 1149.5,-318 1149.5,-312 1149.5,-312 1149.5,-300 1149.5,-300 1149.5,-294 1155.5,-288 1161.5,-288 1161.5,-288 1295.5,-288 1295.5,-288 1301.5,-288 1307.5,-294 1307.5,-300 1307.5,-300 1307.5,-312 1307.5,-312 1307.5,-318 1301.5,-324 1295.5,-324"/>
<text text-anchor="middle" x="1228.5" y="-303.5" font-family="sans" font-size="10.00">_copy_annotated_vcf_tbi_file</text>
</g>
<!-- 31&#45;&gt;39 -->
<g id="edge73" class="edge">
<title>31&#45;&gt;39</title>
<path fill="none" stroke="grey" stroke-width="2" d="M1118.97,-359.88C1138.62,-350.39 1163.22,-338.51 1184.13,-328.42"/>
<polygon fill="grey" stroke="grey" stroke-width="2" points="1185.66,-331.57 1193.14,-324.07 1182.62,-325.26 1185.66,-331.57"/>
</g>
<!-- 31&#45;&gt;41 -->
<g id="edge76" class="edge">
<title>31&#45;&gt;41</title>
<path fill="none" stroke="grey" stroke-width="2" d="M1091.97,-359.98C1101.91,-341.07 1119.7,-310.25 1140.5,-288 1179.79,-245.98 1234.77,-208.31 1271.23,-185.57"/>
<polygon fill="grey" stroke="grey" stroke-width="2" points="1273.4,-188.34 1280.07,-180.11 1269.72,-182.38 1273.4,-188.34"/>
</g>
<!-- 42 -->
<g id="node43" class="node">
<title>42</title>
<path fill="none" stroke="#56d0d8" stroke-width="2" d="M1547.5,-324C1547.5,-324 1337.5,-324 1337.5,-324 1331.5,-324 1325.5,-318 1325.5,-312 1325.5,-312 1325.5,-300 1325.5,-300 1325.5,-294 1331.5,-288 1337.5,-288 1337.5,-288 1547.5,-288 1547.5,-288 1553.5,-288 1559.5,-294 1559.5,-300 1559.5,-300 1559.5,-312 1559.5,-312 1559.5,-318 1553.5,-324 1547.5,-324"/>
<text text-anchor="middle" x="1442.5" y="-303.5" font-family="sans" font-size="10.00">_copy_genome_vcf_index_file_no_normalize</text>
</g>
<!-- 31&#45;&gt;42 -->
<g id="edge77" class="edge">
<title>31&#45;&gt;42</title>
<path fill="none" stroke="grey" stroke-width="2" d="M1132.66,-367.41C1187.12,-356.8 1276.29,-339.41 1345.02,-326.01"/>
<polygon fill="grey" stroke="grey" stroke-width="2" points="1345.86,-329.41 1355,-324.06 1344.52,-322.54 1345.86,-329.41"/>
</g>
<!-- 32 -->
<g id="node33" class="node">
<title>32</title>
<path fill="none" stroke="#78d856" stroke-width="2" d="M513.5,-36C513.5,-36 401.5,-36 401.5,-36 395.5,-36 389.5,-30 389.5,-24 389.5,-24 389.5,-12 389.5,-12 389.5,-6 395.5,0 401.5,0 401.5,0 513.5,0 513.5,0 519.5,0 525.5,-6 525.5,-12 525.5,-12 525.5,-24 525.5,-24 525.5,-30 519.5,-36 513.5,-36"/>
<text text-anchor="middle" x="457.5" y="-15.5" font-family="sans" font-size="10.00">snv_indels_bcftools_sort</text>
</g>
<!-- 32&#45;&gt;30 -->
<g id="edge59" class="edge">
<title>32&#45;&gt;30</title>
<path fill="none" stroke="grey" stroke-width="2" d="M453.9,-36.44C448.3,-68.86 441.48,-138.84 476.5,-180 514.24,-224.36 547.16,-197.86 602.5,-216 667.82,-237.41 741.83,-265.44 790.18,-284.27"/>
<polygon fill="grey" stroke="grey" stroke-width="2" points="788.91,-287.54 799.5,-287.91 791.45,-281.02 788.91,-287.54"/>
</g>
<!-- 32&#45;&gt;31 -->
<g id="edge63" class="edge">
<title>32&#45;&gt;31</title>
<path fill="none" stroke="grey" stroke-width="2" d="M438.79,-36.11C395.79,-77.44 298.02,-184.25 356.5,-252 392.32,-293.49 546.47,-278.82 600.5,-288 683.94,-302.18 704.29,-308.54 787.5,-324 869.62,-339.26 964.71,-356.14 1024.48,-366.67"/>
<polygon fill="grey" stroke="grey" stroke-width="2" points="1024.04,-370.14 1034.49,-368.43 1025.25,-363.25 1024.04,-370.14"/>
</g>
<!-- 33 -->
<g id="node34" class="node">
<title>33</title>
<path fill="none" stroke="#d8b456" stroke-width="2" d="M673,-108C673,-108 560,-108 560,-108 554,-108 548,-102 548,-96 548,-96 548,-84 548,-84 548,-78 554,-72 560,-72 560,-72 673,-72 673,-72 679,-72 685,-78 685,-84 685,-84 685,-96 685,-96 685,-102 679,-108 673,-108"/>
<text text-anchor="middle" x="616.5" y="-87.5" font-family="sans" font-size="10.00">snv_indels_vt_normalize</text>
</g>
<!-- 33&#45;&gt;32 -->
<g id="edge64" class="edge">
<title>33&#45;&gt;32</title>
<path fill="none" stroke="grey" stroke-width="2" d="M577.6,-71.88C555.87,-62.31 528.6,-50.3 505.54,-40.15"/>
<polygon fill="grey" stroke="grey" stroke-width="2" points="506.83,-36.89 496.27,-36.07 504.01,-43.3 506.83,-36.89"/>
</g>
<!-- 34&#45;&gt;33 -->
<g id="edge65" class="edge">
<title>34&#45;&gt;33</title>
<path fill="none" stroke="grey" stroke-width="2" d="M662.42,-143.7C655.11,-135.3 646.19,-125.07 638.16,-115.86"/>
<polygon fill="grey" stroke="grey" stroke-width="2" points="640.61,-113.34 631.41,-108.1 635.34,-117.94 640.61,-113.34"/>
</g>
<!-- 35&#45;&gt;28 -->
<g id="edge57" class="edge">
<title>35&#45;&gt;28</title>
<path fill="none" stroke="grey" stroke-width="2" d="M587.16,-175.66C593.02,-177.23 598.89,-178.72 604.5,-180 688.88,-199.21 787.47,-214.75 849.29,-223.92"/>
<polygon fill="grey" stroke="grey" stroke-width="2" points="848.86,-227.39 859.26,-225.39 849.88,-220.47 848.86,-227.39"/>
</g>
<!-- 36&#45;&gt;28 -->
<g id="edge53" class="edge">
<title>36&#45;&gt;28</title>
<path fill="none" stroke="grey" stroke-width="2" d="M963.7,-287.7C954.9,-279.14 944.12,-268.66 934.5,-259.3"/>
<polygon fill="grey" stroke="grey" stroke-width="2" points="936.7,-256.57 927.09,-252.1 931.82,-261.58 936.7,-256.57"/>
</g>
<!-- 37&#45;&gt;31 -->
<g id="edge62" class="edge">
<title>37&#45;&gt;31</title>
<path fill="none" stroke="grey" stroke-width="2" d="M1083.5,-431.7C1083.5,-423.98 1083.5,-414.71 1083.5,-406.11"/>
<polygon fill="grey" stroke="grey" stroke-width="2" points="1087,-406.1 1083.5,-396.1 1080,-406.1 1087,-406.1"/>
</g>
<!-- 37&#45;&gt;36 -->
<g id="edge68" class="edge">
<title>37&#45;&gt;36</title>
<path fill="none" stroke="grey" stroke-width="2" d="M1060.97,-431.81C1049.37,-422.17 1035.58,-409.41 1025.5,-396 1011.01,-376.73 999.22,-351.95 991.5,-333.44"/>
<polygon fill="grey" stroke="grey" stroke-width="2" points="994.74,-332.09 987.75,-324.13 988.24,-334.71 994.74,-332.09"/>
</g>
<!-- 38 -->
<g id="node39" class="node">
<title>38</title>
<path fill="none" stroke="#56d85b" stroke-width="2" d="M1117.5,-540C1117.5,-540 1023.5,-540 1023.5,-540 1017.5,-540 1011.5,-534 1011.5,-528 1011.5,-528 1011.5,-516 1011.5,-516 1011.5,-510 1017.5,-504 1023.5,-504 1023.5,-504 1117.5,-504 1117.5,-504 1123.5,-504 1129.5,-510 1129.5,-516 1129.5,-516 1129.5,-528 1129.5,-528 1129.5,-534 1123.5,-540 1117.5,-540"/>
<text text-anchor="middle" x="1070.5" y="-519.5" font-family="sans" font-size="10.00">snv_indels_bed_split</text>
</g>
<!-- 38&#45;&gt;37 -->
<g id="edge70" class="edge">
<title>38&#45;&gt;37</title>
<path fill="none" stroke="grey" stroke-width="2" d="M1073.71,-503.7C1075.15,-495.98 1076.87,-486.71 1078.46,-478.11"/>
<polygon fill="grey" stroke="grey" stroke-width="2" points="1081.94,-478.58 1080.32,-468.1 1075.06,-477.3 1081.94,-478.58"/>
</g>
<!-- 39&#45;&gt;0 -->
<g id="edge3" class="edge">
<title>39&#45;&gt;0</title>
<path fill="none" stroke="grey" stroke-width="2" d="M1306.78,-287.93C1366.6,-270.77 1446.4,-238.26 1492.5,-180 1506.25,-162.62 1510.64,-137.57 1511.79,-118.47"/>
<polygon fill="grey" stroke="grey" stroke-width="2" points="1515.3,-118.4 1512.14,-108.29 1508.3,-118.16 1515.3,-118.4"/>
</g>
<!-- 40&#45;&gt;0 -->
<g id="edge7" class="edge">
<title>40&#45;&gt;0</title>
<path fill="none" stroke="grey" stroke-width="2" d="M1077.78,-145.23C1080.72,-144.81 1083.63,-144.4 1086.5,-144 1229.51,-124.04 1400.12,-103.86 1474.16,-95.28"/>
<polygon fill="grey" stroke="grey" stroke-width="2" points="1474.83,-98.73 1484.37,-94.1 1474.03,-91.78 1474.83,-98.73"/>
</g>
<!-- 41&#45;&gt;28 -->
<g id="edge56" class="edge">
<title>41&#45;&gt;28</title>
<path fill="none" stroke="grey" stroke-width="2" d="M1253.84,-179.93C1253.73,-179.95 1253.61,-179.98 1253.5,-180 1155.1,-200.6 1038.94,-217.3 969.81,-226.13"/>
<polygon fill="grey" stroke="grey" stroke-width="2" points="969.03,-222.7 959.55,-227.43 969.91,-229.65 969.03,-222.7"/>
</g>
<!-- 42&#45;&gt;0 -->
<g id="edge10" class="edge">
<title>42&#45;&gt;0</title>
<path fill="none" stroke="grey" stroke-width="2" d="M1486.06,-287.87C1501.36,-279.49 1516.87,-267.74 1525.5,-252 1548.71,-209.63 1534.37,-151.42 1522.48,-117.85"/>
<polygon fill="grey" stroke="grey" stroke-width="2" points="1525.69,-116.42 1518.92,-108.26 1519.13,-118.86 1525.69,-116.42"/>
</g>
<!-- 43 -->
<g id="node44" class="node">
<title>43</title>
<path fill="none" stroke="#88d856" stroke-width="2" d="M1787.5,-180C1787.5,-180 1665.5,-180 1665.5,-180 1659.5,-180 1653.5,-174 1653.5,-168 1653.5,-168 1653.5,-156 1653.5,-156 1653.5,-150 1659.5,-144 1665.5,-144 1665.5,-144 1787.5,-144 1787.5,-144 1793.5,-144 1799.5,-150 1799.5,-156 1799.5,-156 1799.5,-168 1799.5,-168 1799.5,-174 1793.5,-180 1787.5,-180"/>
<text text-anchor="middle" x="1726.5" y="-159.5" font-family="sans" font-size="10.00">_copy_exomedepth_nexus</text>
</g>
<!-- 43&#45;&gt;0 -->
<g id="edge4" class="edge">
<title>43&#45;&gt;0</title>
<path fill="none" stroke="grey" stroke-width="2" d="M1674.18,-143.97C1635.26,-131.29 1583.11,-114.31 1548.46,-103.03"/>
<polygon fill="grey" stroke="grey" stroke-width="2" points="1549.33,-99.64 1538.74,-99.87 1547.17,-106.29 1549.33,-99.64"/>
</g>
<!-- 44 -->
<g id="node45" class="node">
<title>44</title>
<path fill="none" stroke="#56a2d8" stroke-width="2" d="M1883.5,-252C1883.5,-252 1793.5,-252 1793.5,-252 1787.5,-252 1781.5,-246 1781.5,-240 1781.5,-240 1781.5,-228 1781.5,-228 1781.5,-222 1787.5,-216 1793.5,-216 1793.5,-216 1883.5,-216 1883.5,-216 1889.5,-216 1895.5,-222 1895.5,-228 1895.5,-228 1895.5,-240 1895.5,-240 1895.5,-246 1889.5,-252 1883.5,-252"/>
<text text-anchor="middle" x="1838.5" y="-231.5" font-family="sans" font-size="10.00">exomedepth_export</text>
</g>
<!-- 44&#45;&gt;43 -->
<g id="edge78" class="edge">
<title>44&#45;&gt;43</title>
<path fill="none" stroke="grey" stroke-width="2" d="M1811.1,-215.88C1796.59,-206.81 1778.58,-195.55 1762.91,-185.76"/>
<polygon fill="grey" stroke="grey" stroke-width="2" points="1764.34,-182.52 1754,-180.19 1760.63,-188.46 1764.34,-182.52"/>
</g>
<!-- 46 -->
<g id="node47" class="node">
<title>46</title>
<path fill="none" stroke="#5682d8" stroke-width="2" d="M1939.5,-180C1939.5,-180 1829.5,-180 1829.5,-180 1823.5,-180 1817.5,-174 1817.5,-168 1817.5,-168 1817.5,-156 1817.5,-156 1817.5,-150 1823.5,-144 1829.5,-144 1829.5,-144 1939.5,-144 1939.5,-144 1945.5,-144 1951.5,-150 1951.5,-156 1951.5,-156 1951.5,-168 1951.5,-168 1951.5,-174 1945.5,-180 1939.5,-180"/>
<text text-anchor="middle" x="1884.5" y="-159.5" font-family="sans" font-size="10.00">_copy_exomedepth_aed</text>
</g>
<!-- 44&#45;&gt;46 -->
<g id="edge82" class="edge">
<title>44&#45;&gt;46</title>
<path fill="none" stroke="grey" stroke-width="2" d="M1849.87,-215.7C1855.22,-207.56 1861.7,-197.69 1867.61,-188.7"/>
<polygon fill="grey" stroke="grey" stroke-width="2" points="1870.69,-190.38 1873.26,-180.1 1864.84,-186.54 1870.69,-190.38"/>
</g>
<!-- 45&#45;&gt;44 -->
<g id="edge79" class="edge">
<title>45&#45;&gt;44</title>
<path fill="none" stroke="grey" stroke-width="2" d="M1732.72,-431.85C1752.78,-394.52 1800.51,-305.69 1824.39,-261.26"/>
<polygon fill="grey" stroke="grey" stroke-width="2" points="1827.59,-262.7 1829.24,-252.23 1821.42,-259.38 1827.59,-262.7"/>
</g>
<!-- 46&#45;&gt;0 -->
<g id="edge6" class="edge">
<title>46&#45;&gt;0</title>
<path fill="none" stroke="grey" stroke-width="2" d="M1817.4,-145.82C1814.39,-145.2 1811.42,-144.59 1808.5,-144 1715.39,-125.29 1605.19,-106.5 1548.81,-97.12"/>
<polygon fill="grey" stroke="grey" stroke-width="2" points="1549.04,-93.61 1538.6,-95.43 1547.89,-100.52 1549.04,-93.61"/>
</g>
<!-- 47 -->
<g id="node48" class="node">
<title>47</title>
<path fill="none" stroke="#68d856" stroke-width="2" d="M1471.5,-180C1471.5,-180 1395.5,-180 1395.5,-180 1389.5,-180 1383.5,-174 1383.5,-168 1383.5,-168 1383.5,-156 1383.5,-156 1383.5,-150 1389.5,-144 1395.5,-144 1395.5,-144 1471.5,-144 1471.5,-144 1477.5,-144 1483.5,-150 1483.5,-156 1483.5,-156 1483.5,-168 1483.5,-168 1483.5,-174 1477.5,-180 1471.5,-180"/>
<text text-anchor="middle" x="1433.5" y="-159.5" font-family="sans" font-size="10.00">_copy_config_file</text>
</g>
<!-- 47&#45;&gt;0 -->
<g id="edge1" class="edge">
<title>47&#45;&gt;0</title>
<path fill="none" stroke="grey" stroke-width="2" d="M1452.78,-143.7C1462.42,-135.05 1474.23,-124.45 1484.73,-115.03"/>
<polygon fill="grey" stroke="grey" stroke-width="2" points="1487.34,-117.39 1492.44,-108.1 1482.66,-112.18 1487.34,-117.39"/>
</g>
</g>
</svg>
