<?xml version="1.0" encoding="UTF-8" standalone="no"?>
<!DOCTYPE svg PUBLIC "-//W3C//DTD SVG 1.1//EN"
 "http://www.w3.org/Graphics/SVG/1.1/DTD/svg11.dtd">
<!-- Generated by graphviz version 2.43.0 (0)
 -->
<!-- Title: snakemake_dag Pages: 1 -->
<svg width="1586pt" height="980pt"
 viewBox="0.00 0.00 1586.00 980.00" xmlns="http://www.w3.org/2000/svg" xmlns:xlink="http://www.w3.org/1999/xlink">
<g id="graph0" class="graph" transform="scale(1 1) rotate(0) translate(4 976)">
<title>snakemake_dag</title>
<polygon fill="white" stroke="transparent" points="-4,4 -4,-976 1582,-976 1582,4 -4,4"/>
<!-- 0 -->
<g id="node1" class="node">
<title>0</title>
<path fill="none" stroke="#56d8c1" stroke-width="2" d="M708,-36C708,-36 678,-36 678,-36 672,-36 666,-30 666,-24 666,-24 666,-12 666,-12 666,-6 672,0 678,0 678,0 708,0 708,0 714,0 720,-6 720,-12 720,-12 720,-24 720,-24 720,-30 714,-36 708,-36"/>
<text text-anchor="middle" x="693" y="-15.5" font-family="sans" font-size="10.00">all</text>
</g>
<!-- 1 -->
<g id="node2" class="node">
<title>1</title>
<path fill="none" stroke="#d86656" stroke-width="2" d="M1079,-252C1079,-252 1021,-252 1021,-252 1015,-252 1009,-246 1009,-240 1009,-240 1009,-228 1009,-228 1009,-222 1015,-216 1021,-216 1021,-216 1079,-216 1079,-216 1085,-216 1091,-222 1091,-228 1091,-228 1091,-240 1091,-240 1091,-246 1085,-252 1079,-252"/>
<text text-anchor="middle" x="1050" y="-231.5" font-family="sans" font-size="10.00">copy_multiqc</text>
</g>
<!-- 1&#45;&gt;0 -->
<g id="edge6" class="edge">
<title>1&#45;&gt;0</title>
<path fill="none" stroke="grey" stroke-width="2" d="M1046.52,-215.94C1038.76,-182.56 1016.75,-108.68 968,-72 930.94,-44.11 796.37,-28.35 730.22,-22.14"/>
<polygon fill="grey" stroke="grey" stroke-width="2" points="730.5,-18.65 720.22,-21.22 729.86,-25.62 730.5,-18.65"/>
</g>
<!-- 2 -->
<g id="node3" class="node">
<title>2</title>
<path fill="none" stroke="#70d856" stroke-width="2" d="M1094,-396C1094,-396 1048,-396 1048,-396 1042,-396 1036,-390 1036,-384 1036,-384 1036,-372 1036,-372 1036,-366 1042,-360 1048,-360 1048,-360 1094,-360 1094,-360 1100,-360 1106,-366 1106,-372 1106,-372 1106,-384 1106,-384 1106,-390 1100,-396 1094,-396"/>
<text text-anchor="middle" x="1071" y="-375.5" font-family="sans" font-size="10.00">qc_multiqc</text>
</g>
<!-- 2&#45;&gt;1 -->
<g id="edge9" class="edge">
<title>2&#45;&gt;1</title>
<path fill="none" stroke="grey" stroke-width="2" d="M1068.47,-359.87C1064.89,-335.67 1058.31,-291.21 1054.05,-262.39"/>
<polygon fill="grey" stroke="grey" stroke-width="2" points="1057.47,-261.57 1052.54,-252.19 1050.54,-262.59 1057.47,-261.57"/>
</g>
<!-- 3 -->
<g id="node4" class="node">
<title>3</title>
<path fill="none" stroke="#d89556" stroke-width="2" d="M1259.5,-612C1259.5,-612 1034.5,-612 1034.5,-612 1028.5,-612 1022.5,-606 1022.5,-600 1022.5,-600 1022.5,-588 1022.5,-588 1022.5,-582 1028.5,-576 1034.5,-576 1034.5,-576 1259.5,-576 1259.5,-576 1265.5,-576 1271.5,-582 1271.5,-588 1271.5,-588 1271.5,-600 1271.5,-600 1271.5,-606 1265.5,-612 1259.5,-612"/>
<text text-anchor="middle" x="1147" y="-591.5" font-family="sans" font-size="10.00">qc_picard_collect_alignment_summary_metrics</text>
</g>
<!-- 3&#45;&gt;2 -->
<g id="edge16" class="edge">
<title>3&#45;&gt;2</title>
<path fill="none" stroke="grey" stroke-width="2" d="M1144.17,-576C1138.82,-546.02 1125.74,-482.17 1104,-432 1100.01,-422.8 1094.6,-413.32 1089.3,-404.98"/>
<polygon fill="grey" stroke="grey" stroke-width="2" points="1092.1,-402.86 1083.69,-396.43 1086.25,-406.71 1092.1,-402.86"/>
</g>
<!-- 4 -->
<g id="node5" class="node">
<title>4</title>
<path fill="none" stroke="#ced856" stroke-width="2" d="M983,-756C983,-756 867,-756 867,-756 861,-756 855,-750 855,-744 855,-744 855,-732 855,-732 855,-726 861,-720 867,-720 867,-720 983,-720 983,-720 989,-720 995,-726 995,-732 995,-732 995,-744 995,-744 995,-750 989,-756 983,-756"/>
<text text-anchor="middle" x="925" y="-735.5" font-family="sans" font-size="10.00">alignment_samtools_sort</text>
</g>
<!-- 4&#45;&gt;3 -->
<g id="edge21" class="edge">
<title>4&#45;&gt;3</title>
<path fill="none" stroke="grey" stroke-width="2" d="M995.38,-728.63C1029.98,-721.5 1070.49,-708.33 1100,-684 1119.4,-668 1131.84,-641.87 1139.02,-622.04"/>
<polygon fill="grey" stroke="grey" stroke-width="2" points="1142.41,-622.94 1142.3,-612.34 1135.78,-620.69 1142.41,-622.94"/>
</g>
<!-- 7 -->
<g id="node8" class="node">
<title>7</title>
<path fill="none" stroke="#56d882" stroke-width="2" d="M540,-684C540,-684 376,-684 376,-684 370,-684 364,-678 364,-672 364,-672 364,-660 364,-660 364,-654 370,-648 376,-648 376,-648 540,-648 540,-648 546,-648 552,-654 552,-660 552,-660 552,-672 552,-672 552,-678 546,-684 540,-684"/>
<text text-anchor="middle" x="458" y="-663.5" font-family="sans" font-size="10.00">alignment_samtools_extract_reads</text>
</g>
<!-- 4&#45;&gt;7 -->
<g id="edge26" class="edge">
<title>4&#45;&gt;7</title>
<path fill="none" stroke="grey" stroke-width="2" d="M854.83,-726.48C777.23,-714.85 651.42,-695.99 562.28,-682.63"/>
<polygon fill="grey" stroke="grey" stroke-width="2" points="562.55,-679.13 552.14,-681.11 561.51,-686.05 562.55,-679.13"/>
</g>
<!-- 11 -->
<g id="node12" class="node">
<title>11</title>
<path fill="none" stroke="#b6d856" stroke-width="2" d="M360.5,-540C360.5,-540 235.5,-540 235.5,-540 229.5,-540 223.5,-534 223.5,-528 223.5,-528 223.5,-516 223.5,-516 223.5,-510 229.5,-504 235.5,-504 235.5,-504 360.5,-504 360.5,-504 366.5,-504 372.5,-510 372.5,-516 372.5,-516 372.5,-528 372.5,-528 372.5,-534 366.5,-540 360.5,-540"/>
<text text-anchor="middle" x="298" y="-519.5" font-family="sans" font-size="10.00">alignment_samtools_index</text>
</g>
<!-- 4&#45;&gt;11 -->
<g id="edge30" class="edge">
<title>4&#45;&gt;11</title>
<path fill="none" stroke="grey" stroke-width="2" d="M854.76,-734.38C711.35,-728.46 394.95,-712.33 355,-684 311.96,-653.48 301.22,-587.61 298.66,-550.27"/>
<polygon fill="grey" stroke="grey" stroke-width="2" points="302.15,-549.91 298.12,-540.11 295.16,-550.28 302.15,-549.91"/>
</g>
<!-- 12 -->
<g id="node13" class="node">
<title>12</title>
<path fill="none" stroke="#569ad8" stroke-width="2" d="M628.5,-468C628.5,-468 547.5,-468 547.5,-468 541.5,-468 535.5,-462 535.5,-456 535.5,-456 535.5,-444 535.5,-444 535.5,-438 541.5,-432 547.5,-432 547.5,-432 628.5,-432 628.5,-432 634.5,-432 640.5,-438 640.5,-444 640.5,-444 640.5,-456 640.5,-456 640.5,-462 634.5,-468 628.5,-468"/>
<text text-anchor="middle" x="588" y="-447.5" font-family="sans" font-size="10.00">qc_mosdepth_bed</text>
</g>
<!-- 4&#45;&gt;12 -->
<g id="edge32" class="edge">
<title>4&#45;&gt;12</title>
<path fill="none" stroke="grey" stroke-width="2" d="M854.97,-731.92C784.6,-725.35 682.72,-711.33 655,-684 596.77,-626.6 645.37,-580.68 617,-504 613.62,-494.85 608.86,-485.36 604.18,-476.97"/>
<polygon fill="grey" stroke="grey" stroke-width="2" points="607.05,-474.95 599.01,-468.06 601,-478.46 607.05,-474.95"/>
</g>
<!-- 13 -->
<g id="node14" class="node">
<title>13</title>
<path fill="none" stroke="#d88556" stroke-width="2" d="M1500.5,-612C1500.5,-612 1339.5,-612 1339.5,-612 1333.5,-612 1327.5,-606 1327.5,-600 1327.5,-600 1327.5,-588 1327.5,-588 1327.5,-582 1333.5,-576 1339.5,-576 1339.5,-576 1500.5,-576 1500.5,-576 1506.5,-576 1512.5,-582 1512.5,-588 1512.5,-588 1512.5,-600 1512.5,-600 1512.5,-606 1506.5,-612 1500.5,-612"/>
<text text-anchor="middle" x="1420" y="-591.5" font-family="sans" font-size="10.00">qc_picard_collect_gc_bias_metrics</text>
</g>
<!-- 4&#45;&gt;13 -->
<g id="edge34" class="edge">
<title>4&#45;&gt;13</title>
<path fill="none" stroke="grey" stroke-width="2" d="M995.32,-736.99C1107.24,-735.66 1319.35,-727.28 1379,-684 1399.05,-669.45 1409.56,-642.66 1414.89,-622.26"/>
<polygon fill="grey" stroke="grey" stroke-width="2" points="1418.36,-622.8 1417.23,-612.27 1411.54,-621.21 1418.36,-622.8"/>
</g>
<!-- 14 -->
<g id="node15" class="node">
<title>14</title>
<path fill="none" stroke="#d8c356" stroke-width="2" d="M916,-612C916,-612 752,-612 752,-612 746,-612 740,-606 740,-600 740,-600 740,-588 740,-588 740,-582 746,-576 752,-576 752,-576 916,-576 916,-576 922,-576 928,-582 928,-588 928,-588 928,-600 928,-600 928,-606 922,-612 916,-612"/>
<text text-anchor="middle" x="834" y="-591.5" font-family="sans" font-size="10.00">qc_picard_collect_multiple_metrics</text>
</g>
<!-- 4&#45;&gt;14 -->
<g id="edge35" class="edge">
<title>4&#45;&gt;14</title>
<path fill="none" stroke="grey" stroke-width="2" d="M914.02,-719.87C898.24,-695.24 869.01,-649.64 850.59,-620.88"/>
<polygon fill="grey" stroke="grey" stroke-width="2" points="853.36,-618.72 845.02,-612.19 847.46,-622.5 853.36,-618.72"/>
</g>
<!-- 16 -->
<g id="node17" class="node">
<title>16</title>
<path fill="none" stroke="#c6d856" stroke-width="2" d="M1050.5,-540C1050.5,-540 915.5,-540 915.5,-540 909.5,-540 903.5,-534 903.5,-528 903.5,-528 903.5,-516 903.5,-516 903.5,-510 909.5,-504 915.5,-504 915.5,-504 1050.5,-504 1050.5,-504 1056.5,-504 1062.5,-510 1062.5,-516 1062.5,-516 1062.5,-528 1062.5,-528 1062.5,-534 1056.5,-540 1050.5,-540"/>
<text text-anchor="middle" x="983" y="-519.5" font-family="sans" font-size="10.00">qc_picard_collect_hs_metrics</text>
</g>
<!-- 4&#45;&gt;16 -->
<g id="edge36" class="edge">
<title>4&#45;&gt;16</title>
<path fill="none" stroke="grey" stroke-width="2" d="M929.65,-719.85C939.7,-682.75 963.54,-594.81 975.65,-550.1"/>
<polygon fill="grey" stroke="grey" stroke-width="2" points="979.09,-550.8 978.33,-540.23 972.34,-548.97 979.09,-550.8"/>
</g>
<!-- 17 -->
<g id="node18" class="node">
<title>17</title>
<path fill="none" stroke="#d8d356" stroke-width="2" d="M1079.5,-684C1079.5,-684 996.5,-684 996.5,-684 990.5,-684 984.5,-678 984.5,-672 984.5,-672 984.5,-660 984.5,-660 984.5,-654 990.5,-648 996.5,-648 996.5,-648 1079.5,-648 1079.5,-648 1085.5,-648 1091.5,-654 1091.5,-660 1091.5,-660 1091.5,-672 1091.5,-672 1091.5,-678 1085.5,-684 1079.5,-684"/>
<text text-anchor="middle" x="1038" y="-663.5" font-family="sans" font-size="10.00">qc_samtools_stats</text>
</g>
<!-- 4&#45;&gt;17 -->
<g id="edge37" class="edge">
<title>4&#45;&gt;17</title>
<path fill="none" stroke="grey" stroke-width="2" d="M952.64,-719.88C967.42,-710.72 985.79,-699.34 1001.7,-689.48"/>
<polygon fill="grey" stroke="grey" stroke-width="2" points="1003.59,-692.43 1010.25,-684.19 999.91,-686.48 1003.59,-692.43"/>
</g>
<!-- 18 -->
<g id="node19" class="node">
<title>18</title>
<path fill="none" stroke="#56b9d8" stroke-width="2" d="M892,-468C892,-468 714,-468 714,-468 708,-468 702,-462 702,-456 702,-456 702,-444 702,-444 702,-438 708,-432 714,-432 714,-432 892,-432 892,-432 898,-432 904,-438 904,-444 904,-444 904,-456 904,-456 904,-462 898,-468 892,-468"/>
<text text-anchor="middle" x="803" y="-447.5" font-family="sans" font-size="10.00">qc_picard_collect_duplication_metrics</text>
</g>
<!-- 4&#45;&gt;18 -->
<g id="edge38" class="edge">
<title>4&#45;&gt;18</title>
<path fill="none" stroke="grey" stroke-width="2" d="M906.08,-719.67C884.47,-700.47 847.5,-669.41 812,-648 778.26,-627.65 752.47,-645.03 731,-612 701.81,-567.08 746.15,-508.35 777.15,-475.68"/>
<polygon fill="grey" stroke="grey" stroke-width="2" points="779.83,-477.94 784.31,-468.34 774.82,-473.06 779.83,-477.94"/>
</g>
<!-- 19 -->
<g id="node20" class="node">
<title>19</title>
<path fill="none" stroke="#56d863" stroke-width="2" d="M1358,-684C1358,-684 1182,-684 1182,-684 1176,-684 1170,-678 1170,-672 1170,-672 1170,-660 1170,-660 1170,-654 1176,-648 1182,-648 1182,-648 1358,-648 1358,-648 1364,-648 1370,-654 1370,-660 1370,-660 1370,-672 1370,-672 1370,-678 1364,-684 1358,-684"/>
<text text-anchor="middle" x="1270" y="-663.5" font-family="sans" font-size="10.00">qc_picard_collect_insert_size_metrics</text>
</g>
<!-- 4&#45;&gt;19 -->
<g id="edge39" class="edge">
<title>4&#45;&gt;19</title>
<path fill="none" stroke="grey" stroke-width="2" d="M995.23,-722.75C1047.36,-712.17 1119,-697.64 1176.06,-686.06"/>
<polygon fill="grey" stroke="grey" stroke-width="2" points="1177.07,-689.43 1186.17,-684.01 1175.68,-682.57 1177.07,-689.43"/>
</g>
<!-- 24 -->
<g id="node25" class="node">
<title>24</title>
<path fill="none" stroke="#d6d856" stroke-width="2" d="M1469,-180C1469,-180 1351,-180 1351,-180 1345,-180 1339,-174 1339,-168 1339,-168 1339,-156 1339,-156 1339,-150 1345,-144 1351,-144 1351,-144 1469,-144 1469,-144 1475,-144 1481,-150 1481,-156 1481,-156 1481,-168 1481,-168 1481,-174 1475,-180 1469,-180"/>
<text text-anchor="middle" x="1410" y="-159.5" font-family="sans" font-size="10.00">copy_alignment_bam_file</text>
</g>
<!-- 4&#45;&gt;24 -->
<g id="edge45" class="edge">
<title>4&#45;&gt;24</title>
<path fill="none" stroke="grey" stroke-width="2" d="M995.25,-735.49C1156.61,-730.13 1540,-705.74 1540,-595 1540,-595 1540,-595 1540,-305 1540,-251.62 1489.41,-209.58 1451.35,-185.51"/>
<polygon fill="grey" stroke="grey" stroke-width="2" points="1452.82,-182.3 1442.47,-180.06 1449.17,-188.27 1452.82,-182.3"/>
</g>
<!-- 40 -->
<g id="node41" class="node">
<title>40</title>
<path fill="none" stroke="#56d85b" stroke-width="2" d="M791.5,-684C791.5,-684 676.5,-684 676.5,-684 670.5,-684 664.5,-678 664.5,-672 664.5,-672 664.5,-660 664.5,-660 664.5,-654 670.5,-648 676.5,-648 676.5,-648 791.5,-648 791.5,-648 797.5,-648 803.5,-654 803.5,-660 803.5,-660 803.5,-672 803.5,-672 803.5,-678 797.5,-684 791.5,-684"/>
<text text-anchor="middle" x="734" y="-663.5" font-family="sans" font-size="10.00">cnv_sv_exomedepth_call</text>
</g>
<!-- 4&#45;&gt;40 -->
<g id="edge70" class="edge">
<title>4&#45;&gt;40</title>
<path fill="none" stroke="grey" stroke-width="2" d="M878.28,-719.88C851.7,-710.14 818.24,-697.87 790.23,-687.61"/>
<polygon fill="grey" stroke="grey" stroke-width="2" points="791.17,-684.22 780.57,-684.07 788.76,-690.8 791.17,-684.22"/>
</g>
<!-- 5 -->
<g id="node6" class="node">
<title>5</title>
<path fill="none" stroke="#56d8d8" stroke-width="2" d="M596,-540C596,-540 440,-540 440,-540 434,-540 428,-534 428,-528 428,-528 428,-516 428,-516 428,-510 434,-504 440,-504 440,-504 596,-504 596,-504 602,-504 608,-510 608,-516 608,-516 608,-528 608,-528 608,-534 602,-540 596,-540"/>
<text text-anchor="middle" x="518" y="-519.5" font-family="sans" font-size="10.00">alignment_samtools_merge_bam</text>
</g>
<!-- 5&#45;&gt;4 -->
<g id="edge23" class="edge">
<title>5&#45;&gt;4</title>
<path fill="none" stroke="grey" stroke-width="2" d="M533.1,-540.1C541.71,-550.21 552.46,-563.46 561,-576 592.03,-621.56 576.97,-652.2 622,-684 657.01,-708.73 767.28,-723.29 844.64,-730.7"/>
<polygon fill="grey" stroke="grey" stroke-width="2" points="844.56,-734.21 854.85,-731.66 845.22,-727.24 844.56,-734.21"/>
</g>
<!-- 6 -->
<g id="node7" class="node">
<title>6</title>
<path fill="none" stroke="#68d856" stroke-width="2" d="M540,-612C540,-612 376,-612 376,-612 370,-612 364,-606 364,-600 364,-600 364,-588 364,-588 364,-582 370,-576 376,-576 376,-576 540,-576 540,-576 546,-576 552,-582 552,-588 552,-588 552,-600 552,-600 552,-606 546,-612 540,-612"/>
<text text-anchor="middle" x="458" y="-591.5" font-family="sans" font-size="10.00">alignment_picard_mark_duplicates</text>
</g>
<!-- 6&#45;&gt;5 -->
<g id="edge24" class="edge">
<title>6&#45;&gt;5</title>
<path fill="none" stroke="grey" stroke-width="2" d="M472.83,-575.7C480.02,-567.3 488.8,-557.07 496.69,-547.86"/>
<polygon fill="grey" stroke="grey" stroke-width="2" points="499.49,-549.97 503.34,-540.1 494.17,-545.42 499.49,-549.97"/>
</g>
<!-- 6&#45;&gt;11 -->
<g id="edge31" class="edge">
<title>6&#45;&gt;11</title>
<path fill="none" stroke="grey" stroke-width="2" d="M418.86,-575.88C396.99,-566.31 369.54,-554.3 346.34,-544.15"/>
<polygon fill="grey" stroke="grey" stroke-width="2" points="347.58,-540.87 337.01,-540.07 344.77,-547.28 347.58,-540.87"/>
</g>
<!-- 35 -->
<g id="node36" class="node">
<title>35</title>
<path fill="none" stroke="#d8c356" stroke-width="2" d="M365.5,-468C365.5,-468 240.5,-468 240.5,-468 234.5,-468 228.5,-462 228.5,-456 228.5,-456 228.5,-444 228.5,-444 228.5,-438 234.5,-432 240.5,-432 240.5,-432 365.5,-432 365.5,-432 371.5,-432 377.5,-438 377.5,-444 377.5,-444 377.5,-456 377.5,-456 377.5,-462 371.5,-468 365.5,-468"/>
<text text-anchor="middle" x="303" y="-447.5" font-family="sans" font-size="10.00">snv_indels_haplotypecaller</text>
</g>
<!-- 6&#45;&gt;35 -->
<g id="edge64" class="edge">
<title>6&#45;&gt;35</title>
<path fill="none" stroke="grey" stroke-width="2" d="M445.28,-575.75C430.89,-556.91 406.18,-526.41 381,-504 368.66,-493.02 353.93,-482.46 340.61,-473.7"/>
<polygon fill="grey" stroke="grey" stroke-width="2" points="342.4,-470.69 332.1,-468.21 338.61,-476.57 342.4,-470.69"/>
</g>
<!-- 7&#45;&gt;6 -->
<g id="edge25" class="edge">
<title>7&#45;&gt;6</title>
<path fill="none" stroke="grey" stroke-width="2" d="M458,-647.7C458,-639.98 458,-630.71 458,-622.11"/>
<polygon fill="grey" stroke="grey" stroke-width="2" points="461.5,-622.1 458,-612.1 454.5,-622.1 461.5,-622.1"/>
</g>
<!-- 8 -->
<g id="node9" class="node">
<title>8</title>
<path fill="none" stroke="#d8cb56" stroke-width="2" d="M1265.5,-828C1265.5,-828 1130.5,-828 1130.5,-828 1124.5,-828 1118.5,-822 1118.5,-816 1118.5,-816 1118.5,-804 1118.5,-804 1118.5,-798 1124.5,-792 1130.5,-792 1130.5,-792 1265.5,-792 1265.5,-792 1271.5,-792 1277.5,-798 1277.5,-804 1277.5,-804 1277.5,-816 1277.5,-816 1277.5,-822 1271.5,-828 1265.5,-828"/>
<text text-anchor="middle" x="1198" y="-807.5" font-family="sans" font-size="10.00">alignment_bwa_mem_merge</text>
</g>
<!-- 8&#45;&gt;4 -->
<g id="edge22" class="edge">
<title>8&#45;&gt;4</title>
<path fill="none" stroke="grey" stroke-width="2" d="M1131.57,-791.97C1092.34,-781.91 1042.53,-769.14 1001.65,-758.65"/>
<polygon fill="grey" stroke="grey" stroke-width="2" points="1002.29,-755.2 991.73,-756.11 1000.55,-761.98 1002.29,-755.2"/>
</g>
<!-- 9 -->
<g id="node10" class="node">
<title>9</title>
<path fill="none" stroke="#56a2d8" stroke-width="2" d="M1393,-900C1393,-900 1295,-900 1295,-900 1289,-900 1283,-894 1283,-888 1283,-888 1283,-876 1283,-876 1283,-870 1289,-864 1295,-864 1295,-864 1393,-864 1393,-864 1399,-864 1405,-870 1405,-876 1405,-876 1405,-888 1405,-888 1405,-894 1399,-900 1393,-900"/>
<text text-anchor="middle" x="1344" y="-879.5" font-family="sans" font-size="10.00">alignment_bwa_mem</text>
</g>
<!-- 9&#45;&gt;8 -->
<g id="edge28" class="edge">
<title>9&#45;&gt;8</title>
<path fill="none" stroke="grey" stroke-width="2" d="M1308.28,-863.88C1288.5,-854.39 1263.73,-842.51 1242.67,-832.42"/>
<polygon fill="grey" stroke="grey" stroke-width="2" points="1244.13,-829.24 1233.6,-828.07 1241.1,-835.55 1244.13,-829.24"/>
</g>
<!-- 10 -->
<g id="node11" class="node">
<title>10</title>
<path fill="none" stroke="#d8a456" stroke-width="2" d="M1440.5,-972C1440.5,-972 1335.5,-972 1335.5,-972 1329.5,-972 1323.5,-966 1323.5,-960 1323.5,-960 1323.5,-948 1323.5,-948 1323.5,-942 1329.5,-936 1335.5,-936 1335.5,-936 1440.5,-936 1440.5,-936 1446.5,-936 1452.5,-942 1452.5,-948 1452.5,-948 1452.5,-960 1452.5,-960 1452.5,-966 1446.5,-972 1440.5,-972"/>
<text text-anchor="middle" x="1388" y="-951.5" font-family="sans" font-size="10.00">prealignment_fastp_pe</text>
</g>
<!-- 10&#45;&gt;2 -->
<g id="edge18" class="edge">
<title>10&#45;&gt;2</title>
<path fill="none" stroke="grey" stroke-width="2" d="M1447.86,-935.96C1503.55,-916.01 1578,-876.99 1578,-811 1578,-811 1578,-811 1578,-521 1578,-453.16 1517,-457.16 1454,-432 1338.73,-385.96 1190.17,-378.78 1116.54,-378.34"/>
<polygon fill="grey" stroke="grey" stroke-width="2" points="1116.24,-374.84 1106.23,-378.32 1116.23,-381.84 1116.24,-374.84"/>
</g>
<!-- 10&#45;&gt;9 -->
<g id="edge29" class="edge">
<title>10&#45;&gt;9</title>
<path fill="none" stroke="grey" stroke-width="2" d="M1377.12,-935.7C1372.01,-927.56 1365.8,-917.69 1360.16,-908.7"/>
<polygon fill="grey" stroke="grey" stroke-width="2" points="1363.04,-906.71 1354.75,-900.1 1357.11,-910.43 1363.04,-906.71"/>
</g>
<!-- 11&#45;&gt;7 -->
<g id="edge27" class="edge">
<title>11&#45;&gt;7</title>
<path fill="none" stroke="grey" stroke-width="2" d="M305.66,-540.31C314.98,-559.79 332.33,-591.38 355,-612 369.06,-624.79 386.77,-635.36 403.53,-643.6"/>
<polygon fill="grey" stroke="grey" stroke-width="2" points="402.17,-646.83 412.71,-647.94 405.16,-640.51 402.17,-646.83"/>
</g>
<!-- 11&#45;&gt;12 -->
<g id="edge33" class="edge">
<title>11&#45;&gt;12</title>
<path fill="none" stroke="grey" stroke-width="2" d="M368.57,-503.97C416.52,-492.39 479.38,-477.22 525.52,-466.08"/>
<polygon fill="grey" stroke="grey" stroke-width="2" points="526.49,-469.45 535.39,-463.7 524.85,-462.64 526.49,-469.45"/>
</g>
<!-- 25 -->
<g id="node26" class="node">
<title>25</title>
<path fill="none" stroke="#5673d8" stroke-width="2" d="M255.5,-396C255.5,-396 144.5,-396 144.5,-396 138.5,-396 132.5,-390 132.5,-384 132.5,-384 132.5,-372 132.5,-372 132.5,-366 138.5,-360 144.5,-360 144.5,-360 255.5,-360 255.5,-360 261.5,-360 267.5,-366 267.5,-372 267.5,-372 267.5,-384 267.5,-384 267.5,-390 261.5,-396 255.5,-396"/>
<text text-anchor="middle" x="200" y="-375.5" font-family="sans" font-size="10.00">copy_alignment_bai_file</text>
</g>
<!-- 11&#45;&gt;25 -->
<g id="edge46" class="edge">
<title>11&#45;&gt;25</title>
<path fill="none" stroke="grey" stroke-width="2" d="M260.57,-503.86C245.49,-495.16 229.28,-483.18 219,-468 206.65,-449.76 202.12,-424.99 200.55,-406.21"/>
<polygon fill="grey" stroke="grey" stroke-width="2" points="204.04,-405.98 199.94,-396.21 197.05,-406.41 204.04,-405.98"/>
</g>
<!-- 11&#45;&gt;35 -->
<g id="edge66" class="edge">
<title>11&#45;&gt;35</title>
<path fill="none" stroke="grey" stroke-width="2" d="M299.24,-503.7C299.79,-495.98 300.45,-486.71 301.06,-478.11"/>
<polygon fill="grey" stroke="grey" stroke-width="2" points="304.56,-478.33 301.78,-468.1 297.57,-477.83 304.56,-478.33"/>
</g>
<!-- 12&#45;&gt;2 -->
<g id="edge12" class="edge">
<title>12&#45;&gt;2</title>
<path fill="none" stroke="grey" stroke-width="2" d="M640.57,-440.26C657.32,-437.54 675.93,-434.58 693,-432 813.06,-413.87 954.91,-394.54 1025.85,-385.02"/>
<polygon fill="grey" stroke="grey" stroke-width="2" points="1026.34,-388.48 1035.79,-383.68 1025.41,-381.54 1026.34,-388.48"/>
</g>
<!-- 22 -->
<g id="node23" class="node">
<title>22</title>
<path fill="none" stroke="#d86e56" stroke-width="2" d="M658.5,-324C658.5,-324 557.5,-324 557.5,-324 551.5,-324 545.5,-318 545.5,-312 545.5,-312 545.5,-300 545.5,-300 545.5,-294 551.5,-288 557.5,-288 557.5,-288 658.5,-288 658.5,-288 664.5,-288 670.5,-294 670.5,-300 670.5,-300 670.5,-312 670.5,-312 670.5,-318 664.5,-324 658.5,-324"/>
<text text-anchor="middle" x="608" y="-303.5" font-family="sans" font-size="10.00">export_qc_xlsx_report</text>
</g>
<!-- 12&#45;&gt;22 -->
<g id="edge41" class="edge">
<title>12&#45;&gt;22</title>
<path fill="none" stroke="grey" stroke-width="2" d="M539.97,-431.85C524.03,-423.6 508.06,-411.95 499,-396 491.09,-382.09 490.51,-373.56 499,-360 507.78,-345.97 521.46,-335.55 536.19,-327.86"/>
<polygon fill="grey" stroke="grey" stroke-width="2" points="537.97,-330.89 545.47,-323.41 534.94,-324.58 537.97,-330.89"/>
</g>
<!-- 23 -->
<g id="node24" class="node">
<title>23</title>
<path fill="none" stroke="#56d8d8" stroke-width="2" d="M656,-396C656,-396 520,-396 520,-396 514,-396 508,-390 508,-384 508,-384 508,-372 508,-372 508,-366 514,-360 520,-360 520,-360 656,-360 656,-360 662,-360 668,-366 668,-372 668,-372 668,-384 668,-384 668,-390 662,-396 656,-396"/>
<text text-anchor="middle" x="588" y="-375.5" font-family="sans" font-size="10.00">export_qc_bedtools_intersect</text>
</g>
<!-- 12&#45;&gt;23 -->
<g id="edge44" class="edge">
<title>12&#45;&gt;23</title>
<path fill="none" stroke="grey" stroke-width="2" d="M588,-431.7C588,-423.98 588,-414.71 588,-406.11"/>
<polygon fill="grey" stroke="grey" stroke-width="2" points="591.5,-406.1 588,-396.1 584.5,-406.1 591.5,-406.1"/>
</g>
<!-- 13&#45;&gt;2 -->
<g id="edge13" class="edge">
<title>13&#45;&gt;2</title>
<path fill="none" stroke="grey" stroke-width="2" d="M1428.25,-575.98C1442.59,-543.66 1467.36,-472.94 1432,-432 1391.71,-385.36 1204.09,-379 1116.4,-378.64"/>
<polygon fill="grey" stroke="grey" stroke-width="2" points="1116.22,-375.13 1106.22,-378.62 1116.21,-382.13 1116.22,-375.13"/>
</g>
<!-- 14&#45;&gt;2 -->
<g id="edge15" class="edge">
<title>14&#45;&gt;2</title>
<path fill="none" stroke="grey" stroke-width="2" d="M842.19,-575.96C858.54,-543.59 898.26,-472.81 951,-432 973.4,-414.67 1002.36,-401.67 1026.21,-392.88"/>
<polygon fill="grey" stroke="grey" stroke-width="2" points="1027.5,-396.14 1035.75,-389.49 1025.16,-389.54 1027.5,-396.14"/>
</g>
<!-- 15 -->
<g id="node16" class="node">
<title>15</title>
<path fill="none" stroke="#a7d856" stroke-width="2" d="M1011.5,-468C1011.5,-468 972.5,-468 972.5,-468 966.5,-468 960.5,-462 960.5,-456 960.5,-456 960.5,-444 960.5,-444 960.5,-438 966.5,-432 972.5,-432 972.5,-432 1011.5,-432 1011.5,-432 1017.5,-432 1023.5,-438 1023.5,-444 1023.5,-444 1023.5,-456 1023.5,-456 1023.5,-462 1017.5,-468 1011.5,-468"/>
<text text-anchor="middle" x="992" y="-447.5" font-family="sans" font-size="10.00">qc_fastqc</text>
</g>
<!-- 15&#45;&gt;2 -->
<g id="edge17" class="edge">
<title>15&#45;&gt;2</title>
<path fill="none" stroke="grey" stroke-width="2" d="M1011.53,-431.7C1021.38,-422.97 1033.49,-412.24 1044.2,-402.75"/>
<polygon fill="grey" stroke="grey" stroke-width="2" points="1046.53,-405.36 1051.7,-396.1 1041.89,-400.12 1046.53,-405.36"/>
</g>
<!-- 16&#45;&gt;2 -->
<g id="edge14" class="edge">
<title>16&#45;&gt;2</title>
<path fill="none" stroke="grey" stroke-width="2" d="M1001.86,-503.63C1011.73,-493.84 1023.49,-481 1032,-468 1044.79,-448.47 1055.14,-424.05 1061.96,-405.73"/>
<polygon fill="grey" stroke="grey" stroke-width="2" points="1065.28,-406.85 1065.38,-396.25 1058.7,-404.47 1065.28,-406.85"/>
</g>
<!-- 17&#45;&gt;2 -->
<g id="edge20" class="edge">
<title>17&#45;&gt;2</title>
<path fill="none" stroke="grey" stroke-width="2" d="M1026.02,-647.68C1014.74,-629.05 1001.33,-598.99 1014,-576 1028.46,-549.76 1056.54,-566.24 1071,-540 1094.13,-498.03 1086.28,-440.07 1078.57,-406.35"/>
<polygon fill="grey" stroke="grey" stroke-width="2" points="1081.89,-405.19 1076.11,-396.31 1075.09,-406.86 1081.89,-405.19"/>
</g>
<!-- 18&#45;&gt;2 -->
<g id="edge19" class="edge">
<title>18&#45;&gt;2</title>
<path fill="none" stroke="grey" stroke-width="2" d="M868.22,-431.97C917.13,-419.19 982.82,-402.03 1026,-390.75"/>
<polygon fill="grey" stroke="grey" stroke-width="2" points="1027.14,-394.07 1035.93,-388.16 1025.37,-387.3 1027.14,-394.07"/>
</g>
<!-- 18&#45;&gt;22 -->
<g id="edge42" class="edge">
<title>18&#45;&gt;22</title>
<path fill="none" stroke="grey" stroke-width="2" d="M779.48,-431.87C744.63,-406.5 679.21,-358.85 640.02,-330.32"/>
<polygon fill="grey" stroke="grey" stroke-width="2" points="641.75,-327.25 631.6,-324.19 637.63,-332.91 641.75,-327.25"/>
</g>
<!-- 19&#45;&gt;2 -->
<g id="edge10" class="edge">
<title>19&#45;&gt;2</title>
<path fill="none" stroke="grey" stroke-width="2" d="M1277.17,-647.86C1283.78,-629.37 1291.15,-599.43 1281,-576 1246.24,-495.73 1160.87,-433.15 1110.33,-401.58"/>
<polygon fill="grey" stroke="grey" stroke-width="2" points="1111.98,-398.48 1101.62,-396.23 1108.31,-404.45 1111.98,-398.48"/>
</g>
<!-- 20 -->
<g id="node21" class="node">
<title>20</title>
<path fill="none" stroke="#56d8b9" stroke-width="2" d="M1410.5,-468C1410.5,-468 1309.5,-468 1309.5,-468 1303.5,-468 1297.5,-462 1297.5,-456 1297.5,-456 1297.5,-444 1297.5,-444 1297.5,-438 1303.5,-432 1309.5,-432 1309.5,-432 1410.5,-432 1410.5,-432 1416.5,-432 1422.5,-438 1422.5,-444 1422.5,-444 1422.5,-456 1422.5,-456 1422.5,-462 1416.5,-468 1410.5,-468"/>
<text text-anchor="middle" x="1360" y="-447.5" font-family="sans" font-size="10.00">sample_order_multiqc</text>
</g>
<!-- 20&#45;&gt;2 -->
<g id="edge11" class="edge">
<title>20&#45;&gt;2</title>
<path fill="none" stroke="grey" stroke-width="2" d="M1297.29,-433.81C1242.74,-420.6 1164.99,-401.77 1116.3,-389.97"/>
<polygon fill="grey" stroke="grey" stroke-width="2" points="1116.91,-386.52 1106.36,-387.57 1115.26,-393.32 1116.91,-386.52"/>
</g>
<!-- 21 -->
<g id="node22" class="node">
<title>21</title>
<path fill="none" stroke="#8fd856" stroke-width="2" d="M678,-252C678,-252 586,-252 586,-252 580,-252 574,-246 574,-240 574,-240 574,-228 574,-228 574,-222 580,-216 586,-216 586,-216 678,-216 678,-216 684,-216 690,-222 690,-228 690,-228 690,-240 690,-240 690,-246 684,-252 678,-252"/>
<text text-anchor="middle" x="632" y="-231.5" font-family="sans" font-size="10.00">copy_qc_xlsx_report</text>
</g>
<!-- 21&#45;&gt;0 -->
<g id="edge3" class="edge">
<title>21&#45;&gt;0</title>
<path fill="none" stroke="grey" stroke-width="2" d="M633.49,-215.59C636.46,-185.51 644.52,-122.22 663,-72 666.34,-62.92 671.13,-53.55 675.9,-45.27"/>
<polygon fill="grey" stroke="grey" stroke-width="2" points="679.05,-46.82 681.21,-36.45 673.06,-43.21 679.05,-46.82"/>
</g>
<!-- 22&#45;&gt;21 -->
<g id="edge40" class="edge">
<title>22&#45;&gt;21</title>
<path fill="none" stroke="grey" stroke-width="2" d="M613.93,-287.7C616.61,-279.9 619.83,-270.51 622.8,-261.83"/>
<polygon fill="grey" stroke="grey" stroke-width="2" points="626.2,-262.7 626.14,-252.1 619.58,-260.43 626.2,-262.7"/>
</g>
<!-- 23&#45;&gt;22 -->
<g id="edge43" class="edge">
<title>23&#45;&gt;22</title>
<path fill="none" stroke="grey" stroke-width="2" d="M592.94,-359.7C595.17,-351.9 597.85,-342.51 600.33,-333.83"/>
<polygon fill="grey" stroke="grey" stroke-width="2" points="603.73,-334.68 603.11,-324.1 597,-332.76 603.73,-334.68"/>
</g>
<!-- 24&#45;&gt;0 -->
<g id="edge8" class="edge">
<title>24&#45;&gt;0</title>
<path fill="none" stroke="grey" stroke-width="2" d="M1344.26,-143.98C1268.93,-124.84 1141.61,-93.63 1031,-72 922.44,-50.77 792.96,-32.38 730.45,-23.93"/>
<polygon fill="grey" stroke="grey" stroke-width="2" points="730.66,-20.43 720.28,-22.57 729.73,-27.37 730.66,-20.43"/>
</g>
<!-- 25&#45;&gt;0 -->
<g id="edge7" class="edge">
<title>25&#45;&gt;0</title>
<path fill="none" stroke="grey" stroke-width="2" d="M132.43,-366.79C101.87,-359.27 67.08,-346.3 42,-324 9.31,-294.94 0,-278.74 0,-235 0,-235 0,-235 0,-161 0,-114.03 16.76,-96.24 57,-72 108.35,-41.07 527.4,-24.56 655.77,-20.19"/>
<polygon fill="grey" stroke="grey" stroke-width="2" points="656.01,-23.68 665.89,-19.85 655.78,-16.69 656.01,-23.68"/>
</g>
<!-- 26 -->
<g id="node27" class="node">
<title>26</title>
<path fill="none" stroke="#bed856" stroke-width="2" d="M600.5,-180C600.5,-180 489.5,-180 489.5,-180 483.5,-180 477.5,-174 477.5,-168 477.5,-168 477.5,-156 477.5,-156 477.5,-150 483.5,-144 489.5,-144 489.5,-144 600.5,-144 600.5,-144 606.5,-144 612.5,-150 612.5,-156 612.5,-156 612.5,-168 612.5,-168 612.5,-174 606.5,-180 600.5,-180"/>
<text text-anchor="middle" x="545" y="-159.5" font-family="sans" font-size="10.00">copy_annotated_vcf_file</text>
</g>
<!-- 26&#45;&gt;0 -->
<g id="edge4" class="edge">
<title>26&#45;&gt;0</title>
<path fill="none" stroke="grey" stroke-width="2" d="M560.45,-143.74C577.09,-125.4 604.61,-95.84 630,-72 640.63,-62.02 652.79,-51.58 663.57,-42.63"/>
<polygon fill="grey" stroke="grey" stroke-width="2" points="666,-45.16 671.5,-36.11 661.56,-39.76 666,-45.16"/>
</g>
<!-- 27 -->
<g id="node28" class="node">
<title>27</title>
<path fill="none" stroke="#566bd8" stroke-width="2" d="M375,-396C375,-396 299,-396 299,-396 293,-396 287,-390 287,-384 287,-384 287,-372 287,-372 287,-366 293,-360 299,-360 299,-360 375,-360 375,-360 381,-360 387,-366 387,-372 387,-372 387,-384 387,-384 387,-390 381,-396 375,-396"/>
<text text-anchor="middle" x="337" y="-375.5" font-family="sans" font-size="10.00">snv_indels_bgzip</text>
</g>
<!-- 27&#45;&gt;26 -->
<g id="edge47" class="edge">
<title>27&#45;&gt;26</title>
<path fill="none" stroke="grey" stroke-width="2" d="M387.27,-361.88C409.32,-353.39 434.36,-341.02 453,-324 494.54,-286.06 522.24,-224.9 535.63,-189.89"/>
<polygon fill="grey" stroke="grey" stroke-width="2" points="538.98,-190.93 539.18,-180.34 532.42,-188.5 538.98,-190.93"/>
</g>
<!-- 29 -->
<g id="node30" class="node">
<title>29</title>
<path fill="none" stroke="#d85e56" stroke-width="2" d="M267,-180C267,-180 193,-180 193,-180 187,-180 181,-174 181,-168 181,-168 181,-156 181,-156 181,-150 187,-144 193,-144 193,-144 267,-144 267,-144 273,-144 279,-150 279,-156 279,-156 279,-168 279,-168 279,-174 273,-180 267,-180"/>
<text text-anchor="middle" x="230" y="-159.5" font-family="sans" font-size="10.00">snv_indels_tabix</text>
</g>
<!-- 27&#45;&gt;29 -->
<g id="edge55" class="edge">
<title>27&#45;&gt;29</title>
<path fill="none" stroke="grey" stroke-width="2" d="M311.76,-359.94C299.68,-350.61 285.94,-338.08 277,-324 250.24,-281.85 238.25,-223.95 233.24,-190.3"/>
<polygon fill="grey" stroke="grey" stroke-width="2" points="236.69,-189.7 231.85,-180.27 229.76,-190.66 236.69,-189.7"/>
</g>
<!-- 32 -->
<g id="node33" class="node">
<title>32</title>
<path fill="none" stroke="#9fd856" stroke-width="2" d="M217.5,-324C217.5,-324 96.5,-324 96.5,-324 90.5,-324 84.5,-318 84.5,-312 84.5,-312 84.5,-300 84.5,-300 84.5,-294 90.5,-288 96.5,-288 96.5,-288 217.5,-288 217.5,-288 223.5,-288 229.5,-294 229.5,-300 229.5,-300 229.5,-312 229.5,-312 229.5,-318 223.5,-324 217.5,-324"/>
<text text-anchor="middle" x="157" y="-303.5" font-family="sans" font-size="10.00">snv_indels_vt_decompose</text>
</g>
<!-- 27&#45;&gt;32 -->
<g id="edge60" class="edge">
<title>27&#45;&gt;32</title>
<path fill="none" stroke="grey" stroke-width="2" d="M292.97,-359.88C268.03,-350.18 236.66,-337.98 210.34,-327.74"/>
<polygon fill="grey" stroke="grey" stroke-width="2" points="211.48,-324.43 200.89,-324.07 208.94,-330.95 211.48,-324.43"/>
</g>
<!-- 33 -->
<g id="node34" class="node">
<title>33</title>
<path fill="none" stroke="#d88556" stroke-width="2" d="M375.5,-324C375.5,-324 298.5,-324 298.5,-324 292.5,-324 286.5,-318 286.5,-312 286.5,-312 286.5,-300 286.5,-300 286.5,-294 292.5,-288 298.5,-288 298.5,-288 375.5,-288 375.5,-288 381.5,-288 387.5,-294 387.5,-300 387.5,-300 387.5,-312 387.5,-312 387.5,-318 381.5,-324 375.5,-324"/>
<text text-anchor="middle" x="337" y="-303.5" font-family="sans" font-size="10.00">snv_indels_fix_af</text>
</g>
<!-- 27&#45;&gt;33 -->
<g id="edge61" class="edge">
<title>27&#45;&gt;33</title>
<path fill="none" stroke="grey" stroke-width="2" d="M331.08,-359.7C330.29,-351.98 330.06,-342.71 330.4,-334.11"/>
<polygon fill="grey" stroke="grey" stroke-width="2" points="333.9,-334.32 331.1,-324.1 326.92,-333.84 333.9,-334.32"/>
</g>
<!-- 34 -->
<g id="node35" class="node">
<title>34</title>
<path fill="none" stroke="#567bd8" stroke-width="2" d="M566.5,-108C566.5,-108 441.5,-108 441.5,-108 435.5,-108 429.5,-102 429.5,-96 429.5,-96 429.5,-84 429.5,-84 429.5,-78 435.5,-72 441.5,-72 441.5,-72 566.5,-72 566.5,-72 572.5,-72 578.5,-78 578.5,-84 578.5,-84 578.5,-96 578.5,-96 578.5,-102 572.5,-108 566.5,-108"/>
<text text-anchor="middle" x="504" y="-87.5" font-family="sans" font-size="10.00">snv_indels_bcftools_concat</text>
</g>
<!-- 27&#45;&gt;34 -->
<g id="edge62" class="edge">
<title>27&#45;&gt;34</title>
<path fill="none" stroke="grey" stroke-width="2" d="M352.64,-359.96C363.53,-350.45 377.38,-337.77 387,-324 436.34,-253.36 418.56,-220.08 459,-144 464.01,-134.57 470.33,-124.76 476.74,-116.18"/>
<polygon fill="grey" stroke="grey" stroke-width="2" points="479.69,-118.09 483.14,-108.07 474.2,-113.75 479.69,-118.09"/>
</g>
<!-- 28 -->
<g id="node29" class="node">
<title>28</title>
<path fill="none" stroke="#56a9d8" stroke-width="2" d="M168,-36C168,-36 100,-36 100,-36 94,-36 88,-30 88,-24 88,-24 88,-12 88,-12 88,-6 94,0 100,0 100,0 168,0 168,0 174,0 180,-6 180,-12 180,-12 180,-24 180,-24 180,-30 174,-36 168,-36"/>
<text text-anchor="middle" x="134" y="-15.5" font-family="sans" font-size="10.00">annotation_vep</text>
</g>
<!-- 28&#45;&gt;27 -->
<g id="edge48" class="edge">
<title>28&#45;&gt;27</title>
<path fill="none" stroke="grey" stroke-width="2" d="M97.91,-36.1C83.1,-44.85 67.1,-56.89 57,-72 34.53,-105.63 38,-120.55 38,-161 38,-235 38,-235 38,-235 38,-277.84 41.61,-297.16 75,-324 145.74,-380.86 187.52,-339.8 276,-360 276.33,-360.08 276.66,-360.15 277,-360.23"/>
<polygon fill="grey" stroke="grey" stroke-width="2" points="276.29,-363.66 286.83,-362.61 277.94,-356.86 276.29,-363.66"/>
</g>
<!-- 29&#45;&gt;28 -->
<g id="edge53" class="edge">
<title>29&#45;&gt;28</title>
<path fill="none" stroke="grey" stroke-width="2" d="M230.01,-143.82C229.24,-124.75 225.57,-93.81 211,-72 202.87,-59.84 190.92,-49.67 178.85,-41.6"/>
<polygon fill="grey" stroke="grey" stroke-width="2" points="180.42,-38.46 170.09,-36.1 176.7,-44.38 180.42,-38.46"/>
</g>
<!-- 30 -->
<g id="node31" class="node">
<title>30</title>
<path fill="none" stroke="#9fd856" stroke-width="2" d="M190,-108C190,-108 78,-108 78,-108 72,-108 66,-102 66,-96 66,-96 66,-84 66,-84 66,-78 72,-72 78,-72 78,-72 190,-72 190,-72 196,-72 202,-78 202,-84 202,-84 202,-96 202,-96 202,-102 196,-108 190,-108"/>
<text text-anchor="middle" x="134" y="-87.5" font-family="sans" font-size="10.00">snv_indels_bcftools_sort</text>
</g>
<!-- 29&#45;&gt;30 -->
<g id="edge57" class="edge">
<title>29&#45;&gt;30</title>
<path fill="none" stroke="grey" stroke-width="2" d="M200.62,-143.88C187.61,-135.06 172.51,-124.18 159.93,-114.59"/>
<polygon fill="grey" stroke="grey" stroke-width="2" points="161.72,-111.55 151.67,-108.19 157.43,-117.08 161.72,-111.55"/>
</g>
<!-- 29&#45;&gt;34 -->
<g id="edge63" class="edge">
<title>29&#45;&gt;34</title>
<path fill="none" stroke="grey" stroke-width="2" d="M279.3,-148.4C320.51,-137.88 379.99,-122.68 427.4,-110.57"/>
<polygon fill="grey" stroke="grey" stroke-width="2" points="428.5,-113.9 437.32,-108.03 426.77,-107.12 428.5,-113.9"/>
</g>
<!-- 37 -->
<g id="node38" class="node">
<title>37</title>
<path fill="none" stroke="#d8bc56" stroke-width="2" d="M399.5,-108C399.5,-108 270.5,-108 270.5,-108 264.5,-108 258.5,-102 258.5,-96 258.5,-96 258.5,-84 258.5,-84 258.5,-78 264.5,-72 270.5,-72 270.5,-72 399.5,-72 399.5,-72 405.5,-72 411.5,-78 411.5,-84 411.5,-84 411.5,-96 411.5,-96 411.5,-102 405.5,-108 399.5,-108"/>
<text text-anchor="middle" x="335" y="-87.5" font-family="sans" font-size="10.00">copy_annotated_vcf_tbi_file</text>
</g>
<!-- 29&#45;&gt;37 -->
<g id="edge67" class="edge">
<title>29&#45;&gt;37</title>
<path fill="none" stroke="grey" stroke-width="2" d="M255.69,-143.88C269.29,-134.81 286.17,-123.55 300.86,-113.76"/>
<polygon fill="grey" stroke="grey" stroke-width="2" points="302.84,-116.65 309.22,-108.19 298.95,-110.82 302.84,-116.65"/>
</g>
<!-- 30&#45;&gt;28 -->
<g id="edge52" class="edge">
<title>30&#45;&gt;28</title>
<path fill="none" stroke="grey" stroke-width="2" d="M134,-71.7C134,-63.98 134,-54.71 134,-46.11"/>
<polygon fill="grey" stroke="grey" stroke-width="2" points="137.5,-46.1 134,-36.1 130.5,-46.1 137.5,-46.1"/>
</g>
<!-- 30&#45;&gt;29 -->
<g id="edge54" class="edge">
<title>30&#45;&gt;29</title>
<path fill="none" stroke="grey" stroke-width="2" d="M163.35,-108.1C176.32,-116.89 191.37,-127.73 203.94,-137.31"/>
<polygon fill="grey" stroke="grey" stroke-width="2" points="202.14,-140.34 212.19,-143.7 206.42,-134.81 202.14,-140.34"/>
</g>
<!-- 31 -->
<g id="node32" class="node">
<title>31</title>
<path fill="none" stroke="#56d0d8" stroke-width="2" d="M213.5,-252C213.5,-252 100.5,-252 100.5,-252 94.5,-252 88.5,-246 88.5,-240 88.5,-240 88.5,-228 88.5,-228 88.5,-222 94.5,-216 100.5,-216 100.5,-216 213.5,-216 213.5,-216 219.5,-216 225.5,-222 225.5,-228 225.5,-228 225.5,-240 225.5,-240 225.5,-246 219.5,-252 213.5,-252"/>
<text text-anchor="middle" x="157" y="-231.5" font-family="sans" font-size="10.00">snv_indels_vt_normalize</text>
</g>
<!-- 31&#45;&gt;29 -->
<g id="edge56" class="edge">
<title>31&#45;&gt;29</title>
<path fill="none" stroke="grey" stroke-width="2" d="M175.04,-215.7C184.06,-207.05 195.12,-196.45 204.94,-187.03"/>
<polygon fill="grey" stroke="grey" stroke-width="2" points="207.37,-189.55 212.16,-180.1 202.52,-184.5 207.37,-189.55"/>
</g>
<!-- 31&#45;&gt;30 -->
<g id="edge58" class="edge">
<title>31&#45;&gt;30</title>
<path fill="none" stroke="grey" stroke-width="2" d="M154.23,-215.87C150.31,-191.67 143.1,-147.21 138.44,-118.39"/>
<polygon fill="grey" stroke="grey" stroke-width="2" points="141.84,-117.5 136.78,-108.19 134.93,-118.62 141.84,-117.5"/>
</g>
<!-- 32&#45;&gt;31 -->
<g id="edge59" class="edge">
<title>32&#45;&gt;31</title>
<path fill="none" stroke="grey" stroke-width="2" d="M157,-287.7C157,-279.98 157,-270.71 157,-262.11"/>
<polygon fill="grey" stroke="grey" stroke-width="2" points="160.5,-262.1 157,-252.1 153.5,-262.1 160.5,-262.1"/>
</g>
<!-- 33&#45;&gt;27 -->
<g id="edge50" class="edge">
<title>33&#45;&gt;27</title>
<path fill="none" stroke="grey" stroke-width="2" d="M342.9,-324.1C343.7,-331.79 343.94,-341.05 343.6,-349.67"/>
<polygon fill="grey" stroke="grey" stroke-width="2" points="340.11,-349.48 342.92,-359.7 347.09,-349.96 340.11,-349.48"/>
</g>
<!-- 34&#45;&gt;27 -->
<g id="edge51" class="edge">
<title>34&#45;&gt;27</title>
<path fill="none" stroke="grey" stroke-width="2" d="M498.89,-108.07C492.68,-118.18 483.68,-131.43 477,-144 436.56,-220.08 454.34,-253.36 405,-324 397.33,-334.97 386.98,-345.26 376.6,-353.79"/>
<polygon fill="grey" stroke="grey" stroke-width="2" points="374.42,-351.05 368.69,-359.96 378.73,-356.57 374.42,-351.05"/>
</g>
<!-- 35&#45;&gt;27 -->
<g id="edge49" class="edge">
<title>35&#45;&gt;27</title>
<path fill="none" stroke="grey" stroke-width="2" d="M311.4,-431.7C315.27,-423.73 319.95,-414.1 324.24,-405.26"/>
<polygon fill="grey" stroke="grey" stroke-width="2" points="327.47,-406.63 328.69,-396.1 321.17,-403.57 327.47,-406.63"/>
</g>
<!-- 36 -->
<g id="node37" class="node">
<title>36</title>
<path fill="none" stroke="#56b1d8" stroke-width="2" d="M193,-540C193,-540 99,-540 99,-540 93,-540 87,-534 87,-528 87,-528 87,-516 87,-516 87,-510 93,-504 99,-504 99,-504 193,-504 193,-504 199,-504 205,-510 205,-516 205,-516 205,-528 205,-528 205,-534 199,-540 193,-540"/>
<text text-anchor="middle" x="146" y="-519.5" font-family="sans" font-size="10.00">snv_indels_bed_split</text>
</g>
<!-- 36&#45;&gt;35 -->
<g id="edge65" class="edge">
<title>36&#45;&gt;35</title>
<path fill="none" stroke="grey" stroke-width="2" d="M184.41,-503.88C205.87,-494.31 232.8,-482.3 255.57,-472.15"/>
<polygon fill="grey" stroke="grey" stroke-width="2" points="257.01,-475.34 264.72,-468.07 254.16,-468.94 257.01,-475.34"/>
</g>
<!-- 37&#45;&gt;0 -->
<g id="edge1" class="edge">
<title>37&#45;&gt;0</title>
<path fill="none" stroke="grey" stroke-width="2" d="M411.91,-73.6C414.64,-73.06 417.34,-72.52 420,-72 504.38,-55.37 603.5,-36.22 656.01,-26.11"/>
<polygon fill="grey" stroke="grey" stroke-width="2" points="656.71,-29.54 665.87,-24.22 655.38,-22.67 656.71,-29.54"/>
</g>
<!-- 38 -->
<g id="node39" class="node">
<title>38</title>
<path fill="none" stroke="#d6d856" stroke-width="2" d="M800,-108C800,-108 684,-108 684,-108 678,-108 672,-102 672,-96 672,-96 672,-84 672,-84 672,-78 678,-72 684,-72 684,-72 800,-72 800,-72 806,-72 812,-78 812,-84 812,-84 812,-96 812,-96 812,-102 806,-108 800,-108"/>
<text text-anchor="middle" x="742" y="-87.5" font-family="sans" font-size="10.00">copy_exomedepth_nexus</text>
</g>
<!-- 38&#45;&gt;0 -->
<g id="edge2" class="edge">
<title>38&#45;&gt;0</title>
<path fill="none" stroke="grey" stroke-width="2" d="M729.89,-71.7C724.13,-63.47 717.14,-53.48 710.79,-44.42"/>
<polygon fill="grey" stroke="grey" stroke-width="2" points="713.58,-42.29 704.97,-36.1 707.84,-46.3 713.58,-42.29"/>
</g>
<!-- 39 -->
<g id="node40" class="node">
<title>39</title>
<path fill="none" stroke="#d88d56" stroke-width="2" d="M787,-180C787,-180 697,-180 697,-180 691,-180 685,-174 685,-168 685,-168 685,-156 685,-156 685,-150 691,-144 697,-144 697,-144 787,-144 787,-144 793,-144 799,-150 799,-156 799,-156 799,-168 799,-168 799,-174 793,-180 787,-180"/>
<text text-anchor="middle" x="742" y="-159.5" font-family="sans" font-size="10.00">exomedepth_export</text>
</g>
<!-- 39&#45;&gt;38 -->
<g id="edge68" class="edge">
<title>39&#45;&gt;38</title>
<path fill="none" stroke="grey" stroke-width="2" d="M742,-143.7C742,-135.98 742,-126.71 742,-118.11"/>
<polygon fill="grey" stroke="grey" stroke-width="2" points="745.5,-118.1 742,-108.1 738.5,-118.1 745.5,-118.1"/>
</g>
<!-- 41 -->
<g id="node42" class="node">
<title>41</title>
<path fill="none" stroke="#56c9d8" stroke-width="2" d="M947.5,-108C947.5,-108 842.5,-108 842.5,-108 836.5,-108 830.5,-102 830.5,-96 830.5,-96 830.5,-84 830.5,-84 830.5,-78 836.5,-72 842.5,-72 842.5,-72 947.5,-72 947.5,-72 953.5,-72 959.5,-78 959.5,-84 959.5,-84 959.5,-96 959.5,-96 959.5,-102 953.5,-108 947.5,-108"/>
<text text-anchor="middle" x="895" y="-87.5" font-family="sans" font-size="10.00">copy_exomedepth_aed</text>
</g>
<!-- 39&#45;&gt;41 -->
<g id="edge71" class="edge">
<title>39&#45;&gt;41</title>
<path fill="none" stroke="grey" stroke-width="2" d="M779.43,-143.88C800.25,-134.35 826.35,-122.41 848.48,-112.28"/>
<polygon fill="grey" stroke="grey" stroke-width="2" points="850.06,-115.41 857.69,-108.07 847.14,-109.05 850.06,-115.41"/>
</g>
<!-- 40&#45;&gt;39 -->
<g id="edge69" class="edge">
<title>40&#45;&gt;39</title>
<path fill="none" stroke="grey" stroke-width="2" d="M728.28,-647.96C724.96,-637.64 720.88,-624.16 718,-612 703.03,-548.79 698.58,-532.72 693,-468 684.07,-364.31 716.83,-242.56 733.21,-189.71"/>
<polygon fill="grey" stroke="grey" stroke-width="2" points="736.58,-190.68 736.25,-180.09 729.9,-188.57 736.58,-190.68"/>
</g>
<!-- 41&#45;&gt;0 -->
<g id="edge5" class="edge">
<title>41&#45;&gt;0</title>
<path fill="none" stroke="grey" stroke-width="2" d="M845.84,-71.97C810.07,-59.57 762.4,-43.05 729.86,-31.77"/>
<polygon fill="grey" stroke="grey" stroke-width="2" points="730.88,-28.42 720.28,-28.45 728.59,-35.04 730.88,-28.42"/>
</g>
</g>
</svg>
