<?xml version="1.0" encoding="UTF-8" standalone="no"?>
<!DOCTYPE svg PUBLIC "-//W3C//DTD SVG 1.1//EN"
 "http://www.w3.org/Graphics/SVG/1.1/DTD/svg11.dtd">
<!-- Generated by graphviz version 2.40.1 (0)
 -->
<!-- Title: snakemake_dag Pages: 1 -->
<svg width="2678pt" height="1124pt"
 viewBox="0.00 0.00 2677.50 1124.00" xmlns="http://www.w3.org/2000/svg" xmlns:xlink="http://www.w3.org/1999/xlink">
<g id="graph0" class="graph" transform="scale(1 1) rotate(0) translate(4 1120)">
<title>snakemake_dag</title>
<polygon fill="#ffffff" stroke="transparent" points="-4,4 -4,-1120 2673.5,-1120 2673.5,4 -4,4"/>
<!-- 0 -->
<g id="node1" class="node">
<title>0</title>
<path fill="none" stroke="#56d8d8" stroke-width="2" d="M1390,-36C1390,-36 1360,-36 1360,-36 1354,-36 1348,-30 1348,-24 1348,-24 1348,-12 1348,-12 1348,-6 1354,0 1360,0 1360,0 1390,0 1390,0 1396,0 1402,-6 1402,-12 1402,-12 1402,-24 1402,-24 1402,-30 1396,-36 1390,-36"/>
<text text-anchor="middle" x="1375" y="-15.5" font-family="sans" font-size="10.00" fill="#000000">all</text>
</g>
<!-- 1 -->
<g id="node2" class="node">
<title>1</title>
<path fill="none" stroke="#d86656" stroke-width="2" d="M2024.5,-324C2024.5,-324 1961.5,-324 1961.5,-324 1955.5,-324 1949.5,-318 1949.5,-312 1949.5,-312 1949.5,-300 1949.5,-300 1949.5,-294 1955.5,-288 1961.5,-288 1961.5,-288 2024.5,-288 2024.5,-288 2030.5,-288 2036.5,-294 2036.5,-300 2036.5,-300 2036.5,-312 2036.5,-312 2036.5,-318 2030.5,-324 2024.5,-324"/>
<text text-anchor="middle" x="1993" y="-303.5" font-family="sans" font-size="10.00" fill="#000000">_copy_multiqc</text>
</g>
<!-- 1&#45;&gt;0 -->
<g id="edge8" class="edge">
<title>1&#45;&gt;0</title>
<path fill="none" stroke="#c0c0c0" stroke-width="2" d="M1986.8971,-287.6862C1970.4474,-241.619 1920.3602,-121.1077 1832,-72 1760.0636,-32.0202 1507.9208,-21.416 1412.2212,-18.7994"/>
<polygon fill="#c0c0c0" stroke="#c0c0c0" stroke-width="2" points="1412.2234,-15.2984 1402.1359,-18.5377 1412.0417,-22.296 1412.2234,-15.2984"/>
</g>
<!-- 2 -->
<g id="node3" class="node">
<title>2</title>
<path fill="none" stroke="#d87d56" stroke-width="2" d="M2050,-540C2050,-540 2004,-540 2004,-540 1998,-540 1992,-534 1992,-528 1992,-528 1992,-516 1992,-516 1992,-510 1998,-504 2004,-504 2004,-504 2050,-504 2050,-504 2056,-504 2062,-510 2062,-516 2062,-516 2062,-528 2062,-528 2062,-534 2056,-540 2050,-540"/>
<text text-anchor="middle" x="2027" y="-519.5" font-family="sans" font-size="10.00" fill="#000000">qc_multiqc</text>
</g>
<!-- 2&#45;&gt;1 -->
<g id="edge15" class="edge">
<title>2&#45;&gt;1</title>
<path fill="none" stroke="#c0c0c0" stroke-width="2" d="M2024.1597,-503.9555C2018.2347,-466.3144 2004.5201,-379.1867 1997.427,-334.1246"/>
<polygon fill="#c0c0c0" stroke="#c0c0c0" stroke-width="2" points="2000.8686,-333.4792 1995.8562,-324.1451 1993.9538,-334.5677 2000.8686,-333.4792"/>
</g>
<!-- 3 -->
<g id="node4" class="node">
<title>3</title>
<path fill="none" stroke="#56d85b" stroke-width="2" d="M2094,-756C2094,-756 1930,-756 1930,-756 1924,-756 1918,-750 1918,-744 1918,-744 1918,-732 1918,-732 1918,-726 1924,-720 1930,-720 1930,-720 2094,-720 2094,-720 2100,-720 2106,-726 2106,-732 2106,-732 2106,-744 2106,-744 2106,-750 2100,-756 2094,-756"/>
<text text-anchor="middle" x="2012" y="-735.5" font-family="sans" font-size="10.00" fill="#000000">qc_picard_collect_multiple_metrics</text>
</g>
<!-- 3&#45;&gt;2 -->
<g id="edge19" class="edge">
<title>3&#45;&gt;2</title>
<path fill="none" stroke="#c0c0c0" stroke-width="2" d="M2013.2531,-719.9555C2015.8671,-682.3144 2021.9176,-595.1867 2025.0469,-550.1246"/>
<polygon fill="#c0c0c0" stroke="#c0c0c0" stroke-width="2" points="2028.5386,-550.3635 2025.7399,-540.1451 2021.5555,-549.8785 2028.5386,-550.3635"/>
</g>
<!-- 4 -->
<g id="node5" class="node">
<title>4</title>
<path fill="none" stroke="#56b1d8" stroke-width="2" d="M1730,-900C1730,-900 1614,-900 1614,-900 1608,-900 1602,-894 1602,-888 1602,-888 1602,-876 1602,-876 1602,-870 1608,-864 1614,-864 1614,-864 1730,-864 1730,-864 1736,-864 1742,-870 1742,-876 1742,-876 1742,-888 1742,-888 1742,-894 1736,-900 1730,-900"/>
<text text-anchor="middle" x="1672" y="-879.5" font-family="sans" font-size="10.00" fill="#000000">alignment_samtools_sort</text>
</g>
<!-- 4&#45;&gt;3 -->
<g id="edge27" class="edge">
<title>4&#45;&gt;3</title>
<path fill="none" stroke="#c0c0c0" stroke-width="2" d="M1742.4343,-878.2432C1858.96,-871.3012 2081.4325,-854.6892 2105,-828 2115.5905,-816.0067 2112.9829,-805.8663 2105,-792 2097.5828,-779.1163 2085.7825,-769.0231 2073.0433,-761.2309"/>
<polygon fill="#c0c0c0" stroke="#c0c0c0" stroke-width="2" points="2074.5461,-758.0602 2064.1162,-756.1978 2071.1082,-764.1579 2074.5461,-758.0602"/>
</g>
<!-- 7 -->
<g id="node8" class="node">
<title>7</title>
<path fill="none" stroke="#ced856" stroke-width="2" d="M1461,-828C1461,-828 1297,-828 1297,-828 1291,-828 1285,-822 1285,-816 1285,-816 1285,-804 1285,-804 1285,-798 1291,-792 1297,-792 1297,-792 1461,-792 1461,-792 1467,-792 1473,-798 1473,-804 1473,-804 1473,-816 1473,-816 1473,-822 1467,-828 1461,-828"/>
<text text-anchor="middle" x="1379" y="-807.5" font-family="sans" font-size="10.00" fill="#000000">alignment_samtools_extract_reads</text>
</g>
<!-- 4&#45;&gt;7 -->
<g id="edge33" class="edge">
<title>4&#45;&gt;7</title>
<path fill="none" stroke="#c0c0c0" stroke-width="2" d="M1601.8192,-864.7542C1559.8732,-854.4467 1506.3461,-841.2932 1462.2688,-830.4619"/>
<polygon fill="#c0c0c0" stroke="#c0c0c0" stroke-width="2" points="1462.9856,-827.034 1452.4393,-828.0465 1461.3151,-833.8318 1462.9856,-827.034"/>
</g>
<!-- 11 -->
<g id="node12" class="node">
<title>11</title>
<path fill="none" stroke="#56d8c1" stroke-width="2" d="M1300.5,-684C1300.5,-684 1175.5,-684 1175.5,-684 1169.5,-684 1163.5,-678 1163.5,-672 1163.5,-672 1163.5,-660 1163.5,-660 1163.5,-654 1169.5,-648 1175.5,-648 1175.5,-648 1300.5,-648 1300.5,-648 1306.5,-648 1312.5,-654 1312.5,-660 1312.5,-660 1312.5,-672 1312.5,-672 1312.5,-678 1306.5,-684 1300.5,-684"/>
<text text-anchor="middle" x="1238" y="-663.5" font-family="sans" font-size="10.00" fill="#000000">alignment_samtools_index</text>
</g>
<!-- 4&#45;&gt;11 -->
<g id="edge36" class="edge">
<title>4&#45;&gt;11</title>
<path fill="none" stroke="#c0c0c0" stroke-width="2" d="M1601.7744,-877.4032C1503.9768,-870.1604 1332.4176,-854.1597 1276,-828 1232.6031,-807.8777 1215.4612,-799.6974 1196,-756 1189.4906,-741.384 1190.8074,-735.134 1196,-720 1199.469,-709.8894 1205.6899,-700.2137 1212.299,-691.9166"/>
<polygon fill="#c0c0c0" stroke="#c0c0c0" stroke-width="2" points="1215.1265,-693.9949 1218.95,-684.1141 1209.7992,-689.4539 1215.1265,-693.9949"/>
</g>
<!-- 12 -->
<g id="node13" class="node">
<title>12</title>
<path fill="none" stroke="#567bd8" stroke-width="2" d="M2219.5,-756C2219.5,-756 2136.5,-756 2136.5,-756 2130.5,-756 2124.5,-750 2124.5,-744 2124.5,-744 2124.5,-732 2124.5,-732 2124.5,-726 2130.5,-720 2136.5,-720 2136.5,-720 2219.5,-720 2219.5,-720 2225.5,-720 2231.5,-726 2231.5,-732 2231.5,-732 2231.5,-744 2231.5,-744 2231.5,-750 2225.5,-756 2219.5,-756"/>
<text text-anchor="middle" x="2178" y="-735.5" font-family="sans" font-size="10.00" fill="#000000">qc_samtools_stats</text>
</g>
<!-- 4&#45;&gt;12 -->
<g id="edge38" class="edge">
<title>4&#45;&gt;12</title>
<path fill="none" stroke="#c0c0c0" stroke-width="2" d="M1742.3617,-876.9058C1860.9149,-867.8299 2090.6768,-847.9367 2122,-828 2144.5475,-813.649 2159.5354,-786.6144 2168.2842,-765.9065"/>
<polygon fill="#c0c0c0" stroke="#c0c0c0" stroke-width="2" points="2171.6482,-766.9182 2172.0837,-756.3323 2165.1418,-764.3361 2171.6482,-766.9182"/>
</g>
<!-- 13 -->
<g id="node14" class="node">
<title>13</title>
<path fill="none" stroke="#56b1d8" stroke-width="2" d="M1617.5,-612C1617.5,-612 1536.5,-612 1536.5,-612 1530.5,-612 1524.5,-606 1524.5,-600 1524.5,-600 1524.5,-588 1524.5,-588 1524.5,-582 1530.5,-576 1536.5,-576 1536.5,-576 1617.5,-576 1617.5,-576 1623.5,-576 1629.5,-582 1629.5,-588 1629.5,-588 1629.5,-600 1629.5,-600 1629.5,-606 1623.5,-612 1617.5,-612"/>
<text text-anchor="middle" x="1577" y="-591.5" font-family="sans" font-size="10.00" fill="#000000">qc_mosdepth_bed</text>
</g>
<!-- 4&#45;&gt;13 -->
<g id="edge40" class="edge">
<title>4&#45;&gt;13</title>
<path fill="none" stroke="#c0c0c0" stroke-width="2" d="M1652.8158,-863.6225C1643.6923,-853.8579 1633.4043,-841.1696 1627,-828 1593.4459,-759.0006 1582.2825,-667.7641 1578.6668,-622.2911"/>
<polygon fill="#c0c0c0" stroke="#c0c0c0" stroke-width="2" points="1582.1543,-621.9904 1577.9351,-612.2719 1575.1729,-622.5003 1582.1543,-621.9904"/>
</g>
<!-- 14 -->
<g id="node15" class="node">
<title>14</title>
<path fill="none" stroke="#56d87b" stroke-width="2" d="M1838,-612C1838,-612 1660,-612 1660,-612 1654,-612 1648,-606 1648,-600 1648,-600 1648,-588 1648,-588 1648,-582 1654,-576 1660,-576 1660,-576 1838,-576 1838,-576 1844,-576 1850,-582 1850,-588 1850,-588 1850,-600 1850,-600 1850,-606 1844,-612 1838,-612"/>
<text text-anchor="middle" x="1749" y="-591.5" font-family="sans" font-size="10.00" fill="#000000">qc_picard_collect_duplication_metrics</text>
</g>
<!-- 4&#45;&gt;14 -->
<g id="edge41" class="edge">
<title>4&#45;&gt;14</title>
<path fill="none" stroke="#c0c0c0" stroke-width="2" d="M1654.7365,-863.5761C1646.7611,-853.7997 1638.152,-841.1148 1634,-828 1629.1708,-812.7462 1629.8389,-807.4494 1634,-792 1652.1851,-724.4822 1699.6728,-656.2699 1727.61,-620.1933"/>
<polygon fill="#c0c0c0" stroke="#c0c0c0" stroke-width="2" points="1730.501,-622.1789 1733.9269,-612.1532 1724.9967,-617.8542 1730.501,-622.1789"/>
</g>
<!-- 15 -->
<g id="node16" class="node">
<title>15</title>
<path fill="none" stroke="#565bd8" stroke-width="2" d="M2438,-756C2438,-756 2262,-756 2262,-756 2256,-756 2250,-750 2250,-744 2250,-744 2250,-732 2250,-732 2250,-726 2256,-720 2262,-720 2262,-720 2438,-720 2438,-720 2444,-720 2450,-726 2450,-732 2450,-732 2450,-744 2450,-744 2450,-750 2444,-756 2438,-756"/>
<text text-anchor="middle" x="2350" y="-735.5" font-family="sans" font-size="10.00" fill="#000000">qc_picard_collect_insert_size_metrics</text>
</g>
<!-- 4&#45;&gt;15 -->
<g id="edge42" class="edge">
<title>4&#45;&gt;15</title>
<path fill="none" stroke="#c0c0c0" stroke-width="2" d="M1742.2571,-876.8218C1856.3185,-867.9574 2076.6205,-848.8074 2152,-828 2209.1162,-812.2339 2270.6061,-781.9803 2309.6476,-760.9238"/>
<polygon fill="#c0c0c0" stroke="#c0c0c0" stroke-width="2" points="2311.4854,-763.9083 2318.5907,-756.0491 2308.1352,-757.762 2311.4854,-763.9083"/>
</g>
<!-- 17 -->
<g id="node18" class="node">
<title>17</title>
<path fill="none" stroke="#d88556" stroke-width="2" d="M2375.5,-684C2375.5,-684 2240.5,-684 2240.5,-684 2234.5,-684 2228.5,-678 2228.5,-672 2228.5,-672 2228.5,-660 2228.5,-660 2228.5,-654 2234.5,-648 2240.5,-648 2240.5,-648 2375.5,-648 2375.5,-648 2381.5,-648 2387.5,-654 2387.5,-660 2387.5,-660 2387.5,-672 2387.5,-672 2387.5,-678 2381.5,-684 2375.5,-684"/>
<text text-anchor="middle" x="2308" y="-663.5" font-family="sans" font-size="10.00" fill="#000000">qc_picard_collect_hs_metrics</text>
</g>
<!-- 4&#45;&gt;17 -->
<g id="edge43" class="edge">
<title>4&#45;&gt;17</title>
<path fill="none" stroke="#c0c0c0" stroke-width="2" d="M1742.2033,-879.1466C1845.9591,-873.9951 2045.9913,-860.4843 2213,-828 2324.8244,-806.2494 2390.6906,-847.168 2459,-756 2483.0891,-723.8498 2442.4791,-700.9666 2397.338,-686.3208"/>
<polygon fill="#c0c0c0" stroke="#c0c0c0" stroke-width="2" points="2398.2462,-682.9381 2387.6583,-683.3202 2396.1736,-689.6242 2398.2462,-682.9381"/>
</g>
<!-- 18 -->
<g id="node19" class="node">
<title>18</title>
<path fill="none" stroke="#56d892" stroke-width="2" d="M1816.5,-828C1816.5,-828 1655.5,-828 1655.5,-828 1649.5,-828 1643.5,-822 1643.5,-816 1643.5,-816 1643.5,-804 1643.5,-804 1643.5,-798 1649.5,-792 1655.5,-792 1655.5,-792 1816.5,-792 1816.5,-792 1822.5,-792 1828.5,-798 1828.5,-804 1828.5,-804 1828.5,-816 1828.5,-816 1828.5,-822 1822.5,-828 1816.5,-828"/>
<text text-anchor="middle" x="1736" y="-807.5" font-family="sans" font-size="10.00" fill="#000000">qc_picard_collect_gc_bias_metrics</text>
</g>
<!-- 4&#45;&gt;18 -->
<g id="edge44" class="edge">
<title>4&#45;&gt;18</title>
<path fill="none" stroke="#c0c0c0" stroke-width="2" d="M1688.1499,-863.8314C1695.6717,-855.3694 1704.7565,-845.1489 1712.9804,-835.8971"/>
<polygon fill="#c0c0c0" stroke="#c0c0c0" stroke-width="2" points="1715.6049,-838.2127 1719.6327,-828.4133 1710.373,-833.5621 1715.6049,-838.2127"/>
</g>
<!-- 19 -->
<g id="node20" class="node">
<title>19</title>
<path fill="none" stroke="#56d87b" stroke-width="2" d="M2083.5,-828C2083.5,-828 1858.5,-828 1858.5,-828 1852.5,-828 1846.5,-822 1846.5,-816 1846.5,-816 1846.5,-804 1846.5,-804 1846.5,-798 1852.5,-792 1858.5,-792 1858.5,-792 2083.5,-792 2083.5,-792 2089.5,-792 2095.5,-798 2095.5,-804 2095.5,-804 2095.5,-816 2095.5,-816 2095.5,-822 2089.5,-828 2083.5,-828"/>
<text text-anchor="middle" x="1971" y="-807.5" font-family="sans" font-size="10.00" fill="#000000">qc_picard_collect_alignment_summary_metrics</text>
</g>
<!-- 4&#45;&gt;19 -->
<g id="edge45" class="edge">
<title>4&#45;&gt;19</title>
<path fill="none" stroke="#c0c0c0" stroke-width="2" d="M1742.1022,-865.1192C1785.199,-854.7414 1840.6967,-841.3774 1886.2519,-830.4076"/>
<polygon fill="#c0c0c0" stroke="#c0c0c0" stroke-width="2" points="1887.2076,-833.7776 1896.1103,-828.0336 1885.5688,-826.9721 1887.2076,-833.7776"/>
</g>
<!-- 25 -->
<g id="node26" class="node">
<title>25</title>
<path fill="none" stroke="#68d856" stroke-width="2" d="M1738.5,-468C1738.5,-468 1615.5,-468 1615.5,-468 1609.5,-468 1603.5,-462 1603.5,-456 1603.5,-456 1603.5,-444 1603.5,-444 1603.5,-438 1609.5,-432 1615.5,-432 1615.5,-432 1738.5,-432 1738.5,-432 1744.5,-432 1750.5,-438 1750.5,-444 1750.5,-444 1750.5,-456 1750.5,-456 1750.5,-462 1744.5,-468 1738.5,-468"/>
<text text-anchor="middle" x="1677" y="-447.5" font-family="sans" font-size="10.00" fill="#000000">_copy_alignment_bam_file</text>
</g>
<!-- 4&#45;&gt;25 -->
<g id="edge53" class="edge">
<title>4&#45;&gt;25</title>
<path fill="none" stroke="#c0c0c0" stroke-width="2" d="M1646.3846,-863.9124C1634.1711,-854.3125 1620.0663,-841.6822 1610,-828 1547.8495,-743.525 1536.5724,-714.6321 1515,-612 1511.7088,-596.3421 1512.1452,-591.7433 1515,-576 1521.0978,-542.3724 1518.098,-528.4273 1542,-504 1556.1966,-489.4914 1574.7949,-478.7694 1593.6287,-470.8868"/>
<polygon fill="#c0c0c0" stroke="#c0c0c0" stroke-width="2" points="1595.1511,-474.049 1603.1747,-467.13 1592.5876,-467.5352 1595.1511,-474.049"/>
</g>
<!-- 45 -->
<g id="node46" class="node">
<title>45</title>
<path fill="none" stroke="#d88556" stroke-width="2" d="M1226,-612C1226,-612 1110,-612 1110,-612 1104,-612 1098,-606 1098,-600 1098,-600 1098,-588 1098,-588 1098,-582 1104,-576 1110,-576 1110,-576 1226,-576 1226,-576 1232,-576 1238,-582 1238,-588 1238,-588 1238,-600 1238,-600 1238,-606 1232,-612 1226,-612"/>
<text text-anchor="middle" x="1168" y="-591.5" font-family="sans" font-size="10.00" fill="#000000">cnv_sv_exomedepth_call</text>
</g>
<!-- 4&#45;&gt;45 -->
<g id="edge85" class="edge">
<title>4&#45;&gt;45</title>
<path fill="none" stroke="#c0c0c0" stroke-width="2" d="M1601.6364,-877.561C1481.1385,-869.393 1245.271,-850.7202 1215,-828 1159.4106,-786.2768 1167.8322,-752.1152 1154,-684 1149.791,-663.2733 1153.8016,-639.6375 1158.5919,-621.79"/>
<polygon fill="#c0c0c0" stroke="#c0c0c0" stroke-width="2" points="1162.0025,-622.5966 1161.4461,-612.0163 1155.2831,-620.6342 1162.0025,-622.5966"/>
</g>
<!-- 5 -->
<g id="node6" class="node">
<title>5</title>
<path fill="none" stroke="#56d88a" stroke-width="2" d="M1499,-684C1499,-684 1343,-684 1343,-684 1337,-684 1331,-678 1331,-672 1331,-672 1331,-660 1331,-660 1331,-654 1337,-648 1343,-648 1343,-648 1499,-648 1499,-648 1505,-648 1511,-654 1511,-660 1511,-660 1511,-672 1511,-672 1511,-678 1505,-684 1499,-684"/>
<text text-anchor="middle" x="1421" y="-663.5" font-family="sans" font-size="10.00" fill="#000000">alignment_samtools_merge_bam</text>
</g>
<!-- 5&#45;&gt;4 -->
<g id="edge29" class="edge">
<title>5&#45;&gt;4</title>
<path fill="none" stroke="#c0c0c0" stroke-width="2" d="M1427.9714,-684.0425C1441.6468,-717.1684 1475.0751,-787.9517 1525,-828 1544.4786,-843.6252 1568.902,-854.9894 1592.2147,-863.1388"/>
<polygon fill="#c0c0c0" stroke="#c0c0c0" stroke-width="2" points="1591.1779,-866.4824 1601.7716,-866.3268 1593.393,-859.8422 1591.1779,-866.4824"/>
</g>
<!-- 6 -->
<g id="node7" class="node">
<title>6</title>
<path fill="none" stroke="#88d856" stroke-width="2" d="M1381,-756C1381,-756 1217,-756 1217,-756 1211,-756 1205,-750 1205,-744 1205,-744 1205,-732 1205,-732 1205,-726 1211,-720 1217,-720 1217,-720 1381,-720 1381,-720 1387,-720 1393,-726 1393,-732 1393,-732 1393,-744 1393,-744 1393,-750 1387,-756 1381,-756"/>
<text text-anchor="middle" x="1299" y="-735.5" font-family="sans" font-size="10.00" fill="#000000">alignment_picard_mark_duplicates</text>
</g>
<!-- 6&#45;&gt;5 -->
<g id="edge30" class="edge">
<title>6&#45;&gt;5</title>
<path fill="none" stroke="#c0c0c0" stroke-width="2" d="M1329.7858,-719.8314C1345.3903,-710.6221 1364.524,-699.3301 1381.2303,-689.4706"/>
<polygon fill="#c0c0c0" stroke="#c0c0c0" stroke-width="2" points="1383.3909,-692.2596 1390.2241,-684.1628 1379.8331,-686.2312 1383.3909,-692.2596"/>
</g>
<!-- 6&#45;&gt;11 -->
<g id="edge37" class="edge">
<title>6&#45;&gt;11</title>
<path fill="none" stroke="#c0c0c0" stroke-width="2" d="M1283.6071,-719.8314C1276.5096,-711.454 1267.952,-701.3531 1260.176,-692.1749"/>
<polygon fill="#c0c0c0" stroke="#c0c0c0" stroke-width="2" points="1262.7348,-689.7807 1253.6001,-684.4133 1257.3939,-694.3056 1262.7348,-689.7807"/>
</g>
<!-- 37 -->
<g id="node38" class="node">
<title>37</title>
<path fill="none" stroke="#56d892" stroke-width="2" d="M741,-612C741,-612 633,-612 633,-612 627,-612 621,-606 621,-600 621,-600 621,-588 621,-588 621,-582 627,-576 633,-576 633,-576 741,-576 741,-576 747,-576 753,-582 753,-588 753,-588 753,-600 753,-600 753,-606 747,-612 741,-612"/>
<text text-anchor="middle" x="687" y="-591.5" font-family="sans" font-size="10.00" fill="#000000">snv_indels_deepvariant</text>
</g>
<!-- 6&#45;&gt;37 -->
<g id="edge75" class="edge">
<title>6&#45;&gt;37</title>
<path fill="none" stroke="#c0c0c0" stroke-width="2" d="M1222.4186,-719.9808C1104.7715,-692.2992 880.8841,-639.6198 763.3665,-611.9686"/>
<polygon fill="#c0c0c0" stroke="#c0c0c0" stroke-width="2" points="763.9033,-608.4994 753.3674,-609.6159 762.2999,-615.3133 763.9033,-608.4994"/>
</g>
<!-- 7&#45;&gt;6 -->
<g id="edge31" class="edge">
<title>7&#45;&gt;6</title>
<path fill="none" stroke="#c0c0c0" stroke-width="2" d="M1358.8126,-791.8314C1349.1486,-783.1337 1337.4204,-772.5783 1326.9184,-763.1265"/>
<polygon fill="#c0c0c0" stroke="#c0c0c0" stroke-width="2" points="1328.9553,-760.251 1319.1809,-756.1628 1324.2725,-765.454 1328.9553,-760.251"/>
</g>
<!-- 8 -->
<g id="node9" class="node">
<title>8</title>
<path fill="none" stroke="#56d882" stroke-width="2" d="M1852.5,-972C1852.5,-972 1717.5,-972 1717.5,-972 1711.5,-972 1705.5,-966 1705.5,-960 1705.5,-960 1705.5,-948 1705.5,-948 1705.5,-942 1711.5,-936 1717.5,-936 1717.5,-936 1852.5,-936 1852.5,-936 1858.5,-936 1864.5,-942 1864.5,-948 1864.5,-948 1864.5,-960 1864.5,-960 1864.5,-966 1858.5,-972 1852.5,-972"/>
<text text-anchor="middle" x="1785" y="-951.5" font-family="sans" font-size="10.00" fill="#000000">alignment_bwa_mem_merge</text>
</g>
<!-- 8&#45;&gt;4 -->
<g id="edge28" class="edge">
<title>8&#45;&gt;4</title>
<path fill="none" stroke="#c0c0c0" stroke-width="2" d="M1756.4853,-935.8314C1742.1658,-926.7074 1724.6376,-915.539 1709.2662,-905.7449"/>
<polygon fill="#c0c0c0" stroke="#c0c0c0" stroke-width="2" points="1710.8199,-902.5847 1700.5055,-900.1628 1707.0583,-908.4882 1710.8199,-902.5847"/>
</g>
<!-- 9 -->
<g id="node10" class="node">
<title>9</title>
<path fill="none" stroke="#ced856" stroke-width="2" d="M2060,-1044C2060,-1044 1962,-1044 1962,-1044 1956,-1044 1950,-1038 1950,-1032 1950,-1032 1950,-1020 1950,-1020 1950,-1014 1956,-1008 1962,-1008 1962,-1008 2060,-1008 2060,-1008 2066,-1008 2072,-1014 2072,-1020 2072,-1020 2072,-1032 2072,-1032 2072,-1038 2066,-1044 2060,-1044"/>
<text text-anchor="middle" x="2011" y="-1023.5" font-family="sans" font-size="10.00" fill="#000000">alignment_bwa_mem</text>
</g>
<!-- 9&#45;&gt;8 -->
<g id="edge34" class="edge">
<title>9&#45;&gt;8</title>
<path fill="none" stroke="#c0c0c0" stroke-width="2" d="M1954.2624,-1007.9243C1923.0982,-997.9959 1884.2689,-985.6255 1851.6644,-975.2382"/>
<polygon fill="#c0c0c0" stroke="#c0c0c0" stroke-width="2" points="1852.3516,-971.7839 1841.761,-972.0831 1850.2267,-978.4536 1852.3516,-971.7839"/>
</g>
<!-- 10 -->
<g id="node11" class="node">
<title>10</title>
<path fill="none" stroke="#b6d856" stroke-width="2" d="M2516.5,-1116C2516.5,-1116 2411.5,-1116 2411.5,-1116 2405.5,-1116 2399.5,-1110 2399.5,-1104 2399.5,-1104 2399.5,-1092 2399.5,-1092 2399.5,-1086 2405.5,-1080 2411.5,-1080 2411.5,-1080 2516.5,-1080 2516.5,-1080 2522.5,-1080 2528.5,-1086 2528.5,-1092 2528.5,-1092 2528.5,-1104 2528.5,-1104 2528.5,-1110 2522.5,-1116 2516.5,-1116"/>
<text text-anchor="middle" x="2464" y="-1095.5" font-family="sans" font-size="10.00" fill="#000000">prealignment_fastp_pe</text>
</g>
<!-- 10&#45;&gt;2 -->
<g id="edge22" class="edge">
<title>10&#45;&gt;2</title>
<path fill="none" stroke="#c0c0c0" stroke-width="2" d="M2475.2832,-1079.6673C2490.5768,-1053.0239 2516,-1001.5783 2516,-954 2516,-954 2516,-954 2516,-666 2516,-573.9865 2193.3715,-536.4442 2072.2332,-525.5912"/>
<polygon fill="#c0c0c0" stroke="#c0c0c0" stroke-width="2" points="2072.435,-522.0955 2062.1677,-524.7095 2071.8241,-529.0688 2072.435,-522.0955"/>
</g>
<!-- 10&#45;&gt;9 -->
<g id="edge35" class="edge">
<title>10&#45;&gt;9</title>
<path fill="none" stroke="#c0c0c0" stroke-width="2" d="M2399.0961,-1087.6842C2315.084,-1074.3312 2169.1818,-1051.1415 2082.203,-1037.317"/>
<polygon fill="#c0c0c0" stroke="#c0c0c0" stroke-width="2" points="2082.5816,-1033.8334 2072.1561,-1035.7202 2081.4827,-1040.7466 2082.5816,-1033.8334"/>
</g>
<!-- 11&#45;&gt;7 -->
<g id="edge32" class="edge">
<title>11&#45;&gt;7</title>
<path fill="none" stroke="#c0c0c0" stroke-width="2" d="M1312.9092,-681.6825C1350.7109,-691.2739 1390.8859,-704.6393 1402,-720 1415.3238,-738.4145 1407.006,-763.8315 1396.8373,-782.9594"/>
<polygon fill="#c0c0c0" stroke="#c0c0c0" stroke-width="2" points="1393.715,-781.3688 1391.7834,-791.786 1399.7897,-784.847 1393.715,-781.3688"/>
</g>
<!-- 11&#45;&gt;13 -->
<g id="edge39" class="edge">
<title>11&#45;&gt;13</title>
<path fill="none" stroke="#c0c0c0" stroke-width="2" d="M1312.653,-649.9932C1315.8107,-649.3192 1318.9367,-648.6526 1322,-648 1387.5594,-634.0342 1462.624,-618.1512 1514.2453,-607.2452"/>
<polygon fill="#c0c0c0" stroke="#c0c0c0" stroke-width="2" points="1515.1865,-610.6237 1524.2472,-605.1324 1513.7397,-603.7749 1515.1865,-610.6237"/>
</g>
<!-- 26 -->
<g id="node27" class="node">
<title>26</title>
<path fill="none" stroke="#d85656" stroke-width="2" d="M1569,-468C1569,-468 1453,-468 1453,-468 1447,-468 1441,-462 1441,-456 1441,-456 1441,-444 1441,-444 1441,-438 1447,-432 1453,-432 1453,-432 1569,-432 1569,-432 1575,-432 1581,-438 1581,-444 1581,-444 1581,-456 1581,-456 1581,-462 1575,-468 1569,-468"/>
<text text-anchor="middle" x="1511" y="-447.5" font-family="sans" font-size="10.00" fill="#000000">_copy_alignment_bai_file</text>
</g>
<!-- 11&#45;&gt;26 -->
<g id="edge54" class="edge">
<title>11&#45;&gt;26</title>
<path fill="none" stroke="#c0c0c0" stroke-width="2" d="M1269.4504,-647.9048C1308.0562,-625.0374 1374.7073,-583.3972 1426,-540 1449.4011,-520.2011 1473.1107,-494.5279 1489.5215,-475.6714"/>
<polygon fill="#c0c0c0" stroke="#c0c0c0" stroke-width="2" points="1492.2153,-477.9069 1496.0857,-468.0443 1486.9097,-473.3407 1492.2153,-477.9069"/>
</g>
<!-- 11&#45;&gt;37 -->
<g id="edge74" class="edge">
<title>11&#45;&gt;37</title>
<path fill="none" stroke="#c0c0c0" stroke-width="2" d="M1163.3,-650.423C1158.4684,-649.5607 1153.6704,-648.7439 1149,-648 1013.7132,-626.4512 854.8525,-609.7491 763.0675,-600.9327"/>
<polygon fill="#c0c0c0" stroke="#c0c0c0" stroke-width="2" points="763.3201,-597.441 753.0327,-599.9746 762.6548,-604.4093 763.3201,-597.441"/>
</g>
<!-- 11&#45;&gt;45 -->
<g id="edge84" class="edge">
<title>11&#45;&gt;45</title>
<path fill="none" stroke="#c0c0c0" stroke-width="2" d="M1220.336,-647.8314C1212.0268,-639.2848 1201.9736,-628.9443 1192.9082,-619.6198"/>
<polygon fill="#c0c0c0" stroke="#c0c0c0" stroke-width="2" points="1195.3821,-617.1435 1185.9018,-612.4133 1190.3631,-622.023 1195.3821,-617.1435"/>
</g>
<!-- 12&#45;&gt;2 -->
<g id="edge16" class="edge">
<title>12&#45;&gt;2</title>
<path fill="none" stroke="#c0c0c0" stroke-width="2" d="M2124.3948,-720.1783C2106.159,-711.7573 2087.0984,-699.9636 2074,-684 2057.1253,-663.434 2040.5297,-590.4632 2032.3165,-549.8302"/>
<polygon fill="#c0c0c0" stroke="#c0c0c0" stroke-width="2" points="2035.7473,-549.1374 2030.3676,-540.0101 2028.8813,-550.5001 2035.7473,-549.1374"/>
</g>
<!-- 13&#45;&gt;2 -->
<g id="edge17" class="edge">
<title>13&#45;&gt;2</title>
<path fill="none" stroke="#c0c0c0" stroke-width="2" d="M1629.6206,-578.0957C1632.7816,-577.3357 1635.9253,-576.629 1639,-576 1768.8359,-549.4388 1804.1075,-560.7367 1935,-540 1950.2809,-537.5791 1966.8991,-534.4741 1981.7543,-531.5269"/>
<polygon fill="#c0c0c0" stroke="#c0c0c0" stroke-width="2" points="1982.6057,-534.9258 1991.7189,-529.5221 1981.225,-528.0633 1982.6057,-534.9258"/>
</g>
<!-- 22 -->
<g id="node23" class="node">
<title>22</title>
<path fill="none" stroke="#b6d856" stroke-width="2" d="M1883.5,-468C1883.5,-468 1782.5,-468 1782.5,-468 1776.5,-468 1770.5,-462 1770.5,-456 1770.5,-456 1770.5,-444 1770.5,-444 1770.5,-438 1776.5,-432 1782.5,-432 1782.5,-432 1883.5,-432 1883.5,-432 1889.5,-432 1895.5,-438 1895.5,-444 1895.5,-444 1895.5,-456 1895.5,-456 1895.5,-462 1889.5,-468 1883.5,-468"/>
<text text-anchor="middle" x="1833" y="-447.5" font-family="sans" font-size="10.00" fill="#000000">export_qc_xlsx_report</text>
</g>
<!-- 13&#45;&gt;22 -->
<g id="edge50" class="edge">
<title>13&#45;&gt;22</title>
<path fill="none" stroke="#c0c0c0" stroke-width="2" d="M1563.5508,-575.7115C1550.7658,-555.9099 1535.8335,-524.4267 1553,-504 1582.8984,-468.4235 1713.5092,-477.4969 1759,-468 1759.4692,-467.9021 1759.9399,-467.8033 1760.412,-467.7037"/>
<polygon fill="#c0c0c0" stroke="#c0c0c0" stroke-width="2" points="1761.4603,-471.0576 1770.4873,-465.511 1759.9717,-464.2177 1761.4603,-471.0576"/>
</g>
<!-- 23 -->
<g id="node24" class="node">
<title>23</title>
<path fill="none" stroke="#8fd856" stroke-width="2" d="M1710,-540C1710,-540 1574,-540 1574,-540 1568,-540 1562,-534 1562,-528 1562,-528 1562,-516 1562,-516 1562,-510 1568,-504 1574,-504 1574,-504 1710,-504 1710,-504 1716,-504 1722,-510 1722,-516 1722,-516 1722,-528 1722,-528 1722,-534 1716,-540 1710,-540"/>
<text text-anchor="middle" x="1642" y="-519.5" font-family="sans" font-size="10.00" fill="#000000">export_qc_bedtools_intersect</text>
</g>
<!-- 13&#45;&gt;23 -->
<g id="edge51" class="edge">
<title>13&#45;&gt;23</title>
<path fill="none" stroke="#c0c0c0" stroke-width="2" d="M1593.4022,-575.8314C1601.0415,-567.3694 1610.2683,-557.1489 1618.6207,-547.8971"/>
<polygon fill="#c0c0c0" stroke="#c0c0c0" stroke-width="2" points="1621.2738,-550.1813 1625.3769,-540.4133 1616.0779,-545.4906 1621.2738,-550.1813"/>
</g>
<!-- 24 -->
<g id="node25" class="node">
<title>24</title>
<path fill="none" stroke="#56d8b1" stroke-width="2" d="M1914,-540C1914,-540 1752,-540 1752,-540 1746,-540 1740,-534 1740,-528 1740,-528 1740,-516 1740,-516 1740,-510 1746,-504 1752,-504 1752,-504 1914,-504 1914,-504 1920,-504 1926,-510 1926,-516 1926,-516 1926,-528 1926,-528 1926,-534 1920,-540 1914,-540"/>
<text text-anchor="middle" x="1833" y="-519.5" font-family="sans" font-size="10.00" fill="#000000">export_qc_bedtools_intersect_pgrs</text>
</g>
<!-- 13&#45;&gt;24 -->
<g id="edge52" class="edge">
<title>13&#45;&gt;24</title>
<path fill="none" stroke="#c0c0c0" stroke-width="2" d="M1629.7538,-578.6413C1632.8813,-577.7442 1635.9813,-576.8583 1639,-576 1678.0375,-564.9006 1721.5626,-552.7636 1757.4783,-542.8124"/>
<polygon fill="#c0c0c0" stroke="#c0c0c0" stroke-width="2" points="1758.6931,-546.1079 1767.3965,-540.0663 1756.8251,-539.3617 1758.6931,-546.1079"/>
</g>
<!-- 14&#45;&gt;2 -->
<g id="edge23" class="edge">
<title>14&#45;&gt;2</title>
<path fill="none" stroke="#c0c0c0" stroke-width="2" d="M1826.5476,-575.9647C1868.5561,-565.9219 1921.2819,-552.876 1968,-540 1972.5975,-538.7329 1977.3808,-537.3619 1982.1461,-535.9616"/>
<polygon fill="#c0c0c0" stroke="#c0c0c0" stroke-width="2" points="1983.2554,-539.2832 1991.8371,-533.0699 1981.2538,-532.5755 1983.2554,-539.2832"/>
</g>
<!-- 14&#45;&gt;22 -->
<g id="edge48" class="edge">
<title>14&#45;&gt;22</title>
<path fill="none" stroke="#c0c0c0" stroke-width="2" d="M1849.8876,-575.9543C1887.5007,-567.002 1923.8189,-554.889 1935,-540 1944.6079,-527.206 1943.2529,-517.7073 1935,-504 1927.0306,-490.7637 1914.608,-480.6019 1901.138,-472.8634"/>
<polygon fill="#c0c0c0" stroke="#c0c0c0" stroke-width="2" points="1902.6472,-469.7023 1892.1712,-468.12 1899.374,-475.8899 1902.6472,-469.7023"/>
</g>
<!-- 15&#45;&gt;2 -->
<g id="edge26" class="edge">
<title>15&#45;&gt;2</title>
<path fill="none" stroke="#c0c0c0" stroke-width="2" d="M2300.9098,-719.9937C2276.1668,-710.3238 2245.9787,-697.608 2220,-684 2167.5799,-656.5416 2153.0824,-650.3328 2108,-612 2085.261,-592.6654 2062.8282,-567.0919 2047.357,-548.148"/>
<polygon fill="#c0c0c0" stroke="#c0c0c0" stroke-width="2" points="2049.9662,-545.8077 2040.9676,-540.2152 2044.5146,-550.1987 2049.9662,-545.8077"/>
</g>
<!-- 16 -->
<g id="node17" class="node">
<title>16</title>
<path fill="none" stroke="#56b1d8" stroke-width="2" d="M2167.5,-612C2167.5,-612 2128.5,-612 2128.5,-612 2122.5,-612 2116.5,-606 2116.5,-600 2116.5,-600 2116.5,-588 2116.5,-588 2116.5,-582 2122.5,-576 2128.5,-576 2128.5,-576 2167.5,-576 2167.5,-576 2173.5,-576 2179.5,-582 2179.5,-588 2179.5,-588 2179.5,-600 2179.5,-600 2179.5,-606 2173.5,-612 2167.5,-612"/>
<text text-anchor="middle" x="2148" y="-591.5" font-family="sans" font-size="10.00" fill="#000000">qc_fastqc</text>
</g>
<!-- 16&#45;&gt;2 -->
<g id="edge18" class="edge">
<title>16&#45;&gt;2</title>
<path fill="none" stroke="#c0c0c0" stroke-width="2" d="M2117.4666,-575.8314C2101.9899,-566.6221 2083.0131,-555.3301 2066.4437,-545.4706"/>
<polygon fill="#c0c0c0" stroke="#c0c0c0" stroke-width="2" points="2067.9071,-542.2687 2057.5236,-540.1628 2064.3276,-548.2843 2067.9071,-542.2687"/>
</g>
<!-- 17&#45;&gt;2 -->
<g id="edge20" class="edge">
<title>17&#45;&gt;2</title>
<path fill="none" stroke="#c0c0c0" stroke-width="2" d="M2288.3252,-647.8782C2265.7881,-627.9279 2227.0474,-596.0326 2189,-576 2151.5573,-556.2858 2105.5067,-541.7682 2072.0867,-532.781"/>
<polygon fill="#c0c0c0" stroke="#c0c0c0" stroke-width="2" points="2072.7051,-529.3247 2062.144,-530.1697 2070.9269,-536.0951 2072.7051,-529.3247"/>
</g>
<!-- 18&#45;&gt;2 -->
<g id="edge21" class="edge">
<title>18&#45;&gt;2</title>
<path fill="none" stroke="#c0c0c0" stroke-width="2" d="M1751.34,-791.7163C1785.9089,-750.9721 1873.3453,-650.4508 1956,-576 1967.593,-565.5576 1981.0579,-554.9707 1993.1258,-545.9705"/>
<polygon fill="#c0c0c0" stroke="#c0c0c0" stroke-width="2" points="1995.2386,-548.7612 2001.217,-540.0142 1991.0888,-543.1239 1995.2386,-548.7612"/>
</g>
<!-- 19&#45;&gt;2 -->
<g id="edge24" class="edge">
<title>19&#45;&gt;2</title>
<path fill="none" stroke="#c0c0c0" stroke-width="2" d="M1940.5042,-791.7757C1928.3178,-782.7056 1915.6228,-770.5508 1909,-756 1902.3719,-741.4374 1904.752,-735.4258 1909,-720 1927.6881,-652.1377 1976.404,-584.0543 2005.0604,-548.0921"/>
<polygon fill="#c0c0c0" stroke="#c0c0c0" stroke-width="2" points="2007.9737,-550.0556 2011.5399,-540.079 2002.5306,-545.6542 2007.9737,-550.0556"/>
</g>
<!-- 20 -->
<g id="node21" class="node">
<title>20</title>
<path fill="none" stroke="#567bd8" stroke-width="2" d="M2657.5,-612C2657.5,-612 2556.5,-612 2556.5,-612 2550.5,-612 2544.5,-606 2544.5,-600 2544.5,-600 2544.5,-588 2544.5,-588 2544.5,-582 2550.5,-576 2556.5,-576 2556.5,-576 2657.5,-576 2657.5,-576 2663.5,-576 2669.5,-582 2669.5,-588 2669.5,-588 2669.5,-600 2669.5,-600 2669.5,-606 2663.5,-612 2657.5,-612"/>
<text text-anchor="middle" x="2607" y="-591.5" font-family="sans" font-size="10.00" fill="#000000">sample_order_multiqc</text>
</g>
<!-- 20&#45;&gt;2 -->
<g id="edge25" class="edge">
<title>20&#45;&gt;2</title>
<path fill="none" stroke="#c0c0c0" stroke-width="2" d="M2544.0956,-578.632C2539.3393,-577.6735 2534.6017,-576.7818 2530,-576 2362.5499,-547.55 2161.0465,-531.2677 2072.4973,-525.005"/>
<polygon fill="#c0c0c0" stroke="#c0c0c0" stroke-width="2" points="2072.488,-521.4959 2062.2685,-524.2907 2072.0004,-528.4789 2072.488,-521.4959"/>
</g>
<!-- 21 -->
<g id="node22" class="node">
<title>21</title>
<path fill="none" stroke="#56d882" stroke-width="2" d="M1926,-252C1926,-252 1828,-252 1828,-252 1822,-252 1816,-246 1816,-240 1816,-240 1816,-228 1816,-228 1816,-222 1822,-216 1828,-216 1828,-216 1926,-216 1926,-216 1932,-216 1938,-222 1938,-228 1938,-228 1938,-240 1938,-240 1938,-246 1932,-252 1926,-252"/>
<text text-anchor="middle" x="1877" y="-231.5" font-family="sans" font-size="10.00" fill="#000000">_copy_qc_xlsx_report</text>
</g>
<!-- 21&#45;&gt;0 -->
<g id="edge13" class="edge">
<title>21&#45;&gt;0</title>
<path fill="none" stroke="#c0c0c0" stroke-width="2" d="M1874.3809,-215.8116C1868.3909,-181.4574 1850.2801,-107.3131 1802,-72 1770.7587,-49.1494 1510.3662,-27.9134 1412.2272,-20.6476"/>
<polygon fill="#c0c0c0" stroke="#c0c0c0" stroke-width="2" points="1412.394,-17.1505 1402.1647,-19.9096 1411.8819,-24.1317 1412.394,-17.1505"/>
</g>
<!-- 22&#45;&gt;21 -->
<g id="edge46" class="edge">
<title>22&#45;&gt;21</title>
<path fill="none" stroke="#c0c0c0" stroke-width="2" d="M1836.6757,-431.9555C1844.3434,-394.3144 1862.0916,-307.1867 1871.2709,-262.1246"/>
<polygon fill="#c0c0c0" stroke="#c0c0c0" stroke-width="2" points="1874.7372,-262.6425 1873.3038,-252.1451 1867.8781,-261.2452 1874.7372,-262.6425"/>
</g>
<!-- 23&#45;&gt;22 -->
<g id="edge47" class="edge">
<title>23&#45;&gt;22</title>
<path fill="none" stroke="#c0c0c0" stroke-width="2" d="M1690.1974,-503.8314C1716.1966,-494.0306 1748.4536,-481.8709 1775.7281,-471.5894"/>
<polygon fill="#c0c0c0" stroke="#c0c0c0" stroke-width="2" points="1777.0266,-474.8404 1785.1492,-468.038 1774.5574,-468.2904 1777.0266,-474.8404"/>
</g>
<!-- 24&#45;&gt;22 -->
<g id="edge49" class="edge">
<title>24&#45;&gt;22</title>
<path fill="none" stroke="#c0c0c0" stroke-width="2" d="M1833,-503.8314C1833,-496.131 1833,-486.9743 1833,-478.4166"/>
<polygon fill="#c0c0c0" stroke="#c0c0c0" stroke-width="2" points="1836.5001,-478.4132 1833,-468.4133 1829.5001,-478.4133 1836.5001,-478.4132"/>
</g>
<!-- 25&#45;&gt;0 -->
<g id="edge2" class="edge">
<title>25&#45;&gt;0</title>
<path fill="none" stroke="#c0c0c0" stroke-width="2" d="M1704.1537,-431.8367C1737.015,-407.4409 1788,-360.7657 1788,-306 1788,-306 1788,-306 1788,-162 1788,-119.3959 1788.1209,-98.7976 1755,-72 1702.838,-29.7965 1497.5832,-20.5756 1412.3819,-18.562"/>
<polygon fill="#c0c0c0" stroke="#c0c0c0" stroke-width="2" points="1412.203,-15.0575 1402.1299,-18.3412 1412.0522,-22.0558 1412.203,-15.0575"/>
</g>
<!-- 26&#45;&gt;0 -->
<g id="edge1" class="edge">
<title>26&#45;&gt;0</title>
<path fill="none" stroke="#c0c0c0" stroke-width="2" d="M1559.3652,-431.9097C1629.2017,-404.2675 1750,-350.0827 1750,-306 1750,-306 1750,-306 1750,-162 1750,-121.0242 1759.9384,-99.9768 1730,-72 1706.9625,-50.4719 1498.6244,-29.2449 1412.2524,-21.2884"/>
<polygon fill="#c0c0c0" stroke="#c0c0c0" stroke-width="2" points="1412.3803,-17.7856 1402.1038,-20.363 1411.7446,-24.7567 1412.3803,-17.7856"/>
</g>
<!-- 27 -->
<g id="node28" class="node">
<title>27</title>
<path fill="none" stroke="#d85656" stroke-width="2" d="M1293,-324C1293,-324 1177,-324 1177,-324 1171,-324 1165,-318 1165,-312 1165,-312 1165,-300 1165,-300 1165,-294 1171,-288 1177,-288 1177,-288 1293,-288 1293,-288 1299,-288 1305,-294 1305,-300 1305,-300 1305,-312 1305,-312 1305,-318 1299,-324 1293,-324"/>
<text text-anchor="middle" x="1235" y="-303.5" font-family="sans" font-size="10.00" fill="#000000">_copy_annotated_vcf_file</text>
</g>
<!-- 27&#45;&gt;0 -->
<g id="edge3" class="edge">
<title>27&#45;&gt;0</title>
<path fill="none" stroke="#c0c0c0" stroke-width="2" d="M1244.7159,-287.9001C1263.1846,-253.2927 1304.3393,-175.1988 1336,-108 1345.7982,-87.2036 1356.108,-63.3126 1363.6649,-45.3743"/>
<polygon fill="#c0c0c0" stroke="#c0c0c0" stroke-width="2" points="1366.9234,-46.6541 1367.5593,-36.0783 1360.4671,-43.9493 1366.9234,-46.6541"/>
</g>
<!-- 28 -->
<g id="node29" class="node">
<title>28</title>
<path fill="none" stroke="#56b9d8" stroke-width="2" d="M905,-468C905,-468 829,-468 829,-468 823,-468 817,-462 817,-456 817,-456 817,-444 817,-444 817,-438 823,-432 829,-432 829,-432 905,-432 905,-432 911,-432 917,-438 917,-444 917,-444 917,-456 917,-456 917,-462 911,-468 905,-468"/>
<text text-anchor="middle" x="867" y="-447.5" font-family="sans" font-size="10.00" fill="#000000">snv_indels_bgzip</text>
</g>
<!-- 28&#45;&gt;27 -->
<g id="edge55" class="edge">
<title>28&#45;&gt;27</title>
<path fill="none" stroke="#c0c0c0" stroke-width="2" d="M917.1369,-440.2958C959.1133,-431.3338 1020.1425,-416.3331 1071,-396 1116.7584,-377.7055 1165.8882,-349.4801 1198.3175,-329.523"/>
<polygon fill="#c0c0c0" stroke="#c0c0c0" stroke-width="2" points="1200.3558,-332.3773 1207.0047,-324.1285 1196.663,-326.4306 1200.3558,-332.3773"/>
</g>
<!-- 29 -->
<g id="node30" class="node">
<title>29</title>
<path fill="none" stroke="#d8ac56" stroke-width="2" d="M594.5,-396C594.5,-396 529.5,-396 529.5,-396 523.5,-396 517.5,-390 517.5,-384 517.5,-384 517.5,-372 517.5,-372 517.5,-366 523.5,-360 529.5,-360 529.5,-360 594.5,-360 594.5,-360 600.5,-360 606.5,-366 606.5,-372 606.5,-372 606.5,-384 606.5,-384 606.5,-390 600.5,-396 594.5,-396"/>
<text text-anchor="middle" x="562" y="-375.5" font-family="sans" font-size="10.00" fill="#000000">add_ref_to_vcf</text>
</g>
<!-- 28&#45;&gt;29 -->
<g id="edge62" class="edge">
<title>28&#45;&gt;29</title>
<path fill="none" stroke="#c0c0c0" stroke-width="2" d="M816.8958,-442.2489C766.3154,-433.3387 686.1824,-417.5066 616.2233,-398.7782"/>
<polygon fill="#c0c0c0" stroke="#c0c0c0" stroke-width="2" points="616.9912,-395.3601 606.4235,-396.1168 615.1566,-402.1154 616.9912,-395.3601"/>
</g>
<!-- 31 -->
<g id="node32" class="node">
<title>31</title>
<path fill="none" stroke="#56d863" stroke-width="2" d="M532,-180C532,-180 458,-180 458,-180 452,-180 446,-174 446,-168 446,-168 446,-156 446,-156 446,-150 452,-144 458,-144 458,-144 532,-144 532,-144 538,-144 544,-150 544,-156 544,-156 544,-168 544,-168 544,-174 538,-180 532,-180"/>
<text text-anchor="middle" x="495" y="-159.5" font-family="sans" font-size="10.00" fill="#000000">snv_indels_tabix</text>
</g>
<!-- 28&#45;&gt;31 -->
<g id="edge66" class="edge">
<title>28&#45;&gt;31</title>
<path fill="none" stroke="#c0c0c0" stroke-width="2" d="M816.9242,-445.9473C723.127,-437.8605 528.5249,-418.5464 508,-396 456.1991,-339.0972 473.8403,-238.5597 486.5925,-189.9145"/>
<polygon fill="#c0c0c0" stroke="#c0c0c0" stroke-width="2" points="490.0195,-190.6522 489.2913,-180.0824 483.2691,-188.7993 490.0195,-190.6522"/>
</g>
<!-- 34 -->
<g id="node35" class="node">
<title>34</title>
<path fill="none" stroke="#d87556" stroke-width="2" d="M876.5,-396C876.5,-396 755.5,-396 755.5,-396 749.5,-396 743.5,-390 743.5,-384 743.5,-384 743.5,-372 743.5,-372 743.5,-366 749.5,-360 755.5,-360 755.5,-360 876.5,-360 876.5,-360 882.5,-360 888.5,-366 888.5,-372 888.5,-372 888.5,-384 888.5,-384 888.5,-390 882.5,-396 876.5,-396"/>
<text text-anchor="middle" x="816" y="-375.5" font-family="sans" font-size="10.00" fill="#000000">snv_indels_vt_decompose</text>
</g>
<!-- 28&#45;&gt;34 -->
<g id="edge70" class="edge">
<title>28&#45;&gt;34</title>
<path fill="none" stroke="#c0c0c0" stroke-width="2" d="M854.1305,-431.8314C848.3165,-423.6232 841.3304,-413.7606 834.9354,-404.7323"/>
<polygon fill="#c0c0c0" stroke="#c0c0c0" stroke-width="2" points="837.679,-402.5505 829.0427,-396.4133 831.9669,-406.5966 837.679,-402.5505"/>
</g>
<!-- 35 -->
<g id="node36" class="node">
<title>35</title>
<path fill="none" stroke="#d8c356" stroke-width="2" d="M713.5,-396C713.5,-396 636.5,-396 636.5,-396 630.5,-396 624.5,-390 624.5,-384 624.5,-384 624.5,-372 624.5,-372 624.5,-366 630.5,-360 636.5,-360 636.5,-360 713.5,-360 713.5,-360 719.5,-360 725.5,-366 725.5,-372 725.5,-372 725.5,-384 725.5,-384 725.5,-390 719.5,-396 713.5,-396"/>
<text text-anchor="middle" x="675" y="-375.5" font-family="sans" font-size="10.00" fill="#000000">snv_indels_fix_af</text>
</g>
<!-- 28&#45;&gt;35 -->
<g id="edge71" class="edge">
<title>28&#45;&gt;35</title>
<path fill="none" stroke="#c0c0c0" stroke-width="2" d="M816.9194,-433.3913C789.1728,-423.398 754.7911,-410.5632 726.7828,-399.765"/>
<polygon fill="#c0c0c0" stroke="#c0c0c0" stroke-width="2" points="727.7522,-396.3872 717.1631,-396.0385 725.2236,-402.9145 727.7522,-396.3872"/>
</g>
<!-- 40 -->
<g id="node41" class="node">
<title>40</title>
<path fill="none" stroke="#56c1d8" stroke-width="2" d="M1191,-252C1191,-252 1013,-252 1013,-252 1007,-252 1001,-246 1001,-240 1001,-240 1001,-228 1001,-228 1001,-222 1007,-216 1013,-216 1013,-216 1191,-216 1191,-216 1197,-216 1203,-222 1203,-228 1203,-228 1203,-240 1203,-240 1203,-246 1197,-252 1191,-252"/>
<text text-anchor="middle" x="1102" y="-231.5" font-family="sans" font-size="10.00" fill="#000000">_copy_genome_vcf_file_no_normalize</text>
</g>
<!-- 28&#45;&gt;40 -->
<g id="edge78" class="edge">
<title>28&#45;&gt;40</title>
<path fill="none" stroke="#c0c0c0" stroke-width="2" d="M917.0471,-434.3155C939.9727,-425.4965 966.5304,-412.8312 987,-396 1033.3902,-357.8555 1069.8779,-296.6512 1088.4714,-261.4052"/>
<polygon fill="#c0c0c0" stroke="#c0c0c0" stroke-width="2" points="1091.7506,-262.6835 1093.2345,-252.1931 1085.5326,-259.4684 1091.7506,-262.6835"/>
</g>
<!-- 41 -->
<g id="node42" class="node">
<title>41</title>
<path fill="none" stroke="#d87556" stroke-width="2" d="M974,-108C974,-108 886,-108 886,-108 880,-108 874,-102 874,-96 874,-96 874,-84 874,-84 874,-78 880,-72 886,-72 886,-72 974,-72 974,-72 980,-72 986,-78 986,-84 986,-84 986,-96 986,-96 986,-102 980,-108 974,-108"/>
<text text-anchor="middle" x="930" y="-87.5" font-family="sans" font-size="10.00" fill="#000000">snv_indels_fix_af_g</text>
</g>
<!-- 28&#45;&gt;41 -->
<g id="edge79" class="edge">
<title>28&#45;&gt;41</title>
<path fill="none" stroke="#c0c0c0" stroke-width="2" d="M883.8626,-431.7169C909.6719,-406.6722 955,-358.7501 955,-306 955,-306 955,-306 955,-234 955,-192.8199 941.6668,-146.7455 933.9097,-118.0555"/>
<polygon fill="#c0c0c0" stroke="#c0c0c0" stroke-width="2" points="937.2746,-117.0894 931.3391,-108.3133 930.5063,-118.8754 937.2746,-117.0894"/>
</g>
<!-- 49 -->
<g id="node50" class="node">
<title>49</title>
<path fill="none" stroke="#d8a456" stroke-width="2" d="M1476,-180C1476,-180 1368,-180 1368,-180 1362,-180 1356,-174 1356,-168 1356,-168 1356,-156 1356,-156 1356,-150 1362,-144 1368,-144 1368,-144 1476,-144 1476,-144 1482,-144 1488,-150 1488,-156 1488,-156 1488,-168 1488,-168 1488,-174 1482,-180 1476,-180"/>
<text text-anchor="middle" x="1422" y="-159.5" font-family="sans" font-size="10.00" fill="#000000">_copy_exomedepth_vcf</text>
</g>
<!-- 28&#45;&gt;49 -->
<g id="edge87" class="edge">
<title>28&#45;&gt;49</title>
<path fill="none" stroke="#c0c0c0" stroke-width="2" d="M917.3711,-440.8735C1020.6206,-421.3694 1251.7884,-373.3667 1314,-324 1360.3485,-287.2212 1393.8076,-224.9984 1410.3345,-189.3221"/>
<polygon fill="#c0c0c0" stroke="#c0c0c0" stroke-width="2" points="1413.6155,-190.5608 1414.5436,-180.0067 1407.2364,-187.6784 1413.6155,-190.5608"/>
</g>
<!-- 29&#45;&gt;28 -->
<g id="edge59" class="edge">
<title>29&#45;&gt;28</title>
<path fill="none" stroke="#c0c0c0" stroke-width="2" d="M606.6308,-390.7698C612.4823,-392.6363 618.3795,-394.449 624,-396 685.7374,-413.0363 757.219,-427.9035 806.6739,-437.7012"/>
<polygon fill="#c0c0c0" stroke="#c0c0c0" stroke-width="2" points="806.0829,-441.152 816.5712,-439.6531 807.4374,-434.2843 806.0829,-441.152"/>
</g>
<!-- 30 -->
<g id="node31" class="node">
<title>30</title>
<path fill="none" stroke="#68d856" stroke-width="2" d="M844,-108C844,-108 776,-108 776,-108 770,-108 764,-102 764,-96 764,-96 764,-84 764,-84 764,-78 770,-72 776,-72 776,-72 844,-72 844,-72 850,-72 856,-78 856,-84 856,-84 856,-96 856,-96 856,-102 850,-108 844,-108"/>
<text text-anchor="middle" x="810" y="-87.5" font-family="sans" font-size="10.00" fill="#000000">annotation_vep</text>
</g>
<!-- 30&#45;&gt;28 -->
<g id="edge56" class="edge">
<title>30&#45;&gt;28</title>
<path fill="none" stroke="#c0c0c0" stroke-width="2" d="M835.9017,-108.1774C867.5687,-132.7574 917,-179.8057 917,-234 917,-306 917,-306 917,-306 917,-346.9758 911.5452,-357.6927 897,-396 893.5333,-405.1301 888.737,-414.5975 883.9956,-423.007"/>
<polygon fill="#c0c0c0" stroke="#c0c0c0" stroke-width="2" points="880.9672,-421.2524 878.9377,-431.651 887.0089,-424.7876 880.9672,-421.2524"/>
</g>
<!-- 31&#45;&gt;30 -->
<g id="edge63" class="edge">
<title>31&#45;&gt;30</title>
<path fill="none" stroke="#c0c0c0" stroke-width="2" d="M544.2606,-153.4622C594.6806,-144.3465 675.427,-128.7072 753.851,-108.1637"/>
<polygon fill="#c0c0c0" stroke="#c0c0c0" stroke-width="2" points="755.1286,-111.4461 763.8982,-105.501 753.3353,-104.6796 755.1286,-111.4461"/>
</g>
<!-- 36 -->
<g id="node37" class="node">
<title>36</title>
<path fill="none" stroke="#d88d56" stroke-width="2" d="M138,-108C138,-108 12,-108 12,-108 6,-108 0,-102 0,-96 0,-96 0,-84 0,-84 0,-78 6,-72 12,-72 12,-72 138,-72 138,-72 144,-72 150,-78 150,-84 150,-84 150,-96 150,-96 150,-102 144,-108 138,-108"/>
<text text-anchor="middle" x="75" y="-87.5" font-family="sans" font-size="10.00" fill="#000000">snv_indels_bcftools_concat</text>
</g>
<!-- 31&#45;&gt;36 -->
<g id="edge73" class="edge">
<title>31&#45;&gt;36</title>
<path fill="none" stroke="#c0c0c0" stroke-width="2" d="M445.8686,-151.2945C433.5334,-148.7558 420.3053,-146.1605 408,-144 300.9863,-125.2114 270.7603,-127.5703 159.9541,-108.1047"/>
<polygon fill="#c0c0c0" stroke="#c0c0c0" stroke-width="2" points="160.5144,-104.6495 150.0563,-106.346 159.2897,-111.5415 160.5144,-104.6495"/>
</g>
<!-- 39 -->
<g id="node40" class="node">
<title>39</title>
<path fill="none" stroke="#56d8a9" stroke-width="2" d="M734,-108C734,-108 600,-108 600,-108 594,-108 588,-102 588,-96 588,-96 588,-84 588,-84 588,-78 594,-72 600,-72 600,-72 734,-72 734,-72 740,-72 746,-78 746,-84 746,-84 746,-96 746,-96 746,-102 740,-108 734,-108"/>
<text text-anchor="middle" x="667" y="-87.5" font-family="sans" font-size="10.00" fill="#000000">_copy_annotated_vcf_tbi_file</text>
</g>
<!-- 31&#45;&gt;39 -->
<g id="edge77" class="edge">
<title>31&#45;&gt;39</title>
<path fill="none" stroke="#c0c0c0" stroke-width="2" d="M538.4029,-143.8314C561.5091,-134.159 590.1038,-122.1891 614.4577,-111.9944"/>
<polygon fill="#c0c0c0" stroke="#c0c0c0" stroke-width="2" points="616.0363,-115.128 623.9092,-108.038 613.3333,-108.6709 616.0363,-115.128"/>
</g>
<!-- 31&#45;&gt;41 -->
<g id="edge80" class="edge">
<title>31&#45;&gt;41</title>
<path fill="none" stroke="#c0c0c0" stroke-width="2" d="M544.1251,-156.8146C613.3768,-149.0692 743.7551,-132.8929 863.6505,-108.152"/>
<polygon fill="#c0c0c0" stroke="#c0c0c0" stroke-width="2" points="864.6628,-111.5162 873.7357,-106.0452 863.2313,-104.6641 864.6628,-111.5162"/>
</g>
<!-- 42 -->
<g id="node43" class="node">
<title>42</title>
<path fill="none" stroke="#afd856" stroke-width="2" d="M390,-108C390,-108 180,-108 180,-108 174,-108 168,-102 168,-96 168,-96 168,-84 168,-84 168,-78 174,-72 180,-72 180,-72 390,-72 390,-72 396,-72 402,-78 402,-84 402,-84 402,-96 402,-96 402,-102 396,-108 390,-108"/>
<text text-anchor="middle" x="285" y="-87.5" font-family="sans" font-size="10.00" fill="#000000">_copy_genome_vcf_index_file_no_normalize</text>
</g>
<!-- 31&#45;&gt;42 -->
<g id="edge81" class="edge">
<title>31&#45;&gt;42</title>
<path fill="none" stroke="#c0c0c0" stroke-width="2" d="M445.7643,-145.1192C416.3206,-135.0242 378.6355,-122.1036 347.1533,-111.3097"/>
<polygon fill="#c0c0c0" stroke="#c0c0c0" stroke-width="2" points="348.1927,-107.9661 337.5981,-108.0336 345.9224,-114.5878 348.1927,-107.9661"/>
</g>
<!-- 51 -->
<g id="node52" class="node">
<title>51</title>
<path fill="none" stroke="#56d873" stroke-width="2" d="M558,-108C558,-108 432,-108 432,-108 426,-108 420,-102 420,-96 420,-96 420,-84 420,-84 420,-78 426,-72 432,-72 432,-72 558,-72 558,-72 564,-72 570,-78 570,-84 570,-84 570,-96 570,-96 570,-102 564,-108 558,-108"/>
<text text-anchor="middle" x="495" y="-87.5" font-family="sans" font-size="10.00" fill="#000000">_copy_exomedepth_vcf_tbi</text>
</g>
<!-- 31&#45;&gt;51 -->
<g id="edge89" class="edge">
<title>31&#45;&gt;51</title>
<path fill="none" stroke="#c0c0c0" stroke-width="2" d="M495,-143.8314C495,-136.131 495,-126.9743 495,-118.4166"/>
<polygon fill="#c0c0c0" stroke="#c0c0c0" stroke-width="2" points="498.5001,-118.4132 495,-108.4133 491.5001,-118.4133 498.5001,-118.4132"/>
</g>
<!-- 32 -->
<g id="node33" class="node">
<title>32</title>
<path fill="none" stroke="#c6d856" stroke-width="2" d="M866.5,-252C866.5,-252 753.5,-252 753.5,-252 747.5,-252 741.5,-246 741.5,-240 741.5,-240 741.5,-228 741.5,-228 741.5,-222 747.5,-216 753.5,-216 753.5,-216 866.5,-216 866.5,-216 872.5,-216 878.5,-222 878.5,-228 878.5,-228 878.5,-240 878.5,-240 878.5,-246 872.5,-252 866.5,-252"/>
<text text-anchor="middle" x="810" y="-231.5" font-family="sans" font-size="10.00" fill="#000000">snv_indels_bcftools_sort</text>
</g>
<!-- 32&#45;&gt;30 -->
<g id="edge64" class="edge">
<title>32&#45;&gt;30</title>
<path fill="none" stroke="#c0c0c0" stroke-width="2" d="M810,-215.7623C810,-191.201 810,-147.2474 810,-118.3541"/>
<polygon fill="#c0c0c0" stroke="#c0c0c0" stroke-width="2" points="813.5001,-118.0896 810,-108.0896 806.5001,-118.0897 813.5001,-118.0896"/>
</g>
<!-- 32&#45;&gt;31 -->
<g id="edge67" class="edge">
<title>32&#45;&gt;31</title>
<path fill="none" stroke="#c0c0c0" stroke-width="2" d="M741.2612,-218.2883C685.3096,-205.4993 607.1683,-187.6385 554.0179,-175.4898"/>
<polygon fill="#c0c0c0" stroke="#c0c0c0" stroke-width="2" points="554.5939,-172.0313 544.0654,-173.2149 553.0341,-178.8553 554.5939,-172.0313"/>
</g>
<!-- 33 -->
<g id="node34" class="node">
<title>33</title>
<path fill="none" stroke="#d8a456" stroke-width="2" d="M868.5,-324C868.5,-324 755.5,-324 755.5,-324 749.5,-324 743.5,-318 743.5,-312 743.5,-312 743.5,-300 743.5,-300 743.5,-294 749.5,-288 755.5,-288 755.5,-288 868.5,-288 868.5,-288 874.5,-288 880.5,-294 880.5,-300 880.5,-300 880.5,-312 880.5,-312 880.5,-318 874.5,-324 868.5,-324"/>
<text text-anchor="middle" x="812" y="-303.5" font-family="sans" font-size="10.00" fill="#000000">snv_indels_vt_normalize</text>
</g>
<!-- 33&#45;&gt;32 -->
<g id="edge68" class="edge">
<title>33&#45;&gt;32</title>
<path fill="none" stroke="#c0c0c0" stroke-width="2" d="M811.4953,-287.8314C811.2814,-280.131 811.0271,-270.9743 810.7894,-262.4166"/>
<polygon fill="#c0c0c0" stroke="#c0c0c0" stroke-width="2" points="814.2879,-262.3122 810.5115,-252.4133 807.2906,-262.5066 814.2879,-262.3122"/>
</g>
<!-- 34&#45;&gt;33 -->
<g id="edge69" class="edge">
<title>34&#45;&gt;33</title>
<path fill="none" stroke="#c0c0c0" stroke-width="2" d="M814.9906,-359.8314C814.5628,-352.131 814.0541,-342.9743 813.5787,-334.4166"/>
<polygon fill="#c0c0c0" stroke="#c0c0c0" stroke-width="2" points="817.0724,-334.2037 813.023,-324.4133 810.0831,-334.592 817.0724,-334.2037"/>
</g>
<!-- 35&#45;&gt;28 -->
<g id="edge57" class="edge">
<title>35&#45;&gt;28</title>
<path fill="none" stroke="#c0c0c0" stroke-width="2" d="M725.6232,-394.8041C753.1883,-404.7379 787.1787,-417.4278 814.957,-428.1347"/>
<polygon fill="#c0c0c0" stroke="#c0c0c0" stroke-width="2" points="813.9135,-431.4838 824.5027,-431.8314 816.4415,-424.9562 813.9135,-431.4838"/>
</g>
<!-- 36&#45;&gt;28 -->
<g id="edge60" class="edge">
<title>36&#45;&gt;28</title>
<path fill="none" stroke="#c0c0c0" stroke-width="2" d="M142.5872,-108.0352C168.8365,-116.6998 198.4332,-128.6042 223,-144 359.3609,-229.4563 338.4284,-325.3166 483,-396 538.7451,-423.2547 713.3167,-439.258 806.682,-446.0818"/>
<polygon fill="#c0c0c0" stroke="#c0c0c0" stroke-width="2" points="806.6041,-449.5852 816.8291,-446.8107 807.1056,-442.6031 806.6041,-449.5852"/>
</g>
<!-- 37&#45;&gt;31 -->
<g id="edge65" class="edge">
<title>37&#45;&gt;31</title>
<path fill="none" stroke="#c0c0c0" stroke-width="2" d="M620.6722,-587.9226C539.5812,-576.4263 413,-543.5054 413,-450 413,-450 413,-450 413,-378 413,-305.8075 453.5308,-228.3607 477.6021,-188.7309"/>
<polygon fill="#c0c0c0" stroke="#c0c0c0" stroke-width="2" points="480.6091,-190.5228 482.9006,-180.1787 474.6586,-186.8361 480.6091,-190.5228"/>
</g>
<!-- 37&#45;&gt;36 -->
<g id="edge72" class="edge">
<title>37&#45;&gt;36</title>
<path fill="none" stroke="#c0c0c0" stroke-width="2" d="M620.7873,-588.0008C489.5523,-574.2743 209,-534.9908 209,-450 209,-450 209,-450 209,-234 209,-180.0273 157.9264,-137.8118 118.8418,-113.408"/>
<polygon fill="#c0c0c0" stroke="#c0c0c0" stroke-width="2" points="120.5738,-110.3651 110.2069,-108.1792 116.948,-116.3529 120.5738,-110.3651"/>
</g>
<!-- 38 -->
<g id="node39" class="node">
<title>38</title>
<path fill="none" stroke="#d8cb56" stroke-width="2" d="M734,-684C734,-684 640,-684 640,-684 634,-684 628,-678 628,-672 628,-672 628,-660 628,-660 628,-654 634,-648 640,-648 640,-648 734,-648 734,-648 740,-648 746,-654 746,-660 746,-660 746,-672 746,-672 746,-678 740,-684 734,-684"/>
<text text-anchor="middle" x="687" y="-663.5" font-family="sans" font-size="10.00" fill="#000000">snv_indels_bed_split</text>
</g>
<!-- 38&#45;&gt;37 -->
<g id="edge76" class="edge">
<title>38&#45;&gt;37</title>
<path fill="none" stroke="#c0c0c0" stroke-width="2" d="M687,-647.8314C687,-640.131 687,-630.9743 687,-622.4166"/>
<polygon fill="#c0c0c0" stroke="#c0c0c0" stroke-width="2" points="690.5001,-622.4132 687,-612.4133 683.5001,-622.4133 690.5001,-622.4132"/>
</g>
<!-- 39&#45;&gt;0 -->
<g id="edge4" class="edge">
<title>39&#45;&gt;0</title>
<path fill="none" stroke="#c0c0c0" stroke-width="2" d="M746.0787,-73.3784C749.0863,-72.8881 752.0679,-72.4261 755,-72 974.7748,-40.0601 1241.3222,-24.5981 1337.8533,-19.7439"/>
<polygon fill="#c0c0c0" stroke="#c0c0c0" stroke-width="2" points="1338.1665,-23.2328 1347.9812,-19.2424 1337.8203,-16.2414 1338.1665,-23.2328"/>
</g>
<!-- 40&#45;&gt;0 -->
<g id="edge10" class="edge">
<title>40&#45;&gt;0</title>
<path fill="none" stroke="#c0c0c0" stroke-width="2" d="M1082.8327,-215.8003C1051.2568,-183.6482 995.367,-116.0412 1033,-72 1052.6602,-48.992 1253.0332,-28.7657 1337.6309,-21.1829"/>
<polygon fill="#c0c0c0" stroke="#c0c0c0" stroke-width="2" points="1338.1748,-24.6485 1347.8271,-20.2801 1337.5573,-17.6758 1338.1748,-24.6485"/>
</g>
<!-- 41&#45;&gt;28 -->
<g id="edge58" class="edge">
<title>41&#45;&gt;28</title>
<path fill="none" stroke="#c0c0c0" stroke-width="2" d="M943.082,-108.3133C956.1909,-135.3552 973,-187.7627 973,-234 973,-306 973,-306 973,-306 973,-354.5613 934.5849,-399.0309 903.8617,-425.3269"/>
<polygon fill="#c0c0c0" stroke="#c0c0c0" stroke-width="2" points="901.3368,-422.8721 895.8425,-431.931 905.7868,-428.2756 901.3368,-422.8721"/>
</g>
<!-- 42&#45;&gt;0 -->
<g id="edge12" class="edge">
<title>42&#45;&gt;0</title>
<path fill="none" stroke="#c0c0c0" stroke-width="2" d="M402.3314,-72.9014C405.2483,-72.585 408.1414,-72.2837 411,-72 770.7736,-36.2919 1208.605,-22.4219 1337.5778,-18.9391"/>
<polygon fill="#c0c0c0" stroke="#c0c0c0" stroke-width="2" points="1337.8107,-22.4342 1347.7141,-18.6697 1337.6247,-15.4367 1337.8107,-22.4342"/>
</g>
<!-- 43 -->
<g id="node44" class="node">
<title>43</title>
<path fill="none" stroke="#c6d856" stroke-width="2" d="M1556,-108C1556,-108 1434,-108 1434,-108 1428,-108 1422,-102 1422,-96 1422,-96 1422,-84 1422,-84 1422,-78 1428,-72 1434,-72 1434,-72 1556,-72 1556,-72 1562,-72 1568,-78 1568,-84 1568,-84 1568,-96 1568,-96 1568,-102 1562,-108 1556,-108"/>
<text text-anchor="middle" x="1495" y="-87.5" font-family="sans" font-size="10.00" fill="#000000">_copy_exomedepth_nexus</text>
</g>
<!-- 43&#45;&gt;0 -->
<g id="edge5" class="edge">
<title>43&#45;&gt;0</title>
<path fill="none" stroke="#c0c0c0" stroke-width="2" d="M1464.7189,-71.8314C1448.4003,-62.0402 1428.1579,-49.8947 1411.0327,-39.6196"/>
<polygon fill="#c0c0c0" stroke="#c0c0c0" stroke-width="2" points="1412.7745,-36.5831 1402.3988,-34.4393 1409.173,-42.5855 1412.7745,-36.5831"/>
</g>
<!-- 44 -->
<g id="node45" class="node">
<title>44</title>
<path fill="none" stroke="#d8b456" stroke-width="2" d="M1609.5,-180C1609.5,-180 1518.5,-180 1518.5,-180 1512.5,-180 1506.5,-174 1506.5,-168 1506.5,-168 1506.5,-156 1506.5,-156 1506.5,-150 1512.5,-144 1518.5,-144 1518.5,-144 1609.5,-144 1609.5,-144 1615.5,-144 1621.5,-150 1621.5,-156 1621.5,-156 1621.5,-168 1621.5,-168 1621.5,-174 1615.5,-180 1609.5,-180"/>
<text text-anchor="middle" x="1564" y="-159.5" font-family="sans" font-size="10.00" fill="#000000">exomedepth_export</text>
</g>
<!-- 44&#45;&gt;43 -->
<g id="edge82" class="edge">
<title>44&#45;&gt;43</title>
<path fill="none" stroke="#c0c0c0" stroke-width="2" d="M1546.5884,-143.8314C1538.479,-135.3694 1528.6844,-125.1489 1519.818,-115.8971"/>
<polygon fill="#c0c0c0" stroke="#c0c0c0" stroke-width="2" points="1522.0921,-113.2115 1512.646,-108.4133 1517.0382,-118.0549 1522.0921,-113.2115"/>
</g>
<!-- 46 -->
<g id="node47" class="node">
<title>46</title>
<path fill="none" stroke="#5663d8" stroke-width="2" d="M1709.5,-108C1709.5,-108 1598.5,-108 1598.5,-108 1592.5,-108 1586.5,-102 1586.5,-96 1586.5,-96 1586.5,-84 1586.5,-84 1586.5,-78 1592.5,-72 1598.5,-72 1598.5,-72 1709.5,-72 1709.5,-72 1715.5,-72 1721.5,-78 1721.5,-84 1721.5,-84 1721.5,-96 1721.5,-96 1721.5,-102 1715.5,-108 1709.5,-108"/>
<text text-anchor="middle" x="1654" y="-87.5" font-family="sans" font-size="10.00" fill="#000000">_copy_exomedepth_aed</text>
</g>
<!-- 44&#45;&gt;46 -->
<g id="edge86" class="edge">
<title>44&#45;&gt;46</title>
<path fill="none" stroke="#c0c0c0" stroke-width="2" d="M1586.7108,-143.8314C1597.796,-134.9632 1611.2954,-124.1637 1623.2852,-114.5718"/>
<polygon fill="#c0c0c0" stroke="#c0c0c0" stroke-width="2" points="1625.6742,-117.1429 1631.2965,-108.1628 1621.3013,-111.6768 1625.6742,-117.1429"/>
</g>
<!-- 45&#45;&gt;44 -->
<g id="edge83" class="edge">
<title>45&#45;&gt;44</title>
<path fill="none" stroke="#c0c0c0" stroke-width="2" d="M1238.2476,-583.1857C1310.33,-567.6305 1412,-531.2832 1412,-450 1412,-450 1412,-450 1412,-306 1412,-249.207 1468.6145,-208.1005 1512.7401,-184.687"/>
<polygon fill="#c0c0c0" stroke="#c0c0c0" stroke-width="2" points="1514.367,-187.7861 1521.6595,-180.1005 1511.1658,-181.5609 1514.367,-187.7861"/>
</g>
<!-- 50 -->
<g id="node51" class="node">
<title>50</title>
<path fill="none" stroke="#56d89a" stroke-width="2" d="M998,-540C998,-540 968,-540 968,-540 962,-540 956,-534 956,-528 956,-528 956,-516 956,-516 956,-510 962,-504 968,-504 968,-504 998,-504 998,-504 1004,-504 1010,-510 1010,-516 1010,-516 1010,-528 1010,-528 1010,-534 1004,-540 998,-540"/>
<text text-anchor="middle" x="983" y="-519.5" font-family="sans" font-size="10.00" fill="#000000">tsv2vcf</text>
</g>
<!-- 45&#45;&gt;50 -->
<g id="edge88" class="edge">
<title>45&#45;&gt;50</title>
<path fill="none" stroke="#c0c0c0" stroke-width="2" d="M1121.3167,-575.8314C1089.7732,-563.555 1048.7198,-547.5774 1019.5531,-536.2261"/>
<polygon fill="#c0c0c0" stroke="#c0c0c0" stroke-width="2" points="1020.7369,-532.9311 1010.1483,-532.5658 1018.198,-539.4545 1020.7369,-532.9311"/>
</g>
<!-- 46&#45;&gt;0 -->
<g id="edge11" class="edge">
<title>46&#45;&gt;0</title>
<path fill="none" stroke="#c0c0c0" stroke-width="2" d="M1586.4619,-72.5708C1531.5525,-58.4007 1456.1594,-38.9444 1411.8078,-27.4988"/>
<polygon fill="#c0c0c0" stroke="#c0c0c0" stroke-width="2" points="1412.5904,-24.0861 1402.033,-24.9763 1410.8412,-30.8641 1412.5904,-24.0861"/>
</g>
<!-- 47 -->
<g id="node48" class="node">
<title>47</title>
<path fill="none" stroke="#d6d856" stroke-width="2" d="M1130,-108C1130,-108 1054,-108 1054,-108 1048,-108 1042,-102 1042,-96 1042,-96 1042,-84 1042,-84 1042,-78 1048,-72 1054,-72 1054,-72 1130,-72 1130,-72 1136,-72 1142,-78 1142,-84 1142,-84 1142,-96 1142,-96 1142,-102 1136,-108 1130,-108"/>
<text text-anchor="middle" x="1092" y="-87.5" font-family="sans" font-size="10.00" fill="#000000">_copy_config_file</text>
</g>
<!-- 47&#45;&gt;0 -->
<g id="edge6" class="edge">
<title>47&#45;&gt;0</title>
<path fill="none" stroke="#c0c0c0" stroke-width="2" d="M1142.1531,-74.4769C1145.1413,-73.6211 1148.1072,-72.7892 1151,-72 1216.5206,-54.1248 1293.6551,-36.2088 1338.1822,-26.1678"/>
<polygon fill="#c0c0c0" stroke="#c0c0c0" stroke-width="2" points="1338.9833,-29.5752 1347.9731,-23.9685 1337.4491,-22.7453 1338.9833,-29.5752"/>
</g>
<!-- 48 -->
<g id="node49" class="node">
<title>48</title>
<path fill="none" stroke="#56d0d8" stroke-width="2" d="M1315.5,-108C1315.5,-108 1172.5,-108 1172.5,-108 1166.5,-108 1160.5,-102 1160.5,-96 1160.5,-96 1160.5,-84 1160.5,-84 1160.5,-78 1166.5,-72 1172.5,-72 1172.5,-72 1315.5,-72 1315.5,-72 1321.5,-72 1327.5,-78 1327.5,-84 1327.5,-84 1327.5,-96 1327.5,-96 1327.5,-102 1321.5,-108 1315.5,-108"/>
<text text-anchor="middle" x="1244" y="-87.5" font-family="sans" font-size="10.00" fill="#000000">_copy_exomedepth_config_file</text>
</g>
<!-- 48&#45;&gt;0 -->
<g id="edge14" class="edge">
<title>48&#45;&gt;0</title>
<path fill="none" stroke="#c0c0c0" stroke-width="2" d="M1277.0568,-71.8314C1295.9017,-61.4739 1319.5399,-48.4819 1338.8725,-37.8563"/>
<polygon fill="#c0c0c0" stroke="#c0c0c0" stroke-width="2" points="1340.6198,-40.8898 1347.6976,-33.0059 1337.2481,-34.7553 1340.6198,-40.8898"/>
</g>
<!-- 49&#45;&gt;0 -->
<g id="edge7" class="edge">
<title>49&#45;&gt;0</title>
<path fill="none" stroke="#c0c0c0" stroke-width="2" d="M1416.0474,-143.7623C1407.9956,-119.0928 1393.5584,-74.8598 1384.1301,-45.9731"/>
<polygon fill="#c0c0c0" stroke="#c0c0c0" stroke-width="2" points="1387.3344,-44.5101 1380.9043,-36.0896 1380.6799,-46.6821 1387.3344,-44.5101"/>
</g>
<!-- 50&#45;&gt;28 -->
<g id="edge61" class="edge">
<title>50&#45;&gt;28</title>
<path fill="none" stroke="#c0c0c0" stroke-width="2" d="M955.8032,-505.1192C940.6607,-495.7204 921.5721,-483.8723 904.9765,-473.5716"/>
<polygon fill="#c0c0c0" stroke="#c0c0c0" stroke-width="2" points="906.3964,-470.3336 896.0542,-468.0336 902.7048,-476.2811 906.3964,-470.3336"/>
</g>
<!-- 51&#45;&gt;0 -->
<g id="edge9" class="edge">
<title>51&#45;&gt;0</title>
<path fill="none" stroke="#c0c0c0" stroke-width="2" d="M570.0108,-73.3692C573.041,-72.8741 576.0461,-72.4145 579,-72 869.0142,-31.3038 1222.9411,-20.9956 1337.3896,-18.6398"/>
<polygon fill="#c0c0c0" stroke="#c0c0c0" stroke-width="2" points="1337.7786,-22.1329 1347.7075,-18.4359 1337.6402,-15.1343 1337.7786,-22.1329"/>
</g>
</g>
</svg>
